<svg width="92" height="93" viewBox="0 0 92 93" fill="none" xmlns="http://www.w3.org/2000/svg">
<path d="M81.9795 26.203C81.0463 24.1275 79.9545 22.1385 78.7042 20.2576C76.1459 16.3553 72.9606 12.9034 69.2997 10.0388C62.0211 4.33848 52.8545 0.937012 42.8951 0.937012C19.229 0.937012 0.0380859 20.1279 0.0380859 43.794C0.0380859 53.9624 3.58729 63.3128 9.51463 70.6599C7.09685 65.2946 5.75284 59.3493 5.75284 53.0868C5.75284 29.4135 24.9437 10.2298 48.6099 10.2298C49.4422 10.2298 50.2782 10.255 51.0961 10.3055C58.1981 10.709 64.8389 12.8421 70.5969 16.2977C74.9532 18.8992 78.8087 22.2646 81.9795 26.203Z" fill="#7944EF"/>
<path d="M91.9611 59.1554C91.5432 60.0093 91.0892 60.8417 90.6027 61.6488C88.7651 64.7152 86.4734 67.4753 83.8178 69.8354C79.7281 73.4711 74.77 76.1555 69.3003 77.5427C66.5474 78.2418 63.6684 78.6165 60.6958 78.6165C41.4616 78.6165 25.8704 63.0253 25.8704 43.7911C25.8704 41.7265 26.0469 39.705 26.3928 37.7449C24.1156 42.3714 22.84 47.5817 22.84 53.0839C22.84 68.7832 33.2246 82.054 47.4971 86.4031C50.7148 87.3868 54.127 87.9129 57.6654 87.9129C62.029 87.9129 66.1943 87.113 70.039 85.6464C77.4184 82.8431 83.5908 77.604 87.5868 70.9128V70.9056C89.7127 67.3491 91.2225 63.3856 91.9611 59.1554Z" fill="#7944EF"/>
<path d="M9.6227 53.0833C9.6227 63.8642 13.997 73.6182 21.0666 80.6769C28.1254 87.7141 37.8577 92.0668 48.6026 92.0668C50.1376 92.0668 51.6438 91.9767 53.1355 91.8002C47.3451 91.1372 41.9366 89.1986 37.2092 86.2692C26.0931 79.4086 18.6813 67.1107 18.6813 53.0833C18.6813 41.1133 24.0717 30.408 32.5646 23.2484C38.2577 18.4525 45.3489 15.2564 53.1391 14.3592C51.651 14.1826 50.1412 14.0925 48.6062 14.0925C46.1704 14.0925 43.7851 14.3123 41.4682 14.7411C23.3403 18.1065 9.6227 33.9861 9.6227 53.0833Z" fill="#7944EF"/>
</svg>
