<?xml version="1.0" encoding="utf-8"?>
<!-- Generator: Adobe Illustrator 25.0.1, SVG Export Plug-In . SVG Version: 6.00 Build 0)  -->
<svg version="1.0" id="katman_1" xmlns="http://www.w3.org/2000/svg" xmlns:xlink="http://www.w3.org/1999/xlink" x="0px" y="0px"
	 viewBox="0 0 800 600" style="enable-background:new 0 0 800 600;" xml:space="preserve">
<style type="text/css">
	.st0{enable-background:new    ;}
	.st1{fill-rule:evenodd;clip-rule:evenodd;}
</style>
<path d="M449.1,221.8h-11.2v11.8h11.2V221.8z"/>
<path d="M449.1,282.6v-43.1h-11.2v43.1H449.1z"/>
<path d="M468.7,284.5v-17.6c0-4.5,0.2-7.4,0.5-8.8c0.6-2.8,1-4.9,2.5-6.5c1.5-1.6,3.4-2.3,5.5-2.3c1.7,0,2.4,0.5,3.5,1.4
	c1.1,0.9,1.9,2.3,2.4,4.1c0.4,1.8,0.7,5.4,0.7,10.9v18.7H495v-30.3c0-5.3-1.2-9.3-3.7-12c-2.9-3.2-6.5-4.8-10.7-4.8
	c-2,0-4,0.4-6,1.3c-1.9,0.9-4.1,2.4-6.5,4.6v-4.7h-10.6v45.9H468.7z"/>
<path d="M537,239.6v4.9c-2.2-2.2-4.4-3.7-6.6-4.6s-4.5-1.4-7-1.4c-5.3,0-9.8,1.9-13.6,5.8c-4.2,4.3-6.3,9.9-6.3,16.9
	c0,6.6,2,12,5.9,16.3c4,4.3,8.8,6.4,14.6,6.4c2.6,0,5-0.4,7-1.3c2.1-0.9,4.1-2.3,6-4.2c0,3.6-0.4,6.1-1.1,7.6s-2,2.6-3.7,3.6
	c-1.8,0.9-4.1,1.4-7,1.4c-2.2,0-4.2-0.3-5.9-1c-1.6-0.6-3-1.6-4-2.8h-11.9c1,3,2.4,5.5,4.4,7.7c2,2.1,4.4,3.7,7.2,4.8
	c2.9,1.1,6.4,1.6,10.6,1.6c7.9,0,14.4-2.4,18.4-7.2c2.9-3.5,4.4-9,4.4-16.5v-37.9H537z M534.3,270.3c-2.2,2.3-4.9,3.5-8.3,3.5
	c-3.4,0-6.2-1.2-8.5-3.6c-2.3-2.4-3.4-5.5-3.4-9.2c0-3.6,1.1-6.6,3.3-9c2.2-2.4,5-3.6,8.4-3.6c3.4,0,6.2,1.2,8.4,3.5
	c2.2,2.3,3.3,5.4,3.3,9.1C537.5,264.9,536.5,268,534.3,270.3z"/>
<path d="M479.1,349.4c0-7.7-2.2-13.9-6.7-18.6c-4.5-4.7-10.3-7-17.5-7c-6.7,0-12.3,2.4-16.8,7c-4.5,4.7-6.7,10.6-6.7,17.7
	c0,6.9,2.2,12.7,6.7,17.3c4.5,4.6,10.3,6.9,17.4,6.9c4.6,0,8.6-0.8,11.9-2.5c3.3-1.7,6.2-4.2,8.6-7.7l-9.6-4.6
	c-3.1,3.1-6.7,4.6-11,4.6c-3.6,0-6.5-1-8.8-2.9c-2.3-1.9-3.7-4.6-4.2-7.9H479L479.1,349.4z M443.3,343c1.2-2.8,2.5-4.8,3.9-5.9
	c2.2-1.8,4.9-2.7,7.8-2.7c2.8,0,5.2,0.8,7.2,2.4c2.1,1.6,3.5,3.7,4.2,6.2H443.3z"/>
<path d="M547.7,372.7v-33.7h6.2v-11h-6.2v-11.1h-11.8V328h-5.4v11h5.4v33.7H547.7z"/>
<path d="M577.3,372.7c4.3,0,7.9-1,10.7-2.9c2.8-1.9,4.9-4.7,6.3-8.3c1.2-3,1.8-8.4,1.8-16.4v-19.4h-10.7v21.1c0,4.3-0.2,7.2-0.7,8.5
	c-0.6,1.8-1.5,3.1-2.8,4c-1.2,0.9-2.8,1.4-4.5,1.4c-1.8,0-3.3-0.5-4.5-1.4c-1.2-0.9-2.1-2.2-2.6-3.9c-0.6-1.7-0.8-4.7-0.8-9v-20.7
	h-10.8v19.1c0,7.3,0.4,12.4,1.3,15.2c1.2,4,3.2,7.2,6.1,9.4C568.8,371.6,572.6,372.7,577.3,372.7z"/>
<path d="M614.2,371.8v-19.3l0-2.2c0-6.2,0.6-10.4,1.6-12.5c1.1-2.1,2.4-3.2,4-3.2c0.8,0,1.8,0.3,3,1l3.2-9.6
	c-1.5-0.8-2.9-1.1-4.2-1.1c-1.9,0-3.6,0.6-5.2,1.7c-1.6,1.1-2.9,2.8-3.8,5V326h-10.2v45.8H614.2z"/>
<path d="M696.4,372.7c4.8,0,8.6-1.4,11.4-4.2c2.8-2.8,4.3-6.2,4.3-10.4c0-3.1-0.8-5.8-2.4-8.1c-1.6-2.3-4.5-4.6-8.7-6.8l-4.3-2.3
	c-1.5-0.8-2.5-1.5-2.9-2c-0.4-0.5-0.7-1.1-0.7-1.7c0-0.8,0.3-1.5,1-2.1c0.7-0.6,1.7-0.8,2.9-0.8c2.2,0,4.7,1.5,7.5,4.4l6.8-7.2
	c-1.7-2.5-3.9-4.4-6.3-5.7c-2.5-1.3-5.2-2-8-2c-4.1,0-7.5,1.3-10.2,3.9c-2.7,2.6-4,5.8-4,9.4c0,5.7,3.5,10.5,10.6,14.3l3.7,2
	c3.2,1.7,4.8,3.5,4.8,5.3c0,1-0.4,1.8-1.3,2.6c-0.9,0.7-2,1.1-3.5,1.1c-1.3,0-2.9-0.5-4.6-1.5c-1.7-1-3.2-2.3-4.5-3.9l-6.7,7.8
	C685,370.1,690.1,372.7,696.4,372.7z"/>
<path d="M427.2,257.5c-1.6-2.5-3.9-4.2-6.9-5.1l-0.4-0.1v-0.2c1.7-0.8,3.1-1.8,4.3-2.8c1.2-1,2.1-2,2.7-3.1c1.2-2.3,1.8-4.7,1.7-7.2
	c0-4.9-1.5-8.8-4.4-11.8c-2.8-2.9-7-4.4-12.6-4.5l-0.5,0h-22.8v60.8h24.8c4.6,0,8.5-1.6,11.6-4.8c3.1-3,4.7-7.2,4.8-12.5
	C429.5,263.1,428.7,260.2,427.2,257.5z M415.2,271.2c-1.1,1.6-3,2.4-5.5,2.4h-10.3v-15.9h10.3c2.5,0,4.3,0.8,5.5,2.4
	c1.2,1.5,1.7,3.4,1.7,5.6C417,267.8,416.4,269.7,415.2,271.2z M415.2,245.5c-1.2,1.6-3.1,2.4-5.6,2.4h-10V232h10
	c2.5,0.1,4.4,0.8,5.6,2.2c1.2,1.5,1.8,3.4,1.8,5.7C417,242.2,416.4,244,415.2,245.5z"/>
<path d="M409.8,355.2L398.7,310h-11.4l16.6,62.7L409.8,355.2z"/>
<path d="M404.7,372.7l-0.6-2.6l14.2-60.1h11.1L414,372.7H404.7z"/>
<path d="M497.8,372.7v-17.6c0-4.5,0.2-7.4,0.5-8.8c0.6-2.8,1-4.9,2.5-6.5c1.5-1.6,3.4-2.3,5.5-2.3c1.7,0,2.4,0.5,3.5,1.4
	c1.1,0.9,1.9,2.3,2.4,4.1c0.4,1.8,0.7,5.4,0.7,10.9v18.7H524v-30.3c0-5.3-1.2-9.3-3.7-12c-2.9-3.2-6.5-4.8-10.7-4.8
	c-2,0-4,0.4-6,1.3c-1.9,0.9-4.1,2.4-6.5,4.6v-4.7h-10.6v45.9H497.8z"/>
<path d="M676.5,349.4c0-7.7-2.2-13.9-6.7-18.6c-4.5-4.7-10.3-7-17.5-7c-6.7,0-12.3,2.4-16.8,7c-4.5,4.7-6.7,10.6-6.7,17.7
	c0,6.9,2.2,12.7,6.7,17.3c4.5,4.6,10.3,6.9,17.4,6.9c4.6,0,8.6-0.8,11.9-2.5c3.3-1.7,6.2-4.2,8.6-7.7l-9.6-4.6
	c-3.1,3.1-6.7,4.6-11,4.6c-3.6,0-6.5-1-8.8-2.9c-2.3-1.9-3.7-4.6-4.2-7.9h36.7L676.5,349.4z M640.8,343c1.2-2.8,2.5-4.8,3.9-5.9
	c2.2-1.8,4.9-2.7,7.8-2.7c2.8,0,5.2,0.8,7.2,2.4c2.1,1.6,3.5,3.7,4.2,6.2H640.8z"/>
<path class="st0" d="M225.7,351.4c-3.8,4.7-8.1,8.9-12.8,12.6c-13.1,10.3-29.5,16.5-47.3,16.5c-43.2,0-78.2-36.2-78.2-80.9
	c0-44.7,35-80.9,78.2-80.9c17.8,0,34.1,6.1,47.3,16.5c9.8,7.7,17.9,17.8,23.2,29.5c1.1,2.3,2,4.7,2.9,7.1c1.8,5.2,3.2,10.7,4,16.4
	L217.9,326l-31.4-53.3l-7.5-12.8h-32.5l39.2,74.4c2.8,4.5,5.3,7.7,7.7,9.6c0.9,0.7,1.9,1.5,2.9,2.2c4.3,3,9.6,5.6,15.9,6.3
	C217,352.9,221.5,352.5,225.7,351.4z"/>
<path d="M338.4,299.6c0,44.7-35,80.9-78.2,80.9c-17.8,0-34.1-6.1-47.3-16.5c-6.4-5-12-11.1-16.7-17.9c4.3,3,9.6,5.6,15.9,6.3
	c4.8,0.5,9.3,0.2,13.5-1c7.2-2,13.4-6.4,18.7-13.2l29.7-42.1l17.9,12.4l-3-64.7l-52.9,21c1.1,2.3,2,4.7,2.9,7.1l10.2,7l-6.2,9.4
	L217.9,326l-31.4-53.3c5.1-15,14.4-28,26.4-37.5c13.1-10.3,29.5-16.5,47.3-16.5C303.4,218.7,338.4,254.9,338.4,299.6z"/>
<path class="st1" d="M239.1,271.8l-7.6-5.2l4.7-1.9C237.3,267,238.3,269.4,239.1,271.8z"/>
</svg>
