<?xml version="1.0" encoding="utf-8"?>
<!-- Generator: Adobe Illustrator 25.0.1, SVG Export Plug-In . SVG Version: 6.00 Build 0)  -->
<svg version="1.0" id="Layer_1" xmlns="http://www.w3.org/2000/svg" xmlns:xlink="http://www.w3.org/1999/xlink" x="0px" y="0px"
	 viewBox="0 0 841.9 152.1" style="enable-background:new 0 0 841.9 152.1;" xml:space="preserve">
<g>
	<path d="M17.6,101.1v-2.3c1.6,0,2.9-0.2,3.8-0.4c1-0.2,1.7-0.6,2.2-1c0.5-0.5,0.9-1.2,1-2.1c0.2-0.9,0.3-2.1,0.3-3.5V63.3
		c0-1.4-0.1-2.6-0.2-3.5c-0.1-0.9-0.4-1.6-0.9-2.1c-0.4-0.5-1.1-0.9-1.9-1c-0.8-0.2-1.9-0.3-3.2-0.4v-2.3h18.3c5.5,0,9.8,1,12.9,2.9
		c3.1,2,4.6,4.7,4.6,8.3c0,2.7-0.8,4.9-2.5,6.6c-1.7,1.7-4.4,3.1-8.1,4.2v0.2c1.3,0.1,2.4,0.3,3.3,0.4c0.9,0.2,1.8,0.4,2.5,0.6
		c0.7,0.2,1.4,0.5,2.1,0.8c0.6,0.3,1.3,0.7,1.9,1.1c3.6,2.6,5.5,5.8,5.5,9.7c0,2.2-0.6,4.2-1.8,6c-1.2,1.9-2.9,3.3-5.1,4.4
		c-0.7,0.4-1.4,0.7-2.1,0.9c-0.7,0.2-1.6,0.4-2.6,0.6c-1,0.1-2.1,0.2-3.4,0.3c-1.3,0.1-2.8,0.1-4.6,0.1H17.6z M34.8,74.8
		c1.3,0,2.3,0,3.2-0.1c0.9,0,1.6-0.1,2.2-0.2c0.6-0.1,1.2-0.2,1.6-0.4c0.5-0.2,0.9-0.4,1.4-0.8c1.3-0.8,2.2-1.8,2.8-2.9
		c0.6-1.1,0.8-2.6,0.8-4.5c0-3.2-0.8-5.5-2.4-7c-1.6-1.4-4-2.1-7.4-2.1h-4.7c-0.7,0-1,0.3-1,1v16.9H34.8z M39.8,98.5
		c7.4,0,11.1-3.2,11.1-9.5c0-4.6-1.9-7.8-5.7-9.7c-0.7-0.3-1.3-0.5-1.9-0.7c-0.6-0.2-1.3-0.4-2.1-0.5c-0.8-0.1-1.8-0.2-2.9-0.2
		c-1.1,0-2.5-0.1-4.1-0.1h-2.8v13.7c0,2.5,0.7,4.3,2,5.4C34.6,98,36.8,98.5,39.8,98.5z"/>
	<path d="M75.1,91.6c0,1.6,0.1,2.8,0.2,3.7c0.1,0.9,0.4,1.7,0.8,2.2c0.4,0.5,0.9,0.9,1.7,1.1c0.7,0.2,1.7,0.3,2.9,0.4v2.1H63.6V99
		c1.2,0,2.2-0.2,2.9-0.4c0.7-0.2,1.3-0.6,1.7-1.1s0.7-1.2,0.9-2.1c0.1-0.9,0.2-2,0.2-3.5V65.6c0-2.2,0-4.1-0.1-5.5
		c-0.1-1.5-0.2-2.5-0.3-3c-0.2-0.9-0.7-1.6-1.4-1.9c-0.8-0.3-2.1-0.5-4.1-0.5v-2.1l11.6-2.3V91.6z"/>
	<path d="M102.1,68c2.3,0,4.5,0.4,6.6,1.3c2.1,0.8,3.9,2,5.5,3.5c1.6,1.5,2.8,3.2,3.7,5.2c0.9,2,1.4,4.2,1.4,6.7
		c0,2.5-0.5,4.8-1.4,6.9c-0.9,2.1-2.2,3.9-3.7,5.4c-1.6,1.5-3.4,2.7-5.5,3.6c-2.1,0.9-4.3,1.3-6.6,1.3c-2.3,0-4.5-0.4-6.5-1.3
		c-2.1-0.8-3.9-2-5.4-3.5c-1.6-1.5-2.8-3.3-3.7-5.4c-0.9-2.1-1.3-4.4-1.3-6.9c0-2.4,0.4-4.6,1.3-6.7c0.9-2,2.1-3.8,3.7-5.3
		c1.6-1.5,3.4-2.6,5.4-3.4C97.6,68.4,99.8,68,102.1,68z M102.1,71c-1.5,0-2.9,0.3-4.1,1c-1.2,0.7-2.3,1.6-3.2,2.8
		c-0.9,1.2-1.6,2.7-2,4.4c-0.5,1.7-0.7,3.6-0.7,5.6c0,2.1,0.2,4,0.7,5.8c0.5,1.7,1.1,3.2,2,4.4c0.9,1.2,1.9,2.1,3.2,2.8
		c1.2,0.7,2.6,1,4.2,1c1.6,0,3-0.3,4.2-1c1.3-0.7,2.3-1.6,3.2-2.8c0.9-1.2,1.6-2.7,2.1-4.4c0.5-1.7,0.7-3.6,0.7-5.7
		c0-2-0.2-3.9-0.7-5.6c-0.5-1.7-1.2-3.1-2.1-4.3c-0.9-1.2-2-2.1-3.2-2.8C105,71.3,103.6,71,102.1,71z"/>
	<path d="M153.3,96.1c-1.5,1.8-3.4,3.2-5.7,4.2c-2.3,1-4.8,1.5-7.5,1.5c-2.2,0-4.2-0.4-6-1.2c-1.8-0.8-3.4-1.9-4.7-3.4
		c-1.3-1.4-2.3-3.2-3-5.2c-0.7-2-1.1-4.3-1.1-6.8c0-2.6,0.4-5,1.2-7.1c0.8-2.1,2-3.9,3.5-5.4c1.5-1.5,3.3-2.6,5.4-3.4
		c2.1-0.8,4.4-1.2,7-1.2c1.6,0,3,0.1,4.4,0.4c1.3,0.3,2.4,0.6,3.4,1.1c1,0.5,1.7,1,2.2,1.7c0.5,0.7,0.8,1.4,0.8,2.2
		c0,0.8-0.3,1.5-0.8,1.9c-0.5,0.5-1.3,0.7-2.2,0.7c-0.7,0-1.3-0.2-1.8-0.5c-0.5-0.3-1.1-1-1.9-2.1c-0.8-0.9-1.6-1.6-2.4-2
		c-0.8-0.4-1.7-0.6-2.9-0.6c-2.9,0-5.1,1.1-6.6,3.4c-1.5,2.2-2.2,5.6-2.2,9.9c0,4.7,0.8,8.3,2.5,10.7c1.7,2.4,4.1,3.6,7.3,3.6
		c1.7,0,3.3-0.3,4.8-1c1.5-0.7,3-1.8,4.6-3.3L153.3,96.1z"/>
	<path d="M176.4,99c1.3,0,2.3-0.1,2.8-0.2c0.5-0.1,0.8-0.3,0.8-0.5c0-0.3-0.4-0.9-1-1.8s-1.4-1.9-2.4-3.1l-6.5-7.8l-2.3,2.1v3.6
		c0,1.6,0.1,2.9,0.2,3.8c0.1,1,0.4,1.7,0.8,2.3c0.4,0.6,1,0.9,1.7,1.1c0.8,0.2,1.7,0.3,3,0.4v2.1h-17.4V99c1.2,0,2.2-0.2,3-0.4
		c0.8-0.2,1.3-0.6,1.8-1.1c0.4-0.5,0.7-1.2,0.9-2.1c0.2-0.9,0.2-2.1,0.2-3.6V66.1c0-3.1,0-5.5-0.1-7c-0.1-1.6-0.3-2.7-0.6-3.2
		c-0.4-0.6-1-0.9-1.8-1c-0.9-0.1-2-0.2-3.4-0.2v-2.1l11.8-2.3v33.7l5.7-5.6c1.8-1.8,3.2-3.2,4.1-4.1c0.9-0.9,1.3-1.5,1.3-2
		c0-0.4-0.4-0.8-1.3-1.1c-0.9-0.3-2.1-0.4-3.7-0.4v-2.1H190v2.1c-0.8,0-1.5,0-2,0.1c-0.6,0.1-1.1,0.2-1.6,0.5
		c-0.5,0.2-1.1,0.6-1.6,1c-0.6,0.4-1.2,1-2,1.6l-8.8,7.8l12.1,13.7c0.6,0.7,1.1,1.3,1.6,1.7c0.5,0.4,0.9,0.8,1.4,1
		c0.5,0.2,1,0.4,1.5,0.5c0.6,0.1,1.2,0.2,2,0.2v2.1h-16.1V99z"/>
	<path d="M221.6,96.1c-1.5,1.8-3.4,3.2-5.7,4.2c-2.3,1-4.8,1.5-7.5,1.5c-2.2,0-4.2-0.4-6-1.2c-1.8-0.8-3.4-1.9-4.7-3.4
		c-1.3-1.4-2.3-3.2-3-5.2c-0.7-2-1.1-4.3-1.1-6.8c0-2.6,0.4-5,1.2-7.1c0.8-2.1,2-3.9,3.5-5.4c1.5-1.5,3.3-2.6,5.4-3.4
		c2.1-0.8,4.4-1.2,7-1.2c1.6,0,3,0.1,4.4,0.4c1.3,0.3,2.4,0.6,3.4,1.1c1,0.5,1.7,1,2.2,1.7c0.5,0.7,0.8,1.4,0.8,2.2
		c0,0.8-0.3,1.5-0.8,1.9c-0.5,0.5-1.3,0.7-2.2,0.7c-0.7,0-1.3-0.2-1.8-0.5c-0.5-0.3-1.1-1-1.9-2.1c-0.8-0.9-1.6-1.6-2.4-2
		c-0.8-0.4-1.7-0.6-2.9-0.6c-2.9,0-5.1,1.1-6.6,3.4c-1.5,2.2-2.2,5.6-2.2,9.9c0,4.7,0.8,8.3,2.5,10.7c1.7,2.4,4.1,3.6,7.3,3.6
		c1.7,0,3.3-0.3,4.8-1c1.5-0.7,3-1.8,4.6-3.3L221.6,96.1z"/>
	<path d="M236.2,91.4c0,1.7,0,3,0.1,4c0.1,1,0.3,1.7,0.6,2.2c0.3,0.5,0.8,0.8,1.5,1c0.7,0.2,1.6,0.3,2.8,0.4v2.1h-16.3V99
		c1.2-0.1,2.1-0.2,2.8-0.4c0.7-0.2,1.2-0.5,1.6-1c0.4-0.5,0.6-1.2,0.7-2.1c0.1-0.9,0.2-2.2,0.2-3.7V66.1c0-2.4,0-4.3-0.1-5.8
		c-0.1-1.4-0.2-2.5-0.3-3.2c-0.1-0.5-0.2-0.9-0.4-1.2c-0.2-0.3-0.5-0.6-0.8-0.7s-0.9-0.3-1.5-0.4c-0.6-0.1-1.4-0.1-2.3-0.1v-2.1
		l11.3-2.3v23.4h0.2c0.6-0.8,1.4-1.6,2.3-2.2c0.9-0.7,1.9-1.3,3-1.7c1.1-0.5,2.2-0.9,3.3-1.2c1.2-0.3,2.3-0.4,3.4-0.4
		c1.9,0,3.6,0.3,5.2,1c1.6,0.7,2.8,1.5,3.6,2.6c0.7,0.9,1.2,2.2,1.5,3.7c0.3,1.5,0.5,3.6,0.5,6.2v9.8c0,1.7,0,3,0.1,4
		c0.1,1,0.3,1.7,0.6,2.2c0.3,0.5,0.8,0.9,1.5,1c0.7,0.2,1.6,0.3,2.8,0.4v2.1H248V99c1.1,0,2.1-0.2,2.8-0.3c0.7-0.2,1.2-0.5,1.6-1
		c0.3-0.5,0.6-1.2,0.7-2.1c0.1-0.9,0.2-2.2,0.2-3.7v-7.7c0-4.6-0.5-7.8-1.6-9.8c-1.1-1.9-2.8-2.9-5.3-2.9c-1.9,0-3.7,0.5-5.2,1.5
		c-1.6,1-2.8,2.3-3.7,4c-0.2,0.5-0.4,0.9-0.5,1.3c-0.1,0.4-0.3,0.8-0.3,1.3c-0.1,0.5-0.1,1.1-0.2,1.7c0,0.6,0,1.4,0,2.4V91.4z"/>
	<path d="M287,80.4v-2.5c0-5-2.1-7.5-6.4-7.5c-0.7,0-1.3,0.1-1.8,0.2c-0.5,0.1-0.9,0.3-1.2,0.6c-0.3,0.3-0.6,0.7-0.9,1.2
		c-0.3,0.5-0.5,1.2-0.8,2c-0.5,1.2-0.9,2-1.3,2.4c-0.4,0.4-1.1,0.6-1.9,0.6c-2,0-3.1-1-3.1-3.1c0-2,1-3.5,3.1-4.6
		c2.1-1.1,5-1.6,8.9-1.6c4.1,0,7,0.7,8.7,2.2c1.7,1.5,2.6,3.9,2.6,7.4v13.7c0,4.7,0.9,7,2.8,7c0.6,0,1.1-0.1,1.7-0.2
		c0.5-0.1,1-0.5,1.3-1.1l0.9,1.5c-0.5,0.9-1.4,1.7-2.7,2.4c-1.3,0.6-2.7,1-4.1,1c-1.8,0-3.1-0.6-4-1.7c-0.9-1.1-1.3-2.8-1.3-4.8
		h-0.3c-1.1,2-2.5,3.6-4.4,4.8c-1.9,1.2-4,1.7-6.3,1.7c-2.6,0-4.6-0.7-6.1-2c-1.5-1.3-2.2-3.1-2.2-5.3c0-1,0.2-1.9,0.5-2.8
		c0.3-0.9,0.9-1.8,1.7-2.6c0.8-0.8,1.8-1.6,3.1-2.4c1.3-0.8,2.8-1.6,4.7-2.4L287,80.4z M287,83c-2.3,0.9-4.3,1.8-5.9,2.6
		c-1.6,0.9-2.9,1.7-3.9,2.6c-1,0.9-1.7,1.7-2.1,2.6c-0.4,0.9-0.6,1.7-0.6,2.6c0,1.3,0.4,2.5,1.3,3.3c0.9,0.9,2.1,1.3,3.6,1.3
		c1.1,0,2.1-0.3,3-0.8c0.9-0.5,1.7-1.3,2.4-2.2c0.7-0.9,1.2-2,1.7-3.2c0.4-1.2,0.6-2.6,0.6-4V83z"/>
	<path d="M313.6,91.4c0,1.6,0.1,2.9,0.2,3.8c0.1,1,0.4,1.7,0.8,2.3c0.4,0.6,1,0.9,1.7,1.1c0.7,0.2,1.7,0.3,2.9,0.4v2.1h-17.6V99
		c1.2,0,2.2-0.2,3-0.4c0.8-0.2,1.4-0.6,1.8-1.1c0.4-0.5,0.7-1.2,0.9-2.1c0.1-0.9,0.2-2.1,0.2-3.5V84c0-2.4,0-4.3-0.1-5.9
		c-0.1-1.5-0.2-2.6-0.3-3.2c-0.2-0.9-0.7-1.6-1.4-1.9c-0.7-0.3-2.1-0.5-4.2-0.5v-2.1l12-2.3V91.4z M306.5,55.6c0-1.1,0.4-2,1.1-2.7
		c0.7-0.7,1.6-1.1,2.7-1.1c1.1,0,2,0.4,2.7,1.1c0.7,0.7,1.1,1.6,1.1,2.7c0,1.1-0.4,2-1.1,2.7c-0.7,0.7-1.6,1.1-2.7,1.1
		c-1.1,0-2-0.4-2.7-1.1C306.9,57.6,306.5,56.7,306.5,55.6z"/>
	<path d="M333.7,91.5c0,1.7,0,3,0.1,4c0.1,1,0.3,1.7,0.6,2.2c0.3,0.5,0.9,0.8,1.5,1c0.7,0.2,1.6,0.3,2.8,0.4v2.1h-16.1v-2.1
		c1.1-0.1,2.1-0.2,2.7-0.4c0.7-0.2,1.2-0.5,1.6-1s0.6-1.2,0.7-2.1c0.1-0.9,0.2-2.1,0.2-3.7v-8.2c0-4.9-0.1-7.8-0.4-8.9
		c-0.1-0.5-0.3-1-0.5-1.3c-0.2-0.3-0.5-0.6-0.8-0.8s-0.8-0.3-1.4-0.4c-0.6-0.1-1.3-0.1-2.2-0.1v-2l9.8-2.3l0.7,6.1h0.2
		c1.6-1.9,3.4-3.4,5.5-4.5c2.1-1.1,4.4-1.6,6.8-1.6c1.9,0,3.6,0.3,5.1,0.9c1.6,0.6,2.7,1.5,3.6,2.5c0.7,0.9,1.2,2.2,1.5,3.6
		c0.3,1.5,0.4,3.5,0.4,6.2v10.2c0,1.7,0,3,0.2,4c0.1,1,0.3,1.7,0.6,2.2c0.3,0.5,0.8,0.8,1.5,1c0.7,0.2,1.6,0.3,2.7,0.4v2.1h-15.9
		v-2.1c1.1,0,2.1-0.2,2.7-0.3c0.7-0.2,1.2-0.5,1.5-1c0.3-0.5,0.6-1.2,0.7-2.1c0.1-0.9,0.2-2.1,0.2-3.6v-8.1c0-2.3-0.1-4.3-0.4-5.9
		c-0.2-1.6-0.6-2.9-1.2-3.9c-0.6-1-1.3-1.7-2.2-2.1c-0.9-0.4-2-0.6-3.2-0.6c-1.8,0-3.5,0.5-5.1,1.4c-1.5,1-2.7,2.3-3.6,4
		c-0.2,0.4-0.4,0.8-0.5,1.2c-0.1,0.4-0.3,0.8-0.3,1.3c-0.1,0.5-0.1,1.1-0.2,1.7c0,0.6-0.1,1.4-0.1,2.4V91.5z"/>
	<path d="M382.7,101.1v-2.3c1.6,0,2.9-0.2,3.8-0.4c1-0.2,1.7-0.6,2.2-1c0.5-0.5,0.9-1.2,1-2.1c0.2-0.9,0.3-2.1,0.3-3.5V63.3
		c0-1.4-0.1-2.6-0.2-3.5c-0.1-0.9-0.4-1.6-0.9-2.1c-0.4-0.5-1.1-0.9-1.9-1c-0.8-0.2-1.9-0.3-3.2-0.4v-2.3h18.3c5.5,0,9.8,1,12.9,2.9
		c3.1,2,4.6,4.7,4.6,8.3c0,2.7-0.8,4.9-2.5,6.6c-1.7,1.7-4.4,3.1-8.1,4.2v0.2c1.3,0.1,2.4,0.3,3.3,0.4c0.9,0.2,1.8,0.4,2.5,0.6
		c0.7,0.2,1.4,0.5,2.1,0.8c0.6,0.3,1.3,0.7,1.9,1.1c3.6,2.6,5.5,5.8,5.5,9.7c0,2.2-0.6,4.2-1.8,6c-1.2,1.9-2.9,3.3-5.1,4.4
		c-0.7,0.4-1.4,0.7-2.1,0.9c-0.7,0.2-1.6,0.4-2.6,0.6c-1,0.1-2.1,0.2-3.4,0.3c-1.3,0.1-2.8,0.1-4.6,0.1H382.7z M399.9,74.8
		c1.3,0,2.3,0,3.2-0.1c0.9,0,1.6-0.1,2.2-0.2c0.6-0.1,1.2-0.2,1.6-0.4c0.5-0.2,1-0.4,1.4-0.8c1.3-0.8,2.2-1.8,2.8-2.9
		c0.6-1.1,0.8-2.6,0.8-4.5c0-3.2-0.8-5.5-2.4-7c-1.6-1.4-4-2.1-7.4-2.1h-4.7c-0.7,0-1,0.3-1,1v16.9H399.9z M404.9,98.5
		c7.4,0,11.1-3.2,11.1-9.5c0-4.6-1.9-7.8-5.7-9.7c-0.7-0.3-1.3-0.5-1.9-0.7c-0.6-0.2-1.3-0.4-2.1-0.5c-0.8-0.1-1.8-0.2-2.9-0.2
		c-1.1,0-2.5-0.1-4.1-0.1h-2.8v13.7c0,2.5,0.7,4.3,2,5.4C399.7,98,401.9,98.5,404.9,98.5z"/>
	<path d="M455.4,78.5c0-1.7,0-3-0.1-4c-0.1-1-0.3-1.7-0.6-2.2c-0.3-0.5-0.9-0.9-1.5-1c-0.7-0.2-1.6-0.3-2.8-0.5v-2.1h11.1v18.8
		c0,2.3,0,4.2,0.1,5.7c0.1,1.5,0.2,2.6,0.3,3.3c0.1,0.5,0.2,1,0.4,1.3c0.2,0.3,0.5,0.6,0.8,0.7s0.8,0.3,1.4,0.4
		c0.6,0.1,1.4,0.1,2.3,0.1v2.1l-10.1,0.7l-0.7-7.4h-0.2c-1.6,2.5-3.3,4.4-5.4,5.5c-2,1.2-4.1,1.7-6.3,1.7c-1.7,0-3.4-0.3-5-1
		c-1.6-0.7-2.8-1.5-3.6-2.6c-0.7-0.9-1.2-2.1-1.5-3.7c-0.3-1.6-0.5-3.7-0.5-6.2v-9.7c0-1.7,0-3-0.1-4c-0.1-1-0.3-1.7-0.6-2.2
		c-0.3-0.5-0.9-0.9-1.5-1c-0.7-0.2-1.6-0.3-2.8-0.5v-2.1h11.1v16.7c0,4.5,0.5,7.7,1.6,9.7c1,2,2.7,3,5,3c3.6,0,6.4-2.3,8.4-7
		c0.2-0.5,0.4-0.9,0.5-1.3c0.1-0.4,0.2-0.9,0.3-1.3c0.1-0.5,0.1-1,0.2-1.7c0-0.6,0.1-1.3,0.1-2.2V78.5z"/>
	<path d="M482.1,91.4c0,1.6,0.1,2.9,0.2,3.8c0.1,1,0.4,1.7,0.8,2.3c0.4,0.6,1,0.9,1.7,1.1c0.7,0.2,1.7,0.3,2.9,0.4v2.1h-17.6V99
		c1.2,0,2.2-0.2,3-0.4c0.8-0.2,1.4-0.6,1.8-1.1c0.4-0.5,0.7-1.2,0.9-2.1c0.1-0.9,0.2-2.1,0.2-3.5V84c0-2.4,0-4.3-0.1-5.9
		c-0.1-1.5-0.2-2.6-0.3-3.2c-0.2-0.9-0.7-1.6-1.4-1.9c-0.7-0.3-2.1-0.5-4.2-0.5v-2.1l12-2.3V91.4z M475,55.6c0-1.1,0.4-2,1.1-2.7
		c0.7-0.7,1.6-1.1,2.7-1.1c1.1,0,2,0.4,2.7,1.1c0.7,0.7,1.1,1.6,1.1,2.7c0,1.1-0.4,2-1.1,2.7c-0.7,0.7-1.6,1.1-2.7,1.1
		c-1.1,0-2-0.4-2.7-1.1C475.4,57.6,475,56.7,475,55.6z"/>
	<path d="M501.8,91.6c0,1.6,0.1,2.8,0.2,3.7c0.1,0.9,0.4,1.7,0.8,2.2c0.4,0.5,0.9,0.9,1.7,1.1c0.7,0.2,1.7,0.3,2.8,0.4v2.1h-16.9V99
		c1.2,0,2.2-0.2,2.9-0.4c0.7-0.2,1.3-0.6,1.7-1.1c0.4-0.5,0.7-1.2,0.9-2.1c0.1-0.9,0.2-2,0.2-3.5V65.6c0-2.2,0-4.1-0.1-5.5
		c-0.1-1.5-0.2-2.5-0.3-3c-0.2-0.9-0.7-1.6-1.4-1.9c-0.8-0.3-2.1-0.5-4.1-0.5v-2.1l11.6-2.3V91.6z"/>
	<path d="M538.6,96h-0.2c-1.5,2.1-3,3.6-4.7,4.4c-1.7,0.9-3.6,1.3-5.9,1.3c-2.3,0-4.5-0.4-6.4-1.3c-1.9-0.8-3.6-2-5-3.5
		c-1.4-1.5-2.5-3.3-3.3-5.4c-0.8-2.1-1.2-4.4-1.2-6.8c0-2.4,0.4-4.6,1.2-6.7c0.8-2.1,1.9-3.8,3.3-5.3c1.4-1.5,3.1-2.7,5.1-3.5
		c2-0.8,4.1-1.3,6.4-1.3c2,0,3.7,0.3,5.2,1c1.5,0.7,3,1.7,4.4,3.1v-6.3c0-2.3,0-4.3-0.1-5.8c-0.1-1.6-0.2-2.6-0.3-3.2
		c-0.2-0.9-0.8-1.5-1.7-1.9c-0.9-0.4-2.5-0.6-4.6-0.6v-1.8l12.6-2.3v35.4c0,2.8,0,5.1,0.1,7c0,1.8,0.2,3.1,0.4,3.9
		c0.1,0.5,0.3,0.9,0.5,1.2c0.2,0.3,0.4,0.6,0.8,0.8c0.3,0.2,0.8,0.3,1.4,0.4c0.6,0.1,1.4,0.1,2.3,0.1v2.1l-10.2,0.7V96z M537.4,82.4
		c0-2.1-0.1-3.7-0.3-4.8c-0.2-1.1-0.7-2.1-1.3-2.9c-0.9-1.2-2.1-2.2-3.6-2.8c-1.5-0.6-2.9-1-4.3-1c-2.9,0-5.2,1.2-6.7,3.6
		c-1.5,2.4-2.3,5.7-2.3,9.9c0,2.2,0.2,4.1,0.6,5.9c0.4,1.8,1,3.3,1.7,4.5c0.8,1.2,1.7,2.2,2.8,2.9c1.1,0.7,2.4,1,3.9,1
		c0.7,0,1.5-0.1,2.2-0.2c0.8-0.2,1.5-0.4,2.2-0.8c0.7-0.3,1.4-0.8,2-1.2c0.6-0.5,1.1-1,1.5-1.6c0.6-0.9,1-2,1.2-3.2
		c0.2-1.3,0.4-3,0.4-5.2V82.4z"/>
	<path d="M582.3,95.4c-3.5,4.2-7.8,6.3-12.9,6.3c-2.4,0-4.6-0.4-6.6-1.2c-2-0.8-3.6-1.9-5.1-3.4c-1.4-1.4-2.5-3.2-3.3-5.2
		c-0.8-2-1.2-4.3-1.2-6.7c0-2.5,0.4-4.8,1.2-6.9c0.8-2.1,2-3.9,3.5-5.5c1.5-1.5,3.3-2.7,5.3-3.6c2.1-0.9,4.3-1.3,6.8-1.3
		c4,0,7,1.1,9.2,3.2c2.2,2.1,3.2,5.2,3.2,9.2c0,0.6-0.1,0.9-0.3,1c-0.2,0.1-0.7,0.2-1.6,0.2h-20.2c-0.1,0.3-0.1,0.7-0.2,1.2
		c0,0.5-0.1,1-0.1,1.6c0,2.1,0.3,4.1,0.8,5.8c0.5,1.7,1.2,3.2,2.2,4.4c1,1.2,2.1,2.2,3.4,2.9c1.3,0.7,2.8,1,4.4,1
		c1.7,0,3.3-0.4,4.8-1.1c1.5-0.8,3-2,4.5-3.7L582.3,95.4z M572.2,78.9c0.8,0,1.5,0,2-0.1c0.5,0,0.9-0.1,1.1-0.2
		c0.2-0.1,0.4-0.3,0.5-0.5c0.1-0.2,0.1-0.5,0.1-0.9c0-1.9-0.6-3.4-1.8-4.5c-1.2-1.1-2.8-1.7-4.9-1.7c-4.4,0-7.2,2.6-8.2,7.9H572.2z"
		/>
	<path d="M599.1,91.4c0,1.7,0,3,0.1,4c0.1,1,0.3,1.7,0.6,2.2c0.3,0.5,0.8,0.8,1.5,1c0.7,0.2,1.6,0.3,2.8,0.4v2.1h-16.3V99
		c1.2,0,2.1-0.2,2.8-0.3c0.7-0.2,1.2-0.5,1.6-1c0.4-0.5,0.6-1.2,0.7-2.1c0.1-0.9,0.2-2.2,0.2-3.7v-7.2c0-2.8,0-4.9-0.1-6.5
		c-0.1-1.6-0.3-2.7-0.6-3.4c-0.3-0.7-0.9-1.2-1.6-1.3c-0.7-0.1-1.8-0.2-3.1-0.2V71l10.7-2.3l0.9,7.6h0.2c0.5-1.2,1.2-2.3,2-3.4
		c0.8-1,1.7-1.9,2.6-2.6c0.9-0.7,1.9-1.3,2.9-1.7c1-0.4,2.1-0.6,3.1-0.6c1.3,0,2.3,0.3,3.1,1s1.1,1.5,1.1,2.5c0,1-0.3,1.7-0.9,2.3
		c-0.6,0.6-1.5,0.8-2.6,0.8c-0.7,0-1.2-0.1-1.7-0.2c-0.5-0.2-0.8-0.3-1.2-0.5c-0.3-0.2-0.7-0.4-1-0.5c-0.3-0.2-0.6-0.2-1-0.2
		c-1.1,0-2.2,0.7-3.3,2.1c-1.1,1.4-2,3.2-2.6,5.4c-0.3,1.2-0.6,2.5-0.8,4c-0.2,1.5-0.3,3.1-0.3,4.7V91.4z"/>
	<path d="M620,101.1h-1.3V90.6h1.5c1.6,5.8,4.5,8.6,8.7,8.6c1.6,0,2.9-0.4,3.9-1.2s1.4-2,1.4-3.6c0-0.6-0.1-1.1-0.3-1.6
		c-0.2-0.4-0.5-0.9-1-1.3c-0.5-0.5-1.2-1-2.1-1.6c-0.9-0.6-2.1-1.4-3.6-2.3c-1.4-0.9-2.6-1.7-3.6-2.4c-1-0.7-1.9-1.5-2.6-2.2
		c-0.7-0.8-1.2-1.6-1.6-2.4c-0.3-0.9-0.5-1.9-0.5-3c0-1.4,0.2-2.7,0.7-3.8c0.5-1.2,1.1-2.2,1.9-3c0.8-0.8,1.8-1.5,2.9-1.9
		c1.1-0.5,2.3-0.7,3.6-0.7c1.1,0,2.2,0.2,3.4,0.5c1.2,0.3,2.2,0.8,3.1,1.4l1.2-1.3h1.2v8.8h-1.6c-0.9-2.5-1.9-4.3-2.9-5.3
		c-1.1-1.1-2.4-1.6-3.9-1.6c-1.4,0-2.5,0.4-3.3,1.1c-0.8,0.7-1.3,1.8-1.3,3.1c0,0.7,0.1,1.3,0.3,1.8c0.2,0.5,0.6,1,1.1,1.5
		c0.5,0.5,1.1,1,1.9,1.5c0.8,0.5,1.7,1.1,2.7,1.7c1.8,1.1,3.3,2.1,4.5,2.9c1.2,0.9,2.3,1.7,3,2.5c0.8,0.8,1.3,1.7,1.7,2.6
		c0.4,0.9,0.6,1.9,0.6,3.1c0,2.9-0.9,5.2-2.8,6.8c-1.9,1.7-4.4,2.5-7.4,2.5c-3.2,0-5.9-0.9-8.2-2.8L620,101.1z"/>
	<path d="M676,91.4c0,1.6,0.1,2.8,0.3,3.8c0.2,1,0.6,1.7,1.2,2.2c0.6,0.5,1.5,0.9,2.6,1.1c1.1,0.2,2.6,0.3,4.4,0.4v2.3h-21.7v-2.3
		c1.4,0,2.6-0.2,3.5-0.4c0.9-0.2,1.6-0.6,2.1-1c0.5-0.5,0.8-1.2,1-2.1c0.2-0.9,0.2-2.1,0.2-3.5V63.3c0-1.4-0.1-2.6-0.2-3.5
		c-0.1-0.9-0.4-1.6-0.9-2.1c-0.4-0.5-1.1-0.9-1.9-1c-0.8-0.2-1.9-0.3-3.2-0.4v-2.3h35.4l0.7,11.7h-2.1c-0.2-1.8-0.6-3.2-1.2-4.3
		c-0.5-1.1-1.3-2-2.2-2.7c-1-0.7-2.2-1.1-3.6-1.4c-1.5-0.3-3.3-0.4-5.5-0.4h-7.8c-0.7,0-1,0.3-1,1v18.5c2,0,3.6-0.1,5.1-0.3
		c1.4-0.2,2.6-0.6,3.5-1.2c0.9-0.6,1.6-1.3,2.1-2.3c0.5-1,0.8-2.2,0.9-3.8h2.1v18h-2.1c-0.2-1.6-0.5-2.8-1-3.9c-0.5-1-1.1-1.8-2-2.4
		c-0.9-0.6-2-1-3.4-1.2c-1.4-0.2-3.1-0.4-5.2-0.4V91.4z"/>
	<path d="M729.6,78.5c0-1.7,0-3-0.1-4c-0.1-1-0.3-1.7-0.6-2.2c-0.3-0.5-0.9-0.9-1.5-1c-0.7-0.2-1.6-0.3-2.8-0.5v-2.1h11.1v18.8
		c0,2.3,0,4.2,0.1,5.7c0.1,1.5,0.2,2.6,0.3,3.3c0.1,0.5,0.2,1,0.4,1.3c0.2,0.3,0.5,0.6,0.8,0.7s0.8,0.3,1.4,0.4
		c0.6,0.1,1.4,0.1,2.3,0.1v2.1l-10.1,0.7l-0.7-7.4h-0.2c-1.6,2.5-3.3,4.4-5.4,5.5c-2,1.2-4.1,1.7-6.3,1.7c-1.7,0-3.4-0.3-5-1
		c-1.6-0.7-2.8-1.5-3.6-2.6c-0.7-0.9-1.2-2.1-1.5-3.7c-0.3-1.6-0.5-3.7-0.5-6.2v-9.7c0-1.7,0-3-0.1-4c-0.1-1-0.3-1.7-0.6-2.2
		c-0.3-0.5-0.9-0.9-1.5-1c-0.7-0.2-1.6-0.3-2.8-0.5v-2.1h11.1v16.7c0,4.5,0.5,7.7,1.6,9.7c1,2,2.7,3,5,3c3.6,0,6.4-2.3,8.4-7
		c0.2-0.5,0.4-0.9,0.5-1.3c0.1-0.4,0.2-0.9,0.3-1.3c0.1-0.5,0.1-1,0.2-1.7c0-0.6,0.1-1.3,0.1-2.2V78.5z"/>
	<path d="M755.5,91.5c0,1.7,0,3,0.1,4c0.1,1,0.3,1.7,0.6,2.2c0.3,0.5,0.9,0.8,1.5,1c0.7,0.2,1.6,0.3,2.8,0.4v2.1h-16.1v-2.1
		c1.1-0.1,2.1-0.2,2.7-0.4c0.7-0.2,1.2-0.5,1.6-1s0.6-1.2,0.7-2.1c0.1-0.9,0.2-2.1,0.2-3.7v-8.2c0-4.9-0.1-7.8-0.4-8.9
		c-0.1-0.5-0.3-1-0.5-1.3c-0.2-0.3-0.5-0.6-0.8-0.8s-0.8-0.3-1.4-0.4c-0.6-0.1-1.3-0.1-2.2-0.1v-2l9.8-2.3l0.7,6.1h0.2
		c1.6-1.9,3.4-3.4,5.5-4.5c2.1-1.1,4.4-1.6,6.8-1.6c1.9,0,3.6,0.3,5.1,0.9s2.7,1.5,3.6,2.5c0.7,0.9,1.2,2.2,1.5,3.6
		c0.3,1.5,0.4,3.5,0.4,6.2v10.2c0,1.7,0,3,0.2,4c0.1,1,0.3,1.7,0.6,2.2c0.3,0.5,0.8,0.8,1.5,1c0.7,0.2,1.6,0.3,2.7,0.4v2.1h-15.9
		v-2.1c1.1,0,2.1-0.2,2.7-0.3c0.7-0.2,1.2-0.5,1.5-1c0.3-0.5,0.6-1.2,0.7-2.1c0.1-0.9,0.2-2.1,0.2-3.6v-8.1c0-2.3-0.1-4.3-0.4-5.9
		c-0.2-1.6-0.6-2.9-1.2-3.9c-0.6-1-1.3-1.7-2.2-2.1c-0.9-0.4-2-0.6-3.2-0.6c-1.8,0-3.5,0.5-5.1,1.4c-1.5,1-2.7,2.3-3.6,4
		c-0.2,0.4-0.4,0.8-0.5,1.2c-0.1,0.4-0.3,0.8-0.3,1.3c-0.1,0.5-0.1,1.1-0.2,1.7c0,0.6-0.1,1.4-0.1,2.4V91.5z"/>
	<path d="M814.2,96h-0.2c-1.5,2.1-3,3.6-4.7,4.4c-1.7,0.9-3.6,1.3-5.9,1.3c-2.3,0-4.5-0.4-6.4-1.3c-1.9-0.8-3.6-2-5-3.5
		c-1.4-1.5-2.5-3.3-3.3-5.4c-0.8-2.1-1.2-4.4-1.2-6.8c0-2.4,0.4-4.6,1.2-6.7c0.8-2.1,1.9-3.8,3.3-5.3c1.4-1.5,3.1-2.7,5.1-3.5
		c2-0.8,4.1-1.3,6.4-1.3c2,0,3.7,0.3,5.2,1c1.5,0.7,3,1.7,4.4,3.1v-6.3c0-2.3,0-4.3-0.1-5.8c-0.1-1.6-0.2-2.6-0.3-3.2
		c-0.2-0.9-0.8-1.5-1.7-1.9c-0.9-0.4-2.5-0.6-4.6-0.6v-1.8l12.6-2.3v35.4c0,2.8,0,5.1,0.1,7c0,1.8,0.2,3.1,0.4,3.9
		c0.1,0.5,0.3,0.9,0.5,1.2c0.2,0.3,0.4,0.6,0.8,0.8c0.3,0.2,0.8,0.3,1.4,0.4c0.6,0.1,1.4,0.1,2.3,0.1v2.1l-10.2,0.7V96z M812.9,82.4
		c0-2.1-0.1-3.7-0.3-4.8c-0.2-1.1-0.7-2.1-1.3-2.9c-0.9-1.2-2.1-2.2-3.6-2.8c-1.5-0.6-2.9-1-4.3-1c-2.9,0-5.2,1.2-6.7,3.6
		c-1.5,2.4-2.3,5.7-2.3,9.9c0,2.2,0.2,4.1,0.6,5.9c0.4,1.8,1,3.3,1.7,4.5c0.8,1.2,1.7,2.2,2.8,2.9c1.1,0.7,2.4,1,3.9,1
		c0.7,0,1.5-0.1,2.2-0.2c0.8-0.2,1.5-0.4,2.2-0.8c0.7-0.3,1.4-0.8,2-1.2c0.6-0.5,1.1-1,1.5-1.6c0.6-0.9,1-2,1.2-3.2
		c0.2-1.3,0.4-3,0.4-5.2V82.4z"/>
</g>
</svg>
