<?xml version="1.0" encoding="utf-8"?>
<!-- Generator: Adobe Illustrator 25.0.1, SVG Export Plug-In . SVG Version: 6.00 Build 0)  -->
<svg version="1.0" id="katman_1" xmlns="http://www.w3.org/2000/svg" xmlns:xlink="http://www.w3.org/1999/xlink" x="0px" y="0px"
	 viewBox="0 0 600 450" style="enable-background:new 0 0 600 450;" xml:space="preserve">
<g>
	<path d="M99.6,175.2c-7.8,1.6-14.4,4.5-20.6,9.1c-2.1,1.6-11.6,10.9-21.3,20.7l-17.4,17.9l19,19.6C69.8,253.2,79.5,262.9,81,264
		c14.1,10,34.7,10.9,50.7,2.1c2.1-1.2,5.4-3.4,7.3-4.9c1.9-1.6,14.7-14.3,28.4-28.4c13.7-14,26.1-26.3,27.6-27.2
		c4.2-2.8,7.5-3.6,12.3-3.4c2.4,0.2,5,0.8,6.2,1.3c2.4,1.2,20.9,18.6,20.9,19.7c0,0.4-3.9,4.5-8.6,9.1c-9.8,9.7-12.2,11-19.6,11.1
		c-5.8,0.1-11.1-2.6-17.9-9l-5-4.7l-9.8,9.8l-9.8,9.8l3.4,3.4c13.7,14,28,20.3,43.3,19.3c9-0.6,17.9-3.8,24.8-8.7
		c4.2-3,40-38.7,39.7-39.5c-0.6-1.5-38.3-39.9-41.2-41.9c-6.7-4.6-13.1-6.7-23-7.2c-7.4-0.5-14.9,0.7-21.4,3.3
		c-9,3.6-11.7,5.9-40.7,35.4c-30.3,30.8-30.2,30.7-38,31c-7.5,0.4-8.9-0.3-20-11.4l-9.7-9.6l8.2-8.2c8.9-8.9,11.6-10.8,17-11.8
		c7.2-1.3,12,0.7,20.2,8.5l5.7,5.6l9.6-9.6c5.2-5.2,9.5-9.8,9.5-10.1c0-1-10.9-11.2-15.2-14.3c-4.5-3.2-10.9-6.2-15.8-7.6
		C115,174.5,104.7,174.2,99.6,175.2z"/>
	<path d="M306.1,192v16.5h3.8h3.8V192v-16.5h-3.8h-3.8V192z"/>
	<path d="M322.3,192v16.5h3.8h3.8v-10v-10l3.9,5.8c2.1,3.1,5.3,7.6,7,9.9l3.1,4.2h3.4h3.4V192v-16.5h-3.8h-3.8l-0.1,10l-0.2,10
		l-5-7.4c-9.1-13.4-8.3-12.6-12.2-12.6h-3.4L322.3,192L322.3,192z"/>
	<path d="M358.7,192v16.5h3.8h3.8v-6.7v-6.7h7.2h7.2V192v-3.2h-7.2h-7.2v-3.5v-3.5h8.4h8.4v-3.2v-3.2h-12.2h-12.2V192z"/>
	<path d="M388.9,192v16.5h3.8h3.8V192v-16.5h-3.8h-3.8V192z"/>
	<path d="M404.6,191.8l0.2,16.4h3.8h3.8l0.2-9.8l0.2-9.8l3,4.6c1.7,2.6,4.8,7.1,7,10l3.9,5.4l3.3-0.2l3.2-0.2l0.2-16.4l0.1-16.3h-4
		h-4.1l-0.1,9.7l-0.2,9.7l-1.7-2.6c-0.9-1.4-3.9-5.7-6.7-9.6l-5-7.1h-3.6h-3.6L404.6,191.8z"/>
	<path d="M441.6,192v16.5h3.8h3.8V192v-16.5h-3.8h-3.8V192z"/>
	<path d="M454.9,178.7v3.2h4.6h4.6v13.3v13.3h3.8h3.8v-13.3v-13.3h4.6h4.6v-3.2v-3.2h-13h-13L454.9,178.7L454.9,178.7z"/>
	<path d="M489.4,185.1l5.4,9.5v7v6.9h3.8h3.8v-6.9v-6.9l4.4-7.8c2.4-4.2,4.9-8.6,5.6-9.6l1.2-1.8h-4.2h-4.1l-3.2,6.7l-3.3,6.7
		l-3.4-6.7l-3.4-6.7h-4.1h-4L489.4,185.1z"/>
	<path d="M539.8,236.5c-4.8,1.8-7.3,5-7.3,9.5c0,5.3,2.8,7.8,10.4,9.3c5.7,1.2,6.9,1.9,6.9,3.8c0,3.7-7.2,4.8-12.5,1.8
		c-1.4-0.8-2.8-1.5-2.9-1.5c-0.1,0-1.1,1.2-2.3,2.7l-2,2.7l1.9,1.3c2.7,1.8,7.5,3.1,11.4,3.1c9.5,0,15.6-5.3,14.2-12.4
		c-0.8-4.2-4.2-6.7-11.1-7.9c-6.2-1.1-8.2-3-5.6-5.4c1.3-1.2,6.4-1.3,9.7-0.1c1.3,0.5,2.4,0.9,2.4,0.9c0.1,0,0.8-1.2,1.7-2.7
		c1.6-2.6,1.6-2.7,0.5-3.5C552.5,236.2,543.4,235.2,539.8,236.5z"/>
	<path d="M302.7,237c0.2,0.4,2.8,7.9,6,16.5l5.7,15.8h3c1.9,0,3.1-0.3,3.3-0.8c1.6-4,11.4-31.6,11.4-31.9c0-0.2-1.7-0.3-3.9-0.2
		l-3.9,0.2l-3.1,9.8c-1.7,5.4-3.2,10.2-3.4,10.7c-0.2,0.5-1.9-4-3.8-10l-3.5-10.8h-4C303.5,236.3,302.5,236.5,302.7,237z"/>
	<path d="M337.4,252.6l0.2,16.4h12.2h12.2v-3.2v-3.2l-8.2-0.2l-8.3-0.2v-3.4v-3.5h7h7v-2.9v-2.9h-7h-7v-3.5v-3.5h8.4h8.4v-3.2v-3.2
		h-12.5h-12.4L337.4,252.6z"/>
	<path d="M368.1,252.6l0.2,16.4h3.8h3.8l0.2-9.8l0.1-9.8l3.9,5.7c2.1,3.1,5.3,7.6,7,10l3.1,4.2l3.3-0.2l3.2-0.2l0.2-16.4l0.1-16.3
		h-4h-4l-0.1,9.7l-0.2,9.6l-2.3-3.4c-1.2-1.8-4.2-6.2-6.7-9.6l-4.4-6.2h-3.6H368L368.1,252.6z"/>
	<path d="M402.2,239.5v3.2h4.6h4.6V256v13.3h3.8h3.8V256v-13.3h4.9h4.9v-3.2v-3.2h-13.3h-13.3L402.2,239.5L402.2,239.5z"/>
	<path d="M434,248.6c0,11.8,0.1,12.4,1.3,14.5c4.3,7.2,16.5,8.3,22.2,2.1c2.7-2.9,3.1-4.9,3.1-17.3v-11.6h-3.8h-3.8v11.4V259
		l-1.7,1.7c-2.3,2.3-5.6,2.3-8.1,0.2l-1.8-1.5v-11.5v-11.5h-3.8H434L434,248.6L434,248.6z"/>
	<path d="M468.8,252.8v16.5h3.8h3.8v-6.4v-6.4h2.5h2.6l2.7,6.2l2.6,6.2l4.1,0.2c2.7,0.1,4.1-0.1,4.1-0.5c0-0.4-1.3-3.5-3-7
		c-2.9-6.3-2.9-6.5-1.9-7.2c3.9-2.7,4.9-4.6,4.9-8.9c0-3.6-1.7-6.3-5.2-8c-2.3-1.2-3.4-1.3-11.7-1.3h-9.1L468.8,252.8L468.8,252.8z
		 M486.1,243.8c0.6,0.6,1.2,1.7,1.2,2.3c0,2.4-2,3.5-6.7,3.5h-4.3v-3.5v-3.5h4.3C484.2,242.7,485.2,242.9,486.1,243.8z"/>
	<path d="M502.5,252.6l0.2,16.4h12.2H527v-3.2v-3.2l-8.6-0.2l-8.6-0.2l0.2-3.3l0.2-3.3l7.1-0.2l7.1-0.2v-2.8v-2.8l-7.1-0.2l-7.1-0.2
		L510,246l-0.2-3.3h8.7h8.7v-3.2v-3.2h-12.4h-12.4L502.5,252.6z"/>
</g>
</svg>
