<?xml version="1.0" encoding="utf-8"?>
<!-- Generator: Adobe Illustrator 25.0.1, SVG Export Plug-In . SVG Version: 6.00 Build 0)  -->
<svg version="1.1" id="Layer_1" xmlns="http://www.w3.org/2000/svg" xmlns:xlink="http://www.w3.org/1999/xlink" x="0px" y="0px"
	 viewBox="0 0 841.9 279.8" style="enable-background:new 0 0 841.9 279.8;" xml:space="preserve">
<style type="text/css">
	.st0{fill:#FFFFFF;}
</style>
<g>
	<path d="M144.2,166.5v-1.7h-43.7c0.8-0.3,1.6-0.5,2.5-0.6c23-3.5,41.2-24.6,41.2-47.9c0-7.2,0-14.3,0-21.5c0-5.1-0.6-10.2-1.8-15.2
		c-9.8-38.5-52-58.3-87.4-39.2C35.6,51,24.9,67.8,23,89.7c-0.7,8.3-0.2,16.7-0.2,25.1c0,0.1,0.1,0.2,0.2,0.4h43.5c0,0.1,0,0.1,0,0.2
		c-0.2,0-0.4,0.1-0.5,0.1c-6,0.9-11.8,2.5-17,5.5c-16,9.1-24.9,22.8-26,41.2c-0.5,7.4,0,14.9-0.1,22.4c-0.1,17.1,5.7,31.9,17.7,44
		c18.7,19,47.6,23.7,71.1,11c21.1-11.4,31.9-29.6,32.7-53.6C144.4,179.5,144.2,173,144.2,166.5z M94.9,193.3
		c0,5.8-2.9,10.1-8.1,11.2c-1.3,0.3-2.5,0.4-3.6,0.4c-0.2,0-0.4,0-0.6,0c-0.2,0-0.3,0-0.5,0c0,0-0.1,0-0.1,0c-0.1,0-0.3,0-0.4,0
		c-0.1,0-0.2,0-0.4-0.1c-0.1,0-0.2,0-0.2,0c0,0,0,0-0.1,0c-0.1,0-0.2,0-0.3-0.1c-0.2,0-0.4-0.1-0.5-0.1c-0.1,0-0.2-0.1-0.4-0.1
		c-0.1,0-0.1,0-0.2,0c-0.1,0-0.2-0.1-0.3-0.1c-0.1,0-0.2-0.1-0.3-0.1c0,0,0,0,0,0c-0.1,0-0.2-0.1-0.3-0.1c-0.1-0.1-0.3-0.1-0.4-0.2
		c0,0,0,0-0.1,0c-0.1-0.1-0.2-0.1-0.3-0.2c-0.2-0.1-0.3-0.2-0.5-0.3c-0.1-0.1-0.2-0.1-0.4-0.2c0,0,0,0,0,0c-0.1-0.1-0.2-0.2-0.4-0.2
		c0,0-0.1,0-0.1-0.1c-0.1-0.1-0.2-0.1-0.3-0.2c-0.1-0.1-0.2-0.2-0.4-0.3c-0.1-0.1-0.2-0.2-0.3-0.3c-0.2-0.1-0.3-0.3-0.5-0.5
		c-0.1-0.1-0.1-0.1-0.2-0.2c-0.1-0.1-0.2-0.2-0.3-0.3c-0.1-0.1-0.2-0.2-0.2-0.3c-0.1-0.2-0.3-0.4-0.4-0.5c-0.1-0.1-0.2-0.2-0.2-0.4
		c0-0.1-0.1-0.2-0.1-0.2c0-0.1-0.1-0.1-0.1-0.2c0-0.1-0.1-0.1-0.1-0.2c-0.1-0.1-0.1-0.2-0.2-0.3c-0.2-0.3-0.3-0.6-0.4-0.9
		c0-0.1-0.1-0.2-0.1-0.3c0-0.1-0.1-0.2-0.1-0.3c-0.1-0.2-0.1-0.3-0.2-0.5c0-0.1-0.1-0.3-0.1-0.4c0-0.2-0.1-0.3-0.1-0.5
		c0-0.1,0-0.1,0-0.2c0-0.1,0-0.2-0.1-0.3c0-0.1,0-0.2,0-0.2c0,0,0,0,0-0.1c-0.1-0.4-0.1-0.7-0.1-1.1c0-0.1,0-0.2,0-0.3
		c0-0.1,0-0.2,0-0.3v-0.1c0-0.1,0-0.2,0-0.4c0-3.7,0-7.5,0.1-11.2c0-14.1,0-28.1,0-42.2c0-17.8,0-35.6,0-53.5v0c0-0.3,0-0.6,0-0.9
		c0-0.4,0.1-0.9,0.2-1.3c0-0.3,0.1-0.6,0.2-0.8c0-0.1,0.1-0.3,0.1-0.4c0.1-0.4,0.2-0.8,0.4-1.2c0-0.1,0.1-0.3,0.2-0.4c0,0,0,0,0,0
		c0.1-0.1,0.1-0.2,0.2-0.3c0.2-0.5,0.5-1,0.8-1.4c0.1-0.2,0.3-0.4,0.5-0.6c0.1-0.1,0.2-0.2,0.3-0.3c0.1-0.1,0.2-0.2,0.3-0.3
		c0.1-0.1,0.2-0.2,0.3-0.3c0.1-0.1,0.2-0.2,0.3-0.3c0.1-0.1,0.1-0.1,0.2-0.2c0.1-0.1,0.1-0.1,0.2-0.2c0,0,0,0,0.1-0.1
		c0.1-0.1,0.2-0.2,0.3-0.2c0,0,0,0,0.1-0.1c0.1-0.1,0.3-0.2,0.4-0.3c0,0,0,0,0,0c0.1-0.1,0.3-0.2,0.4-0.2c0,0,0,0,0.1,0
		c0.1-0.1,0.2-0.1,0.4-0.2c0,0,0.1,0,0.1,0c0.1-0.1,0.2-0.1,0.3-0.2c0.2-0.1,0.4-0.2,0.6-0.2c1.6-0.6,3.4-0.9,5.3-0.8
		c0.1,0,0.2,0,0.2,0c0.2,0,0.5,0,0.7,0.1c0.1,0,0.2,0,0.2,0c0.2,0,0.4,0.1,0.6,0.1c0.1,0,0.2,0,0.3,0.1c0.1,0,0.2,0,0.2,0
		c0.7,0.1,1.4,0.4,2,0.6c0.1,0,0.2,0.1,0.3,0.1c0.1,0,0.1,0.1,0.2,0.1c0.1,0,0.2,0.1,0.2,0.1c0.2,0.1,0.4,0.2,0.5,0.3
		c0.1,0,0.1,0.1,0.2,0.1c0.2,0.1,0.4,0.2,0.5,0.3c0.1,0,0.1,0.1,0.2,0.1c0.1,0.1,0.2,0.1,0.2,0.2c0.1,0.1,0.3,0.2,0.4,0.3
		c0.1,0.1,0.1,0.1,0.2,0.2c0.1,0.1,0.2,0.2,0.3,0.3c0.1,0.1,0.3,0.3,0.4,0.4l0,0c0.1,0.1,0.2,0.2,0.3,0.3c0,0,0,0,0.1,0.1
		c0.1,0.1,0.2,0.2,0.2,0.3c0.1,0.2,0.2,0.3,0.3,0.5c0,0,0,0,0,0c0.1,0.2,0.2,0.3,0.3,0.5c0,0,0,0,0,0.1c0.1,0.1,0.1,0.2,0.2,0.3
		c0.1,0.1,0.1,0.2,0.2,0.4c0.3,0.6,0.5,1.3,0.7,2c0,0.1,0,0.2,0.1,0.3c0,0.1,0,0.2,0.1,0.3c0,0.2,0.1,0.3,0.1,0.5
		c0,0.2,0.1,0.3,0.1,0.5c0.1,0.3,0.1,0.7,0.1,1.1c0,0.1,0,0.2,0,0.3c0,0,0,0,0,0.1c0,0.1,0,0.2,0,0.4c0,0.1,0,0.2,0,0.4
		c0,0.1,0,0.1,0,0.2v0.2c0,23.9,0,47.9,0,71.8c0,5.7,0,11.5,0,17.2C94.9,181.8,94.9,187.5,94.9,193.3z"/>
	<path d="M599,167.2V184h-59.1c0-0.5-0.1-1-0.1-1.5c0-2.9,0.2-5.8,0-8.7c-0.2-2.6,0.6-4.8,2-7c11.2-17.6,22.4-35.2,33.5-52.8
		c0.3-0.4,0.5-0.8,0.9-1.4h-35.3V95.8h57.4c0,1.5,0,2.9,0,4.3c0,3.1,0.6,6.5-0.3,9.4c-0.8,2.9-3.1,5.3-4.7,7.9
		c-10.1,16.1-20.3,32.2-30.4,48.2c-0.3,0.4-0.5,0.9-0.9,1.5H599z"/>
	<path d="M317.2,121.1v6.9c-0.8-0.8-1.5-1.5-2.3-2.1c-5.4-4.9-11.7-6.9-18.9-6.6c-7.7,0.3-14.4,2.9-19.6,8.5
		c-10.4,11.2-13,24.3-7.3,38.5c4.8,11.8,13.6,19,26.8,19.6c8,0.3,15.1-2,20.6-8.2c0.1-0.2,0.3-0.2,0.7-0.5v6.9h16.1v-62.9H317.2z
		 M313,164.6c-0.3,0.3-0.6,0.6-0.9,0.9c-0.4,0.4-0.8,0.7-1.2,1.1c-0.4,0.3-0.9,0.7-1.4,1c-0.4,0.2-0.7,0.4-1.1,0.6
		c-0.4,0.2-0.7,0.4-1.1,0.5c-2.2,1-4.7,1.5-7.4,1.5c-1.2,0-2.3,0-3.4-0.2c-0.1,0-0.2,0-0.3-0.1c-0.9-0.2-1.7-0.4-2.5-0.7
		c-0.2-0.1-0.4-0.2-0.6-0.2c-0.1-0.1-0.2-0.1-0.4-0.2c0,0,0,0-0.1,0c0,0-0.1,0-0.1-0.1c0,0,0,0,0,0c-0.1-0.1-0.3-0.1-0.4-0.2
		c-1.3-0.6-2.4-1.4-3.4-2.3c-0.2-0.2-0.4-0.4-0.6-0.5c-0.3-0.3-0.6-0.6-0.9-0.9c-0.2-0.3-0.5-0.5-0.7-0.8c-0.3-0.4-0.6-0.8-0.8-1.1
		c-0.1-0.2-0.2-0.4-0.4-0.6c-0.6-1-1.1-2-1.5-3.1c0-0.1-0.1-0.3-0.1-0.4c-0.1-0.3-0.2-0.7-0.3-1c-0.1-0.2-0.1-0.4-0.1-0.5
		c-0.4-1.6-0.6-3.2-0.6-4.9c0-0.8,0-1.6,0.1-2.3c0-0.3,0.1-0.6,0.1-0.9c0.1-0.3,0.1-0.6,0.2-0.9c0.1-0.3,0.1-0.6,0.2-0.9
		c0.3-1.3,0.8-2.5,1.4-3.6c0.1-0.2,0.3-0.5,0.4-0.7c0.1-0.2,0.3-0.5,0.4-0.7c0.2-0.2,0.3-0.5,0.5-0.7c0.2-0.2,0.3-0.4,0.5-0.7
		c0.1-0.1,0.2-0.2,0.3-0.3c0.3-0.3,0.5-0.6,0.8-0.9c3.1-3.1,7.4-5,12.3-5c1.6,0,3.1,0.2,4.5,0.6c0.4,0.1,0.8,0.2,1.2,0.3
		c0.2,0.1,0.3,0.1,0.5,0.2c0.2,0.1,0.4,0.1,0.6,0.2c0.1,0,0.2,0.1,0.2,0.1c0.3,0.1,0.6,0.3,0.9,0.4c1.7,0.8,3.2,1.9,4.5,3.2
		c0.2,0.2,0.4,0.4,0.6,0.6c0,0,0,0,0,0c0.2,0.2,0.4,0.4,0.5,0.6c0,0,0,0,0,0c0.2,0.2,0.3,0.4,0.5,0.7c0.2,0.3,0.5,0.7,0.7,1.1
		c0.1,0.2,0.2,0.3,0.3,0.5c0,0,0,0,0,0c0,0.1,0.1,0.1,0.1,0.2c0,0,0,0.1,0.1,0.1c0,0,0,0,0,0c0,0,0,0,0,0.1c0.1,0.1,0.1,0.3,0.2,0.4
		c0.1,0.2,0.1,0.3,0.2,0.5c0.2,0.3,0.3,0.7,0.4,1c0.1,0.2,0.2,0.5,0.3,0.7c0.1,0.2,0.1,0.4,0.2,0.5c0.2,0.5,0.3,1,0.4,1.6
		c0,0.1,0,0.2,0.1,0.3c0,0.1,0,0.2,0,0.2c0,0,0,0.1,0,0.1c0,0,0,0.1,0,0.1c0,0,0,0.1,0,0.1c0,0.1,0,0.1,0,0.2c0,0,0,0,0,0.1
		c0,0.1,0,0.2,0,0.3c0,0.2,0,0.3,0.1,0.5c0.1,0.8,0.1,1.5,0.1,2.3C317.3,157.3,315.7,161.5,313,164.6z"/>
	<path d="M668.3,145.3c-3.5-16.9-16.8-27.1-34-26.1c-8.8,0.5-16.3,4-22,10.7c-7.3,8.7-9.8,18.8-7.4,29.9c2.5,11.5,9.1,20,20.5,23.9
		c8.4,2.9,16.9,2.9,25.4,0.1c6.3-2.1,11.2-6,15-11.6c-4.4-2.5-8.7-5-12.8-7.4c-1.9,1.5-3.6,3.1-5.5,4.1c-5.9,3.2-12.1,2.6-18.1,0.3
		c-4.4-1.7-6.9-5.2-8.3-9.9H653c4.7,0,9.3,0,14,0c0.8,0,1.4,0,1.5-1C669,154,669.2,149.6,668.3,145.3z M621,146.5c0-0.1,0-0.2,0-0.3
		c0-0.1,0-0.1,0-0.2c0,0,0-0.1,0-0.1c0-0.1,0-0.2,0-0.2c0,0,0,0,0,0c0-0.1,0-0.2,0-0.3c0-0.1,0-0.2,0.1-0.3c0-0.1,0-0.2,0.1-0.3
		c0-0.1,0-0.2,0.1-0.3c0.1-0.2,0.1-0.4,0.2-0.6c0.1-0.3,0.2-0.6,0.3-0.9c0.1-0.2,0.2-0.4,0.3-0.6c0.1-0.3,0.3-0.6,0.5-0.8
		c0.1-0.1,0.1-0.2,0.2-0.3c0.1-0.1,0.1-0.2,0.2-0.3c0-0.1,0.1-0.1,0.2-0.2c0.4-0.5,0.8-1,1.2-1.5c0.1-0.1,0.1-0.1,0.2-0.2
		c0.1-0.1,0.1-0.1,0.2-0.2l0.1-0.1c0.1-0.1,0.1-0.1,0.2-0.2c0.1-0.1,0.2-0.2,0.3-0.2c0,0,0.1-0.1,0.1-0.1c0,0,0.1-0.1,0.1-0.1
		c0.2-0.2,0.4-0.3,0.6-0.5c0.1-0.1,0.1-0.1,0.2-0.1c0.2-0.2,0.4-0.3,0.6-0.4c0.1-0.1,0.2-0.1,0.3-0.2c0.1-0.1,0.3-0.2,0.4-0.2
		c0.2-0.1,0.3-0.2,0.5-0.3c0.2-0.1,0.3-0.2,0.5-0.3c0.2-0.1,0.3-0.2,0.5-0.2c0.1-0.1,0.2-0.1,0.3-0.2c0.2-0.1,0.4-0.2,0.6-0.3
		c0.1,0,0.2-0.1,0.3-0.1c0.2-0.1,0.4-0.2,0.7-0.3c0.1,0,0.2-0.1,0.3-0.1c0.2-0.1,0.5-0.2,0.7-0.2s0.5-0.1,0.7-0.2
		c0.1,0,0.2-0.1,0.3-0.1c0.1,0,0.2-0.1,0.4-0.1c0.1,0,0.2,0,0.4-0.1c0.2,0,0.5-0.1,0.7-0.1c0.5-0.1,1-0.1,1.4-0.1c0.1,0,0.2,0,0.4,0
		c0.3,0,0.7,0,1,0c0.1,0,0.2,0,0.4,0c1.1,0,2.2,0.2,3.3,0.4c0.2,0,0.3,0.1,0.5,0.1c0,0,0.1,0,0.1,0c0.2,0,0.3,0.1,0.5,0.1
		c0.2,0.1,0.4,0.1,0.5,0.2c0.4,0.1,0.7,0.2,1,0.4c0.2,0.1,0.4,0.2,0.6,0.3c0.2,0.1,0.4,0.2,0.6,0.3c0.2,0.1,0.4,0.2,0.6,0.3
		c0.2,0.1,0.5,0.3,0.7,0.5c0.1,0.1,0.2,0.1,0.3,0.2c0.1,0.1,0.3,0.2,0.4,0.3c0.1,0.1,0.1,0.1,0.2,0.1c0.1,0.1,0.2,0.2,0.3,0.3
		c0.1,0.1,0.2,0.2,0.3,0.3c0.1,0.1,0.2,0.2,0.4,0.3c0.1,0,0.1,0.1,0.2,0.1c0.1,0,0.1,0.1,0.2,0.1c0.1,0.1,0.3,0.3,0.4,0.4
		c0.1,0.1,0.2,0.2,0.3,0.3c0.1,0.1,0.1,0.1,0.1,0.2c0,0.1,0.1,0.1,0.1,0.2c0.2,0.2,0.3,0.4,0.5,0.6c0.1,0.1,0.1,0.2,0.2,0.2
		c0.1,0.1,0.2,0.2,0.2,0.3c0.1,0.1,0.1,0.2,0.2,0.3c0.1,0.1,0.1,0.2,0.2,0.3c0.1,0.1,0.1,0.2,0.2,0.4c0.1,0.1,0.1,0.2,0.2,0.3
		c0.2,0.3,0.3,0.6,0.4,0.9c0.1,0.1,0.1,0.3,0.2,0.4c0.1,0.2,0.1,0.3,0.2,0.5c0,0.1,0.1,0.2,0.1,0.3c0,0.1,0.1,0.3,0.1,0.4
		c0,0.1,0.1,0.3,0.1,0.4c0.1,0.3,0.2,0.7,0.2,1c0,0.1,0,0.2,0.1,0.3c0,0.1,0,0.2,0,0.2c0,0.1,0,0.1,0,0.2H621z"/>
	<path d="M459.3,124.7c-5.4-4-11.5-5.5-18.2-5.5c-9,0-16.9,2.6-23.1,9c-9.1,9.3-11.9,20.7-8.6,33.2c2.8,10.9,9.5,18.8,20.4,22.4
		c7.7,2.6,15.6,2.6,23.4,0.6c7-1.9,12.5-6,16.8-12.1c-4.4-2.5-8.7-5-12.7-7.4c-2.3,1.6-4.3,3.5-6.7,4.6c-5.6,2.6-11.4,2-17.1-0.2
		c-4.4-1.7-6.9-5.2-8.3-10h22.6c7.7,0,15.4,0,23.1,0c1.1,0,1.7-0.2,1.7-1.4c0-1.3,0.3-2.7,0.4-4
		C473.4,141.8,469.1,131.9,459.3,124.7z M425.5,144c0.1-0.2,0.1-0.4,0.2-0.5c0-0.1,0.1-0.3,0.2-0.4c0-0.1,0.1-0.2,0.2-0.4
		c0.1-0.1,0.1-0.2,0.2-0.3c0.1-0.1,0.1-0.2,0.2-0.4c0,0,0,0,0,0c0.1-0.1,0.1-0.2,0.2-0.3c0.1-0.1,0.1-0.2,0.2-0.3c0,0,0,0,0,0
		c0.1-0.1,0.2-0.2,0.2-0.3c0-0.1,0.1-0.1,0.1-0.2c0.1-0.2,0.2-0.3,0.4-0.5c0.1-0.2,0.3-0.3,0.4-0.5c0,0,0,0,0,0
		c0.1-0.2,0.3-0.3,0.4-0.5c0.2-0.2,0.3-0.3,0.5-0.5c0.1-0.1,0.2-0.2,0.2-0.2c0.2-0.2,0.3-0.3,0.5-0.4c0.2-0.1,0.3-0.3,0.5-0.4
		c0.1-0.1,0.2-0.1,0.3-0.2c0.1-0.1,0.2-0.1,0.3-0.2c0.1-0.1,0.3-0.2,0.4-0.3c0.1-0.1,0.3-0.2,0.4-0.3c0.1-0.1,0.2-0.1,0.3-0.2
		c0.1-0.1,0.2-0.1,0.3-0.2c0.4-0.2,0.8-0.5,1.2-0.7c0.2-0.1,0.3-0.2,0.5-0.2c0.2-0.1,0.3-0.1,0.5-0.2c0.1-0.1,0.2-0.1,0.3-0.1
		c0.1,0,0.2-0.1,0.3-0.1c0.2-0.1,0.4-0.2,0.7-0.2c0.5-0.2,0.9-0.3,1.4-0.4c0.1,0,0.2-0.1,0.3-0.1c0.2-0.1,0.5-0.1,0.7-0.1
		c0.2,0,0.5-0.1,0.7-0.1c0.2,0,0.5-0.1,0.7-0.1c0.1,0,0.2,0,0.4,0c0.1,0,0.2,0,0.4,0c0.4,0,0.8,0,1.2,0c0.3,0,0.5,0,0.8,0
		c1,0.1,1.9,0.2,2.9,0.4c0.1,0,0.3,0.1,0.4,0.1c0.1,0,0.3,0.1,0.4,0.1c0.1,0,0.3,0.1,0.4,0.1c0.1,0,0.3,0.1,0.4,0.1
		c0.2,0.1,0.4,0.1,0.5,0.2c0.2,0.1,0.3,0.1,0.5,0.2c0.1,0,0.2,0.1,0.3,0.1c0.1,0,0.2,0.1,0.3,0.2c0.2,0.1,0.4,0.2,0.6,0.3
		s0.4,0.2,0.6,0.3c0.2,0.1,0.3,0.2,0.5,0.3c0.1,0.1,0.2,0.2,0.4,0.2c0.2,0.2,0.5,0.3,0.7,0.5c0.1,0.1,0.3,0.2,0.4,0.3
		c0.2,0.1,0.4,0.3,0.5,0.4c0,0,0.1,0.1,0.1,0.1c0.1,0.1,0.2,0.2,0.3,0.2c0.1,0.1,0.2,0.2,0.3,0.3c0.1,0.1,0.3,0.3,0.4,0.4
		c0.1,0.1,0.3,0.3,0.4,0.5c0.1,0.1,0.1,0.2,0.2,0.2c0.1,0.1,0.2,0.2,0.3,0.4c0,0,0,0,0,0c0.1,0.1,0.2,0.3,0.3,0.4
		c0.1,0.1,0.2,0.2,0.2,0.4c0,0,0,0,0,0c0.1,0.1,0.2,0.3,0.2,0.4c0,0.1,0.1,0.1,0.1,0.2c0.1,0.1,0.1,0.2,0.2,0.4
		c0.1,0.1,0.1,0.2,0.2,0.4c0,0.1,0.1,0.2,0.1,0.2c0,0,0,0.1,0.1,0.1c0,0.1,0.1,0.1,0.1,0.2c0,0.1,0.1,0.2,0.1,0.2
		c0.1,0.2,0.2,0.4,0.2,0.6c0,0.1,0.1,0.2,0.1,0.3c0,0.1,0,0.1,0.1,0.2c0,0.1,0.1,0.2,0.1,0.3c0,0.1,0.1,0.2,0.1,0.3
		c0,0.1,0.1,0.3,0.1,0.4c0,0.2,0.1,0.4,0.1,0.6c0,0.2,0,0.3,0.1,0.5v0c0,0.1,0,0.2,0,0.3h-31.4C425.2,145.6,425.3,144.8,425.5,144z"
		/>
	<path d="M753,119.1c-18.2-0.3-33.3,14.7-33.3,32.9c0,18.4,14.6,33.2,32.8,33.3c17.8,0,32.6-14.6,33-32
		C785.9,136.3,772.7,119.4,753,119.1z M769.2,153.1c0,0.2,0,0.5,0,0.7c0,0.3,0,0.6-0.1,0.9c0,0.1,0,0.2,0,0.3c0,0.2,0,0.3-0.1,0.5
		c0,0.2,0,0.3-0.1,0.5c0,0.2-0.1,0.5-0.1,0.7c0,0.1-0.1,0.2-0.1,0.4c0,0.1,0,0.2-0.1,0.3c0,0.1-0.1,0.2-0.1,0.3
		c-0.1,0.2-0.1,0.4-0.2,0.6c0,0.1-0.1,0.2-0.1,0.3c-0.1,0.2-0.1,0.3-0.2,0.5c0,0.1-0.1,0.2-0.1,0.3c-0.1,0.2-0.1,0.3-0.2,0.5
		c0,0.1-0.1,0.2-0.1,0.3c-0.1,0.2-0.2,0.3-0.2,0.5c0,0.1-0.1,0.2-0.2,0.3c-0.1,0.3-0.3,0.6-0.5,0.8c-0.1,0.1-0.2,0.3-0.2,0.4
		c-0.1,0.1-0.2,0.3-0.2,0.4c-0.1,0.1-0.2,0.3-0.3,0.4c-0.1,0.1-0.2,0.2-0.3,0.4c-0.1,0.1-0.2,0.2-0.3,0.4c-0.1,0.1-0.2,0.2-0.3,0.4
		c-0.2,0.2-0.4,0.5-0.6,0.7c-0.1,0.1-0.2,0.2-0.3,0.3c-0.2,0.2-0.4,0.4-0.6,0.6c-0.2,0.2-0.4,0.4-0.6,0.5c-0.2,0.2-0.4,0.3-0.6,0.5
		c-0.2,0.2-0.4,0.3-0.7,0.5c-0.1,0.1-0.2,0.2-0.3,0.2c-0.1,0.1-0.2,0.2-0.4,0.2c-0.2,0.1-0.4,0.2-0.6,0.3c-0.3,0.2-0.6,0.3-0.9,0.5
		c-0.2,0.1-0.4,0.2-0.6,0.3c-0.2,0.1-0.3,0.1-0.5,0.2c-0.1,0-0.2,0.1-0.3,0.1c-0.2,0.1-0.3,0.1-0.5,0.2c-0.1,0-0.2,0.1-0.2,0.1
		c-0.5,0.1-0.9,0.3-1.4,0.4c-0.1,0-0.3,0.1-0.4,0.1c-0.1,0-0.3,0.1-0.4,0.1c-0.1,0-0.2,0-0.3,0.1c0,0,0,0-0.1,0c-0.1,0-0.1,0-0.2,0
		c-0.1,0-0.2,0-0.3,0c-0.1,0-0.2,0-0.4,0c-0.1,0-0.3,0-0.4,0c-0.1,0-0.3,0-0.4,0c-0.1,0-0.1,0-0.2,0c-0.1,0-0.1,0-0.2,0
		c-0.3,0-0.5,0-0.8,0c-0.2,0-0.3,0-0.5,0h-0.1c-0.1,0-0.2,0-0.3,0c0,0,0,0,0,0c0,0,0,0,0,0c-0.3,0-0.5,0-0.7-0.1c-0.1,0-0.2,0-0.2,0
		c-0.1,0-0.2,0-0.2,0c-0.1,0-0.1,0-0.2,0c-0.3,0-0.5-0.1-0.7-0.1c-0.1,0-0.3,0-0.4-0.1c-0.5-0.1-1-0.2-1.5-0.4c-0.1,0-0.1,0-0.2-0.1
		c-0.6-0.2-1.1-0.4-1.7-0.6c-0.2-0.1-0.3-0.2-0.5-0.2c-0.1,0-0.1-0.1-0.2-0.1c-0.9-0.4-1.7-1-2.5-1.6c-0.1-0.1-0.2-0.2-0.3-0.2
		c-0.1-0.1-0.2-0.1-0.3-0.2c-0.1-0.1-0.2-0.2-0.3-0.3c-0.1-0.1-0.2-0.2-0.3-0.3c-0.1-0.1-0.2-0.1-0.2-0.2c-0.1-0.1-0.2-0.2-0.4-0.4
		c-0.1-0.1-0.2-0.2-0.4-0.4c-0.4-0.4-0.7-0.8-1.1-1.3c-0.1-0.1-0.1-0.2-0.2-0.3c0-0.1-0.1-0.1-0.1-0.2c-0.1-0.1-0.1-0.2-0.2-0.3
		c-0.3-0.4-0.5-0.8-0.7-1.2c-0.1-0.1-0.1-0.2-0.1-0.3c-0.1-0.3-0.3-0.5-0.4-0.8c0-0.1-0.1-0.2-0.1-0.3c0,0,0,0,0,0
		c-0.1-0.3-0.3-0.6-0.4-0.9c0,0,0,0,0,0c0-0.1-0.1-0.1-0.1-0.2c-0.2-0.7-0.4-1.3-0.6-2c0-0.1,0-0.2-0.1-0.3c0,0,0-0.1,0-0.1
		c0-0.1,0-0.2,0-0.2c0,0,0,0,0,0c0-0.1-0.1-0.3-0.1-0.4c0,0,0-0.1,0-0.1c-0.1-0.4-0.1-0.7-0.1-1.1c0-0.1,0-0.2,0-0.3
		c0-0.1,0-0.2,0-0.3c0-0.1,0-0.3,0-0.4c0-0.1,0-0.3,0-0.4c0-0.2,0-0.3,0-0.5c0-0.4,0-0.9,0-1.3c0-0.1,0-0.1,0-0.2c0-0.1,0-0.2,0-0.3
		c0,0,0-0.1,0-0.1c0-0.1,0-0.2,0-0.3c0-0.1,0-0.1,0-0.2c0-0.1,0-0.2,0-0.4c0-0.1,0-0.3,0.1-0.4c0.1-0.3,0.1-0.6,0.2-1
		c0-0.2,0.1-0.3,0.1-0.4c0,0,0,0,0-0.1c0-0.1,0.1-0.3,0.1-0.4c0-0.2,0.1-0.3,0.1-0.5c0-0.1,0.1-0.2,0.1-0.4c0.1-0.2,0.1-0.3,0.2-0.5
		c0.1-0.1,0.1-0.3,0.2-0.4c0-0.1,0.1-0.2,0.1-0.4c0-0.1,0.1-0.2,0.2-0.4c0-0.1,0.1-0.2,0.1-0.3c0.1-0.2,0.2-0.5,0.3-0.7
		c0-0.1,0.1-0.2,0.1-0.3c0.3-0.5,0.6-1,0.9-1.5c0.1-0.1,0.2-0.2,0.3-0.4c0.1-0.1,0.2-0.2,0.3-0.3c0.4-0.5,0.7-0.9,1.1-1.3
		c0.1-0.1,0.3-0.3,0.4-0.4c0.2-0.2,0.4-0.4,0.6-0.5c0.4-0.3,0.7-0.6,1.1-0.9c0.1-0.1,0.2-0.1,0.3-0.2c0.2-0.1,0.4-0.2,0.5-0.4
		c0.3-0.2,0.5-0.3,0.8-0.5c0.4-0.2,0.9-0.5,1.4-0.7c0.1-0.1,0.2-0.1,0.4-0.2c0.3-0.1,0.5-0.2,0.8-0.3c0.3-0.1,0.5-0.2,0.8-0.3
		c0.1,0,0.2-0.1,0.3-0.1c0.1,0,0.2-0.1,0.3-0.1c0.1,0,0.2-0.1,0.3-0.1c0.1,0,0.3-0.1,0.4-0.1c0,0,0.1,0,0.1,0c0.1,0,0.3-0.1,0.4-0.1
		c0.1,0,0.2,0,0.3,0c0.1,0,0.2,0,0.3-0.1c0.1,0,0.3,0,0.4-0.1c0.1,0,0.3,0,0.4,0c0.2,0,0.4,0,0.7-0.1c0.1,0,0.2,0,0.3,0
		c0.3,0,0.6,0,0.9,0c0.4,0,0.9,0,1.3,0c0.1,0,0.2,0,0.3,0c0,0,0,0,0,0c0.1,0,0.2,0,0.3,0c0.1,0,0.2,0,0.4,0l0.4,0.1
		c0.1,0,0.2,0,0.4,0.1c0.3,0,0.6,0.1,0.8,0.2c0.1,0,0.3,0.1,0.4,0.1c0.3,0.1,0.5,0.1,0.8,0.2c0.3,0.1,0.7,0.2,1,0.4
		c0.1,0.1,0.3,0.1,0.4,0.2c0.3,0.1,0.6,0.2,0.9,0.4c0.1,0,0.2,0.1,0.2,0.1c0.1,0.1,0.2,0.1,0.4,0.2c0.1,0,0.2,0.1,0.2,0.1
		c0.1,0.1,0.3,0.2,0.4,0.3c0.3,0.2,0.7,0.4,1,0.7c0.1,0.1,0.2,0.2,0.3,0.2c0.1,0.1,0.2,0.1,0.3,0.2c0,0,0,0,0.1,0.1
		c0.1,0.1,0.2,0.1,0.3,0.2c0.1,0.1,0.2,0.2,0.3,0.2c0.3,0.3,0.6,0.5,0.9,0.8c0.1,0.1,0.2,0.2,0.3,0.3c0.2,0.2,0.4,0.4,0.6,0.6
		c0.1,0.2,0.3,0.3,0.4,0.5c0,0,0,0,0,0c0.1,0.2,0.3,0.4,0.4,0.5c0.1,0.1,0.1,0.1,0.2,0.2c0.2,0.3,0.5,0.7,0.7,1
		c0.1,0.1,0.1,0.2,0.2,0.3c0.3,0.6,0.6,1.2,0.9,1.8c0.1,0.3,0.2,0.5,0.3,0.8c0.1,0.1,0.1,0.3,0.1,0.4c0.1,0.4,0.2,0.8,0.4,1.2
		c0,0,0,0.1,0,0.2c0.4,1.5,0.6,3.1,0.6,4.8C769.2,152.8,769.2,152.9,769.2,153.1z"/>
	<path d="M406.3,120.9c-0.2,0.6-0.3,1.2-0.5,1.6c-7.4,20.5-14.8,41-22.2,61.4c-2.2,6-5,11.7-9.4,16.4c-4.9,5.3-11.1,8-18.2,8.7
		c-1.8,0.2-3.6,0-5.5,0v-15.1c0.5,0,0.9-0.1,1.4-0.1c7.5-0.2,12.2-4.5,14.7-11.4c0.2-0.6,0-1.4-0.3-2c-8.1-19.2-16.2-38.4-24.2-57.6
		c-0.3-0.6-0.5-1.3-0.8-2.1c5.8,0,11.3,0,16.8,0c1,0,1.1,0.6,1.4,1.2c3,7.8,6,15.6,9,23.4c2.1,5.4,4.2,10.8,6.3,16.2
		c0.1,0.4,0.3,0.7,0.6,1.3c0.9-2.6,1.7-5,2.4-7.3c3.6-11.1,7.3-22.2,10.9-33.3c0.3-1.1,0.8-1.5,2-1.5
		C395.6,121,400.9,120.9,406.3,120.9z"/>
	<polygon points="262,167.3 262,183.9 211.3,183.9 211.3,95.8 228.5,95.8 228.5,167.3 	"/>
	<path d="M519.4,119.6v17.9c-2.5,0.3-4.9,0.3-7.3,0.9c-7.4,1.7-11.5,6.8-11.6,14.4c-0.1,9.8-0.1,19.5-0.1,29.3v1.9h-16.1v-62.9h16.1
		v9.6C504.4,123,511.1,120,519.4,119.6z"/>
	<path d="M715.3,119.6v18.2c-3.4-0.4-6.5,0-9.6,1.2c-5.9,2.3-9.1,6.7-9.2,12.9c-0.2,10-0.1,20-0.1,30v1.9h-16.1V121h16.1v9.6
		C700.3,122.9,707,120,715.3,119.6z"/>
	<rect x="799.7" y="164.7" width="19.6" height="19.2"/>
	<path class="st0" d="M94.7,84.6c0.1,0.3,0.1,0.7,0.1,1.1C94.8,85.3,94.8,84.9,94.7,84.6z"/>
	<path class="st0" d="M94.9,158.9v17.2C94.9,170.3,94.9,164.6,94.9,158.9c0-23.9,0-47.9,0-71.8c0-0.1,0-0.2,0-0.4c0,0.1,0,0.2,0,0.4
		C94.9,111,94.9,135,94.9,158.9z"/>
	<path class="st0" d="M292.1,168.6c0.5,0.2,1,0.5,1.5,0.7C293.1,169.1,292.6,168.8,292.1,168.6z"/>
	<path class="st0" d="M309.5,167.6c0.5-0.3,0.9-0.6,1.4-1C310.4,166.9,310,167.3,309.5,167.6z"/>
	<path class="st0" d="M312.1,165.5c0.3-0.3,0.6-0.6,0.9-0.9C312.7,164.9,312.4,165.2,312.1,165.5z"/>
	<path class="st0" d="M314.7,142.8c0.3,0.6,0.7,1.1,0.9,1.8C315.3,143.9,315,143.3,314.7,142.8z"/>
	<path class="st0" d="M317.2,150.2c-0.1-0.6-0.2-1.2-0.3-1.8C317,149,317.1,149.6,317.2,150.2z"/>
	<rect x="621" y="146.5" class="st0" width="31.5" height="0"/>
	<path class="st0" d="M456.6,146.5h-31.4v0L456.6,146.5c0-0.1,0-0.2,0-0.3C456.6,146.3,456.6,146.4,456.6,146.5z"/>
	<path class="st0" d="M743,137.8c0.3-0.2,0.5-0.3,0.8-0.5C743.5,137.4,743.2,137.6,743,137.8z"/>
</g>
</svg>
