<?xml version="1.0" encoding="utf-8"?>
<!-- Generator: Adobe Illustrator 25.0.1, SVG Export Plug-In . SVG Version: 6.00 Build 0)  -->
<svg version="1.1" id="Layer_1" xmlns="http://www.w3.org/2000/svg" xmlns:xlink="http://www.w3.org/1999/xlink" x="0px" y="0px"
	 viewBox="0 0 3417.2 1149.3" style="enable-background:new 0 0 3417.2 1149.3;" xml:space="preserve">
<g>
	<path d="M701,659.5v51.8c0.8-0.4,1.6-0.8,2.4-1.3c0.8-0.4,1.5-0.8,2.2-1.2c0.1-0.1,0.2-0.1,0.3-0.1c0.8-0.4,1.5-0.9,2.3-1.3
		c1.6-0.9,3.1-1.8,4.6-2.8c0.7-0.4,1.3-0.8,2-1.2c0.8-0.5,1.7-1.1,2.5-1.6c0.7-0.5,1.5-1,2.2-1.5s1.4-1,2.2-1.5
		c0.5-0.4,1.1-0.8,1.6-1.2c0.5-0.4,1.1-0.8,1.6-1.2c0.3-0.3,0.7-0.5,1-0.8c1-0.8,2-1.5,3-2.3c0.6-0.4,1.1-0.9,1.7-1.4l1.2-1
		c0.3-0.3,0.6-0.5,1-0.8c0.5-0.4,0.9-0.8,1.4-1.2c0.4-0.3,0.8-0.7,1.1-1c0.4-0.4,0.8-0.7,1.3-1.1c0.6-0.6,1.2-1.1,1.8-1.7
		c2.1-2,4.2-4,6.1-6.1c0.5-0.5,0.9-1,1.4-1.5c0.4-0.5,0.9-1,1.3-1.5c0.3-0.4,0.6-0.7,0.9-1.1c0.4-0.5,0.8-0.9,1.2-1.4c0,0,0,0,0,0
		c0.5-0.6,0.9-1.1,1.4-1.7c0.5-0.6,1-1.2,1.4-1.8c0.5-0.6,0.9-1.2,1.4-1.8c0.4-0.6,0.9-1.2,1.3-1.8c0.2-0.3,0.4-0.6,0.6-0.9
		c0.2-0.3,0.4-0.6,0.6-0.9c1.2-1.8,2.4-3.6,3.5-5.4H701z M701,462.9v47.9c0.1,0,0.1-0.1,0.2-0.1c0.3-0.2,0.6-0.3,0.9-0.5
		c1-0.6,2-1.1,3-1.6c0.2-0.1,0.3-0.2,0.5-0.3c1-0.5,2.1-1,3.2-1.5c0.6-0.3,1.2-0.5,1.8-0.8c0.6-0.2,1.2-0.5,1.8-0.7
		c1.3-0.5,2.6-1,3.9-1.4c0.6-0.2,1.2-0.4,1.8-0.6c0.9-0.3,1.9-0.6,2.8-0.8c0.4-0.1,0.8-0.2,1.2-0.3c1.4-0.4,2.8-0.7,4.3-1
		c0.7-0.2,1.4-0.3,2.1-0.4c0.7-0.1,1.4-0.2,2.1-0.3c0,0,0.1,0,0.1,0c0.7-0.1,1.4-0.2,2.2-0.3c0.7-0.1,1.4-0.2,2.2-0.2c0,0,0,0,0,0
		c0.6-0.1,1.2-0.1,1.9-0.2c0.2,0,0.5,0,0.8,0c0.6,0,1.2-0.1,1.9-0.1c0.8,0,1.5-0.1,2.3-0.1c1,0,2,0,3.1,0
		c52.5,0.4,81.5,42.6,83.9,72.2h-11.8c-10,0-20-0.1-30,0.1c-3,0.1-4.6-0.6-6-3.6c-0.2-0.4-0.3-0.7-0.5-1.1c-0.1-0.3-0.3-0.6-0.4-0.8
		c-0.2-0.3-0.3-0.6-0.5-0.9c-0.2-0.4-0.5-0.9-0.8-1.3c-0.3-0.4-0.5-0.9-0.8-1.3c-0.2-0.3-0.3-0.5-0.5-0.8c-0.2-0.3-0.4-0.7-0.7-1
		c-1.6-2.3-3.3-4.4-5.3-6.2c-0.1-0.2-0.3-0.3-0.4-0.4c-0.3-0.3-0.6-0.6-0.9-0.8c-0.1-0.1-0.2-0.2-0.3-0.2c-0.4-0.3-0.8-0.7-1.3-1
		c-0.5-0.4-0.9-0.7-1.4-1c-0.3-0.2-0.6-0.4-0.9-0.6c-0.4-0.2-0.8-0.5-1.2-0.7s-0.8-0.4-1.2-0.7c-0.4-0.2-0.8-0.4-1.2-0.6
		c-0.4-0.2-0.8-0.4-1.2-0.6c-0.1,0-0.1,0-0.2-0.1c-0.4-0.2-0.8-0.3-1.2-0.5c-0.4-0.2-0.9-0.3-1.3-0.5c-0.4-0.1-0.8-0.3-1.2-0.4
		c-0.6-0.2-1.2-0.3-1.8-0.5c-0.4-0.1-0.7-0.2-1.1-0.3c-0.2-0.1-0.5-0.1-0.7-0.2c-0.4-0.1-0.9-0.2-1.4-0.3c-0.4-0.1-0.8-0.1-1.2-0.2
		c-0.7-0.1-1.4-0.2-2.1-0.3c-0.4,0-0.8-0.1-1.2-0.1c-0.4,0-0.8-0.1-1.2-0.1c-0.4,0-0.9,0-1.3,0c-0.5,0-1,0-1.6,0c-0.6,0-1.2,0-1.7,0
		c-0.5,0-0.9,0-1.4,0.1c-0.5,0-1,0.1-1.5,0.1s-1,0.1-1.5,0.2c-0.5,0.1-1,0.1-1.5,0.2c-0.5,0.1-0.9,0.2-1.4,0.3
		c-0.5,0.1-0.9,0.2-1.4,0.3c-0.4,0.1-0.7,0.2-1.1,0.3c-0.6,0.1-1.1,0.3-1.6,0.5c-0.4,0.1-0.9,0.3-1.3,0.4c-0.4,0.2-0.9,0.3-1.3,0.5
		c0,0,0,0,0,0c-0.4,0.2-0.8,0.3-1.2,0.5c-0.5,0.2-0.9,0.4-1.4,0.6c-0.3,0.2-0.7,0.4-1.1,0.5c-0.5,0.3-0.9,0.5-1.4,0.8
		c-0.3,0.2-0.7,0.4-1,0.6c-1.8,1.1-3.4,2.5-5,3.9c-0.2,0.2-0.4,0.4-0.7,0.6c-0.2,0.2-0.5,0.4-0.7,0.7c-0.1,0.1-0.2,0.2-0.3,0.3
		c-0.2,0.2-0.4,0.4-0.6,0.7c-0.2,0.2-0.3,0.3-0.5,0.5c-0.2,0.3-0.5,0.5-0.7,0.8c-0.9,1.1-1.8,2.2-2.6,3.5c-0.2,0.3-0.4,0.7-0.6,1
		c-0.3,0.4-0.5,0.8-0.8,1.3c-0.3,0.4-0.5,0.8-0.8,1.3c0,0,0,0,0,0.1c-0.2,0.4-0.4,0.8-0.6,1.2c-0.3,0.5-0.5,1-0.8,1.5
		c-0.1,0.1-0.1,0.2-0.1,0.3c-0.1,0.2-0.2,0.4-0.4,0.6c-0.1,0.2-0.3,0.4-0.4,0.6c-0.5,0.7-1.2,1.3-1.8,1.6c-0.1,0-0.2,0.1-0.2,0.1
		c-0.1,0.1-0.2,0.1-0.3,0.1c-0.1,0-0.1,0-0.2,0.1c-0.1,0-0.1,0-0.1,0c-0.1,0-0.2,0-0.3,0c-1,0-1.9,0-2.9,0V614h201.5V462.9H701z
		 M846.2,296.5c-48.4,0-96.8,0-145.2,0v120.9h201.8v-64.1C902.8,320.2,879.2,296.5,846.2,296.5z M896.4,659.1
		c-23.2,0-46.3,0.5-69.5-0.2c-9.8-0.3-16.7,1.3-19.7,11.4c-0.1,0.3-0.3,0.6-0.5,0.9c-24.7,41.7-62.5,72.8-105.8,89.4v80.1h145.5
		c32.6,0,56.3-23.9,56.3-56.5v-125H896.4z M1082.1,475.4c-18.5-91.4-63.3-169.3-130.2-234.3c-63.1-61.3-137.8-101.5-223.8-120.6
		c-9-2-18.1-3.9-27.1-5.8v20.9c211.4,34.8,372.4,218.8,372,439.4c0.2,219.1-159.8,403.7-372,438.7v20.9c5.3-1.1,10.6-2.3,15.9-3.3
		c96.9-19.5,180.7-63.9,247.9-136.3C1075.3,775.6,1114.3,634.7,1082.1,475.4z M2823,732c-1.8-34.6-16.7-61.9-45.4-81.4
		c-20.6-14-43.6-22.2-67.8-26.8c-27.8-5.3-55.8-9.4-83.7-14.2c-11-1.9-21.8-5-30.7-12.3c-11.8-9.8-11.7-26.2,0.6-35.2
		c4.5-3.3,9.8-5.8,15.2-7.3c17.9-4.9,36-4.3,53.8,0.4c20.2,5.4,34.6,16.8,37.4,39.2h116.7c-1.5-26.2-8.6-50.1-24.1-71.1
		c-19.6-26.6-46.8-42-77.7-51.7c-35-11-70.9-13.3-107.2-10.7c-27.4,2-53.9,8-79,19.8c-48,22.6-74.3,66.4-70.7,117.6
		c2.1,30.5,13.4,56.4,37.1,76.3c16.8,14.1,36.2,23.5,57.4,27.8c33.1,6.8,66.4,12.2,99.7,18.2c11.5,2.1,23,4.5,31.8,13.1
		c0.5,0.5,1,1,1.5,1.6s0.9,1.1,1.3,1.7c0.4,0.6,0.8,1.1,1.1,1.7c0.6,1.1,1.1,2.3,1.5,3.4c0.1,0.3,0.2,0.5,0.2,0.8
		c0.1,0.2,0.1,0.3,0.1,0.5c0.1,0.4,0.2,0.8,0.3,1.2c0,0.2,0.1,0.5,0.1,0.7c0.1,0.4,0.1,0.9,0.1,1.3c0,0.2,0,0.3,0,0.5
		c0,0.8,0,1.6-0.1,2.4c0,0.2,0,0.4-0.1,0.6c0,0.2,0,0.3-0.1,0.5c0,0.1,0,0.2,0,0.3c-0.1,0.3-0.1,0.7-0.2,1v0
		c-0.1,0.3-0.1,0.5-0.2,0.8c-0.1,0.3-0.2,0.6-0.3,1c-0.1,0.3-0.2,0.6-0.4,0.9c-0.3,0.6-0.6,1.2-0.9,1.8c-0.3,0.6-0.7,1.2-1.1,1.8
		c-0.4,0.6-0.9,1.1-1.4,1.7c-0.7,0.8-1.6,1.6-2.5,2.3c-0.6,0.5-1.2,0.9-1.8,1.3c-0.6,0.4-1.2,0.9-1.8,1.3c-0.6,0.4-1.3,0.8-1.9,1.2
		c-0.5,0.3-1,0.6-1.5,0.8c-0.4,0.2-0.8,0.4-1.2,0.6c-0.4,0.2-0.8,0.4-1.2,0.6c-0.1,0.1-0.3,0.1-0.4,0.2c-0.1,0.1-0.3,0.1-0.4,0.2
		c-0.4,0.2-0.8,0.3-1.2,0.5c-0.4,0.2-0.8,0.3-1.2,0.5c-0.6,0.2-1.2,0.5-1.9,0.7c-0.4,0.1-0.8,0.3-1.3,0.4c-22.6,6.4-45.5,6.2-68-0.5
		c-21-6.2-34.8-19.6-39.6-41.4c-0.2-0.8-0.5-1.5-0.9-2.8h-116.4c0.4,3.4,0.6,6.8,1.1,10.2c0.2,1.2,0.3,2.3,0.5,3.5
		c0.2,1.2,0.4,2.3,0.6,3.4c0.2,1.2,0.4,2.4,0.7,3.6c0.1,0.5,0.2,1,0.3,1.6c0.1,0.6,0.2,1.1,0.3,1.6c0.2,0.9,0.4,1.8,0.6,2.7
		c0.2,0.8,0.4,1.7,0.6,2.5c1.4,5.6,3,10.9,4.9,16.1c0.3,0.8,0.6,1.7,0.9,2.5c1.9,5,4.2,9.9,6.6,14.6c0.4,0.7,0.8,1.4,1.1,2.1
		c0.4,0.7,0.8,1.4,1.2,2.1c0.7,1.2,1.4,2.4,2.2,3.6c0.4,0.6,0.7,1.2,1.1,1.8c1,1.6,2.1,3.2,3.1,4.7c0.3,0.4,0.6,0.8,0.9,1.2
		c0.1,0.1,0.1,0.2,0.2,0.3c0.4,0.6,0.9,1.2,1.3,1.8c0,0.1,0.1,0.1,0.1,0.2c0.5,0.7,1.1,1.4,1.7,2.2c2.2,2.8,4.4,5.4,6.9,8
		c1,1,1.9,2.1,2.9,3.1c0.7,0.7,1.3,1.3,2,2c0.9,0.8,1.7,1.7,2.6,2.5c0.7,0.6,1.3,1.2,2,1.8c0.2,0.1,0.3,0.3,0.5,0.4
		c0.5,0.4,1.1,0.9,1.6,1.4c0.8,0.7,1.5,1.3,2.3,1.9c0.8,0.6,1.5,1.2,2.3,1.9c0,0,0.1,0.1,0.1,0.1c0.6,0.5,1.3,1,2,1.5
		c0.9,0.7,1.9,1.4,2.9,2.1c1.5,1.1,3,2.1,4.6,3.2c3.1,2.1,6.4,4.1,9.8,6c0.4,0.2,0.8,0.5,1.3,0.7c0.4,0.2,0.8,0.5,1.3,0.7
		c0.9,0.5,1.7,0.9,2.6,1.4c0.7,0.4,1.5,0.8,2.2,1.1c0.8,0.4,1.5,0.7,2.2,1.1c0.8,0.4,1.5,0.7,2.3,1.1c0.8,0.3,1.5,0.7,2.2,1
		c0.9,0.4,1.9,0.9,2.8,1.2c0.6,0.3,1.2,0.5,1.7,0.8c1.5,0.7,3,1.3,4.6,1.9c1.8,0.7,3.5,1.3,5.3,2c3.5,1.3,7.1,2.4,10.7,3.5
		c1.1,0.3,2.1,0.6,3.2,0.9s2.1,0.6,3.2,0.9c0.8,0.2,1.7,0.5,2.5,0.7c3.2,0.8,6.5,1.6,9.8,2.2c0.8,0.2,1.6,0.3,2.4,0.5
		c0.8,0.2,1.6,0.3,2.4,0.5c0.8,0.2,1.6,0.3,2.4,0.4c2.2,0.4,4.4,0.8,6.6,1.1c1.1,0.2,2.2,0.3,3.3,0.5c1.1,0.2,2.3,0.3,3.4,0.5
		c1.4,0.2,2.9,0.4,4.3,0.5c0.9,0.1,1.7,0.2,2.6,0.3c0.9,0.1,1.9,0.2,2.8,0.3c1.2,0.1,2.4,0.2,3.6,0.3c39.2,3.3,77.9,1,115.7-10.4
		c1.2-0.4,2.4-0.7,3.5-1.1c1.1-0.3,2.2-0.7,3.3-1.1c0.8-0.3,1.7-0.6,2.5-0.9c0.6-0.2,1.1-0.4,1.7-0.6c0.4-0.2,0.9-0.3,1.3-0.5
		c0.8-0.3,1.5-0.6,2.3-0.9c0.7-0.2,1.3-0.5,1.9-0.8c4.5-1.8,8.9-3.7,13.2-5.9c0.5-0.2,1-0.5,1.5-0.8c1.6-0.8,3.1-1.7,4.7-2.5
		c0.5-0.3,1-0.6,1.5-0.9c0.5-0.3,1-0.6,1.5-0.9c2.6-1.6,5.2-3.2,7.8-5c0.5-0.4,1-0.7,1.5-1.1c0.8-0.6,1.6-1.2,2.5-1.8
		c1.2-0.9,2.3-1.8,3.5-2.7c1-0.8,2-1.6,3-2.5c0.4-0.3,0.8-0.7,1.2-1c0.4-0.4,0.8-0.7,1.3-1.1c0.4-0.4,0.8-0.7,1.2-1.1
		c1.6-1.5,3.2-3,4.7-4.5c0.7-0.7,1.4-1.4,2.1-2.2c0.1,0,0.1-0.1,0.1-0.1c0.6-0.7,1.3-1.4,1.9-2c0.3-0.4,0.7-0.7,1-1.1
		c0.7-0.7,1.3-1.5,1.9-2.2c0.3-0.4,0.6-0.7,0.9-1.1c0.5-0.6,1-1.2,1.4-1.8c0.3-0.3,0.5-0.7,0.8-1c0.4-0.5,0.7-1,1.1-1.4
		c0.2-0.2,0.3-0.4,0.5-0.7c0.4-0.6,0.9-1.2,1.3-1.8c0.5-0.7,0.9-1.4,1.4-2.1c0.4-0.6,0.7-1.1,1.1-1.7c0-0.1,0.1-0.1,0.1-0.2
		c0.4-0.7,0.8-1.3,1.2-2c0.6-1,1.2-2,1.7-3c0.2-0.3,0.3-0.6,0.5-0.9c0.2-0.4,0.4-0.7,0.6-1.1c0.2-0.3,0.4-0.7,0.5-1
		c0.2-0.3,0.3-0.6,0.5-0.9c0.3-0.6,0.6-1.1,0.8-1.7c0.2-0.5,0.5-1.1,0.7-1.6c0.3-0.6,0.5-1.1,0.8-1.7c0.1-0.3,0.2-0.6,0.4-0.9
		c0.1-0.3,0.3-0.7,0.4-1c0.4-0.8,0.7-1.7,1-2.6c0.2-0.6,0.5-1.3,0.7-1.9c0.2-0.6,0.5-1.3,0.7-1.9c0.1-0.3,0.2-0.6,0.3-0.9
		c0.1-0.3,0.2-0.6,0.3-0.9c0.2-0.6,0.4-1.2,0.6-1.8c0.1-0.4,0.2-0.7,0.3-1c0.2-0.8,0.4-1.5,0.6-2.2c0.2-0.7,0.4-1.4,0.5-2
		c0.1-0.3,0.1-0.5,0.2-0.8c0.2-0.8,0.4-1.7,0.6-2.5c0.1-0.6,0.3-1.2,0.4-1.8c0.1-0.6,0.2-1.1,0.3-1.6c0.2-1.1,0.4-2.2,0.6-3.3
		c0.1-0.5,0.2-1.1,0.3-1.7c0.1-0.9,0.2-1.8,0.4-2.6c0.1-0.5,0.1-0.9,0.2-1.4c0-0.2,0.1-0.5,0.1-0.7c0.1-0.6,0.1-1.2,0.2-1.8
		c0.1-0.6,0.1-1.2,0.2-1.8c0.1-1.2,0.2-2.5,0.2-3.8c0-0.6,0.1-1.3,0.1-1.9c0-1,0.1-2,0.1-2.9c0-1,0-2,0-2.9
		C2823.2,737.4,2823.1,734.7,2823,732z M2251.2,470.9v19.7c-1.4-0.6-1.9-0.8-2.5-1.2c-32.7-19.8-68.3-28.4-106.3-27.8
		c-57.9,0.8-106.3,23.1-144,66.7c-41.8,48.4-56.1,105.5-47,168.2c14.5,99.5,96.5,169.2,189.9,170.2c37.4,0.4,72.7-7.5,105.2-26.5
		c1.4-0.8,2.8-1.5,4.8-2.6v20.8h130.6V470.9H2251.2z M2251,719.9c0,2.4-1.1,5.3-2.6,7c-18.8,20.9-42.5,31.3-70.4,32.9
		c-28.4,1.7-53.4-6.3-73.5-26.9c-45.3-46.4-32.8-134.6,32.6-159.6c37.9-14.5,85.2-2.4,112,28.8c1.3,1.6,1.9,4.2,2,6.3
		c0.2,18.7,0.1,37.3,0.1,56C2251.1,682.9,2251.2,701.4,2251,719.9z M3171,629.5c24.9-26.5,49.7-52.8,74.4-79.1
		c18.5-19.7,37-39.3,55.7-59.1c6.2-6.6,12.5-13.2,18.7-19.9h0c-0.4-0.1-0.7-0.2-1-0.3c-0.1,0-0.2-0.1-0.3-0.1
		c-0.2-0.1-0.3-0.1-0.5-0.1c-0.1,0-0.2,0-0.2,0c-21.2,0-42.3,0-63.5,0c-16.2,0-32.3,0-48.5,0c-13.2,0-26.3,0-39.5,0.1
		c-1.8,0-4.1,1.2-5.4,2.6c-32,33.9-64,67.9-95.9,101.9c-12.4,13.2-24.9,26.4-37.3,39.6c-0.5-0.1-1.1-0.2-1.6-0.3V291.1h-130.9v567.6
		h131.2v-5.9c0-21.2,0.1-42.3-0.1-63.5c0-4.1,1-7.2,3.9-10.2c11.8-12.2,23.4-24.6,35.1-37c5.3-5.6,10.7-11.2,16.2-17
		c1.4,1.8,2.4,3.2,3.3,4.5c14.6,20.9,29.2,41.8,43.8,62.6c14.6,20.9,29.2,41.8,43.8,62.7c0.1,0.1,0.1,0.2,0.2,0.3
		c0.1,0.2,0.3,0.4,0.4,0.6c0.2,0.2,0.3,0.4,0.5,0.6c0.1,0.2,0.3,0.3,0.4,0.4c0.2,0.2,0.4,0.3,0.5,0.5c0.4,0.3,0.8,0.7,1.3,0.9
		c0.2,0.1,0.3,0.2,0.5,0.3c0.2,0.1,0.3,0.1,0.5,0.2c0.1,0,0.2,0.1,0.2,0.1c0.1,0,0.2,0.1,0.4,0.1c0.4,0.1,0.9,0.2,1.4,0.3
		c0.1,0,0.3,0,0.4,0.1c0.4,0,0.9,0.1,1.4,0.1c49-0.1,98-0.1,147-0.1h5.7C3278.7,782,3225,705.8,3171,629.5z M1864.4,313.5
		c-29.5,0-59,0.2-88.5-0.1c-5.7-0.1-8.8,1.8-11.9,6.5c-57,85.3-114.2,170.4-171.4,255.6c-1.6,2.4-3.2,4.7-4.8,7.1
		c-1.6,2.4-3.2,4.8-4.8,7.1c-0.8,1.2-1.6,2.4-2.4,3.6c-1.6,2.4-3.3,4.8-4.9,7.3c-0.8,1.2-1.7,2.5-2.5,3.7c-0.3-0.4-0.6-0.7-0.8-1.1
		c-0.3-0.3-0.5-0.6-0.7-0.9c-0.4-0.6-0.8-1.1-1.2-1.6c-8-11.9-16-23.8-24-35.6c-55.7-82.6-111.4-165.1-167-247.7
		c-1.9-2.8-3.9-3.9-7.3-3.8c-30.5,0.1-61,0.1-91.5,0.1c-1.8,0-3.5,0.2-5.3,0.3v545.1h136.7V585.3c2.1,3.1,3.5,5.2,5,7.3
		c38.6,58.9,77.1,117.9,115.6,176.9c0.2,0.3,0.4,0.6,0.6,0.9c0.1,0.1,0.2,0.2,0.3,0.3c0.1,0.1,0.2,0.3,0.3,0.4
		c0.1,0.1,0.2,0.2,0.2,0.2c0.2,0.2,0.3,0.3,0.4,0.4c0.1,0.1,0.2,0.2,0.3,0.3c0.1,0.1,0.2,0.2,0.3,0.2c0,0,0.1,0.1,0.1,0.1
		c0.1,0.1,0.2,0.2,0.4,0.2c0.3,0.1,0.5,0.3,0.8,0.4c0.2,0.1,0.3,0.1,0.5,0.2c0.1,0,0.3,0.1,0.4,0.1c0.1,0,0.2,0,0.2,0.1
		c0.3,0.1,0.6,0.1,1,0.2c0.2,0,0.3,0,0.4,0s0.3,0,0.5,0c0.2,0,0.4,0,0.6,0c22.2-0.2,44.3-0.2,66.5,0c0.4,0,0.9,0,1.3-0.1
		c0.1,0,0.2,0,0.4,0c0.2,0,0.5-0.1,0.7-0.2c0.1,0,0.3-0.1,0.4-0.1c0.1,0,0.2-0.1,0.2-0.1c0.1,0,0.2-0.1,0.3-0.1
		c0.2-0.1,0.3-0.2,0.5-0.2c0.1,0,0.2-0.1,0.2-0.1c0.1,0,0.2-0.1,0.2-0.1c0.2-0.1,0.3-0.2,0.4-0.3c0.1-0.1,0.2-0.2,0.4-0.3
		c0.1-0.1,0.2-0.2,0.4-0.4c0.1-0.1,0.1-0.1,0.2-0.2c0.3-0.3,0.6-0.7,0.8-1.1c39.2-59.9,78.4-119.8,117.7-179.7
		c0.1-0.1,0.2-0.2,0.3-0.4c0.1-0.2,0.2-0.3,0.3-0.5c0.1-0.1,0.2-0.2,0.2-0.3c0.3-0.3,0.6-0.7,1-1.1c0.1-0.2,0.3-0.3,0.5-0.6
		c0.2-0.3,0.5-0.6,0.8-1v272.3h136.9V313.5H1864.4z"/>
	<path d="M1082.1,475.4c-18.5-91.4-63.3-169.3-130.2-234.3c-63.1-61.3-137.8-101.5-223.8-120.6c-9-2-18-4.1-27.1-5.8
		c-90.4-17.4-145,0-145,0c-12.3,2.6-24.7,4.9-37,7.9c-79.5,19.1-149.2,56.8-208.8,112.6c-64.7,60.7-108.6,134-131.6,219.7
		c-8.1,30-12.9,60.5-14.7,91.5c-0.1,1.4-0.6,2.8-0.8,4.2v48c0.6,5.6,1.3,11.1,1.8,16.7c6.6,75.9,30.4,145.9,71.5,210
		c46.1,71.8,107.5,126.9,183.7,165.4c42.2,21.3,86.7,35.5,133.3,43c0.9,0.2,1.8,0.6,2.8,0.9c0,0,72,12.8,145,0
		c5.3-0.9,10.6-2.3,15.9-3.3c96.9-19.5,180.7-63.9,247.9-136.3C1075.3,775.6,1114.3,634.7,1082.1,475.4z M701,1013.7
		c-25.9,4.3-52.6,6.3-79.8,5.9C378.7,1016.1,180,817.1,183,568.8c3-244.2,203.8-443,452.3-439.1c22.3,0.3,44.2,2.3,65.6,5.9
		c211.4,34.8,372.4,218.8,372,439.4C1073.2,794.1,913.1,978.7,701,1013.7z"/>
	<path d="M1870.8,313.5c0,182.2,0,363.6,0,545.4c-45.6,0-91,0-136.9,0c0-90.5,0-180.7,0-272.3c-1.6,1.9-2.4,2.8-3.1,3.8
		c-39.3,59.9-78.5,119.8-117.7,179.7c-1.6,2.5-3.3,3.5-6.4,3.5c-22.2-0.1-44.3-0.2-66.5,0c-3.6,0-5.6-1.1-7.5-4.1
		c-38.5-59-77-117.9-115.6-176.9c-1.4-2.2-2.9-4.3-4.9-7.3c0,91.9,0,182.6,0,273.6c-45.7,0-91.1,0-136.7,0c0-181.7,0-363.1,0-545.1
		c1.8-0.1,3.5-0.3,5.3-0.3c30.5,0,61,0,91.5-0.1c3.4,0,5.3,1,7.3,3.8c55.6,82.6,111.3,165.2,167,247.7c8,11.9,16,23.8,24,35.6
		c0.7,1.1,1.6,2.1,2.7,3.6c6.7-9.9,13.1-19.3,19.4-28.8c57.2-85.2,114.4-170.3,171.4-255.6c3.1-4.7,6.2-6.5,11.9-6.5
		c29.5,0.3,59,0.1,88.5,0.1C1866.4,313.5,1868.4,313.5,1870.8,313.5z"/>
	<path d="M3027.7,615c12.4-13.2,24.9-26.4,37.3-39.6c32-34,63.9-68,95.9-101.9c1.3-1.4,3.6-2.6,5.4-2.6c50.5-0.1,101-0.1,151.5-0.1
		c0.3,0,0.6,0.2,2,0.5c-25,26.6-49.7,52.8-74.4,79c-24.7,26.3-49.5,52.6-74.4,79.1c53.9,76.4,107.7,152.5,162.2,229.7
		c-2.6,0-4.1,0-5.7,0c-49,0-98-0.1-147,0.1c-3.8,0-6-1.3-8.1-4.4c-29.1-41.8-58.4-83.6-87.6-125.3c-0.9-1.4-2-2.7-3.3-4.5
		c-5.5,5.8-10.9,11.4-16.2,17c-11.7,12.3-23.3,24.8-35.1,37c-2.9,3-3.9,6.1-3.9,10.2c0.2,21.2,0.1,42.3,0.1,63.5c0,1.8,0,3.6,0,5.9
		c-43.9,0-87.4,0-131.2,0c0-189.1,0-378.2,0-567.6c43.4,0,86.6,0,130.9,0c0,107.7,0,215.6,0,323.5
		C3026.7,614.8,3027.2,614.9,3027.7,615z"/>
	<path d="M2251.2,470.9v19.7c-1.4-0.6-1.9-0.8-2.5-1.2c-32.7-19.8-68.3-28.4-106.3-27.8c-57.9,0.8-106.3,23.1-144,66.7
		c-41.8,48.4-56.1,105.5-47,168.2c14.5,99.5,96.5,169.2,189.9,170.2c37.4,0.4,72.7-7.5,105.2-26.5c1.4-0.8,2.8-1.5,4.8-2.6v20.8
		h130.6V470.9H2251.2z M2251,719.9c0,2.4-1.1,5.3-2.6,7c-18.8,20.9-42.5,31.3-70.4,32.9c-28.4,1.7-53.4-6.3-73.5-26.9
		c-45.3-46.4-32.8-134.6,32.6-159.6c37.9-14.5,85.2-2.4,112,28.8c1.3,1.6,1.9,4.2,2,6.3c0.2,18.7,0.1,37.3,0.1,56
		C2251.1,682.9,2251.2,701.4,2251,719.9z"/>
	<path d="M2702.5,594.5c-2.8-22.5-17.2-33.9-37.4-39.2c-17.8-4.7-35.9-5.3-53.8-0.5c-5.3,1.5-10.7,4-15.2,7.3
		c-12.3,9-12.4,25.4-0.7,35.2c8.9,7.4,19.6,10.4,30.7,12.4c27.9,4.8,55.9,8.9,83.7,14.2c24.2,4.6,47.2,12.8,67.8,26.8
		c28.7,19.5,43.6,46.8,45.4,81.4c1.9,37.1-8.9,69.3-37,94.7c-17.6,15.9-38.5,26.1-61,32.9c-37.8,11.4-76.5,13.7-115.7,10.4
		c-30.3-2.5-59.5-9.1-86.7-23.3c-44.9-23.4-69.8-60.8-76.6-110.6c-0.5-3.4-0.7-6.9-1.1-10.2c39.1,0,77.7,0,116.3,0
		c0.4,1.3,0.7,2,0.9,2.8c4.8,21.8,18.7,35.3,39.6,41.4c22.5,6.6,45.4,6.9,68,0.5c5.6-1.6,11.2-4.6,15.7-8.2c9.5-7.5,9.6-20,1-28.5
		c-8.8-8.6-20.2-11.1-31.8-13.1c-33.2-6-66.6-11.4-99.7-18.2c-21.2-4.4-40.6-13.8-57.4-27.8c-23.7-19.9-35-45.8-37.2-76.3
		c-3.6-51.2,22.7-95,70.7-117.6c25.1-11.8,51.6-17.8,79-19.8c36.3-2.6,72.2-0.3,107.2,10.7c30.8,9.7,58,25.1,77.7,51.7
		c15.5,21,22.6,44.9,24.1,71.1C2780.1,594.5,2741.3,594.5,2702.5,594.5z"/>
	<path d="M896.4,659.1c-23.2,0-46.3,0.5-69.5-0.2c-9.8-0.3-16.7,1.3-19.7,11.4c-0.1,0.3-0.3,0.6-0.5,0.9
		c-24.7,41.7-62.5,72.8-105.8,89.4c-37.3,14.3-78.6,17.9-119.2,8.5c-81.5-18.9-134.5-69.4-158.1-150.1c-0.4-1.4-0.5-2.8-0.9-5h479.7
		V462.9H350c-0.1,1.7-0.2,3.1-0.2,4.6c0,105.8-0.1,211.7,0,317.5c0,32,24.1,55.7,56.1,55.7h440.5c32.6,0,56.3-23.9,56.3-56.5v-125
		H896.4z M660.3,569.9c0.1-0.5,0.1-1,0.2-1.4c0.1-0.5,0.1-1,0.2-1.4c0.1-0.6,0.2-1.2,0.3-1.8c0.1-0.7,0.3-1.4,0.4-2.1
		c0.1-0.3,0.1-0.6,0.2-0.9c0.1-0.3,0.2-0.6,0.2-0.9c0.1-0.3,0.1-0.5,0.2-0.8c0.1-0.4,0.2-0.8,0.3-1.2c0,0,0,0,0,0
		c0.1-0.3,0.2-0.6,0.3-0.9c0.1-0.2,0.1-0.4,0.2-0.7c0.1-0.2,0.2-0.5,0.2-0.7c0.3-1,0.7-1.9,1-2.9c0.1-0.4,0.3-0.8,0.5-1.2
		c0.1-0.3,0.2-0.6,0.3-0.8c0.1-0.4,0.3-0.7,0.4-1.1c0,0,0,0,0-0.1c0.2-0.4,0.4-0.8,0.5-1.2c0.2-0.4,0.3-0.7,0.5-1.1
		c0.3-0.7,0.6-1.3,0.9-2c0,0,0,0,0,0c0.3-0.7,0.7-1.3,1-2c0.3-0.7,0.7-1.3,1.1-2c0.2-0.4,0.4-0.8,0.7-1.2c0.2-0.2,0.3-0.5,0.4-0.7
		c0.6-1.1,1.3-2.1,2-3.2c0.2-0.3,0.4-0.6,0.6-0.9c0.3-0.5,0.7-1,1.1-1.6c1.2-1.7,2.4-3.3,3.8-4.9c0.4-0.5,0.9-1.1,1.3-1.6
		c0.6-0.6,1.1-1.3,1.7-1.9c0.2-0.2,0.4-0.5,0.7-0.7c0.1-0.1,0.2-0.2,0.4-0.4c0.5-0.5,0.9-1,1.4-1.5c0.5-0.5,1-1,1.5-1.4
		c0.8-0.7,1.6-1.5,2.4-2.2c1-0.9,2-1.8,3.1-2.6c0.5-0.4,1-0.8,1.4-1.1c0.5-0.4,0.9-0.7,1.4-1c0.2-0.2,0.4-0.3,0.6-0.5
		c0.5-0.4,1-0.7,1.5-1.1c0.4-0.3,0.8-0.6,1.2-0.8c0.3-0.2,0.7-0.4,1-0.7c0.3-0.2,0.6-0.4,0.9-0.6c0.2-0.2,0.5-0.3,0.8-0.5
		c0.5-0.3,1-0.6,1.5-0.9c0.1,0,0.1-0.1,0.2-0.1c0.3-0.2,0.6-0.3,0.9-0.5c1-0.6,2-1.1,3-1.6c0.2-0.1,0.3-0.2,0.5-0.3
		c1-0.5,2.1-1,3.2-1.5c0.6-0.3,1.2-0.5,1.8-0.8c0.6-0.3,1.2-0.5,1.8-0.7c1.3-0.5,2.6-1,3.9-1.4c0.6-0.2,1.2-0.4,1.8-0.6
		c0.9-0.3,1.9-0.6,2.8-0.8c0.4-0.1,0.8-0.2,1.2-0.3c1.4-0.4,2.8-0.7,4.3-1c0.7-0.2,1.4-0.3,2.1-0.4c0.7-0.1,1.4-0.2,2.1-0.3
		c0,0,0.1,0,0.1,0c0.7-0.1,1.4-0.2,2.2-0.3c0.7-0.1,1.4-0.2,2.2-0.2c0,0,0,0,0,0c0.6-0.1,1.2-0.1,1.9-0.2c0.2,0,0.5,0,0.8,0
		c0.6,0,1.2-0.1,1.9-0.1c0.8,0,1.5-0.1,2.3-0.1c1,0,2,0,3.1,0c52.5,0.4,81.5,42.6,83.9,72.2h-11.8c-10,0-20-0.1-30,0.1
		c-3,0.1-4.6-0.6-6-3.6c-0.2-0.4-0.3-0.7-0.5-1.1c-0.1-0.3-0.3-0.6-0.4-0.8c-0.2-0.3-0.3-0.6-0.5-0.9c-0.2-0.4-0.5-0.9-0.8-1.3
		c-0.3-0.4-0.5-0.9-0.8-1.3c-0.2-0.3-0.3-0.5-0.5-0.8c-0.2-0.3-0.4-0.7-0.7-1c-1.6-2.3-3.3-4.4-5.3-6.2c-0.1-0.2-0.3-0.3-0.4-0.4
		c-0.3-0.3-0.6-0.6-0.9-0.8c-0.1-0.1-0.2-0.2-0.3-0.2c-0.4-0.3-0.8-0.7-1.3-1c-0.5-0.4-0.9-0.7-1.4-1c-0.3-0.2-0.6-0.4-0.9-0.6
		c-0.4-0.2-0.8-0.5-1.2-0.7s-0.8-0.4-1.2-0.7c-0.4-0.2-0.8-0.4-1.2-0.6c-0.4-0.2-0.8-0.4-1.2-0.6c-0.1,0-0.1,0-0.2-0.1
		c-0.4-0.2-0.8-0.3-1.2-0.5c-0.4-0.2-0.9-0.3-1.3-0.5c-0.4-0.1-0.8-0.3-1.2-0.4c-0.6-0.2-1.2-0.3-1.8-0.5c-0.4-0.1-0.7-0.2-1.1-0.3
		c-0.2-0.1-0.5-0.1-0.7-0.2c-0.4-0.1-0.9-0.2-1.4-0.3c-0.4-0.1-0.8-0.1-1.2-0.2c-0.7-0.1-1.4-0.2-2.1-0.3c-0.4,0-0.8-0.1-1.2-0.1
		c-0.4,0-0.8-0.1-1.2-0.1c-0.4,0-0.9,0-1.3,0c-0.5,0-1,0-1.6,0c-0.6,0-1.2,0-1.7,0c-0.5,0-0.9,0-1.4,0.1c-0.5,0-1,0.1-1.5,0.1
		s-1,0.1-1.5,0.2c-0.5,0.1-1,0.1-1.5,0.2c-0.5,0.1-0.9,0.2-1.4,0.3c-0.5,0.1-0.9,0.2-1.4,0.3c-0.4,0.1-0.7,0.2-1.1,0.3
		c-0.6,0.1-1.1,0.3-1.6,0.5c-0.4,0.1-0.9,0.3-1.3,0.4c-0.4,0.2-0.9,0.3-1.3,0.5c0,0,0,0,0,0c-0.4,0.2-0.8,0.3-1.2,0.5
		c-0.5,0.2-0.9,0.4-1.4,0.6c-0.3,0.2-0.7,0.4-1.1,0.5c-0.5,0.3-0.9,0.5-1.4,0.8c-0.3,0.2-0.7,0.4-1,0.6c-1.8,1.1-3.4,2.5-5,3.9
		c-0.2,0.2-0.4,0.4-0.7,0.6c-0.2,0.2-0.5,0.4-0.7,0.7c-0.1,0.1-0.2,0.2-0.3,0.3c-0.2,0.2-0.4,0.4-0.6,0.7c-0.2,0.2-0.3,0.3-0.5,0.5
		c-0.2,0.3-0.5,0.5-0.7,0.8c-0.9,1.1-1.8,2.2-2.6,3.5c-0.2,0.3-0.4,0.7-0.6,1c-0.3,0.4-0.5,0.8-0.8,1.3c-0.3,0.4-0.5,0.8-0.8,1.3
		c0,0,0,0,0,0.1c-0.2,0.4-0.4,0.8-0.6,1.2c-0.3,0.5-0.5,1-0.8,1.5c-0.1,0.1-0.1,0.2-0.1,0.3c-0.1,0.2-0.2,0.4-0.4,0.6
		c-0.1,0.2-0.3,0.4-0.4,0.6c-0.5,0.7-1.2,1.3-1.8,1.6c-0.1,0-0.2,0.1-0.2,0.1c-0.1,0.1-0.2,0.1-0.3,0.1c-0.1,0-0.1,0-0.2,0.1
		c-0.1,0-0.1,0-0.1,0c-0.1,0-0.2,0-0.3,0c-1,0-1.9,0-2.9,0c-1.9,0-3.8,0.1-5.6,0.1c-1.9,0-3.8,0-5.6,0c-9.8,0-19.6,0-29.6,0
		C660.2,571,660.2,570.4,660.3,569.9z M509,499.3c51.2,0.6,80.9,41.5,83.5,72.2c-14.7,0-29.3,0.1-43.9-0.1c-1.2,0-2.8-1.5-3.4-2.7
		c-0.2-0.5-0.5-1-0.7-1.4c-0.1-0.2-0.2-0.5-0.4-0.7c-0.1-0.3-0.3-0.6-0.5-0.9c-0.5-0.9-0.9-1.7-1.5-2.5c-0.2-0.3-0.4-0.6-0.6-0.9
		c-0.3-0.4-0.5-0.8-0.8-1.2c-0.2-0.3-0.4-0.5-0.6-0.8c-0.1-0.1-0.2-0.2-0.3-0.4c-0.2-0.3-0.4-0.5-0.6-0.8c-0.4-0.5-0.8-1-1.2-1.5
		c-0.2-0.2-0.3-0.4-0.5-0.6c-0.5-0.6-1.1-1.2-1.6-1.7c-0.2-0.2-0.4-0.4-0.7-0.7c-1.1-1-2.2-1.9-3.3-2.8c-0.4-0.3-0.9-0.7-1.4-1
		c-0.5-0.3-0.9-0.6-1.4-0.9c-0.4-0.2-0.8-0.5-1.2-0.7c-0.4-0.2-0.7-0.4-1.1-0.6c-0.5-0.2-0.9-0.5-1.4-0.7c-3.4-1.5-7.1-2.6-11.1-3.1
		c-1-0.1-2-0.2-3.1-0.3c-1-0.1-2.1-0.1-3.2-0.1c-17.5-0.1-29.9,8.4-37.4,24.3c-0.5,1.2-2.3,2.5-3.5,2.5c-14.5,0.2-28.9,0.1-43.8,0.1
		C427,538.1,458.6,498.6,509,499.3z"/>
	<path d="M902.8,353.2v64.1h-553v-5.1c0-19.8,0-39.7,0-59.5c0.1-32.7,23.8-56.3,56.5-56.3c98.2,0,196.4,0,294.6,0
		c48.4,0,96.8,0,145.2,0C879.2,296.5,902.8,320.2,902.8,353.2z"/>
	<path d="M759.5,659.5c-1.1,1.8-2.2,3.6-3.5,5.4c-0.2,0.3-0.4,0.6-0.6,0.9c-0.2,0.3-0.4,0.6-0.6,0.9c-0.4,0.6-0.9,1.2-1.3,1.8
		c-0.4,0.6-0.9,1.2-1.4,1.8c-0.5,0.6-0.9,1.2-1.4,1.8c-0.5,0.6-0.9,1.1-1.4,1.7c0,0,0,0,0,0c-0.4,0.5-0.8,0.9-1.2,1.4
		c-0.3,0.3-0.6,0.7-0.9,1.1c-0.4,0.5-0.9,1-1.3,1.5c-0.4,0.5-0.9,1-1.4,1.5c-1.9,2.1-4,4.1-6.1,6.1c-0.6,0.6-1.2,1.1-1.8,1.7
		c-0.4,0.4-0.8,0.8-1.3,1.1c-0.4,0.3-0.8,0.7-1.1,1c-0.5,0.4-0.9,0.8-1.4,1.2c-0.3,0.3-0.6,0.5-1,0.8l-1.2,1
		c-0.6,0.5-1.1,0.9-1.7,1.4c-1,0.8-2,1.5-3,2.3c-0.3,0.3-0.7,0.5-1,0.8c-0.5,0.4-1,0.8-1.6,1.2c-0.5,0.4-1.1,0.8-1.6,1.2
		c-0.7,0.5-1.4,1-2.2,1.5s-1.5,1-2.2,1.5c-0.8,0.6-1.7,1.1-2.5,1.6c-0.7,0.4-1.3,0.8-2,1.2c-1.5,0.9-3.1,1.9-4.6,2.8
		c-0.8,0.4-1.5,0.9-2.3,1.3c-0.1,0-0.2,0.1-0.3,0.1c-0.7,0.4-1.5,0.8-2.2,1.2c-0.8,0.4-1.6,0.9-2.4,1.3c-0.4,0.2-0.8,0.4-1.2,0.6
		c-1.9,1-3.9,1.9-5.9,2.8c-0.7,0.3-1.4,0.7-2.2,1c-1.6,0.7-3.3,1.4-5,2.1c-0.4,0.2-0.9,0.4-1.4,0.5c-1.4,0.6-2.9,1.1-4.3,1.6
		c-0.5,0.2-0.9,0.3-1.4,0.5c-1.2,0.4-2.4,0.8-3.7,1.2c-0.7,0.2-1.3,0.4-2,0.6c-0.4,0.1-0.7,0.2-1.1,0.3c-1,0.3-2,0.6-3,0.9
		c-1.1,0.3-2.2,0.6-3.2,0.8c-0.8,0.2-1.6,0.4-2.4,0.6c-0.8,0.2-1.6,0.4-2.4,0.6c-0.7,0.2-1.4,0.3-2.2,0.5c-1.4,0.3-2.8,0.6-4.3,0.8
		c-0.5,0.1-0.9,0.2-1.4,0.2c-0.4,0.1-0.7,0.1-1.1,0.2c-0.4,0.1-0.8,0.1-1.1,0.2c-0.6,0.1-1.2,0.2-1.8,0.2c-0.5,0.1-1,0.1-1.6,0.2
		c-0.1,0-0.2,0-0.4,0c-0.5,0.1-1,0.1-1.4,0.2c-0.6,0.1-1.3,0.1-1.9,0.2c-0.8,0.1-1.7,0.2-2.5,0.2c-0.8,0.1-1.7,0.1-2.5,0.2
		c-61.6,4.1-110.7-19.4-148.8-69.1H759.5z"/>
	<path d="M511.4,544.6c1,0.1,2.1,0.2,3.1,0.3C513.5,544.8,512.5,544.7,511.4,544.6z"/>
	<path d="M514.5,544.9c4,0.5,7.7,1.6,11.1,3.1C522.2,546.5,518.5,545.4,514.5,544.9z"/>
</g>
</svg>
