<?xml version="1.0" encoding="utf-8"?>
<!-- Generator: Adobe Illustrator 25.0.1, SVG Export Plug-In . SVG Version: 6.00 Build 0)  -->
<svg version="1.1" id="Layer_1" xmlns="http://www.w3.org/2000/svg" xmlns:xlink="http://www.w3.org/1999/xlink" x="0px" y="0px"
	 viewBox="0 0 3726 595.3" style="enable-background:new 0 0 3726 595.3;" xml:space="preserve">
<g>
	<path d="M1983.8,382.6c-2.2,6-4,12.2-6.6,18c-4.6,10.2-9.2,20.5-14.8,30.2c-21.1,36.6-73.5,47-107.5,14.8
		c-4.3-4.1-8.2-8.6-12.5-12.7c-15.8-15.3-40.4-22.1-61.7-16.6v143.3c-83.5,17.5-197-9.5-266.4-109.6c-67-96.6-61.9-226.7,13.1-319.2
		c74.8-92.2,190.5-114.4,283.4-84.4c-13.1,13.3-25.8,26.2-38.6,39.1c-12.9,13-25.8,25.9-39.2,39.3c2,2.2,3.7,4,5.5,5.8
		c70.7,70.7,141.4,141.4,212,212.1c10.6,10.6,20.7,21.6,31.2,32.3C1984.2,377.4,1984.9,379.6,1983.8,382.6z"/>
	<path d="M1122.5,430.6h-28.7c-1.4-9.8-2.9-19.6-4.2-29.3c-5.2-36.8-10.4-73.6-15.5-110.4c-4.6-32.9-9.1-65.8-13.7-98.7
		c-1.3-9.2-2.5-18.3-4-27.4c-0.4-2.8-1.2-5.6-2.5-8.2c-3.1-6.5-10.9-7.9-15.8-2.6c-2.4,2.7-4.3,6.2-5.3,9.7
		c-12.5,42.4-24.7,84.9-37.1,127.3c-10.1,34.6-20.5,69.2-30.1,103.9c-6,21.5-29.6,27-45,17.9c-7.1-4.2-11-10.4-13.2-18.1
		c-7.1-24.7-14.2-49.5-21.4-74.2c-14.6-50.5-29.2-101-43.8-151.5c-1.2-4.2-2.6-8.5-4.7-12.3c-4.5-8.1-13.1-8.1-17.6,0.2
		c-1.9,3.6-3,7.8-3.7,11.9c-8,51.5-15.9,103-23.8,154.6c-5.4,35-10.7,70-16,105c-0.2,1.1-0.4,2.1-0.8,3.8h-30.7c0-0.7-0.2-2.2,0-3.6
		c5.9-37.2,11.8-74.3,17.7-111.4c5-31.7,10-63.4,15-95.2c3.4-21.7,6.4-43.6,10.6-65.1c7-36,46.7-37.6,64-22.6
		c6.4,5.5,10.1,12.6,12.4,20.6c6.1,21.6,12.2,43.2,18.3,64.8c15.5,55,31,110.1,46.6,165.1c0.4,1.3,0.7,2.6,1.3,3.7
		c2.2,4.1,6.9,4.4,9.5,0.5c1.2-1.8,1.8-4,2.4-6.1c21.2-74.7,42.3-149.4,63.5-224.1c0.8-3,1.6-6,2.8-8.8c6.7-17.1,21.6-25.8,41-24.3
		c16.2,1.3,29.5,13.3,32.6,30.7c2.7,14.7,4.5,29.6,6.7,44.4c5.1,35,10.1,70.1,15.2,105.2c4.2,29.2,8.4,58.4,12.6,87.5
		C1118.9,405.7,1120.7,417.8,1122.5,430.6z"/>
	<path d="M590.2,131.7v301.5h-27.8c-0.9-7.5-0.3-15.1-0.4-22.7c-0.1-7.5,0-15,0-22.5v-91.4H383.6v135c-5,1.6-21.4,1.9-28.4,0.5
		V131.5h28.2c0.4,9.1,0.1,18.3,0.2,27.4c0,9,0,18.1,0,27.1v83h178.2c0.4-7.4,0.1-15.1,0.2-22.7c0.1-7.5,0-15,0-22.5v-92.2H590.2z"/>
	<path d="M3403.3,425.8c-16.1-51.4-32.2-102.8-48.4-154.2c-11.6-36.9-22.9-73.9-35-110.7c-9.6-29.4-39.3-42.6-68.2-31.1
		c-15.1,6-23.6,17.9-28.3,32.8c-27.7,88.1-55.2,176.2-82.8,264.3c-0.6,2-1.1,4-1.7,6.2h29.4c8.8-28.1,17.6-55.9,26.4-84h154.9
		c8.6,27.9,17,55.6,25.5,83.2h29.9C3404.4,429.9,3404,427.8,3403.3,425.8z M3202.4,322.1c0.4-1.9,0.7-3.6,1.2-5.2
		c15.3-48.2,30.6-96.4,45.9-144.7c0.5-1.7,1-3.4,1.7-5c3.8-8.7,10.5-13.4,20-13.6c9.8-0.2,16.9,4.1,21.2,12.9
		c1.3,2.8,2.3,5.7,3.2,8.7c14.4,46.9,28.8,93.7,43.2,140.6c0.6,1.8,1,3.7,1.7,6.3H3202.4z"/>
	<path d="M2579.2,427.2c-24.1-77-48.3-154-72.4-230.9c-3.8-12-7.3-24-11.4-35.8c-7.2-21.1-22.4-32.7-44-34
		c-25.5-1.5-43.7,10.6-52,34.9c-0.4,1-0.7,2.1-1,3.2c-27.5,87.5-55,174.9-82.4,262.4c-0.6,1.8-0.8,3.6-1.3,5.7h29.1
		c9.1-27.9,18.1-55.6,27.2-83.4h154.8c8.5,27.7,16.9,55.2,25.4,83.1c9.2,1.3,24.8,0.9,29.2-0.7
		C2580,430.1,2579.6,428.6,2579.2,427.2z M2377.5,321.9c3-9.5,5.7-18.5,8.5-27.5c12.7-40,25.4-80.1,38.2-120.1
		c0.7-2.3,1.5-4.6,2.4-6.8c3.7-8.8,10.3-13.6,19.8-13.9c9.8-0.3,17,3.9,21.4,12.7c1.4,2.7,2.3,5.7,3.2,8.6
		c14.4,46.9,28.9,93.7,43.3,140.6c0.6,1.9,1,3.8,1.5,5.6C2510.6,322.6,2393.6,323.2,2377.5,321.9z"/>
	<path d="M1408.4,426.7c-20.6-65.7-41.2-131.3-61.8-197c-7-22.2-13.9-44.5-20.9-66.7c-7.2-22.7-22.5-35.1-44.9-36.6
		c-24.8-1.7-43.2,10.2-51.5,33.5c-0.8,2.3-1.6,4.6-2.3,6.9c-27.1,86.4-54.3,172.8-81.4,259.2c-0.6,2-1,4.1-1.6,6.5h29.2
		c9.1-27.9,18.1-55.6,27.2-83.4h154.8c8.5,27.8,17,55.5,25.5,83.4h29.4C1409.4,430,1408.9,428.4,1408.4,426.7z M1207.9,322.1
		c0.6-2.2,0.9-4.1,1.5-5.9c15.2-48,30.4-96,45.6-143.9c2.8-8.8,7.3-15.9,17.3-18.1c11.2-2.4,21.3,2.4,26.1,12.8
		c0.9,2,1.7,4.1,2.3,6.2c14.6,47.5,29.2,94.9,43.8,142.4c0.6,1.8,1,3.8,1.6,6.5H1207.9z"/>
	<path d="M2839.2,220.5c-3.9-33.4-20.8-57.8-50.7-73.1c-23.1-11.8-48-15.7-73.5-16.1c-28.2-0.4-56.3-0.1-84.5-0.1
		c-2.1,0-4.3,0.2-6.3,0.3c-1.4,7.1-1.1,296.8,0.2,301.8h27.6V340h7.9c19.6,0,39.2,0.2,58.8,0c22.4-0.2,44.2-4,64.8-13.2
		c26.1-11.7,44.3-30.6,52.3-58.5C2840.3,252.6,2841.1,236.7,2839.2,220.5z M2802.9,267.7c-6.8,15.6-18.6,26.5-33.8,33.7
		c-15.6,7.4-32.2,10.6-49.2,11c-21.3,0.6-42.7,0.4-64,0.5c-1,0-2.1-0.3-3.5-0.6V159c2.5-0.1,4.7-0.3,6.8-0.3c18.7,0,37.4-0.2,56.1,0
		c17,0.2,33.8,2.6,49.6,9.2c27.2,11.3,42,31.5,43.9,61.1C2809.7,242.4,2808.3,255.4,2802.9,267.7z"/>
	<path d="M282,405.9c-13.3,13.9-29.8,22.5-48.5,26.7c-32.9,7.4-64.8,4.7-94.9-11c-19.8-10.3-34.3-25.8-43.2-47.3
		c8.4-4.1,16.5-8.1,24.7-12.1c0.7,0.9,1.3,1.4,1.5,2c11,22.7,29.7,35.5,53.6,41c22.6,5.3,45.1,4.8,66.6-4.8
		c18-8.1,30.1-21.4,33-41.5c3.1-21.3-3.3-38.3-23.6-49.2c-12.9-7-27.1-10-41.2-13.5c-17.1-4.2-34.2-8.2-51-13.5
		c-9.3-3-18.3-7.8-26.5-13.2c-18.6-12.2-27.9-30.1-29-52.2c-2-37.7,16.6-63.3,49.1-79.6c37.2-18.6,87.4-12.7,119,13.3
		c11.8,9.7,20.5,21.7,26.4,36.8c-8.3,4.1-16.1,8.1-24.2,12.1c-1-1.6-1.8-2.8-2.5-4.1c-13.7-25.4-35.4-38.3-63.7-41
		c-14.5-1.4-28.6,0.3-41.9,6.6c-13.6,6.4-24.3,15.8-30.2,30c-6.9,16.7-5.8,43.5,19.9,57.3c12,6.4,24.9,9.9,37.9,13
		c16.2,3.9,32.5,7.6,48.7,12c12.4,3.4,24,8.6,34.5,16.2c16.9,12.2,26.1,28.7,28,49.4C306.9,364.8,299.8,387.3,282,405.9z"/>
	<path d="M2290.5,356.4c7.5,4.7,14.9,9.3,22.7,14.2c-1.5,2.5-2.6,4.6-3.9,6.5c-22.8,34-54.6,53.7-95,59.1
		c-47.7,6.4-89.3-7.4-124.1-40.6c-22.6-21.5-37.2-48-43.4-78.6c-10.4-51.3-0.4-98.3,34.1-138.4c33.9-39.5,77.8-56.9,129.6-51.3
		c41.1,4.4,74,24.2,97.9,58.2c1.6,2.3,3,4.8,4.9,7.9c-7.8,4.6-15.2,9-22.7,13.5c-4-5.3-7.3-10.2-11.2-14.7
		c-39.4-46.3-108.9-52.5-156.9-14c-27.8,22.3-43.6,51.5-47.5,86.8c-4.6,41,6.2,77.5,34.7,107.6c26.2,27.7,58.9,40.3,97.1,36.1
		c34.9-3.8,62.2-20.5,81.6-49.9C2288.9,358.2,2289.5,357.6,2290.5,356.4z"/>
	<path d="M3158.5,158.5c-8.2,0.4-16,0.2-23.8,0.2c-7.9,0.1-15.9,0-23.8,0h-48.4c-0.4,9.5-0.1,18.6-0.2,27.8c0,9,0,18.1,0,27.1v219.7
		h-28.8V158.8h-95.3c-0.1-9.2-0.1-17.9,0-26.5c5.1-1.4,206.4-2,220.1-0.7c0.1,4.2,0.2,8.5,0.3,12.8
		C3158.5,148.8,3158.5,153.2,3158.5,158.5z"/>
	<path d="M3633.8,406.1v27.1c-2.4,0.1-4.5,0.3-6.7,0.3c-49.7,0-99.5,0-149.2,0c-3.5,0-7.1-0.3-10.5-0.9
		c-11.5-2.3-17.6-8.8-19.1-20.5c-0.4-3-0.4-6.2-0.4-9.2c0-88.3,0-176.5,0-264.8v-6.4h28.9v274.4H3633.8z"/>
	<path d="M692.8,131.2v301.9h-27.5c-0.1-0.1-0.3-0.2-0.4-0.4c-0.1-0.2-0.4-0.3-0.4-0.5c-0.1-1.8-0.3-3.5-0.3-5.3
		c0-98,0.1-195.9,0.2-293.9c0-0.4,0.4-0.7,0.8-1.5c1.2-0.1,2.7-0.3,4.2-0.3C677,131.2,684.7,131.2,692.8,131.2z"/>
	<path d="M2907.5,433.2h-26.7c-1.3-4.8-1.6-294.1-0.3-301.7h26.7C2908.6,136.4,2908.9,426,2907.5,433.2z"/>
</g>
</svg>
