<?xml version="1.0" encoding="utf-8"?>
<!-- Generator: Adobe Illustrator 25.0.1, SVG Export Plug-In . SVG Version: 6.00 Build 0)  -->
<svg version="1.1" id="Layer_1" xmlns="http://www.w3.org/2000/svg" xmlns:xlink="http://www.w3.org/1999/xlink" x="0px" y="0px"
	 viewBox="0 0 841.9 340.3" style="enable-background:new 0 0 841.9 340.3;" xml:space="preserve">
<style type="text/css">
	.st0{fill:#FFFFFF;}
</style>
<g>
	<path class="st0" d="M161,108.3c0.5-0.7,0.9-1.5,1.4-2.2c-13.4-17.2-26.7-34.2-40.2-51.5C108.7,71.9,95.4,89,82,106.1
		c0.5,0.9,0.9,1.6,1.4,2.2c10.7,16.9,21.4,33.9,32.2,50.8c0.9,1.3,1,2.5,0.4,4c-3.1,8.5-6.1,17.1-9.2,25.7c-0.3,0.8-0.5,1.6-0.8,2.5
		c5.2,2.8,10.2,5.5,15.1,8.2c1,0.5,1.7,0.2,2.4-0.2c4.6-2.5,9.1-5,13.7-7.4c0.3-0.2,0.6-0.4,1-0.7c-0.3-0.8-0.5-1.6-0.8-2.3
		c-3.1-8.5-6.1-17-9.3-25.4c-0.7-1.7-0.5-3,0.5-4.6C139.5,142,150.3,125.2,161,108.3z M48.4,229.8c1.5,1.6,2.9,3,4.2,4.5
		c6.6,6.7,13.2,13.5,19.7,20.2c8.1,8.3,16.2,16.5,24.3,24.8c0.4,0.4,0.9,0.7,1.5,1.1v-95.8C81.4,199.9,65,214.8,48.4,229.8z
		 M147.4,185.9c-0.3-0.3-0.6-0.5-0.9-0.7c0,0-0.1,0-0.2,0c-0.1,0-0.1,0.1-0.3,0.2c0,31.2,0,62.4,0,93.6c0,0.3,0,0.6,0.1,1
		c0,0.1,0.1,0.1,0.1,0.2c0.1,0,0.1,0.1,0.4,0.2c16.4-16.7,32.8-33.5,49.3-50.4C179.5,215.1,163.5,200.5,147.4,185.9z M781.6,133
		v48.7l-0.4,0.2c-17.2-18-34.5-36-51.7-54c-0.1,0.1-0.3,0.2-0.4,0.3v76.4h11V155c0.2-0.1,0.3-0.1,0.5-0.2c5.8,6,11.5,12.1,17.3,18.1
		c5.7,6,11.5,12,17.2,18c5.8,6,11.4,12.1,17.5,18.2v-76.3C789.6,132.3,783.4,132.4,781.6,133z M511.6,174.1c0.8-0.3,1.2-0.4,1.7-0.6
		c14.4-4.4,17.6-21.5,10.9-31.5c-3.5-5.3-8.7-7.8-14.8-8.8c-7.2-1.2-14.5-0.6-21.7-0.7c-0.2,0-0.4,0.1-0.7,0.3v71.9h11v-29.1
		c1.7-0.7,2.2,0.4,2.9,1.3c6.1,8.8,12.3,17.5,18.4,26.3c0.8,1.2,1.6,1.7,3.1,1.7c3.1-0.1,6.2,0,9.3,0c0.6,0,1.2-0.1,2.1-0.2
		C526.2,194.3,519,184.3,511.6,174.1z M497.9,165.7v-22.8c5-0.3,9.8-0.3,14.2,2.2c0.8,0.5,1.5,1.1,2.2,1.8c3.4,3.5,3.6,13-2.5,16.4
		c-0.6,0.4-1.3,0.7-1.9,0.9C506.1,165.7,502.1,165.7,497.9,165.7z M284.1,180.4c-0.5-4.9-2.6-9-6.2-12.3c-2.9-2.6-6.1-4.6-9.7-6
		c-2.8-1.1-5.7-2.2-8.4-3.5c-1.9-0.9-3.7-1.9-5.2-3.3c-2.9-2.6-3.1-6.9-0.6-9.9c3.8-4.7,12-5.2,16.3-1c1.2,1.2,2.2,2.7,3.5,4.1
		c1.4-0.8,2.8-1.6,4.2-2.5c1.5-0.9,2.9-1.8,4.7-2.9c-1.9-2.3-3.5-4.5-5.4-6.4c-8.1-8-23.1-7.4-31.4,1.2c-6.3,6.6-6.8,18.4,0.8,24.9
		c2.3,2,4.9,3.6,7.5,5c2.8,1.5,5.9,2.5,8.7,3.9c1.8,0.8,3.6,1.7,5.3,2.8c3.7,2.6,5.3,6.2,4.8,10.8c-0.5,4.5-2.8,7.7-7,9.5
		c-5.6,2.4-13.8,0.3-16-6.9c-0.5-1.7-0.9-3.5-1.4-5.5c-3.6,0.8-7.1,1.5-10.9,2.3c0.3,1.4,0.4,2.6,0.7,3.8
		c2.2,7.8,6.5,13.7,14.4,16.4c4.9,1.7,9.9,1.8,14.9,0.4C278.8,202.2,285.4,192.1,284.1,180.4z M344.3,133c-7.3-0.8-14.7-0.4-22-0.5
		c-0.2,0-0.4,0.1-0.8,0.3v72.1c3.6,0,7.2,0.1,10.9-0.1v-29.1c1,0,1.8,0,2.6,0c3.3-0.2,6.6-0.1,9.7-0.8c11-2.4,17.4-10.4,17.3-21.3
		C361.9,142.6,353.9,134.1,344.3,133z M344.3,164.2c-3,1-7.2,1.4-11.6,1c-0.5-1.7-0.7-17.3-0.2-22.4c4-0.2,7.9-0.2,11.7,1
		c4.7,1.5,7.1,4.9,7.2,9.9C351.4,158.9,349,162.5,344.3,164.2z M661.5,127.8c-12,25.9-23.9,51.3-35.8,76.9c1,0.1,1.6,0.2,2.2,0.2
		c2.3,0,4.6-0.2,6.9,0.1c2.1,0.2,3.1-0.7,3.9-2.5c7.1-15.7,14.2-31.4,21.4-47.1c0.3-0.7,0.5-1.6,1.5-2.1c7.5,17.3,15,34.5,22.4,51.6
		h12.1C684.5,179,673.1,153.6,661.5,127.8z M418.4,127.8c-12.1,25.9-23.9,51.3-35.9,77h11.9c7.8-17.2,15.7-34.4,23.5-51.5
		c0.2,0,0.4,0,0.5,0c7.5,17.2,15,34.4,22.4,51.5H453C441.5,179,430.1,153.6,418.4,127.8z M163.7,108c-11.2,17.4-22.2,34.6-33.3,52
		c0.9-0.1,1.3,0,1.8-0.1c7.7-1.4,15.4-2.8,23-4.3c2.7-0.5,5.5-0.8,7.9-1.9c8.4-3.7,16.6-7.8,24.9-11.8c0.5-0.2,0.9-0.5,1.5-0.9
		C180.9,130.1,172.4,119.2,163.7,108z M80.4,108c-8.7,11.2-17.1,22-25.8,33.1c0.9,0.5,1.6,0.8,2.3,1.2c7.8,3.7,15.6,7.4,23.4,11
		c1.4,0.6,2.8,1.1,4.3,1.4c7.4,1.5,14.9,2.8,22.3,4.2c2.1,0.4,4.3,0.8,6.9,1.2C102.5,142.5,91.5,125.4,80.4,108z M552.5,132.6
		c2.6,3.4,4.8,6.4,7,9.5c0.6,0.8,1.4,0.7,2.1,0.7c4.2,0,8.5,0,12.7,0c0.7,0,1.4,0.1,2.3,0.1v3.2c0,18.6,0,37.2,0,55.8
		c0,0.9,0.1,1.8,0.1,2.7h10.9v-20.8c0-6.8,0-13.6,0-20.4c0-6.8,0-13.7,0-20.7h2.7c4,0,8,0,12,0c1.3,0,2.2-0.3,3-1.4
		c1.7-2.5,3.6-4.9,5.5-7.3c0.3-0.4,0.5-0.9,0.8-1.5H552.5z M195.6,225.4c-2.7-10.8-5.3-21.5-8-32.3c-0.4-1.7-1.4-2.3-3-2.6
		c-10.9-1.8-21.7-3.7-32.5-5.6c-0.6-0.1-1.2,0-2.3,0c15.4,14.1,30.5,27.9,45.5,41.6c0.1-0.1,0.2-0.2,0.4-0.3
		C195.7,226.1,195.7,225.7,195.6,225.4z M93.8,184.8c-1.4,0.2-2.8,0.4-4.2,0.7c-9.9,1.7-19.8,3.4-29.7,5c-1.9,0.3-2.7,1.1-3.1,2.9
		c-2.3,9.2-4.7,18.4-7,27.6c-0.5,1.8-0.9,3.7-1.3,5.5c0.1,0.1,0.2,0.1,0.4,0.2c15.1-13.8,30.2-27.6,45.3-41.4
		C93.9,185.1,93.9,185,93.8,184.8z M126,56.1c12.5,16.2,24.9,32.1,37.4,48.2c3.4-5.3,6.7-10.3,9.9-15.2
		C170.5,86.4,128,56.7,126,56.1z M117.8,55.7c-15.6,11-31.3,22-47,33.1c3.3,5.1,6.4,10.2,9.8,15.6C93.4,88,105.8,72,118.2,56
		C118.1,55.9,117.9,55.8,117.8,55.7z M69.7,90.8c-5.3,15.8-10.4,31.1-15.4,46.3c0.2,0.1,0.3,0.2,0.5,0.3c8.2-10.5,16.4-21,24.7-31.5
		C76.2,100.9,73.1,96.1,69.7,90.8z M174.8,90.8c-3.5,5.4-6.6,10.3-9.7,15.2c8.3,10.7,16.4,21.2,24.6,31.7c0.1-0.1,0.3-0.1,0.4-0.2
		C185,122.1,180,106.7,174.8,90.8z M190.9,144.8c-5.4,9.9-10.8,19.9-16.3,30.1c5.7,1.1,11.1,2.2,16.7,3v-33
		C191.2,144.8,191.1,144.8,190.9,144.8z M53,144.9V178c5.5-1,10.8-2,16.4-3.1C64,164.5,58.8,154.6,53,144.9z M188,144.2
		c-6.9,3.3-13.9,6.6-21,9.9c1.8,6.6,3.4,13,5.5,19.9c5.5-10.2,10.7-19.8,15.8-29.4C188.2,144.5,188.1,144.3,188,144.2z M56,144.3
		c-0.1,0.1-0.2,0.3-0.3,0.4c5.2,9.6,10.3,19.2,15.5,28.8c0.2,0,0.4,0,0.6,0c1.7-6.4,3.5-12.8,5.2-19.2C69.9,150.8,63,147.4,56,144.3
		z M170.8,176.1c-4.1,0.8-19.8,5.5-21.4,6.5c11.2,1.8,22.2,3.6,33.2,5.4C178.8,184,174.9,180.2,170.8,176.1z M72.7,175.9
		c-3.9,3.9-7.6,7.8-11.3,11.6c0.1,0.2,0.1,0.4,0.2,0.6c11.1-1.8,22.2-3.6,33.4-5.4c0-0.2,0-0.3,0-0.5
		C87.5,180.1,80.1,178,72.7,175.9z M53.2,180.3c1.3,2.9,2.4,5.5,3.4,7.9c3.7-3.7,7.3-7.3,10.8-10.7C62.9,178.4,58.1,179,53.2,180.3z
		 M176.4,177.4c-0.1,0.2-0.2,0.3-0.3,0.5c3.5,3.6,7,7.2,10.9,11.2c1.5-3.4,2.6-6,3.9-9C185.9,179.2,181.2,178.3,176.4,177.4z"/>
	<path d="M138.3,191.1c-0.4,0.3-0.7,0.5-1,0.7c-4.6,2.5-9.1,5-13.7,7.4c-0.8,0.4-1.5,0.7-2.4,0.2c-4.9-2.7-9.9-5.4-15.1-8.2
		c0.3-0.9,0.6-1.7,0.8-2.5c3-8.6,6-17.2,9.2-25.7c0.6-1.5,0.4-2.6-0.4-4c-10.8-16.9-21.5-33.8-32.2-50.8c-0.4-0.7-0.8-1.4-1.4-2.2
		c13.3-17.1,26.7-34.2,40.2-51.5c13.4,17.2,26.8,34.3,40.2,51.5c-0.5,0.8-0.9,1.5-1.4,2.2c-10.7,16.8-21.5,33.7-32.3,50.4
		c-1,1.6-1.2,2.9-0.5,4.6c3.2,8.4,6.2,16.9,9.3,25.4C137.8,189.5,138,190.3,138.3,191.1z"/>
	<path d="M48.4,229.8c16.6-15,33-30,49.8-45.3c0,32.2,0,63.9,0,95.8c-0.6-0.4-1.1-0.7-1.5-1.1c-8.1-8.3-16.2-16.5-24.3-24.8
		c-6.6-6.7-13.2-13.5-19.7-20.2C51.3,232.9,49.9,231.4,48.4,229.8z"/>
	<path d="M195.8,229.9c-16.5,16.9-32.9,33.7-49.3,50.4c-0.2-0.1-0.3-0.1-0.4-0.2c-0.1,0-0.1-0.1-0.1-0.2c0-0.3-0.1-0.6-0.1-1
		c0-31.2,0-62.4,0-93.6c0.2-0.1,0.3-0.1,0.3-0.2c0.1,0,0.2,0,0.2,0c0.3,0.2,0.7,0.4,0.9,0.7C163.5,200.5,179.5,215.1,195.8,229.9z"
		/>
	<path d="M729.5,127.9c17.2,18,34.5,36,51.7,54c0.1-0.1,0.3-0.2,0.4-0.2c0-16.3,0-32.5,0-48.7c1.8-0.6,8-0.7,10.9-0.2
		c0,25.3,0,50.5,0,76.3c-6.1-6.1-11.8-12.2-17.5-18.2c-5.8-6-11.5-12-17.2-18c-5.8-6-11.5-12.1-17.3-18.1c-0.2,0.1-0.3,0.1-0.5,0.2
		c0,16.5,0,32.9,0,49.7c-3.8,0-7.3,0-11,0c0-25.5,0-51,0-76.4C729.2,128.1,729.3,128,729.5,127.9z"/>
	<path d="M511.6,174.1c0.8-0.3,1.2-0.4,1.7-0.6c14.4-4.4,17.6-21.5,10.9-31.5c-3.5-5.3-8.7-7.8-14.8-8.8c-7.2-1.2-14.5-0.6-21.7-0.7
		c-0.2,0-0.4,0.1-0.7,0.3v71.9h11v-29.1c1.7-0.7,2.2,0.4,2.9,1.3c6.1,8.8,12.3,17.5,18.4,26.3c0.8,1.2,1.6,1.7,3.1,1.7
		c3.1-0.1,6.2,0,9.3,0c0.6,0,1.2-0.1,2.1-0.2C526.2,194.3,519,184.3,511.6,174.1z M497.9,165.7v-22.8c5-0.3,9.8-0.3,14.2,2.2
		c0.8,0.5,1.5,1.1,2.2,1.8c3.4,3.5,3.6,13-2.5,16.4c-0.6,0.4-1.3,0.7-1.9,0.9C506.1,165.7,502.1,165.7,497.9,165.7z"/>
	<path d="M237.8,184.7c3.9-0.8,7.3-1.6,10.9-2.3c0.5,1.9,0.9,3.7,1.4,5.5c2.2,7.2,10.4,9.4,16,6.9c4.2-1.8,6.5-5,7-9.5
		c0.5-4.5-1.1-8.2-4.8-10.8c-1.6-1.1-3.5-2-5.3-2.8c-2.9-1.3-5.9-2.4-8.7-3.9c-2.6-1.4-5.3-3-7.5-5c-7.6-6.5-7.1-18.3-0.8-24.9
		c8.3-8.7,23.3-9.2,31.4-1.2c1.9,1.9,3.5,4.1,5.4,6.4c-1.8,1.1-3.3,2-4.7,2.9c-1.4,0.9-2.9,1.7-4.2,2.5c-1.2-1.5-2.2-2.9-3.5-4.1
		c-4.3-4.2-12.6-3.6-16.3,1c-2.5,3.1-2.3,7.3,0.6,9.9c1.5,1.4,3.4,2.4,5.2,3.3c2.7,1.3,5.6,2.4,8.4,3.5c3.6,1.4,6.8,3.5,9.7,6
		c3.7,3.3,5.7,7.4,6.2,12.3c1.2,11.8-5.4,21.8-16.4,24.9c-5,1.4-10,1.3-14.9-0.4c-7.9-2.7-12.2-8.6-14.4-16.4
		C238.2,187.4,238,186.2,237.8,184.7z"/>
	<path d="M344.3,133c-7.3-0.8-14.7-0.4-22-0.5c-0.2,0-0.4,0.1-0.8,0.3v72.1c3.6,0,7.2,0.1,10.9-0.1v-29.1c1,0,1.8,0,2.6,0
		c3.3-0.2,6.6-0.1,9.7-0.8c11-2.4,17.4-10.4,17.3-21.3C361.9,142.6,353.9,134.1,344.3,133z M344.3,164.2c-3,1-7.2,1.4-11.6,1
		c-0.5-1.7-0.7-17.3-0.2-22.4c4-0.2,7.9-0.2,11.7,1c4.7,1.5,7.1,4.9,7.2,9.9C351.4,158.9,349,162.5,344.3,164.2z"/>
	<path d="M696.1,204.7c-4.2,0-8,0-12.1,0c-7.4-17.1-14.9-34.3-22.4-51.6c-1,0.5-1.1,1.4-1.5,2.1c-7.2,15.7-14.3,31.4-21.4,47.1
		c-0.8,1.9-1.8,2.7-3.9,2.5c-2.3-0.2-4.6,0-6.9-0.1c-0.6,0-1.2-0.1-2.2-0.2c11.9-25.7,23.8-51.1,35.8-76.9
		C673.1,153.6,684.5,179,696.1,204.7z"/>
	<path d="M418,153.2c-7.8,17.2-15.6,34.3-23.5,51.5c-3.9,0-7.7,0-11.9,0c12-25.7,23.8-51.1,35.9-77c11.6,25.9,23,51.3,34.6,77
		c-4.2,0-8,0-12.1,0c-7.4-17.1-14.9-34.3-22.4-51.5C418.3,153.2,418.2,153.2,418,153.2z"/>
	<path d="M163.7,108c8.7,11.2,17.1,22,25.7,33c-0.6,0.3-1,0.7-1.5,0.9c-8.3,4-16.5,8-24.9,11.8c-2.4,1.1-5.2,1.3-7.9,1.9
		c-7.7,1.5-15.4,2.9-23,4.3c-0.5,0.1-0.9,0.1-1.8,0.1C141.5,142.6,152.5,125.4,163.7,108z"/>
	<path d="M54.6,141.1c8.7-11.1,17.1-22,25.8-33.1c11.2,17.4,22.1,34.5,33.5,52.1c-2.7-0.5-4.8-0.8-6.9-1.2
		c-7.4-1.4-14.9-2.8-22.3-4.2c-1.5-0.3-2.9-0.8-4.3-1.4c-7.8-3.6-15.6-7.3-23.4-11C56.2,142,55.5,141.6,54.6,141.1z"/>
	<path d="M552.5,132.6c20,0,39.5,0,59.2,0c-0.3,0.6-0.5,1.1-0.8,1.5c-1.8,2.4-3.7,4.8-5.5,7.3c-0.8,1.1-1.7,1.5-3,1.4
		c-4-0.1-8,0-12,0c-0.8,0-1.6,0-2.7,0c-0.1,7.1,0,13.9,0,20.7c0,6.8,0,13.6,0,20.4c0,6.9,0,13.7,0,20.8c-3.6,0-7.1,0-10.9,0
		c0-0.8-0.1-1.8-0.1-2.7c0-18.6,0-37.2,0-55.8c0-1,0-2,0-3.2c-0.9-0.1-1.6-0.1-2.3-0.1c-4.2,0-8.5,0-12.7,0c-0.8,0-1.6,0.1-2.1-0.7
		C557.3,139,555.1,136.1,552.5,132.6z"/>
	<path d="M195.4,226.7c-15-13.8-30.1-27.5-45.5-41.6c1.1,0,1.7-0.1,2.3,0c10.8,1.8,21.7,3.7,32.5,5.6c1.6,0.3,2.6,0.9,3,2.6
		c2.6,10.8,5.3,21.5,8,32.3c0.1,0.3,0.1,0.6,0.1,0.9C195.6,226.5,195.5,226.6,195.4,226.7z"/>
	<path d="M94,185.3c-15.1,13.8-30.2,27.6-45.3,41.4c-0.1-0.1-0.2-0.1-0.4-0.2c0.4-1.8,0.9-3.7,1.3-5.5c2.4-9.2,4.8-18.4,7-27.6
		c0.5-1.8,1.3-2.6,3.1-2.9c9.9-1.6,19.8-3.3,29.7-5c1.4-0.2,2.8-0.4,4.2-0.7C93.9,185,93.9,185.1,94,185.3z"/>
	<path d="M173.3,89.1c-3.2,5-6.5,10-9.9,15.2c-12.5-16.2-24.9-32.1-37.4-48.2C128,56.7,170.5,86.4,173.3,89.1z"/>
	<path d="M80.7,104.3c-3.4-5.4-6.6-10.4-9.8-15.6c15.7-11.1,31.4-22.1,47-33.1c0.1,0.1,0.2,0.2,0.4,0.3C105.8,72,93.4,88,80.7,104.3
		z"/>
	<path d="M54.2,137.1c5.1-15.3,10.2-30.5,15.4-46.3c3.4,5.3,6.5,10.2,9.7,15.1c-8.3,10.6-16.5,21-24.7,31.5
		C54.5,137.3,54.4,137.2,54.2,137.1z"/>
	<path d="M189.6,137.7c-8.2-10.5-16.3-21.1-24.6-31.7c3.1-4.9,6.3-9.8,9.7-15.2c5.2,15.9,10.2,31.3,15.3,46.7
		C189.9,137.5,189.8,137.6,189.6,137.7z"/>
	<path d="M191.4,144.9c0,10.9,0,21.8,0,33c-5.6-0.8-11-1.9-16.7-3c5.5-10.2,10.9-20.1,16.3-30.1
		C191.1,144.8,191.2,144.8,191.4,144.9z"/>
	<path d="M69.5,174.9c-5.7,1.1-11,2.1-16.4,3.1c0-11.2,0-22.2,0-33.1C58.8,154.6,64,164.5,69.5,174.9z"/>
	<path d="M167,154.2c7.1-3.4,14.1-6.7,21-9.9c0.1,0.1,0.2,0.3,0.3,0.4c-5.2,9.6-10.4,19.3-15.8,29.4
		C170.4,167.2,168.9,160.8,167,154.2z"/>
	<path d="M71.3,173.4c-5.2-9.6-10.3-19.2-15.5-28.8c0.1-0.1,0.2-0.3,0.3-0.4c7,3.1,13.8,6.5,21,9.9c-1.7,6.5-3.5,12.8-5.2,19.2
		C71.7,173.4,71.5,173.4,71.3,173.4z"/>
	<path d="M170.8,176.1c4.1,4.1,7.9,7.9,11.9,11.9c-11-1.8-22-3.6-33.2-5.4C151.1,181.6,166.7,176.9,170.8,176.1z"/>
	<path d="M61.4,187.4c3.7-3.8,7.4-7.6,11.3-11.6c7.4,2.1,14.8,4.2,22.2,6.3c0,0.2,0,0.3,0,0.5c-11.1,1.8-22.2,3.6-33.4,5.4
		C61.5,187.8,61.5,187.6,61.4,187.4z"/>
	<path d="M56.7,188.2c-1-2.4-2.2-5-3.4-7.9c4.9-1.2,9.7-1.9,14.2-2.8C64,180.9,60.4,184.5,56.7,188.2z"/>
	<path d="M190.9,180.1c-1.3,2.9-2.4,5.6-3.9,9c-3.9-4-7.4-7.6-10.9-11.2c0.1-0.2,0.2-0.3,0.3-0.5
		C181.2,178.3,185.9,179.2,190.9,180.1z"/>
</g>
</svg>
