<?xml version="1.0" encoding="utf-8"?>
<!-- Generator: Adobe Illustrator 25.0.1, SVG Export Plug-In . SVG Version: 6.00 Build 0)  -->
<svg version="1.0" id="Layer_1" xmlns="http://www.w3.org/2000/svg" xmlns:xlink="http://www.w3.org/1999/xlink" x="0px" y="0px"
	 viewBox="0 0 841.9 263.3" style="enable-background:new 0 0 841.9 263.3;" xml:space="preserve">
<style type="text/css">
	.st0{fill:#FFFFFF;}
</style>
<g>
	<g>
		<path class="st0" d="M207.8,188.5l0,5.5l0,0.5l0,2l0,0l0,3l0-0.1l0,12.6c0,6-0.5,11.7-2.8,14.1c-2.3,2.3-5.9,5.1-7.9,8.3
			c-2.7,4.3-6,11.1-14.9,11.6h-9.4L143.3,217l-0.1-34.2h42.8c-0.6,0.6-1.3,0.9-1.3,0.9s-6.6,2.7-8.3,7.3c-1.3,3.3-2,5.8-2.5,7.6h0
			c-0.9,4.1,1.4,5.8,2.9,3.7c2.6-3.3,11.5-8,14.6-8.3s8.5,0,11.7-3.4C206.3,187.2,207.7,187.3,207.8,188.5z"/>
		<path class="st0" d="M285.3,137.8l0.3,79.3L256.3,246H248c-4.3,0-10.8-2.7-12.8-5.1c-4.3-5.2-6.6-4.6-9.7-7.8
			c-3.7-3.8-4.6-8.2-4.8-12.9l-0.1-20.8c0,0-0.4-4.3,2.9-1.6c3.3,2.6,5.1,2.3,10.7,1.9c5.5-0.4,11.6,4.6,14.8,6.6
			c3.2,2,9.7,6.9,3-10.3c-1.3-3.3-5.2-5.7-7.2-6.7c-1.3-0.7-3-2.9-1.4-4.8c0,0,3.3-3,1.5-5c-0.6-0.7-2.1-1.5-5.4-1.9
			c-3.8-0.5-7.7-2.8-9.2-6.5c-0.3-2.4,3-3.3,4.6-2.2c1.7,1.2,5.3,2.4,7.2,2.7c6.2,0.9,5.5,0.3,4.8-1.6c-0.4-1.2-1.4-4.1-5.5-6.3
			c-8.6-4.5-9.5-3.3-11-6.3c-0.4-0.9-0.8-6,1.2-4.4c0,0,0,0,0.1,0c0.4,0.4,0.8,0.9,1.4,1.4c2.2,1.7,3.8,1.9,6.8,1.8
			c3,0,3.3,1.2,4.5,1.7c1.2,0.6,2.8,1.5,1.3-3c-1.6-4.8-4.2-8.7-9.3-11c-2.3-1.1-9-5.5-10.2-6.9c-1.1-1.3-3.7-5.1-0.6-4.3
			c3.1,0.8,4.7,3,10,1.5c0,0,2.2-0.4,3.5,0.3c1.3,0.7,4.9-0.3-1.7-4.9c-4.8-3.4-9.1-3.1-11.5-8.5c0,0-0.9-1.6-0.5-2.4l0,0
			c0.2-0.5,1.4-1.7,3.1-1.1c1.7,0.6,7.6,3.2,10.1,3.8c1.4,0.3,2.4,0.8,3.1,1.4c1.1,0.7,4.5,1.9,4.6-0.7c-0.6-4.4-1.4-7.3-2.8-9.6
			h16.3L285.3,137.8z"/>
		<path class="st0" d="M284.9,47.5l0.1,38.4l-47.4,0c-3.1-2.4-6.5-4.4-9.2-5.3c-5.8-1.8-5.1-3.5-4.9-3.9c0.5-0.3,1.4-0.5,2.5-0.8
			c1.9-0.4,4.5,0.3,4.5,0.3c4.2,0.7,5.9-1.4,2.6-3.8c-1.8-1.4-2.9-1.7-8-4c-3.3-1.5-2.9-5.3-1.6-5.4c2-0.2,7.4,1.5,3.6-2.8
			c0,0-2.9-2.9-5.1-3.8c-2.1-0.8,0-2.1,0.8-2.5c0.8-0.4,3.5-1.2-0.3-4.1c0,0-6.6-4.1-4-6c2.6-2,3.7-3.5,1.2-3.7
			c-1.7-0.1-3.5-0.8-3-2.6c0.1-0.6,1.6-1.7,2.1-2.3c0.6-0.8,0.1-1.1-0.2-1.2c-0.2,0-0.4,0-0.7,0c-1.3,0-2-0.7-2.7-2.6
			c-0.8-3.3-1.4-6.2-1.4-6.2c0,0,0,0-0.1,0c-0.6,0-0.6,0.4-1,2.1c-1.3,5.8-1.9,8-4.1,8c-0.3,0-0.5,0-0.7,0c-0.4,0.1-0.9,0.4-0.2,1.2
			c0.9,1.2,3.1,2.2,3.1,3c0.1,0.7-0.5,1.4-1.4,2.2c-0.9,0.9-3,2.4-3,2.4s-2.7,1.7-3.2,2.6c-0.6,1.4,2.5,1.4,2.5,1.4
			c5.5,0.2,3.2,2.3,2.3,2.6c-1.4,0.5-2.6,0.8-4,1.6c-1.8,1.2-3.6,3-3.6,3c-3.8,4.3,1.6,2.6,3.6,2.8c1.3,0.1,1.7,3.9-1.6,5.4
			c-2.1,1-3.5,1.6-4.6,2.1c-0.5,0.3-2.5,1.4-3.6,3.1c-1.3,1.8,2.6,1.3,5.1,1.5c1.7,0.1,3.7-1.3,4.9-1.2c1.5,0.1,2,0.5,2.3,1.5
			c0.2,1.1-0.5,2.1-1.6,3.1c-0.3,0.4-0.9,0.8-1.3,1c0,0,0,0-0.1,0c-1.6,1-3.3,1.8-4.1,2.1c-5.2,2.9-12.9,7.6-16.1,11.2
			c-2.3,2.7-0.4,4.2,0.6,3.7c1-0.5,2.8-1.5,5.5-1c2.2,0.4,5.1-0.3,7.4-0.9c2-0.4,3.9-3.9,4.8-2.6c1.9,3.1-1.3,6.9-2.6,8.2
			c-2.5,3.4-9.5,6.6-12.3,8.9c-3.3,2.7-4.6,6.2-5.5,13.2c-0.8,7,2.7,2,2.7,2c0.9-1.1,2.9-3.6,8.2-3.6s6.2-1.5,8-2.6
			c3.3-1.9,1.6,2.6,1.6,2.6c-2.2,5-6.2,5.1-10.6,7.9c-0.4,0.3-0.8,0.7-1.6,1.5c-1.8,1.9-1.2,2.7-0.2,2.5c1-0.1,2.6,0.5,4.3,0.4
			c1.8,0,3.3-0.4,5.2-1.3c2-0.9,3-2.5,4.3-1.7c0.9,0.5,0.7,1.9,0.5,2.8c-0.1,1-1.3,2.9-2,3.6c-1.2,1.4-7.8,5.8-10.1,6.9
			c-0.3,0.1-0.6,0.3-0.9,0.5c-0.1,0-0.2,0.1-0.3,0.2c-3,1.8-5.1,4.4-5.1,4.4c-0.5,0.8-3.3,5.3,0.5,3.4c3.8-2,8.9,1.4,11.4,0.1
			c1.4-0.7,1,2.3,0.9,2.6c0,1-0.2,2-0.3,2.4c-1.1,2.2-1.9,2.1-5.9,3.9h-23.5L143,130.6l-0.3-83.1l29.3-28.8h83.5L284.9,47.5z"/>
		<path class="st0" d="M240,98.4c0.1,0,0.2,0,0.4,0h0.2c0.5,0,0.9,0.1,1.1,0.2c0.3,0.1,0.5,0.2,0.7,0.3l1.1,0.4
			c0.3,0,0.5,0.1,0.8,0.1c1.5,0,3-0.9,3.7-2.4c0.2-0.5,0.6-1.5,0.3-2.8l45.1,0L293.2,44l-34.4-33.6h-90.1l0,0L134.6,44l0.3,90.1
			l29.9,30.4h13.6c-0.3,0.9-0.8,2.3,0.2,3.7c1.1,1.5,2.8,1.5,3.5,1.5c0.8,0,1.9-0.1,3.6-0.3l0,0c0,0,0.7,0.6-1.5,1.4
			c-1.8,0.6-3.4,1.7-3.9,3.5c-0.1,0.1,0,0.3-0.1,0.4h-45.3l0.2,46.1l34.4,33.6h90.1l34.2-33.6l-0.3-86.3l-29.9-30.4h-25.2h0
			c-1.1-0.7-2.3-1.4-3.3-2l-0.4-0.2l-0.1,0c-0.6-0.3-1.2-0.8-1.8-1.4c-0.6-0.4-1-0.9-1.4-1.3l-0.1-0.1c-0.7-0.7-1.2-1.4-1.7-1.9
			c3.9,1.1,8.2,1.4,10.3,1.5h0.1L240,98.4z M225.5,95.8c0.4,1,1.8,3,3.8,5c0.5,0.5,1.1,1.1,1.7,1.6c0.8,0.7,1.6,1.3,2.4,1.7l0,0
			c2.2,1.4,4.6,2.7,6.3,3.9h22.1l27.5,27.9l0.3,82.8L257.9,250h-86.8l-31.9-31.3l-0.1-40.1h42.6l0,0h4.2c-0.5-0.6-1.2-1.2-2.1-1.8
			c0,0-3.7-3.2,4.9-4.3c3.7-0.5,7.6-2.8,9.2-6.5c0.3-2.5-3-3.3-4.6-2.2c-1.7,1.1-5.2,2.4-7.2,2.7c-6.2,0.9-5.5,0.3-4.8-1.7
			c0.3-0.9,0.9-2.8,2.9-4.5h-17.6L139,132.2l-0.3-86.6l31.7-31.1h86.8l31.9,31.2l0,0l0.1,44.4h-46.9c1,1,1.8,2,2.4,2.9
			c2.1,2.6,0.3,4-0.7,3.5c0,0-0.8-0.4-1.3-0.6c-0.5-0.1-2.5-0.4-2.8-0.4c-2.5-0.1-9.2-0.5-13.3-2.9
			C224.9,91.9,224.8,94.1,225.5,95.8z"/>
	</g>
	<g>
		<path class="st0" d="M207.8,188.5l0,5.5l0,0.5l0,2l0,0l0,3l0-0.1l0,12.6c0,6-0.5,11.7-2.8,14.1c-2.3,2.3-5.9,5.1-7.9,8.3
			c-2.7,4.3-6,11.1-14.9,11.6h-9.4L143.3,217l-0.1-34.2h42.8c-0.6,0.6-1.3,0.9-1.3,0.9s-6.6,2.7-8.3,7.3c-1.3,3.3-2,5.8-2.5,7.6h0
			c-0.9,4.1,1.4,5.8,2.9,3.7c2.6-3.3,11.5-8,14.6-8.3s8.5,0,11.7-3.4C206.3,187.2,207.7,187.3,207.8,188.5z"/>
		<path class="st0" d="M285.3,137.8l0.3,79.3L256.3,246H248c-4.3,0-10.8-2.7-12.8-5.1c-4.3-5.2-6.6-4.6-9.7-7.8
			c-3.7-3.8-4.6-8.2-4.8-12.9l-0.1-20.8c0,0-0.4-4.3,2.9-1.6c3.3,2.6,5.1,2.3,10.7,1.9c5.5-0.4,11.6,4.6,14.8,6.6
			c3.2,2,9.7,6.9,3-10.3c-1.3-3.3-5.2-5.7-7.2-6.7c-1.3-0.7-3-2.9-1.4-4.8c0,0,3.3-3,1.5-5c-0.6-0.7-2.1-1.5-5.4-1.9
			c-3.8-0.5-7.7-2.8-9.2-6.5c-0.3-2.4,3-3.3,4.6-2.2c1.7,1.2,5.3,2.4,7.2,2.7c6.2,0.9,5.5,0.3,4.8-1.6c-0.4-1.2-1.4-4.1-5.5-6.3
			c-8.6-4.5-9.5-3.3-11-6.3c-0.4-0.9-0.8-6,1.2-4.4c0,0,0,0,0.1,0c0.4,0.4,0.8,0.9,1.4,1.4c2.2,1.7,3.8,1.9,6.8,1.8
			c3,0,3.3,1.2,4.5,1.7c1.2,0.6,2.8,1.5,1.3-3c-1.6-4.8-4.2-8.7-9.3-11c-2.3-1.1-9-5.5-10.2-6.9c-1.1-1.3-3.7-5.1-0.6-4.3
			c3.1,0.8,4.7,3,10,1.5c0,0,2.2-0.4,3.5,0.3c1.3,0.7,4.9-0.3-1.7-4.9c-4.8-3.4-9.1-3.1-11.5-8.5c0,0-0.9-1.6-0.5-2.4l0,0
			c0.2-0.5,1.4-1.7,3.1-1.1c1.7,0.6,7.6,3.2,10.1,3.8c1.4,0.3,2.4,0.8,3.1,1.4c1.1,0.7,4.5,1.9,4.6-0.7c-0.6-4.4-1.4-7.3-2.8-9.6
			h16.3L285.3,137.8z"/>
		<path class="st0" d="M284.9,47.5l0.1,38.4l-47.4,0c-3.1-2.4-6.5-4.4-9.2-5.3c-5.8-1.8-5.1-3.5-4.9-3.9c0.5-0.3,1.4-0.5,2.5-0.8
			c1.9-0.4,4.5,0.3,4.5,0.3c4.2,0.7,5.9-1.4,2.6-3.8c-1.8-1.4-2.9-1.7-8-4c-3.3-1.5-2.9-5.3-1.6-5.4c2-0.2,7.4,1.5,3.6-2.8
			c0,0-2.9-2.9-5.1-3.8c-2.1-0.8,0-2.1,0.8-2.5c0.8-0.4,3.5-1.2-0.3-4.1c0,0-6.6-4.1-4-6c2.6-2,3.7-3.5,1.2-3.7
			c-1.7-0.1-3.5-0.8-3-2.6c0.1-0.6,1.6-1.7,2.1-2.3c0.6-0.8,0.1-1.1-0.2-1.2c-0.2,0-0.4,0-0.7,0c-1.3,0-2-0.7-2.7-2.6
			c-0.8-3.3-1.4-6.2-1.4-6.2c0,0,0,0-0.1,0c-0.6,0-0.6,0.4-1,2.1c-1.3,5.8-1.9,8-4.1,8c-0.3,0-0.5,0-0.7,0c-0.4,0.1-0.9,0.4-0.2,1.2
			c0.9,1.2,3.1,2.2,3.1,3c0.1,0.7-0.5,1.4-1.4,2.2c-0.9,0.9-3,2.4-3,2.4s-2.7,1.7-3.2,2.6c-0.6,1.4,2.5,1.4,2.5,1.4
			c5.5,0.2,3.2,2.3,2.3,2.6c-1.4,0.5-2.6,0.8-4,1.6c-1.8,1.2-3.6,3-3.6,3c-3.8,4.3,1.6,2.6,3.6,2.8c1.3,0.1,1.7,3.9-1.6,5.4
			c-2.1,1-3.5,1.6-4.6,2.1c-0.5,0.3-2.5,1.4-3.6,3.1c-1.3,1.8,2.6,1.3,5.1,1.5c1.7,0.1,3.7-1.3,4.9-1.2c1.5,0.1,2,0.5,2.3,1.5
			c0.2,1.1-0.5,2.1-1.6,3.1c-0.3,0.4-0.9,0.8-1.3,1c0,0,0,0-0.1,0c-1.6,1-3.3,1.8-4.1,2.1c-5.2,2.9-12.9,7.6-16.1,11.2
			c-2.3,2.7-0.4,4.2,0.6,3.7c1-0.5,2.8-1.5,5.5-1c2.2,0.4,5.1-0.3,7.4-0.9c2-0.4,3.9-3.9,4.8-2.6c1.9,3.1-1.3,6.9-2.6,8.2
			c-2.5,3.4-9.5,6.6-12.3,8.9c-3.3,2.7-4.6,6.2-5.5,13.2c-0.8,7,2.7,2,2.7,2c0.9-1.1,2.9-3.6,8.2-3.6s6.2-1.5,8-2.6
			c3.3-1.9,1.6,2.6,1.6,2.6c-2.2,5-6.2,5.1-10.6,7.9c-0.4,0.3-0.8,0.7-1.6,1.5c-1.8,1.9-1.2,2.7-0.2,2.5c1-0.1,2.6,0.5,4.3,0.4
			c1.8,0,3.3-0.4,5.2-1.3c2-0.9,3-2.5,4.3-1.7c0.9,0.5,0.7,1.9,0.5,2.8c-0.1,1-1.3,2.9-2,3.6c-1.2,1.4-7.8,5.8-10.1,6.9
			c-0.3,0.1-0.6,0.3-0.9,0.5c-0.1,0-0.2,0.1-0.3,0.2c-3,1.8-5.1,4.4-5.1,4.4c-0.5,0.8-3.3,5.3,0.5,3.4c3.8-2,8.9,1.4,11.4,0.1
			c1.4-0.7,1,2.3,0.9,2.6c0,1-0.2,2-0.3,2.4c-1.1,2.2-1.9,2.1-5.9,3.9h-23.5L143,130.6l-0.3-83.1l29.3-28.8h83.5L284.9,47.5z"/>
	</g>
	<g>
		<path class="st0" d="M255.5,18.7H172l-29.3,28.8l0.3,83.1l25.1,25.5h23.5c4-1.7,4.9-1.6,5.9-3.9c0.1-0.3,0.3-1.4,0.3-2.4
			c0.1-0.3,0.5-3.3-0.9-2.6c-2.5,1.3-7.6-2.1-11.4-0.1c-3.8,2-1-2.6-0.5-3.4c0,0,2-2.7,5.1-4.4c0.1,0,0.2-0.1,0.3-0.2
			c0.3-0.1,0.6-0.3,0.9-0.5c2.3-1.1,8.9-5.5,10.1-6.9c0.7-0.8,2-2.6,2-3.6c0.2-0.9,0.4-2.3-0.5-2.8c-1.2-0.8-2.3,0.8-4.3,1.7
			c-2,0.9-3.5,1.3-5.2,1.3c-1.7,0-3.3-0.6-4.3-0.4c-1,0.1-1.6-0.6,0.2-2.5c0.8-0.9,1.2-1.2,1.6-1.5c4.4-2.9,8.4-2.9,10.6-7.9
			c0,0,1.7-4.5-1.6-2.6c-1.8,1.1-2.8,2.6-8,2.6c-5.2,0-7.2,2.5-8.2,3.6c0,0-3.5,5-2.7-2c0.9-7,2.2-10.5,5.5-13.2
			c2.8-2.3,9.8-5.5,12.3-8.9c1.3-1.3,4.5-5,2.6-8.2c-0.8-1.4-2.7,2.1-4.8,2.6c-2.3,0.6-5.2,1.4-7.4,0.9c-2.8-0.5-4.5,0.5-5.5,1
			c-1,0.5-3-1-0.6-3.7c3.2-3.6,10.9-8.4,16.1-11.2c0.7-0.3,2.5-1.1,4.1-2.1c0,0,0.1,0,0.1,0c0.4-0.2,1-0.5,1.3-1
			c1.1-1,1.9-2,1.6-3.1c-0.2-1-0.7-1.3-2.3-1.5c-1.2-0.1-3.2,1.3-4.9,1.2c-2.6-0.2-6.4,0.4-5.1-1.5c1.2-1.7,3.1-2.8,3.6-3.1
			c1.1-0.5,2.5-1.1,4.6-2.1c3.3-1.5,2.8-5.3,1.6-5.4c-2-0.2-7.4,1.5-3.6-2.8c0,0,1.8-1.8,3.6-3c1.4-0.8,2.6-1.2,4-1.6
			c0.9-0.3,3.2-2.4-2.3-2.6c0,0-3.1,0.1-2.5-1.4c0.5-0.9,3.2-2.6,3.2-2.6s2.1-1.5,3-2.4c0.8-0.8,1.4-1.5,1.4-2.2
			c0-0.8-2.2-1.8-3.1-3c-0.7-0.8-0.1-1.1,0.2-1.2c0.2,0,0.4,0,0.7,0c2.2,0,2.9-2.2,4.1-8c0.4-1.7,0.4-2.1,1-2.1c0,0,0.1,0,0.1,0
			s0.6,2.9,1.4,6.2c0.7,1.8,1.4,2.6,2.7,2.6c0.2,0,0.5,0,0.7,0c0.4,0.1,0.9,0.4,0.2,1.2c-0.5,0.6-2,1.7-2.1,2.3
			c-0.4,1.8,1.3,2.5,3,2.6c2.5,0.1,1.4,1.7-1.2,3.7c-2.6,1.9,4,6,4,6c3.7,2.9,1.1,3.7,0.3,4.1c-0.8,0.4-2.9,1.7-0.8,2.5
			s5.1,3.8,5.1,3.8c3.8,4.3-1.6,2.6-3.6,2.8c-1.3,0.1-1.7,3.9,1.6,5.4c5,2.3,6.1,2.7,8,4c3.3,2.5,1.6,4.5-2.6,3.8
			c0,0-2.7-0.7-4.5-0.3c-1.1,0.2-1.9,0.5-2.5,0.8c-0.3,0.4-1,2.1,4.9,3.9c2.8,0.9,6.2,2.9,9.2,5.3l47.4,0l-0.1-38.4L255.5,18.7z
			 M260.2,112.3h-16.3c1.4,2.3,2.2,5.2,2.8,9.6c0,2.6-3.4,1.4-4.6,0.7c-0.8-0.5-1.8-1-3.1-1.4c-2.5-0.6-8.5-3.2-10.1-3.8
			c-1.7-0.6-2.9,0.6-3.1,1.1l0,0c-0.4,0.8,0.5,2.4,0.5,2.4c2.4,5.3,6.7,5,11.5,8.5c6.5,4.6,3.1,5.7,1.7,4.9
			c-1.3-0.7-3.5-0.3-3.5-0.3c-5.3,1.5-6.9-0.7-10-1.5c-3.1-0.8-0.5,3,0.6,4.3c1.2,1.4,7.8,5.8,10.2,6.9c5.1,2.4,7.7,6.1,9.3,11
			c1.5,4.6-0.1,3.6-1.3,3c-1.2-0.6-1.6-1.8-4.5-1.7c-3,0-4.7-0.1-6.8-1.8c-0.6-0.4-1-0.9-1.4-1.4c0,0-0.1,0-0.1,0
			c-2-1.5-1.7,3.6-1.2,4.4c1.5,3,2.5,1.7,11,6.3c4,2.2,5,5.1,5.5,6.3c0.7,2,1.4,2.5-4.8,1.6c-2-0.3-5.6-1.5-7.2-2.7
			c-1.6-1.1-4.9-0.2-4.6,2.2c1.6,3.7,5.5,6.1,9.2,6.5c3.3,0.4,4.8,1.1,5.4,1.9c1.8,2-1.5,5-1.5,5c-1.6,1.9,0.1,4.2,1.4,4.8
			c2,1,5.9,3.3,7.2,6.7c6.8,17.3,0.3,12.3-3,10.3c-3.2-2-9.3-7.1-14.8-6.6c-5.5,0.4-7.4,0.7-10.7-1.9c-3.3-2.6-2.9,1.6-2.9,1.6
			l0.1,20.8c0.2,4.7,1.1,9.1,4.8,12.9c3,3.1,5.4,2.5,9.7,7.8c2,2.4,8.4,5,12.8,5.1h8.3l29.3-28.8l-0.2-79.3L260.2,112.3z
			 M203.1,190.6c-3.2,3.4-8.6,3.1-11.7,3.4c-3.1,0.3-12,4.9-14.6,8.3c-1.6,2.1-3.8,0.4-2.9-3.7h0c0.4-1.8,1.2-4.3,2.5-7.6
			c1.7-4.6,8.3-7.3,8.3-7.3s0.7-0.3,1.3-0.9h-42.8l0.1,34.2l29.5,28.8h9.4c8.9-0.4,12.2-7.3,14.9-11.6c2-3.2,5.6-5.9,7.9-8.3
			c2.4-2.4,2.8-8,2.8-14.1l0-12.6l0,0.1l0-3l0,0l0-2l0-0.5l0-5.5C207.7,187.3,206.3,187.2,203.1,190.6z"/>
	</g>
</g>
<g>
	<g>
		<path d="M207.8,188.5l0,5.5l0,0.5l0,2l0,0l0,3l0-0.1l0,12.6c0,6-0.5,11.7-2.8,14.1c-2.3,2.3-5.9,5.1-7.9,8.3
			c-2.7,4.3-6,11.1-14.9,11.6h-9.4L143.3,217l-0.1-34.2h42.8c-0.6,0.6-1.3,0.9-1.3,0.9s-6.6,2.7-8.3,7.3c-1.3,3.3-2,5.8-2.5,7.6h0
			c-0.9,4.1,1.4,5.8,2.9,3.7c2.6-3.3,11.5-8,14.6-8.3s8.5,0,11.7-3.4C206.3,187.2,207.7,187.3,207.8,188.5z"/>
		<path d="M285.3,137.8l0.3,79.3L256.3,246H248c-4.3,0-10.8-2.7-12.8-5.1c-4.3-5.2-6.6-4.6-9.7-7.8c-3.7-3.8-4.6-8.2-4.8-12.9
			l-0.1-20.8c0,0-0.4-4.3,2.9-1.6c3.3,2.6,5.1,2.3,10.7,1.9c5.5-0.4,11.6,4.6,14.8,6.6c3.2,2,9.7,6.9,3-10.3
			c-1.3-3.3-5.2-5.7-7.2-6.7c-1.3-0.7-3-2.9-1.4-4.8c0,0,3.3-3,1.5-5c-0.6-0.7-2.1-1.5-5.4-1.9c-3.8-0.5-7.7-2.8-9.2-6.5
			c-0.3-2.4,3-3.3,4.6-2.2c1.7,1.2,5.3,2.4,7.2,2.7c6.2,0.9,5.5,0.3,4.8-1.6c-0.4-1.2-1.4-4.1-5.5-6.3c-8.6-4.5-9.5-3.3-11-6.3
			c-0.4-0.9-0.8-6,1.2-4.4c0,0,0,0,0.1,0c0.4,0.4,0.8,0.9,1.4,1.4c2.2,1.7,3.8,1.9,6.8,1.8c3,0,3.3,1.2,4.5,1.7
			c1.2,0.6,2.8,1.5,1.3-3c-1.6-4.8-4.2-8.7-9.3-11c-2.3-1.1-9-5.5-10.2-6.9c-1.1-1.3-3.7-5.1-0.6-4.3c3.1,0.8,4.7,3,10,1.5
			c0,0,2.2-0.4,3.5,0.3c1.3,0.7,4.9-0.3-1.7-4.9c-4.8-3.4-9.1-3.1-11.5-8.5c0,0-0.9-1.6-0.5-2.4l0,0c0.2-0.5,1.4-1.7,3.1-1.1
			c1.7,0.6,7.6,3.2,10.1,3.8c1.4,0.3,2.4,0.8,3.1,1.4c1.1,0.7,4.5,1.9,4.6-0.7c-0.6-4.4-1.4-7.3-2.8-9.6h16.3L285.3,137.8z"/>
		<path d="M284.9,47.5l0.1,38.4l-47.4,0c-3.1-2.4-6.5-4.4-9.2-5.3c-5.8-1.8-5.1-3.5-4.9-3.9c0.5-0.3,1.4-0.5,2.5-0.8
			c1.9-0.4,4.5,0.3,4.5,0.3c4.2,0.7,5.9-1.4,2.6-3.8c-1.8-1.4-2.9-1.7-8-4c-3.3-1.5-2.9-5.3-1.6-5.4c2-0.2,7.4,1.5,3.6-2.8
			c0,0-2.9-2.9-5.1-3.8c-2.1-0.8,0-2.1,0.8-2.5c0.8-0.4,3.5-1.2-0.3-4.1c0,0-6.6-4.1-4-6c2.6-2,3.7-3.5,1.2-3.7
			c-1.7-0.1-3.5-0.8-3-2.6c0.1-0.6,1.6-1.7,2.1-2.3c0.6-0.8,0.1-1.1-0.2-1.2c-0.2,0-0.4,0-0.7,0c-1.3,0-2-0.7-2.7-2.6
			c-0.8-3.3-1.4-6.2-1.4-6.2c0,0,0,0-0.1,0c-0.6,0-0.6,0.4-1,2.1c-1.3,5.8-1.9,8-4.1,8c-0.3,0-0.5,0-0.7,0c-0.4,0.1-0.9,0.4-0.2,1.2
			c0.9,1.2,3.1,2.2,3.1,3c0.1,0.7-0.5,1.4-1.4,2.2c-0.9,0.9-3,2.4-3,2.4s-2.7,1.7-3.2,2.6c-0.6,1.4,2.5,1.4,2.5,1.4
			c5.5,0.2,3.2,2.3,2.3,2.6c-1.4,0.5-2.6,0.8-4,1.6c-1.8,1.2-3.6,3-3.6,3c-3.8,4.3,1.6,2.6,3.6,2.8c1.3,0.1,1.7,3.9-1.6,5.4
			c-2.1,1-3.5,1.6-4.6,2.1c-0.5,0.3-2.5,1.4-3.6,3.1c-1.3,1.8,2.6,1.3,5.1,1.5c1.7,0.1,3.7-1.3,4.9-1.2c1.5,0.1,2,0.5,2.3,1.5
			c0.2,1.1-0.5,2.1-1.6,3.1c-0.3,0.4-0.9,0.8-1.3,1c0,0,0,0-0.1,0c-1.6,1-3.3,1.8-4.1,2.1c-5.2,2.9-12.9,7.6-16.1,11.2
			c-2.3,2.7-0.4,4.2,0.6,3.7c1-0.5,2.8-1.5,5.5-1c2.2,0.4,5.1-0.3,7.4-0.9c2-0.4,3.9-3.9,4.8-2.6c1.9,3.1-1.3,6.9-2.6,8.2
			c-2.5,3.4-9.5,6.6-12.3,8.9c-3.3,2.7-4.6,6.2-5.5,13.2c-0.8,7,2.7,2,2.7,2c0.9-1.1,2.9-3.6,8.2-3.6s6.2-1.5,8-2.6
			c3.3-1.9,1.6,2.6,1.6,2.6c-2.2,5-6.2,5.1-10.6,7.9c-0.4,0.3-0.8,0.7-1.6,1.5c-1.8,1.9-1.2,2.7-0.2,2.5c1-0.1,2.6,0.5,4.3,0.4
			c1.8,0,3.3-0.4,5.2-1.3c2-0.9,3-2.5,4.3-1.7c0.9,0.5,0.7,1.9,0.5,2.8c-0.1,1-1.3,2.9-2,3.6c-1.2,1.4-7.8,5.8-10.1,6.9
			c-0.3,0.1-0.6,0.3-0.9,0.5c-0.1,0-0.2,0.1-0.3,0.2c-3,1.8-5.1,4.4-5.1,4.4c-0.5,0.8-3.3,5.3,0.5,3.4c3.8-2,8.9,1.4,11.4,0.1
			c1.4-0.7,1,2.3,0.9,2.6c0,1-0.2,2-0.3,2.4c-1.1,2.2-1.9,2.1-5.9,3.9h-23.5L143,130.6l-0.3-83.1l29.3-28.8h83.5L284.9,47.5z"/>
		<path d="M240,98.4c0.1,0,0.2,0,0.4,0h0.2c0.5,0,0.9,0.1,1.1,0.2c0.3,0.1,0.5,0.2,0.7,0.3l1.1,0.4c0.3,0,0.5,0.1,0.8,0.1
			c1.5,0,3-0.9,3.7-2.4c0.2-0.5,0.6-1.5,0.3-2.8l45.1,0L293.2,44l-34.4-33.6h-90.1l0,0L134.6,44l0.3,90.1l29.9,30.4h13.6
			c-0.3,0.9-0.8,2.3,0.2,3.7c1.1,1.5,2.8,1.5,3.5,1.5c0.8,0,1.9-0.1,3.6-0.3l0,0c0,0,0.7,0.6-1.5,1.4c-1.8,0.6-3.4,1.7-3.9,3.5
			c-0.1,0.1,0,0.3-0.1,0.4h-45.3l0.2,46.1l34.4,33.6h90.1l34.2-33.6l-0.3-86.3l-29.9-30.4h-25.2h0c-1.1-0.7-2.3-1.4-3.3-2l-0.4-0.2
			l-0.1,0c-0.6-0.3-1.2-0.8-1.8-1.4c-0.6-0.4-1-0.9-1.4-1.3l-0.1-0.1c-0.7-0.7-1.2-1.4-1.7-1.9c3.9,1.1,8.2,1.4,10.3,1.5h0.1
			L240,98.4z M225.5,95.8c0.4,1,1.8,3,3.8,5c0.5,0.5,1.1,1.1,1.7,1.6c0.8,0.7,1.6,1.3,2.4,1.7l0,0c2.2,1.4,4.6,2.7,6.3,3.9h22.1
			l27.5,27.9l0.3,82.8L257.9,250h-86.8l-31.9-31.3l-0.1-40.1h42.6l0,0h4.2c-0.5-0.6-1.2-1.2-2.1-1.8c0,0-3.7-3.2,4.9-4.3
			c3.7-0.5,7.6-2.8,9.2-6.5c0.3-2.5-3-3.3-4.6-2.2c-1.7,1.1-5.2,2.4-7.2,2.7c-6.2,0.9-5.5,0.3-4.8-1.7c0.3-0.9,0.9-2.8,2.9-4.5
			h-17.6L139,132.2l-0.3-86.6l31.7-31.1h86.8l31.9,31.2l0,0l0.1,44.4h-46.9c1,1,1.8,2,2.4,2.9c2.1,2.6,0.3,4-0.7,3.5
			c0,0-0.8-0.4-1.3-0.6c-0.5-0.1-2.5-0.4-2.8-0.4c-2.5-0.1-9.2-0.5-13.3-2.9C224.9,91.9,224.8,94.1,225.5,95.8z"/>
	</g>
	<g>
		<path d="M207.8,188.5l0,5.5l0,0.5l0,2l0,0l0,3l0-0.1l0,12.6c0,6-0.5,11.7-2.8,14.1c-2.3,2.3-5.9,5.1-7.9,8.3
			c-2.7,4.3-6,11.1-14.9,11.6h-9.4L143.3,217l-0.1-34.2h42.8c-0.6,0.6-1.3,0.9-1.3,0.9s-6.6,2.7-8.3,7.3c-1.3,3.3-2,5.8-2.5,7.6h0
			c-0.9,4.1,1.4,5.8,2.9,3.7c2.6-3.3,11.5-8,14.6-8.3s8.5,0,11.7-3.4C206.3,187.2,207.7,187.3,207.8,188.5z"/>
		<path d="M285.3,137.8l0.3,79.3L256.3,246H248c-4.3,0-10.8-2.7-12.8-5.1c-4.3-5.2-6.6-4.6-9.7-7.8c-3.7-3.8-4.6-8.2-4.8-12.9
			l-0.1-20.8c0,0-0.4-4.3,2.9-1.6c3.3,2.6,5.1,2.3,10.7,1.9c5.5-0.4,11.6,4.6,14.8,6.6c3.2,2,9.7,6.9,3-10.3
			c-1.3-3.3-5.2-5.7-7.2-6.7c-1.3-0.7-3-2.9-1.4-4.8c0,0,3.3-3,1.5-5c-0.6-0.7-2.1-1.5-5.4-1.9c-3.8-0.5-7.7-2.8-9.2-6.5
			c-0.3-2.4,3-3.3,4.6-2.2c1.7,1.2,5.3,2.4,7.2,2.7c6.2,0.9,5.5,0.3,4.8-1.6c-0.4-1.2-1.4-4.1-5.5-6.3c-8.6-4.5-9.5-3.3-11-6.3
			c-0.4-0.9-0.8-6,1.2-4.4c0,0,0,0,0.1,0c0.4,0.4,0.8,0.9,1.4,1.4c2.2,1.7,3.8,1.9,6.8,1.8c3,0,3.3,1.2,4.5,1.7
			c1.2,0.6,2.8,1.5,1.3-3c-1.6-4.8-4.2-8.7-9.3-11c-2.3-1.1-9-5.5-10.2-6.9c-1.1-1.3-3.7-5.1-0.6-4.3c3.1,0.8,4.7,3,10,1.5
			c0,0,2.2-0.4,3.5,0.3c1.3,0.7,4.9-0.3-1.7-4.9c-4.8-3.4-9.1-3.1-11.5-8.5c0,0-0.9-1.6-0.5-2.4l0,0c0.2-0.5,1.4-1.7,3.1-1.1
			c1.7,0.6,7.6,3.2,10.1,3.8c1.4,0.3,2.4,0.8,3.1,1.4c1.1,0.7,4.5,1.9,4.6-0.7c-0.6-4.4-1.4-7.3-2.8-9.6h16.3L285.3,137.8z"/>
		<path d="M284.9,47.5l0.1,38.4l-47.4,0c-3.1-2.4-6.5-4.4-9.2-5.3c-5.8-1.8-5.1-3.5-4.9-3.9c0.5-0.3,1.4-0.5,2.5-0.8
			c1.9-0.4,4.5,0.3,4.5,0.3c4.2,0.7,5.9-1.4,2.6-3.8c-1.8-1.4-2.9-1.7-8-4c-3.3-1.5-2.9-5.3-1.6-5.4c2-0.2,7.4,1.5,3.6-2.8
			c0,0-2.9-2.9-5.1-3.8c-2.1-0.8,0-2.1,0.8-2.5c0.8-0.4,3.5-1.2-0.3-4.1c0,0-6.6-4.1-4-6c2.6-2,3.7-3.5,1.2-3.7
			c-1.7-0.1-3.5-0.8-3-2.6c0.1-0.6,1.6-1.7,2.1-2.3c0.6-0.8,0.1-1.1-0.2-1.2c-0.2,0-0.4,0-0.7,0c-1.3,0-2-0.7-2.7-2.6
			c-0.8-3.3-1.4-6.2-1.4-6.2c0,0,0,0-0.1,0c-0.6,0-0.6,0.4-1,2.1c-1.3,5.8-1.9,8-4.1,8c-0.3,0-0.5,0-0.7,0c-0.4,0.1-0.9,0.4-0.2,1.2
			c0.9,1.2,3.1,2.2,3.1,3c0.1,0.7-0.5,1.4-1.4,2.2c-0.9,0.9-3,2.4-3,2.4s-2.7,1.7-3.2,2.6c-0.6,1.4,2.5,1.4,2.5,1.4
			c5.5,0.2,3.2,2.3,2.3,2.6c-1.4,0.5-2.6,0.8-4,1.6c-1.8,1.2-3.6,3-3.6,3c-3.8,4.3,1.6,2.6,3.6,2.8c1.3,0.1,1.7,3.9-1.6,5.4
			c-2.1,1-3.5,1.6-4.6,2.1c-0.5,0.3-2.5,1.4-3.6,3.1c-1.3,1.8,2.6,1.3,5.1,1.5c1.7,0.1,3.7-1.3,4.9-1.2c1.5,0.1,2,0.5,2.3,1.5
			c0.2,1.1-0.5,2.1-1.6,3.1c-0.3,0.4-0.9,0.8-1.3,1c0,0,0,0-0.1,0c-1.6,1-3.3,1.8-4.1,2.1c-5.2,2.9-12.9,7.6-16.1,11.2
			c-2.3,2.7-0.4,4.2,0.6,3.7c1-0.5,2.8-1.5,5.5-1c2.2,0.4,5.1-0.3,7.4-0.9c2-0.4,3.9-3.9,4.8-2.6c1.9,3.1-1.3,6.9-2.6,8.2
			c-2.5,3.4-9.5,6.6-12.3,8.9c-3.3,2.7-4.6,6.2-5.5,13.2c-0.8,7,2.7,2,2.7,2c0.9-1.1,2.9-3.6,8.2-3.6s6.2-1.5,8-2.6
			c3.3-1.9,1.6,2.6,1.6,2.6c-2.2,5-6.2,5.1-10.6,7.9c-0.4,0.3-0.8,0.7-1.6,1.5c-1.8,1.9-1.2,2.7-0.2,2.5c1-0.1,2.6,0.5,4.3,0.4
			c1.8,0,3.3-0.4,5.2-1.3c2-0.9,3-2.5,4.3-1.7c0.9,0.5,0.7,1.9,0.5,2.8c-0.1,1-1.3,2.9-2,3.6c-1.2,1.4-7.8,5.8-10.1,6.9
			c-0.3,0.1-0.6,0.3-0.9,0.5c-0.1,0-0.2,0.1-0.3,0.2c-3,1.8-5.1,4.4-5.1,4.4c-0.5,0.8-3.3,5.3,0.5,3.4c3.8-2,8.9,1.4,11.4,0.1
			c1.4-0.7,1,2.3,0.9,2.6c0,1-0.2,2-0.3,2.4c-1.1,2.2-1.9,2.1-5.9,3.9h-23.5L143,130.6l-0.3-83.1l29.3-28.8h83.5L284.9,47.5z"/>
	</g>
	<g>
		<path d="M203.1,190.6c-3.2,3.4-8.6,3.1-11.7,3.4c-3.1,0.3-12,4.9-14.6,8.3c-1.6,2.1-3.8,0.4-2.9-3.7h0c0.4-1.8,1.2-4.3,2.5-7.6
			c1.7-4.6,8.3-7.3,8.3-7.3s0.7-0.3,1.3-0.9h-42.8l0.1,34.2l29.5,28.8h9.4c8.9-0.4,12.2-7.3,14.9-11.6c2-3.2,5.6-5.9,7.9-8.3
			c2.4-2.4,2.8-8,2.8-14.1l0-12.6l0,0.1l0-3l0,0l0-2l0-0.5l0-5.5C207.7,187.3,206.3,187.2,203.1,190.6z M260.2,112.3h-16.3
			c1.4,2.3,2.2,5.2,2.8,9.6c0,2.6-3.4,1.4-4.6,0.7c-0.8-0.5-1.8-1-3.1-1.4c-2.5-0.6-8.5-3.2-10.1-3.8c-1.7-0.6-2.9,0.6-3.1,1.1l0,0
			c-0.4,0.8,0.5,2.4,0.5,2.4c2.4,5.3,6.7,5,11.5,8.5c6.5,4.6,3.1,5.7,1.7,4.9c-1.3-0.7-3.5-0.3-3.5-0.3c-5.3,1.5-6.9-0.7-10-1.5
			c-3.1-0.8-0.5,3,0.6,4.3c1.2,1.4,7.8,5.8,10.2,6.9c5.1,2.4,7.7,6.1,9.3,11c1.5,4.6-0.1,3.6-1.3,3c-1.2-0.6-1.6-1.8-4.5-1.7
			c-3,0-4.7-0.1-6.8-1.8c-0.6-0.4-1-0.9-1.4-1.4c0,0-0.1,0-0.1,0c-2-1.5-1.7,3.6-1.2,4.4c1.5,3,2.5,1.7,11,6.3c4,2.2,5,5.1,5.5,6.3
			c0.7,2,1.4,2.5-4.8,1.6c-2-0.3-5.6-1.5-7.2-2.7c-1.6-1.1-4.9-0.2-4.6,2.2c1.6,3.7,5.5,6.1,9.2,6.5c3.3,0.4,4.8,1.1,5.4,1.9
			c1.8,2-1.5,5-1.5,5c-1.6,1.9,0.1,4.2,1.4,4.8c2,1,5.9,3.3,7.2,6.7c6.8,17.3,0.3,12.3-3,10.3c-3.2-2-9.3-7.1-14.8-6.6
			c-5.5,0.4-7.4,0.7-10.7-1.9c-3.3-2.6-2.9,1.6-2.9,1.6l0.1,20.8c0.2,4.7,1.1,9.1,4.8,12.9c3,3.1,5.4,2.5,9.7,7.8
			c2,2.4,8.4,5,12.8,5.1h8.3l29.3-28.8l-0.2-79.3L260.2,112.3z M255.5,18.7H172l-29.3,28.8l0.3,83.1l25.1,25.5h23.5
			c4-1.7,4.9-1.6,5.9-3.9c0.1-0.3,0.3-1.4,0.3-2.4c0.1-0.3,0.5-3.3-0.9-2.6c-2.5,1.3-7.6-2.1-11.4-0.1c-3.8,2-1-2.6-0.5-3.4
			c0,0,2-2.7,5.1-4.4c0.1,0,0.2-0.1,0.3-0.2c0.3-0.1,0.6-0.3,0.9-0.5c2.3-1.1,8.9-5.5,10.1-6.9c0.7-0.8,2-2.6,2-3.6
			c0.2-0.9,0.4-2.3-0.5-2.8c-1.2-0.8-2.3,0.8-4.3,1.7c-2,0.9-3.5,1.3-5.2,1.3c-1.7,0-3.3-0.6-4.3-0.4c-1,0.1-1.6-0.6,0.2-2.5
			c0.8-0.9,1.2-1.2,1.6-1.5c4.4-2.9,8.4-2.9,10.6-7.9c0,0,1.7-4.5-1.6-2.6c-1.8,1.1-2.8,2.6-8,2.6c-5.2,0-7.2,2.5-8.2,3.6
			c0,0-3.5,5-2.7-2c0.9-7,2.2-10.5,5.5-13.2c2.8-2.3,9.8-5.5,12.3-8.9c1.3-1.3,4.5-5,2.6-8.2c-0.8-1.4-2.7,2.1-4.8,2.6
			c-2.3,0.6-5.2,1.4-7.4,0.9c-2.8-0.5-4.5,0.5-5.5,1c-1,0.5-3-1-0.6-3.7c3.2-3.6,10.9-8.4,16.1-11.2c0.7-0.3,2.5-1.1,4.1-2.1
			c0,0,0.1,0,0.1,0c0.4-0.2,1-0.5,1.3-1c1.1-1,1.9-2,1.6-3.1c-0.2-1-0.7-1.3-2.3-1.5c-1.2-0.1-3.2,1.3-4.9,1.2
			c-2.6-0.2-6.4,0.4-5.1-1.5c1.2-1.7,3.1-2.8,3.6-3.1c1.1-0.5,2.5-1.1,4.6-2.1c3.3-1.5,2.8-5.3,1.6-5.4c-2-0.2-7.4,1.5-3.6-2.8
			c0,0,1.8-1.8,3.6-3c1.4-0.8,2.6-1.2,4-1.6c0.9-0.3,3.2-2.4-2.3-2.6c0,0-3.1,0.1-2.5-1.4c0.5-0.9,3.2-2.6,3.2-2.6s2.1-1.5,3-2.4
			c0.8-0.8,1.4-1.5,1.4-2.2c0-0.8-2.2-1.8-3.1-3c-0.7-0.8-0.1-1.1,0.2-1.2c0.2,0,0.4,0,0.7,0c2.2,0,2.9-2.2,4.1-8
			c0.4-1.7,0.4-2.1,1-2.1c0,0,0.1,0,0.1,0s0.6,2.9,1.4,6.2c0.7,1.8,1.4,2.6,2.7,2.6c0.2,0,0.5,0,0.7,0c0.4,0.1,0.9,0.4,0.2,1.2
			c-0.5,0.6-2,1.7-2.1,2.3c-0.4,1.8,1.3,2.5,3,2.6c2.5,0.1,1.4,1.7-1.2,3.7c-2.6,1.9,4,6,4,6c3.7,2.9,1.1,3.7,0.3,4.1
			c-0.8,0.4-2.9,1.7-0.8,2.5s5.1,3.8,5.1,3.8c3.8,4.3-1.6,2.6-3.6,2.8c-1.3,0.1-1.7,3.9,1.6,5.4c5,2.3,6.1,2.7,8,4
			c3.3,2.5,1.6,4.5-2.6,3.8c0,0-2.7-0.7-4.5-0.3c-1.1,0.2-1.9,0.5-2.5,0.8c-0.3,0.4-1,2.1,4.9,3.9c2.8,0.9,6.2,2.9,9.2,5.3l47.4,0
			l-0.1-38.4L255.5,18.7z"/>
	</g>
</g>
<g>
	<path d="M335,84.5c-2.2-1.1-3.9-2.7-5.2-4.7c-1.3-2.1-2-4.4-2.1-7.1h7.9c0.2,1.9,0.9,3.5,2.1,4.6c1.2,1.2,2.8,1.7,4.9,1.7
		c1.9,0,3.4-0.4,4.5-1.2c1.1-0.8,1.7-1.9,1.7-3.3c0-1-0.3-1.8-1-2.4c-0.7-0.6-1.5-1.1-2.4-1.4c-1-0.3-2.3-0.7-4-1.2
		c-2.6-0.6-4.7-1.3-6.4-2c-1.7-0.7-3.1-1.8-4.3-3.4c-1.2-1.6-1.8-3.7-1.8-6.5c0-2.1,0.6-4,1.7-5.7c1.1-1.6,2.7-2.9,4.7-3.9
		c2-0.9,4.3-1.4,6.9-1.4c2.7,0,5.2,0.5,7.3,1.5c2.1,1,3.8,2.4,4.9,4.2c1.2,1.8,1.8,3.9,1.9,6.3h-7.9c-0.1-1.5-0.8-2.7-1.9-3.6
		c-1.1-0.9-2.6-1.3-4.4-1.3c-1.6,0-2.9,0.3-3.8,1c-1,0.7-1.4,1.6-1.4,2.8c0,1.1,0.3,1.9,1,2.6c0.7,0.6,1.5,1.1,2.5,1.5
		c1,0.3,2.4,0.7,4.2,1.1c2.6,0.5,4.7,1.2,6.4,1.8c1.7,0.7,3.1,1.8,4.3,3.3c1.2,1.6,1.8,3.7,1.8,6.5c0,2.4-0.6,4.5-1.8,6.2
		c-1.2,1.8-2.9,3.1-5.1,4.1c-2.2,1-4.7,1.4-7.6,1.4C339.8,86.1,337.2,85.6,335,84.5z"/>
	<path d="M371.7,52.3h-12v-5.1h29.8v5.1h-12v33.4h-5.7V52.3z"/>
	<path d="M391.9,85.7H386l15.1-38.5h5.3l15.1,38.5h-5.9l-11.8-31.3L391.9,85.7z M393.7,75.9l0.8-5h18.3l0.8,5H393.7z"/>
	<path d="M426.4,47.2h6.4l18.5,29.6V47.2h5.7v38.5h-6.3l-18.6-29.6v29.6h-5.7V47.2z"/>
	<path d="M465.8,47.2h24.7v5.1h-19v11.5h15.3v5.1h-15.3v16.9h-5.7V47.2z"/>
	<path d="M502.1,83.6c-2.9-1.7-5.2-4-6.8-7c-1.6-3-2.5-6.3-2.5-10.1c0-3.7,0.8-7.1,2.5-10.1c1.6-3,3.9-5.3,6.8-7
		c2.9-1.7,6.2-2.6,9.8-2.6c3.6,0,6.8,0.9,9.8,2.6c2.9,1.7,5.2,4,6.8,7c1.6,3,2.5,6.3,2.5,10.1c0,3.7-0.8,7.1-2.5,10.1
		c-1.6,3-3.9,5.3-6.8,7c-2.9,1.7-6.2,2.6-9.8,2.6C508.2,86.1,505,85.3,502.1,83.6z M518.6,79.2c2-1.3,3.6-3,4.8-5.2
		c1.1-2.2,1.7-4.7,1.7-7.5c0-2.7-0.6-5.2-1.7-7.5c-1.1-2.2-2.7-4-4.8-5.2c-2-1.3-4.3-1.9-6.8-1.9c-2.5,0-4.8,0.6-6.8,1.9
		c-2,1.3-3.6,3-4.8,5.2c-1.2,2.2-1.7,4.7-1.7,7.5c0,2.7,0.6,5.2,1.7,7.5c1.2,2.2,2.7,4,4.8,5.2c2,1.3,4.3,1.9,6.8,1.9
		C514.3,81.1,516.6,80.4,518.6,79.2z"/>
	<path d="M537.6,47.2h15.1c2.6,0,4.8,0.5,6.6,1.5c1.9,1,3.3,2.3,4.3,4.1c1,1.7,1.5,3.7,1.5,6c0,2.2-0.6,4.1-1.9,5.7
		c-1.2,1.6-2.9,2.7-5.1,3.5c-2.1,0.8-4.5,1.2-7.2,1.2h-7.7v16.5h-5.7V47.2z M542.3,66h11.4c3,0,5.5,0.9,7.4,2.7
		c1.9,1.8,2.9,4.2,3.2,7.1l0.8,9.8h-5.5l-0.8-9.3c-0.1-1.7-0.8-3.1-1.8-4.2c-1.1-1.1-2.4-1.6-4-1.6h-10.6V66z M556.4,64.6
		c1-0.6,1.8-1.4,2.3-2.4c0.5-1,0.7-2.1,0.7-3.4c0-1.9-0.6-3.5-1.7-4.8c-1.1-1.2-2.9-1.8-5.2-1.8h-9.2v13.3h9.2
		C554.1,65.5,555.4,65.2,556.4,64.6z"/>
	<path d="M572.6,47.2h11.8c3.6,0,6.9,0.7,9.8,2.2c2.9,1.5,5.3,3.7,7,6.6c1.7,2.9,2.6,6.4,2.6,10.4c0,4-0.9,7.5-2.6,10.4
		c-1.7,2.9-4,5.1-7,6.6c-2.9,1.5-6.2,2.2-9.8,2.2h-11.8V47.2z M591,79.2c2.1-1,3.7-2.5,5-4.7c1.3-2.1,1.9-4.8,1.9-8
		c0-3.2-0.6-5.9-1.9-8c-1.3-2.1-3-3.7-5-4.7c-2.1-1-4.4-1.5-6.9-1.5h-5.8v28.3h5.8C586.6,80.6,588.9,80.1,591,79.2z"/>
	<path d="M329.8,113.2h15.3c2.4,0,4.5,0.4,6.3,1.2c1.8,0.8,3.3,1.9,4.3,3.4s1.6,3.3,1.6,5.4c0,1.7-0.4,3.2-1.3,4.6
		c-0.9,1.4-1.9,2.4-3.2,3c1.9,0.7,3.5,1.9,4.6,3.5c1.2,1.6,1.8,3.6,1.8,6c0,2.4-0.6,4.4-1.7,6.2c-1.1,1.7-2.7,3.1-4.8,4
		c-2.1,0.9-4.5,1.3-7.2,1.3h-15.8V113.2z M348.4,126.8c0.9-0.7,1.3-1.7,1.3-3c0-1.3-0.4-2.3-1.3-3c-0.9-0.7-2.2-1.1-4-1.1H338v8.1
		h6.5C346.2,127.8,347.5,127.5,348.4,126.8z M349.8,143.3c1.1-0.8,1.6-2,1.6-3.6c0-1.6-0.5-2.8-1.6-3.7c-1.1-0.8-2.7-1.2-5-1.2H338
		v9.7h6.9C347.1,144.5,348.7,144.1,349.8,143.3z"/>
	<path d="M365.4,113.2h5.7v33.4h18.7v5.1h-24.4V113.2z"/>
	<path d="M399.8,149.5c-2.9-1.7-5.2-4-6.8-7c-1.6-3-2.5-6.3-2.5-10.1s0.8-7.1,2.5-10.1c1.6-3,3.9-5.3,6.8-7c2.9-1.7,6.2-2.6,9.8-2.6
		c3.6,0,6.8,0.9,9.8,2.6c2.9,1.7,5.2,4,6.8,7c1.6,3,2.5,6.3,2.5,10.1s-0.8,7.1-2.5,10.1c-1.6,3-3.9,5.3-6.8,7
		c-2.9,1.7-6.2,2.6-9.8,2.6C405.9,152.1,402.7,151.2,399.8,149.5z M416.4,145.1c2-1.3,3.6-3,4.8-5.2c1.1-2.2,1.7-4.7,1.7-7.5
		c0-2.7-0.6-5.2-1.7-7.5c-1.1-2.2-2.7-4-4.8-5.2c-2-1.3-4.3-1.9-6.8-1.9c-2.5,0-4.8,0.6-6.8,1.9c-2,1.3-3.6,3-4.8,5.2
		c-1.2,2.2-1.7,4.7-1.7,7.5c0,2.7,0.6,5.2,1.7,7.5c1.2,2.2,2.7,4,4.8,5.2c2,1.3,4.3,1.9,6.8,1.9C412.1,147,414.3,146.4,416.4,145.1z
		"/>
	<path d="M442.7,149.8c-2.8-1.5-5.1-3.7-6.8-6.7c-1.7-3-2.6-6.6-2.6-10.8c0-4.2,0.9-7.8,2.6-10.8c1.7-3,4-5.2,6.8-6.7
		c2.8-1.5,5.9-2.2,9.3-2.2c2.9,0,5.5,0.5,7.9,1.6c2.4,1.1,4.4,2.6,5.9,4.6c1.6,1.9,2.5,4.1,2.8,6.6h-6c-0.2-1.5-0.8-2.8-1.8-4
		c-1-1.2-2.3-2.1-3.8-2.8c-1.6-0.7-3.3-1-5.1-1c-2.5,0-4.8,0.6-6.7,1.7c-1.9,1.1-3.5,2.8-4.6,5c-1.1,2.2-1.6,4.8-1.6,7.9
		c0,3.1,0.5,5.8,1.6,7.9c1.1,2.2,2.6,3.8,4.6,5c1.9,1.1,4.2,1.7,6.7,1.7c1.9,0,3.6-0.3,5.2-1c1.6-0.7,2.9-1.6,3.9-2.8
		c1-1.2,1.6-2.5,1.8-4h5.8c-0.3,2.5-1.2,4.7-2.7,6.6c-1.5,1.9-3.5,3.5-5.9,4.6c-2.4,1.1-5.1,1.6-8,1.6
		C448.7,152.1,445.6,151.3,442.7,149.8z"/>
	<path d="M475.1,151.6v-38.5h5.8v38.5H475.1z M497.7,113.2h7.2L479,140.5l-0.3-7.4L497.7,113.2z M506.5,151.6h-7L485.3,131l4-4.1
		L506.5,151.6z"/>
	<path d="M515.2,149.8c-2.8-1.5-5.1-3.7-6.8-6.7c-1.7-3-2.6-6.6-2.6-10.8c0-4.2,0.9-7.8,2.6-10.8c1.7-3,4-5.2,6.8-6.7
		c2.8-1.5,5.9-2.2,9.3-2.2c2.9,0,5.5,0.5,7.9,1.6c2.4,1.1,4.4,2.6,5.9,4.6c1.6,1.9,2.5,4.1,2.8,6.6h-6c-0.2-1.5-0.8-2.8-1.8-4
		c-1-1.2-2.3-2.1-3.8-2.8c-1.6-0.7-3.3-1-5.1-1c-2.5,0-4.8,0.6-6.7,1.7c-1.9,1.1-3.5,2.8-4.6,5c-1.1,2.2-1.6,4.8-1.6,7.9
		c0,3.1,0.5,5.8,1.6,7.9c1.1,2.2,2.6,3.8,4.6,5c1.9,1.1,4.2,1.7,6.7,1.7c1.9,0,3.6-0.3,5.2-1c1.6-0.7,2.9-1.6,3.9-2.8
		c1-1.2,1.6-2.5,1.8-4h5.8c-0.3,2.5-1.2,4.7-2.7,6.6c-1.5,1.9-3.5,3.5-5.9,4.6c-2.4,1.1-5.1,1.6-8,1.6
		C521.1,152.1,518,151.3,515.2,149.8z"/>
	<path d="M547.6,151.6v-38.5h5.7v38.5H547.6z M552.5,134.4v-5.1h20.8v5.1H552.5z M578.1,113.2v38.5h-5.7v-38.5H578.1z"/>
	<path d="M588.9,151.6H583l15.1-38.5h5.3l15.1,38.5h-5.9l-11.8-31.3L588.9,151.6z M590.7,141.8l0.8-5h18.3l0.8,5H590.7z"/>
	<path d="M623.4,113.2h5.7v38.5h-5.7V113.2z"/>
	<path d="M637.9,113.2h6.4l18.5,29.6v-29.6h5.7v38.5h-6.3l-18.6-29.6v29.6h-5.7V113.2z"/>
	<path d="M334.9,217.5h-8.6l14.6-38.5h7.8l14.7,38.5h-8.6l-10-27.7L334.9,217.5z M334.7,209.2l0.3-7h19.7l0.3,7H334.7z"/>
	<path d="M375.4,215.8c-2.8-1.5-5.1-3.7-6.8-6.7c-1.7-3-2.6-6.6-2.6-10.8c0-4.2,0.9-7.8,2.6-10.8c1.7-3,4-5.2,6.8-6.7
		c2.8-1.5,5.9-2.2,9.3-2.2c2.9,0,5.5,0.5,7.9,1.6c2.4,1.1,4.4,2.6,5.9,4.6c1.6,1.9,2.5,4.1,2.8,6.6h-6c-0.2-1.5-0.8-2.8-1.8-4
		c-1-1.2-2.3-2.1-3.8-2.8c-1.6-0.7-3.3-1-5.1-1c-2.5,0-4.8,0.6-6.7,1.7c-1.9,1.1-3.5,2.8-4.6,5c-1.1,2.2-1.6,4.8-1.6,7.9
		c0,3.1,0.5,5.8,1.6,7.9c1.1,2.2,2.6,3.8,4.6,5c1.9,1.1,4.2,1.7,6.7,1.7c1.9,0,3.6-0.3,5.2-1c1.6-0.7,2.9-1.6,3.9-2.8
		c1-1.2,1.6-2.5,1.8-4h5.8c-0.3,2.5-1.2,4.7-2.7,6.6c-1.5,1.9-3.5,3.5-5.9,4.6c-2.4,1.1-5.1,1.6-8,1.6
		C381.3,218,378.2,217.2,375.4,215.8z"/>
	<path d="M415.1,215.8c-2.8-1.5-5.1-3.7-6.8-6.7c-1.7-3-2.6-6.6-2.6-10.8c0-4.2,0.9-7.8,2.6-10.8c1.7-3,4-5.2,6.8-6.7
		c2.8-1.5,5.9-2.2,9.3-2.2c2.9,0,5.5,0.5,7.9,1.6c2.4,1.1,4.4,2.6,5.9,4.6c1.6,1.9,2.5,4.1,2.8,6.6h-6c-0.2-1.5-0.8-2.8-1.8-4
		c-1-1.2-2.3-2.1-3.8-2.8c-1.6-0.7-3.3-1-5.1-1c-2.5,0-4.8,0.6-6.7,1.7c-1.9,1.1-3.5,2.8-4.6,5c-1.1,2.2-1.6,4.8-1.6,7.9
		c0,3.1,0.5,5.8,1.6,7.9c1.1,2.2,2.6,3.8,4.6,5c1.9,1.1,4.2,1.7,6.7,1.7c1.9,0,3.6-0.3,5.2-1c1.6-0.7,2.9-1.6,3.9-2.8
		c1-1.2,1.6-2.5,1.8-4h5.8c-0.3,2.5-1.2,4.7-2.7,6.6c-1.5,1.9-3.5,3.5-5.9,4.6c-2.4,1.1-5.1,1.6-8,1.6
		C421.1,218,418,217.2,415.1,215.8z"/>
	<path d="M447.5,179.1h24.7v5.1h-19v11h15.3v5.1h-15.3v12.3h19.6v5.1h-25.3V179.1z"/>
	<path d="M479.2,179.1h5.7v33.4h18.7v5.1h-24.4V179.1z"/>
	<path d="M508.7,179.1h24.7v5.1h-19v11h15.3v5.1h-15.3v12.3h19.6v5.1h-25.3V179.1z"/>
	<path d="M540.4,179.1h15.1c2.6,0,4.8,0.5,6.6,1.5c1.9,1,3.3,2.3,4.3,4.1c1,1.7,1.5,3.7,1.5,6c0,2.2-0.6,4.1-1.9,5.7
		c-1.2,1.6-2.9,2.7-5.1,3.5c-2.1,0.8-4.5,1.2-7.2,1.2h-7.7v16.5h-5.7V179.1z M545.1,197.8h11.4c3,0,5.5,0.9,7.4,2.7
		c1.9,1.8,2.9,4.2,3.2,7.1l0.8,9.8h-5.5l-0.8-9.3c-0.1-1.7-0.8-3.1-1.8-4.2c-1.1-1.1-2.4-1.6-4-1.6h-10.6V197.8z M559.2,196.4
		c1-0.6,1.8-1.4,2.3-2.4c0.5-1,0.7-2.1,0.7-3.4c0-1.9-0.6-3.5-1.7-4.8c-1.1-1.2-2.9-1.8-5.2-1.8h-9.2v13.3h9.2
		C556.8,197.3,558.1,197,559.2,196.4z"/>
	<path d="M577.1,217.5h-5.9l15.1-38.5h5.3l15.1,38.5h-5.9l-11.8-31.3L577.1,217.5z M578.9,207.8l0.8-5h18.3l0.8,5H578.9z"/>
	<path d="M615.4,184.1h-12v-5.1h29.8v5.1h-12v33.4h-5.7V184.1z"/>
	<path d="M643.3,215.4c-2.9-1.7-5.2-4-6.8-7c-1.6-3-2.5-6.3-2.5-10.1c0-3.7,0.8-7.1,2.5-10.1c1.6-3,3.9-5.3,6.8-7
		c2.9-1.7,6.2-2.6,9.8-2.6c3.6,0,6.8,0.9,9.8,2.6c2.9,1.7,5.2,4,6.8,7c1.6,3,2.5,6.3,2.5,10.1c0,3.7-0.8,7.1-2.5,10.1
		c-1.6,3-3.9,5.3-6.8,7c-2.9,1.7-6.2,2.6-9.8,2.6C649.5,218,646.2,217.1,643.3,215.4z M659.9,211c2-1.3,3.6-3,4.8-5.2
		c1.1-2.2,1.7-4.7,1.7-7.5c0-2.7-0.6-5.2-1.7-7.5c-1.1-2.2-2.7-4-4.8-5.2c-2-1.3-4.3-1.9-6.8-1.9c-2.5,0-4.8,0.6-6.8,1.9
		c-2,1.3-3.6,3-4.8,5.2c-1.2,2.2-1.7,4.7-1.7,7.5c0,2.7,0.6,5.2,1.7,7.5c1.2,2.2,2.7,4,4.8,5.2c2,1.3,4.3,1.9,6.8,1.9
		C655.6,212.9,657.9,212.3,659.9,211z"/>
	<path d="M678.9,179.1h15.1c2.6,0,4.8,0.5,6.6,1.5c1.9,1,3.3,2.3,4.3,4.1c1,1.7,1.5,3.7,1.5,6c0,2.2-0.6,4.1-1.9,5.7
		c-1.2,1.6-2.9,2.7-5.1,3.5c-2.1,0.8-4.5,1.2-7.2,1.2h-7.7v16.5h-5.7V179.1z M683.6,197.8H695c3,0,5.5,0.9,7.4,2.7
		c1.9,1.8,2.9,4.2,3.2,7.1l0.8,9.8h-5.5l-0.8-9.3c-0.1-1.7-0.8-3.1-1.8-4.2c-1.1-1.1-2.4-1.6-4-1.6h-10.6V197.8z M697.7,196.4
		c1-0.6,1.8-1.4,2.3-2.4c0.5-1,0.7-2.1,0.7-3.4c0-1.9-0.6-3.5-1.7-4.8c-1.1-1.2-2.9-1.8-5.2-1.8h-9.2v13.3h9.2
		C695.3,197.3,696.6,197,697.7,196.4z"/>
</g>
</svg>
