<svg width="91" height="49" viewBox="0 0 91 49" fill="none" xmlns="http://www.w3.org/2000/svg">
<g opacity="0.4" clip-path="url(#clip0_1751_1744)">
<path fill-rule="evenodd" clip-rule="evenodd" d="M33.8463 31.7535L30.921 26.8687L28.4507 22.7551L17.9533 29.0724L19.5566 31.7535H33.8463ZM58.1346 31.7535H72.4243L53.6931 0.513672L43.2061 6.83097L58.1346 31.7535ZM53.1409 36.6491C52.133 35.9982 50.9519 35.618 49.6734 35.618H49.6411C46.1098 35.6396 43.2388 38.527 43.2388 42.0657C43.2388 45.6047 46.1098 48.4917 49.6411 48.5137H49.6734C50.9519 48.5137 52.133 48.1339 53.1409 47.4826V48.1555H56.0981V31.7539H53.1409V36.6491ZM53.1409 42.7389C52.8269 44.3673 51.3856 45.6151 49.6734 45.6151H49.6411C47.7019 45.5935 46.1313 44.0087 46.1313 42.0657C46.1313 40.123 47.7019 38.5382 49.6411 38.527H49.6734C51.3856 38.527 52.8265 39.7648 53.1409 41.3928V42.7389ZM67.0292 36.6491C65.9983 35.975 64.7935 35.6167 63.5625 35.618H63.5294C59.9981 35.6396 57.1275 38.527 57.1275 42.0657C57.1275 45.6047 59.9981 48.4917 63.5294 48.5137H63.5625C64.841 48.5137 66.0325 48.1339 67.0292 47.4826V48.1555H69.9871V35.9435H67.0292V36.6491ZM67.0292 42.7389C66.7152 44.3673 65.2739 45.6151 63.5625 45.6151H63.5294C61.5909 45.5935 60.02 44.0087 60.02 42.0657C60.02 40.123 61.5909 38.5382 63.5294 38.527H63.5625C65.2739 38.527 66.7148 39.7648 67.0292 41.3928V42.7389ZM80.5061 41.2624C80.398 41.2077 80.2459 41.1537 80.0724 41.0885C79.4116 40.8606 78.339 40.5784 76.8439 40.2529C75.5331 39.9595 74.8723 39.5801 74.8723 39.1023C74.8723 38.7657 74.9913 38.4942 75.2187 38.2991C75.5224 38.0384 76.0635 37.9081 76.8439 37.9081C77.6348 37.9081 78.209 38.082 78.5449 38.4183C78.7508 38.6245 78.9021 38.9932 78.9998 39.5145H82.1417C82.1417 37.9733 81.5132 36.8662 80.2783 36.1933C80.2132 36.1508 80.1443 36.1145 80.0724 36.085C79.2161 35.6832 78.0789 35.4769 76.66 35.4769C74.937 35.4769 73.6374 35.9331 72.7711 36.8554C72.078 37.5935 71.742 38.4942 71.742 39.5581C71.742 40.883 72.3916 41.8378 73.7136 42.4567C74.2119 42.6953 75.425 43.032 77.3538 43.4446C78.6431 43.7268 79.2923 44.1286 79.2923 44.6388C79.2923 44.943 79.163 45.2033 78.8813 45.442C78.5234 45.7458 77.9815 45.8981 77.2561 45.8981C76.2916 45.8981 75.6093 45.7354 75.2087 45.4208C74.8073 45.1169 74.6014 44.6719 74.6014 44.1074H71.3083C71.3083 45.6055 71.9368 46.7233 73.2041 47.461C74.212 48.0363 75.5335 48.3297 77.1699 48.3297C78.2636 48.3297 79.2384 48.145 80.0728 47.7872C80.2463 47.7112 80.3983 47.6349 80.5607 47.5481C81.85 46.8321 82.5 45.6922 82.5 44.1294C82.4996 42.8473 81.8381 41.8918 80.5061 41.2624ZM20.4017 36.6491C19.3661 35.9764 18.1584 35.6183 16.9242 35.618H16.8915C13.371 35.6396 10.5 38.527 10.5 42.0657C10.5 45.6047 13.371 48.4917 16.8915 48.5137H16.9242C18.2027 48.5137 19.3942 48.1339 20.4017 47.4826V48.1555H23.3592V35.9435H20.4017V36.6491ZM20.4017 42.7389C20.0877 44.3673 18.6464 45.6151 16.9242 45.6151H16.8915C14.9634 45.5935 13.3925 44.0087 13.3925 42.0657C13.3925 40.123 14.9634 38.5382 16.8915 38.527H16.9242C18.6468 38.527 20.0877 39.7648 20.4017 41.3928V42.7389ZM38.862 34.6521H42.0796V31.8187H38.862V34.6521ZM38.862 48.1551H42.0796V35.618H38.862V48.1551ZM34.4312 36.6491C33.3956 35.9763 32.1877 35.6182 30.9534 35.618H30.921C27.3893 35.6396 24.5184 38.527 24.5184 42.0657C24.5184 45.6047 27.3889 48.4917 30.921 48.5137H30.9534C32.1877 48.5136 33.3956 48.1555 34.4312 47.4826V48.1555H37.3888V31.7539H34.4312V36.6491ZM34.4312 42.7389C34.1172 44.3673 32.6759 45.6151 30.9534 45.6151H30.921C28.9818 45.5935 27.4109 44.0087 27.4109 42.0657C27.4109 40.123 28.9818 38.5382 30.921 38.527H30.9534C32.6759 38.527 34.1168 39.7648 34.4312 41.3928V42.7389ZM53.1293 31.7535L49.6411 25.914L41.0721 11.629L30.921 17.7512L30.5743 17.9571L30.921 18.5324L38.8508 31.7535H53.1293Z" fill="#141414"/>
</g>
<defs>
<clipPath id="clip0_1751_1744">
<rect width="90" height="48" fill="white" transform="translate(0.5 0.513672)"/>
</clipPath>
</defs>
</svg>
