<svg width="89" height="34" viewBox="0 0 89 34" fill="none" xmlns="http://www.w3.org/2000/svg">
<path d="M14.3325 23.3887C13.9856 23.5283 13.4698 23.6708 12.8 23.8149C12.1377 23.9574 11.3662 24.0294 10.508 24.0294C9.42258 24.0294 8.56589 23.8389 7.95889 23.4638C7.3444 23.0842 6.89438 22.595 6.5834 21.9723C6.26494 21.3331 6.05862 20.5784 5.97191 19.7292C5.8807 18.8469 5.83436 17.9166 5.83436 16.9638C5.83436 16.0906 5.88519 15.2278 5.98387 14.4011C6.07955 13.6104 6.29335 12.8992 6.61928 12.287C6.93475 11.6958 7.39823 11.2097 7.99925 10.842C8.59729 10.4759 9.44202 10.2899 10.508 10.2899C11.2929 10.2899 12.024 10.3574 12.6804 10.4909C13.3352 10.6245 13.8331 10.7625 14.1605 10.8991L14.7048 11.1286L14.932 7.79015L14.6719 7.66712C14.3235 7.50207 13.7554 7.33702 12.9376 7.16147C12.1332 6.98892 11.1748 6.90039 10.0924 6.90039C7.20237 6.90039 5.06289 7.76915 3.73076 9.48115C2.42405 11.1616 1.76172 13.6794 1.76172 16.9654C1.76172 18.6413 1.87684 20.1328 2.1026 21.3992C2.33434 22.7015 2.75596 23.8089 3.3525 24.6926C3.961 25.5929 4.78929 26.2831 5.81343 26.7422C6.81962 27.1939 8.10989 27.4219 9.64685 27.4219C10.7562 27.4219 11.725 27.3589 12.5234 27.2359C13.3308 27.1098 14.0992 26.9103 14.8079 26.6402L15.101 26.5292L14.8737 23.1757L14.3325 23.3887Z" fill="#141414"/>
<path d="M22.1495 18.5607H29.8911V15.3662H22.1495V10.5693H30.392V7.23535H18.1875V27.0847H30.7269V23.7507H22.1495V18.5607Z" fill="#141414"/>
<path d="M47.9863 9.7711C47.2612 8.92335 46.2415 8.27966 44.9572 7.85653C43.7043 7.44391 42.0627 7.23535 40.0787 7.23535H34.0879V27.0847H39.8006C41.7278 27.0847 43.3485 26.8851 44.6164 26.4935C45.9171 26.0914 46.9726 25.4597 47.7531 24.6165C48.532 23.7747 49.0867 22.6959 49.3992 21.41C49.7027 20.1617 49.8567 18.6657 49.8567 16.9642C49.8567 15.4323 49.7266 14.0579 49.4709 12.8785C49.2063 11.6602 48.7069 10.6143 47.9863 9.7711ZM45.5523 20.1752C45.4073 21.0229 45.1217 21.7191 44.7046 22.2473C44.2949 22.7664 43.7043 23.1565 42.9523 23.4086C42.1644 23.6727 41.1133 23.8062 39.8276 23.8062H38.0499V10.5123H40.1056C41.4034 10.5123 42.4455 10.6534 43.2035 10.9339C43.9271 11.201 44.4788 11.5971 44.8436 12.1103C45.2204 12.6399 45.4715 13.3016 45.5912 14.0804C45.7167 14.9071 45.781 15.8779 45.781 16.9642C45.7825 18.1976 45.7048 19.2779 45.5523 20.1752Z" fill="#141414"/>
<path d="M64.9682 18.2771C65.4705 17.974 65.9206 17.5854 66.3018 17.1218C66.686 16.6551 66.9881 16.097 67.1974 15.4638C67.4052 14.8366 67.5113 14.0909 67.5113 13.2476C67.5113 11.207 66.9178 9.67357 65.7456 8.68928C64.5959 7.7245 62.9962 7.23535 60.9912 7.23535H53.0508V27.0847H57.0143V19.539H59.8774L63.9425 27.0847H68.6267L63.8917 18.8113C64.264 18.6627 64.6243 18.4827 64.9682 18.2771ZM62.6657 15.5793C62.1096 16.106 61.1243 16.373 59.7354 16.373L57.0143 16.397V10.4853H60.4066C61.5235 10.4853 62.3234 10.7359 62.7853 11.231C63.2608 11.7412 63.4925 12.4374 63.4925 13.3587C63.4925 14.3264 63.2219 15.0542 62.6657 15.5793Z" fill="#141414"/>
<path d="M86.7562 12.6801C86.4751 11.4123 85.9982 10.3409 85.3404 9.49319C84.675 8.63644 83.7914 7.98074 82.715 7.54412C81.6564 7.11499 80.3348 6.89893 78.7844 6.89893C77.2354 6.89893 75.9033 7.11649 74.8283 7.54262C73.7339 7.97774 72.8324 8.63344 72.1491 9.48719C71.4719 10.3349 70.977 11.4063 70.6765 12.6726C70.3819 13.909 70.2324 15.3524 70.2324 16.9624C70.2324 18.6429 70.367 20.1388 70.6316 21.4082C70.9022 22.7106 71.3672 23.8179 72.0131 24.7017C72.6694 25.5989 73.553 26.2861 74.6415 26.7423C75.7104 27.1909 77.0486 27.4175 78.6184 27.4175C80.2062 27.4175 81.5608 27.1954 82.6462 26.7588C83.7526 26.3131 84.6571 25.6319 85.3314 24.7347C85.9967 23.8509 86.4766 22.7361 86.7577 21.4247C87.0328 20.1418 87.1703 18.6399 87.1703 16.9624C87.1703 15.3599 87.0313 13.918 86.7562 12.6801ZM82.9736 19.7472C82.8944 20.607 82.7015 21.3722 82.3995 22.0234C82.1095 22.6476 81.6714 23.1577 81.1003 23.5403C80.5336 23.9199 79.7263 24.112 78.7021 24.112C77.678 24.112 76.8721 23.9199 76.304 23.5403C75.7314 23.1577 75.2948 22.6476 75.0048 22.0234C74.7013 21.3737 74.5084 20.607 74.4306 19.7472C74.3484 18.8529 74.3066 17.9167 74.3066 16.9639C74.3066 16.0681 74.3529 15.1844 74.4426 14.3396C74.5293 13.5264 74.7267 12.7972 75.0287 12.1745C75.3157 11.5803 75.7508 11.0987 76.3204 10.7416C76.8901 10.386 77.69 10.2044 78.7006 10.2044C79.7113 10.2044 80.5112 10.3845 81.0808 10.7416C81.6579 11.1017 82.081 11.5713 82.3726 12.1745C82.6746 12.7987 82.872 13.5279 82.9587 14.3396C83.0499 15.1874 83.0947 16.0711 83.0947 16.9639C83.0962 17.9167 83.0543 18.8529 82.9736 19.7472Z" fill="#141414"/>
</svg>
