<svg width="87" height="47" viewBox="0 0 87 47" fill="none" xmlns="http://www.w3.org/2000/svg">
<g opacity="0.4" clip-path="url(#clip0_1751_1734)">
<path fill-rule="evenodd" clip-rule="evenodd" d="M22.5033 9.29674C24.5845 9.29674 26.2719 10.9595 26.2719 13.0112C26.2719 15.0631 24.5845 16.7259 22.5033 16.7259H5.26875C3.18726 16.7259 1.5 15.0631 1.5 13.0112C1.5 10.9595 3.18726 9.29674 5.26861 9.29674H22.5033ZM20.7709 19.0304C22.8526 19.0304 24.5398 20.6934 24.5398 22.7451C24.5398 24.7968 22.8526 26.4598 20.7709 26.4598H10.9617C10.1251 26.4627 9.44028 27.1151 9.40825 27.9315V32.773C9.40825 34.8245 7.72099 36.4875 5.64004 36.4875C3.55855 36.4875 1.8713 34.8245 1.8713 32.773V24.5335C1.8713 21.4944 4.37077 19.0303 7.45419 19.0303L20.7709 19.0304ZM27.9833 12.2284C27.9833 10.1769 29.6705 8.51367 31.7519 8.51367C33.8335 8.51367 35.5205 10.1769 35.5205 12.2284V32.799C35.5205 34.8507 33.8337 36.5137 31.7519 36.5137C29.6707 36.5137 27.9833 34.8506 27.9833 32.799V12.2284ZM74.3665 29.1458L75.881 29.1421C76.1905 29.1418 76.4413 28.8945 76.4415 28.5895C76.4438 28.5169 76.4303 28.4447 76.4019 28.3777L70.7705 19.0502L61.9731 34.0653C61.2935 35.2264 60.0732 35.8886 58.8068 35.9219C58.769 35.9271 58.7309 35.9298 58.6928 35.9298H44.3756C41.292 35.9298 38.7924 33.4658 38.7924 30.4266V12.2286C38.7924 10.1771 40.4798 8.51381 42.561 8.51381C44.6421 8.51381 46.3296 10.1771 46.3296 12.2285V26.9688C46.3324 27.7938 46.9941 28.4692 47.8228 28.5H55.8318C56.0378 28.4375 56.6677 28.2264 56.8596 27.9326L66.9193 10.7676C67.6826 9.47572 69.1025 8.60597 70.7278 8.60597C72.3538 8.60597 73.774 9.47706 74.534 10.7717L84.3364 26.9938C85.0927 27.9629 85.5018 29.1517 85.5 30.3743C85.5 33.4425 82.9766 35.9295 79.8644 35.9295H68.4382C66.537 35.9295 64.9971 34.4107 64.9971 32.5372C64.9971 30.6643 66.5371 29.1458 68.4382 29.1458H74.3665Z" fill="#141414"/>
</g>
<defs>
<clipPath id="clip0_1751_1734">
<rect width="86" height="46" fill="white" transform="translate(0.5 0.513672)"/>
</clipPath>
</defs>
</svg>
