<svg viewBox="0 0 688 688" fill="none" xmlns="http://www.w3.org/2000/svg">
<g opacity="0.34" filter="url(#filter0_f_36_2)">
<circle cx="344.098" cy="343.777" r="165.378" fill="#C36EFF"/>
</g>
<g filter="url(#filter1_f_36_2)">
<circle cx="339.098" cy="262.235" r="68.86" fill="#F25CFF"/>
</g>
<g filter="url(#filter2_f_36_2)">
<circle cx="339.098" cy="262.235" r="40.782" fill="#FF5C5C"/>
</g>
<path opacity="0.5" d="M268.879 200.228L268.879 343.777M290.488 200.228L290.488 343.777M312.097 200.228L312.098 343.777M333.707 200.228L333.707 343.777M355.316 200.228L355.316 343.777M376.926 200.228L376.926 343.777M398.535 200.228V343.777M420.145 200.228V343.777M441.754 200.228V343.777M454.874 207.174H254.729M454.874 228.783H254.729M454.874 250.393H254.729M454.874 272.002H254.729M454.874 293.612H254.729M454.874 315.221H254.729M454.874 336.831H254.729" stroke="url(#paint0_radial_36_2)" stroke-opacity="0.5" stroke-width="0.445193"/>
<mask id="mask0_36_2" style="mask-type:alpha" maskUnits="userSpaceOnUse" x="215" y="284">
<path d="M215.652 425.733C245.839 452.686 285.694 469.029 329.349 468.92C372.437 468.813 411.744 452.698 441.654 426.217L456.487 408.549L433.176 377.022L449.858 355.162L412.105 321.48L412.012 321.398L411.982 321.278L402.485 284.084L345.27 288.014L304.695 343.807L304.408 343.7L258.635 326.753L246.04 393.272L246.01 393.427L245.883 393.522L217.778 414.339L215.652 425.733Z" fill="white"/>
</mask>
<g mask="url(#mask0_36_2)" id="frag-4">
<g filter="url(#filter3_f_36_2)">
<circle cx="220.881" cy="399.111" r="50.4327" transform="rotate(9.96316 220.881 399.111)" fill="#8247FF"/>
</g>
<g filter="url(#filter4_b_36_2)">
<path d="M215.698 425.486C215.669 425.639 215.723 425.796 215.839 425.9C246.004 452.754 285.784 469.029 329.349 468.92C372.425 468.813 411.723 452.706 441.63 426.239C441.646 426.224 441.661 426.209 441.676 426.192L456.261 408.818C456.394 408.66 456.4 408.432 456.278 408.267L433.583 377.645C433.463 377.483 433.467 377.26 433.593 377.102L450.035 356.549C450.182 356.366 450.161 356.1 449.987 355.942L412.105 321.48C412.045 321.426 412.002 321.356 411.982 321.278L402.577 284.443C402.524 284.235 402.33 284.094 402.115 284.109L345.477 288C345.346 288.009 345.225 288.075 345.148 288.182L304.875 343.559C304.769 343.706 304.577 343.763 304.408 343.7L259.129 326.936C258.871 326.84 258.589 327 258.537 327.271L246.04 393.272C246.021 393.372 245.965 393.461 245.883 393.522L217.919 414.235C217.829 414.301 217.767 414.4 217.746 414.511L215.698 425.486Z" fill="url(#paint1_linear_36_2)" fill-opacity="0.8"/>
<path d="M441.482 426.072L441.482 426.072C441.49 426.065 441.498 426.057 441.505 426.049L456.091 408.675C456.157 408.596 456.16 408.482 456.099 408.399L433.404 377.778C433.224 377.534 433.23 377.199 433.419 376.963L449.861 356.41C449.935 356.318 449.924 356.185 449.837 356.106L411.958 321.647C411.957 321.646 411.957 321.646 411.956 321.645C411.863 321.563 411.797 321.454 411.766 321.333L441.482 426.072ZM441.482 426.072C411.614 452.505 372.368 468.591 329.348 468.698C285.841 468.806 246.112 452.553 215.987 425.734C215.929 425.682 215.902 425.604 215.917 425.527L217.965 414.551C217.976 414.496 218.006 414.447 218.052 414.413L246.016 393.7L246.016 393.7C246.142 393.606 246.229 393.468 246.259 393.313L246.259 393.313L258.756 327.312C258.782 327.177 258.923 327.097 259.052 327.145L304.33 343.909C304.594 344.007 304.89 343.917 305.055 343.69L345.328 288.313C345.367 288.26 345.427 288.226 345.493 288.222L402.131 284.331C402.238 284.324 402.335 284.394 402.361 284.498L411.766 321.333L441.482 426.072Z" stroke="url(#paint2_linear_36_2)" stroke-width="0.445193"/>
</g>
</g>
<mask id="mask1_36_2" style="mask-type:alpha" maskUnits="userSpaceOnUse" x="433" y="347">
<path d="M457.267 410.178C473.046 392.174 485.093 370.806 492.186 347.272L450.307 356.209L433.603 377.571L456.372 409.135C456.956 409.941 456.958 409.797 457.267 410.178Z" fill="white"/>
</mask>
<g mask="url(#mask1_36_2)" id="frag-5">
<g filter="url(#filter5_f_36_2)">
<circle cx="481.161" cy="347.906" r="37.2675" transform="rotate(-24.4813 481.161 347.906)" fill="#B694FF"/>
</g>
<g filter="url(#filter6_b_36_2)">
<path d="M456.903 409.797C457.096 409.994 457.433 409.989 457.614 409.781C473.062 392.045 484.9 371.07 491.967 347.993C492.066 347.669 491.78 347.359 491.449 347.429L450.465 356.175C450.363 356.197 450.272 356.254 450.207 356.336L433.809 377.308C433.687 377.464 433.683 377.682 433.799 377.842L456.372 409.135C456.648 409.515 456.794 409.684 456.903 409.797Z" fill="url(#paint3_linear_36_2)" fill-opacity="0.8"/>
<path d="M457.446 409.634C457.353 409.741 457.167 409.748 457.062 409.641C456.963 409.54 456.825 409.38 456.552 409.004L433.979 377.712C433.921 377.632 433.924 377.523 433.985 377.445L450.383 356.473C450.415 356.432 450.461 356.404 450.512 356.393L491.496 347.647C491.661 347.612 491.803 347.767 491.754 347.928C484.696 370.974 472.874 391.922 457.446 409.634Z" stroke="url(#paint4_linear_36_2)" stroke-width="0.445193"/>
</g>
</g>
<mask id="mask2_36_2" style="mask-type:alpha" maskUnits="userSpaceOnUse" x="345" y="153">
<path d="M492.383 347.593C496.659 332.742 498.968 317.055 499.008 300.833C499.161 238.347 465.609 183.647 415.479 153.944L421.035 183.147L420.916 183.293L400.935 207.89L400.871 207.969L400.777 208.008L345.581 231.053L345.44 288.853L395.012 296.436L412.575 323.001L450.194 356.899L492.383 347.593Z" fill="white"/>
</mask>
<g mask="url(#mask2_36_2)" id="frag-2">
<g filter="url(#filter7_f_36_2)">
<circle cx="491.789" cy="335.918" r="38.4828" transform="rotate(1.09563 491.789 335.918)" fill="#D2BCFF"/>
</g>
<g filter="url(#filter8_b_36_2)">
<path d="M492.124 347.65C492.283 347.615 492.411 347.495 492.456 347.338C496.686 332.563 498.969 316.963 499.008 300.833C499.16 238.7 465.987 184.265 416.326 154.449C415.998 154.252 415.591 154.536 415.663 154.913L421 182.962C421.022 183.079 420.992 183.2 420.916 183.293L400.935 207.89C400.893 207.941 400.839 207.982 400.777 208.008L345.854 230.939C345.689 231.008 345.581 231.169 345.581 231.349L345.441 288.47C345.441 288.69 345.601 288.877 345.819 288.911L394.817 296.407C394.941 296.426 395.051 296.496 395.121 296.601L412.544 322.954C412.565 322.985 412.59 323.014 412.618 323.039L450.024 356.745C450.131 356.841 450.277 356.88 450.418 356.849L492.124 347.65Z" fill="url(#paint5_linear_36_2)" fill-opacity="0.8"/>
<path d="M401.108 208.03L401.108 208.03C401.043 208.11 400.959 208.173 400.864 208.213L400.863 208.213L345.94 231.144C345.857 231.179 345.804 231.26 345.803 231.349L345.664 288.47C345.664 288.58 345.744 288.674 345.853 288.691L394.85 296.187C395.037 296.215 395.202 296.321 395.306 296.478L412.73 322.831C412.74 322.847 412.753 322.861 412.767 322.874L412.618 323.039L412.767 322.874L450.173 356.58C450.226 356.628 450.3 356.647 450.37 356.632L492.076 347.433C492.156 347.415 492.219 347.355 492.242 347.277C496.466 332.521 498.746 316.941 498.785 300.832C498.937 238.781 465.808 184.418 416.212 154.64C416.049 154.542 415.846 154.683 415.882 154.871L421.219 182.92C421.253 183.102 421.206 183.29 421.089 183.433L401.108 208.03ZM401.108 208.03L421.089 183.434L401.108 208.03Z" stroke="url(#paint6_linear_36_2)" stroke-width="0.445193"/>
</g>
</g>
<mask id="mask3_36_2" style="mask-type:alpha" maskUnits="userSpaceOnUse" x="160" y="296">
<path d="M160.473 303.914C161.655 352.051 182.839 395.243 216.038 425.477L218.151 414.42L218.18 414.264L218.308 414.17L246.502 393.473L259.401 326.909L228.261 296.567L160.473 303.914Z" fill="url(#paint7_linear_36_2)"/>
<path d="M218.06 414.1L217.996 414.148L217.981 414.226L217.952 414.382L217.951 414.383L215.907 425.084C182.943 394.936 161.908 351.971 160.68 304.096L228.188 296.779L259.181 326.977L246.319 393.356L218.189 414.006L218.189 414.007L218.06 414.1Z" stroke="white" stroke-opacity="0.49" stroke-width="0.405082"/>
</mask>
<g mask="url(#mask3_36_2)" id="frag-3">
<g filter="url(#filter9_f_36_2)">
<circle cx="152.758" cy="378.682" r="45.9768" transform="rotate(8.22417 152.758 378.682)" fill="#FFA0FB"/>
</g>
<g filter="url(#filter10_f_36_2)">
<circle cx="213.383" cy="299.037" r="22.482" transform="rotate(8.22417 213.383 299.037)" fill="#7350FF"/>
</g>
<g filter="url(#filter11_b_36_2)">
<path d="M160.473 303.914C161.655 352.051 182.839 395.243 216.038 425.477L218.151 414.42L218.18 414.264L218.308 414.17L246.502 393.473L259.401 326.909L228.261 296.567L160.473 303.914Z" fill="url(#paint8_linear_36_2)" fill-opacity="0.8"/>
<path d="M217.941 413.937L217.812 414.031L217.782 414.189L217.753 414.344L217.752 414.345L215.776 424.689C183.048 394.629 162.16 351.89 160.888 304.277L228.115 296.991L258.961 327.046L246.135 393.24L218.069 413.843L218.069 413.843L217.941 413.937Z" stroke="url(#paint9_linear_36_2)" stroke-opacity="0.8" stroke-width="0.810164"/>
</g>
</g>
<mask id="mask4_36_2" style="mask-type:alpha" maskUnits="userSpaceOnUse" x="159" y="131">
<path d="M415.262 153.906C390.181 139.341 361.037 131 329.945 131C235.983 131 159.811 207.172 159.811 301.134C159.811 302.388 159.824 303.638 159.851 304.886L227.936 297.384L259.5 328.029L305.312 345.121L345.673 289.911V231.191L345.921 231.087L401.215 207.843L420.953 183.423L415.262 153.906Z" fill="white"/>
</mask>
<g mask="url(#mask4_36_2)" id="frag-1">
<g filter="url(#filter12_f_36_2)">
<ellipse cx="184.442" cy="240.28" rx="74.7376" ry="74.3325" fill="#BAB4FF"/>
</g>
<g filter="url(#filter13_b_36_2)">
<path d="M415.3 154.105C415.276 153.978 415.198 153.869 415.087 153.804C390.045 139.302 360.965 131 329.945 131C235.983 131 159.811 207.172 159.811 301.134C159.811 302.225 159.821 303.314 159.842 304.4C159.846 304.661 160.075 304.861 160.335 304.832L227.728 297.407C227.86 297.393 227.991 297.438 228.086 297.53L259.433 327.964C259.477 328.007 259.53 328.04 259.587 328.062L304.996 345.003C305.183 345.072 305.393 345.009 305.511 344.848L345.587 290.029C345.643 289.952 345.673 289.86 345.673 289.766V231.46C345.673 231.297 345.771 231.15 345.921 231.087L401.111 207.886C401.179 207.857 401.239 207.813 401.285 207.755L420.823 183.584C420.905 183.482 420.938 183.349 420.914 183.22L415.3 154.105Z" fill="url(#paint10_linear_36_2)" fill-opacity="0.8"/>
<path d="M345.835 230.882L345.834 230.882C345.602 230.98 345.451 231.208 345.451 231.46V289.766C345.451 289.813 345.436 289.859 345.408 289.897L305.331 344.717C305.273 344.797 305.167 344.829 305.074 344.794L259.665 327.853C259.636 327.843 259.61 327.826 259.588 327.804L228.242 297.371C228.099 297.232 227.901 297.164 227.703 297.186L160.31 304.611C160.18 304.626 160.067 304.525 160.064 304.395C160.044 303.311 160.034 302.224 160.034 301.134C160.034 207.295 236.106 131.223 329.945 131.223C360.924 131.223 389.967 139.514 414.975 153.997L415.087 153.804L414.975 153.997C415.031 154.029 415.069 154.084 415.082 154.147L420.695 183.262C420.707 183.326 420.691 183.393 420.65 183.444L401.112 207.615C401.089 207.644 401.059 207.666 401.025 207.681L345.835 230.882Z" stroke="url(#paint11_linear_36_2)" stroke-width="0.445193"/>
</g>
</g>
<path d="M241.465 221.081C240.472 221.081 239.635 220.764 238.953 220.129C238.278 219.494 237.94 218.603 237.94 217.456C237.94 216.315 238.281 215.427 238.963 214.792C239.645 214.151 240.479 213.83 241.465 213.83C242.309 213.83 243.014 214.046 243.581 214.478C244.148 214.904 244.493 215.474 244.614 216.19L243.247 216.473C243.159 216.021 242.953 215.666 242.629 215.41C242.312 215.147 241.924 215.015 241.465 215.015C240.844 215.015 240.334 215.231 239.935 215.663C239.537 216.088 239.338 216.686 239.338 217.456C239.338 218.225 239.534 218.823 239.925 219.248C240.324 219.673 240.837 219.886 241.465 219.886C241.924 219.886 242.305 219.768 242.609 219.532C242.913 219.295 243.112 218.968 243.207 218.549L244.594 218.853C244.418 219.548 244.054 220.095 243.5 220.494C242.953 220.885 242.275 221.081 241.465 221.081ZM247.363 215.815C248.045 215.815 248.589 215.997 248.994 216.362C249.406 216.72 249.612 217.229 249.612 217.891V221H248.376V220.261C248.234 220.511 248.022 220.71 247.738 220.858C247.461 221.007 247.164 221.081 246.847 221.081C246.347 221.081 245.939 220.939 245.621 220.656C245.304 220.365 245.146 220.001 245.146 219.562C245.146 218.59 245.905 218.023 247.424 217.861L248.376 217.769V217.719C248.376 217.429 248.285 217.202 248.103 217.04C247.92 216.872 247.674 216.787 247.363 216.787C247.087 216.787 246.854 216.868 246.665 217.03C246.482 217.192 246.378 217.408 246.351 217.678L245.216 217.476C245.297 216.976 245.537 216.574 245.935 216.271C246.341 215.967 246.816 215.815 247.363 215.815ZM247.13 220.139C247.515 220.139 247.819 220.011 248.042 219.754C248.265 219.498 248.376 219.177 248.376 218.792V218.681L247.404 218.792C247.073 218.833 246.82 218.917 246.644 219.045C246.469 219.174 246.381 219.332 246.381 219.521C246.381 219.704 246.449 219.852 246.584 219.967C246.719 220.082 246.901 220.139 247.13 220.139ZM250.655 222.843V215.896H251.931V216.483C252.08 216.281 252.286 216.119 252.549 215.997C252.819 215.876 253.12 215.815 253.45 215.815C254.179 215.815 254.757 216.058 255.182 216.544C255.607 217.023 255.82 217.658 255.82 218.448C255.82 219.231 255.594 219.866 255.142 220.352C254.696 220.838 254.102 221.081 253.359 221.081C252.725 221.081 252.249 220.885 251.931 220.494V222.843H250.655ZM253.207 219.977C253.612 219.977 253.936 219.839 254.179 219.562C254.429 219.278 254.554 218.907 254.554 218.448C254.554 217.989 254.429 217.621 254.179 217.344C253.936 217.061 253.612 216.919 253.207 216.919C252.795 216.919 252.465 217.061 252.215 217.344C251.972 217.621 251.85 217.989 251.85 218.448C251.85 218.907 251.972 219.278 252.215 219.562C252.465 219.839 252.795 219.977 253.207 219.977ZM257.8 214.893C257.644 215.042 257.452 215.116 257.222 215.116C256.993 215.116 256.804 215.042 256.655 214.893C256.507 214.738 256.432 214.549 256.432 214.326C256.432 214.103 256.507 213.918 256.655 213.769C256.804 213.621 256.993 213.546 257.222 213.546C257.452 213.546 257.644 213.624 257.8 213.779C257.955 213.928 258.033 214.11 258.033 214.326C258.033 214.549 257.955 214.738 257.8 214.893ZM256.584 221V215.896H257.86V221H256.584ZM261.922 220.949C261.679 221.037 261.405 221.081 261.101 221.081C260.561 221.081 260.126 220.932 259.795 220.635C259.464 220.338 259.299 219.903 259.299 219.329V216.969H258.438V215.896H259.299V214.397H260.575V215.896H261.861V216.969H260.575V219.208C260.575 219.444 260.632 219.629 260.747 219.765C260.869 219.893 261.031 219.957 261.233 219.957C261.469 219.957 261.669 219.916 261.831 219.835L261.922 220.949ZM264.493 215.815C265.175 215.815 265.718 215.997 266.124 216.362C266.535 216.72 266.741 217.229 266.741 217.891V221H265.506V220.261C265.364 220.511 265.151 220.71 264.868 220.858C264.591 221.007 264.294 221.081 263.977 221.081C263.477 221.081 263.069 220.939 262.751 220.656C262.434 220.365 262.275 220.001 262.275 219.562C262.275 218.59 263.035 218.023 264.554 217.861L265.506 217.769V217.719C265.506 217.429 265.415 217.202 265.232 217.04C265.05 216.872 264.804 216.787 264.493 216.787C264.216 216.787 263.983 216.868 263.794 217.03C263.612 217.192 263.507 217.408 263.48 217.678L262.346 217.476C262.427 216.976 262.667 216.574 263.065 216.271C263.47 215.967 263.946 215.815 264.493 215.815ZM264.26 220.139C264.645 220.139 264.949 220.011 265.172 219.754C265.394 219.498 265.506 219.177 265.506 218.792V218.681L264.534 218.792C264.203 218.833 263.95 218.917 263.774 219.045C263.599 219.174 263.511 219.332 263.511 219.521C263.511 219.704 263.578 219.852 263.713 219.967C263.848 220.082 264.031 220.139 264.26 220.139ZM267.785 221V213.83H269.061V221H267.785ZM272.375 221V213.911H273.753V221H272.375ZM276.614 221.081C276.041 221.081 275.561 220.936 275.176 220.646C274.792 220.348 274.528 219.991 274.386 219.572L275.43 219.147C275.511 219.424 275.652 219.65 275.855 219.825C276.057 220.001 276.311 220.089 276.614 220.089C276.851 220.089 277.04 220.035 277.181 219.927C277.33 219.812 277.404 219.673 277.404 219.511C277.404 219.336 277.306 219.197 277.111 219.096C276.922 218.995 276.692 218.914 276.422 218.853C276.152 218.786 275.878 218.705 275.602 218.61C275.332 218.515 275.099 218.353 274.903 218.124C274.714 217.894 274.619 217.601 274.619 217.243C274.619 216.831 274.785 216.49 275.116 216.22C275.446 215.95 275.885 215.815 276.432 215.815C276.932 215.815 277.371 215.93 277.749 216.159C278.133 216.389 278.38 216.689 278.488 217.061L277.455 217.496C277.387 217.266 277.259 217.088 277.07 216.959C276.881 216.824 276.675 216.757 276.452 216.757C276.25 216.757 276.084 216.801 275.956 216.888C275.835 216.969 275.774 217.081 275.774 217.223C275.774 217.385 275.868 217.51 276.057 217.597C276.253 217.685 276.486 217.759 276.756 217.82C277.033 217.874 277.31 217.948 277.587 218.043C277.863 218.137 278.096 218.306 278.285 218.549C278.481 218.792 278.579 219.106 278.579 219.491C278.579 219.937 278.397 220.315 278.032 220.625C277.668 220.929 277.195 221.081 276.614 221.081ZM283.582 220.342C283.082 220.835 282.444 221.081 281.668 221.081C280.891 221.081 280.253 220.835 279.754 220.342C279.254 219.842 279.004 219.211 279.004 218.448C279.004 217.685 279.254 217.057 279.754 216.564C280.253 216.065 280.891 215.815 281.668 215.815C282.444 215.815 283.082 216.065 283.582 216.564C284.081 217.057 284.331 217.685 284.331 218.448C284.331 219.211 284.081 219.842 283.582 220.342ZM280.665 219.562C280.922 219.839 281.256 219.977 281.668 219.977C282.079 219.977 282.41 219.835 282.66 219.552C282.917 219.268 283.045 218.9 283.045 218.448C283.045 217.996 282.917 217.628 282.66 217.344C282.41 217.061 282.079 216.919 281.668 216.919C281.256 216.919 280.922 217.061 280.665 217.344C280.415 217.621 280.29 217.989 280.29 218.448C280.29 218.907 280.415 219.278 280.665 219.562ZM285.088 221V213.83H286.364V221H285.088ZM289.362 215.815C290.044 215.815 290.587 215.997 290.993 216.362C291.404 216.72 291.61 217.229 291.61 217.891V221H290.375V220.261C290.233 220.511 290.02 220.71 289.737 220.858C289.46 221.007 289.163 221.081 288.846 221.081C288.346 221.081 287.938 220.939 287.62 220.656C287.303 220.365 287.144 220.001 287.144 219.562C287.144 218.59 287.904 218.023 289.423 217.861L290.375 217.769V217.719C290.375 217.429 290.284 217.202 290.101 217.04C289.919 216.872 289.673 216.787 289.362 216.787C289.085 216.787 288.852 216.868 288.663 217.03C288.481 217.192 288.376 217.408 288.349 217.678L287.215 217.476C287.296 216.976 287.536 216.574 287.934 216.271C288.339 215.967 288.815 215.815 289.362 215.815ZM289.129 220.139C289.514 220.139 289.818 220.011 290.041 219.754C290.263 219.498 290.375 219.177 290.375 218.792V218.681L289.403 218.792C289.072 218.833 288.819 218.917 288.643 219.045C288.468 219.174 288.38 219.332 288.38 219.521C288.38 219.704 288.447 219.852 288.582 219.967C288.717 220.082 288.9 220.139 289.129 220.139ZM295.593 220.949C295.35 221.037 295.077 221.081 294.773 221.081C294.233 221.081 293.797 220.932 293.466 220.635C293.136 220.338 292.97 219.903 292.97 219.329V216.969H292.109V215.896H292.97V214.397H294.246V215.896H295.532V216.969H294.246V219.208C294.246 219.444 294.304 219.629 294.418 219.765C294.54 219.893 294.702 219.957 294.904 219.957C295.141 219.957 295.34 219.916 295.502 219.835L295.593 220.949ZM297.484 214.893C297.329 215.042 297.136 215.116 296.907 215.116C296.677 215.116 296.488 215.042 296.34 214.893C296.191 214.738 296.117 214.549 296.117 214.326C296.117 214.103 296.191 213.918 296.34 213.769C296.488 213.621 296.677 213.546 296.907 213.546C297.136 213.546 297.329 213.624 297.484 213.779C297.639 213.928 297.717 214.11 297.717 214.326C297.717 214.549 297.639 214.738 297.484 214.893ZM296.269 221V215.896H297.545V221H296.269ZM302.882 220.342C302.383 220.835 301.745 221.081 300.968 221.081C300.192 221.081 299.554 220.835 299.054 220.342C298.555 219.842 298.305 219.211 298.305 218.448C298.305 217.685 298.555 217.057 299.054 216.564C299.554 216.065 300.192 215.815 300.968 215.815C301.745 215.815 302.383 216.065 302.882 216.564C303.382 217.057 303.632 217.685 303.632 218.448C303.632 219.211 303.382 219.842 302.882 220.342ZM299.966 219.562C300.222 219.839 300.557 219.977 300.968 219.977C301.38 219.977 301.711 219.835 301.961 219.552C302.217 219.268 302.346 218.9 302.346 218.448C302.346 217.996 302.217 217.628 301.961 217.344C301.711 217.061 301.38 216.919 300.968 216.919C300.557 216.919 300.222 217.061 299.966 217.344C299.716 217.621 299.591 217.989 299.591 218.448C299.591 218.907 299.716 219.278 299.966 219.562ZM304.389 221V215.896H305.665V216.666C305.834 216.409 306.056 216.203 306.333 216.048C306.617 215.893 306.934 215.815 307.285 215.815C307.845 215.815 308.294 215.984 308.632 216.321C308.976 216.659 309.148 217.104 309.148 217.658V221H307.872V217.962C307.872 217.658 307.785 217.415 307.609 217.233C307.434 217.044 307.197 216.949 306.9 216.949C306.509 216.949 306.205 217.108 305.989 217.425C305.773 217.742 305.665 218.188 305.665 218.762V221H304.389ZM317.18 221L316.602 219.43H313.858L313.281 221H311.863L314.587 213.911H315.873L318.597 221H317.18ZM314.293 218.266H316.177L315.235 215.714L314.293 218.266ZM321.251 221.081C320.488 221.081 319.864 220.838 319.378 220.352C318.898 219.859 318.659 219.224 318.659 218.448C318.659 217.672 318.898 217.04 319.378 216.554C319.864 216.061 320.488 215.815 321.251 215.815C321.906 215.815 322.446 215.974 322.872 216.291C323.304 216.608 323.564 217.037 323.651 217.577L322.406 217.82C322.358 217.55 322.234 217.334 322.031 217.172C321.835 217.003 321.589 216.919 321.292 216.919C320.893 216.919 320.576 217.057 320.34 217.334C320.104 217.611 319.985 217.982 319.985 218.448C319.985 218.914 320.104 219.285 320.34 219.562C320.576 219.839 320.893 219.977 321.292 219.977C321.589 219.977 321.832 219.903 322.021 219.754C322.217 219.599 322.345 219.383 322.406 219.106L323.651 219.359C323.557 219.893 323.294 220.315 322.861 220.625C322.436 220.929 321.899 221.081 321.251 221.081ZM327.698 217.131C327.515 217.05 327.299 217.01 327.049 217.01C326.658 217.01 326.33 217.185 326.067 217.537C325.811 217.881 325.682 218.411 325.682 219.126V221H324.406V215.896H325.682V216.828C325.811 216.537 326.02 216.298 326.31 216.109C326.607 215.913 326.911 215.815 327.222 215.815C327.431 215.815 327.617 215.842 327.779 215.896L327.698 217.131ZM332.444 220.342C331.944 220.835 331.306 221.081 330.53 221.081C329.753 221.081 329.115 220.835 328.616 220.342C328.116 219.842 327.866 219.211 327.866 218.448C327.866 217.685 328.116 217.057 328.616 216.564C329.115 216.065 329.753 215.815 330.53 215.815C331.306 215.815 331.944 216.065 332.444 216.564C332.943 217.057 333.193 217.685 333.193 218.448C333.193 219.211 332.943 219.842 332.444 220.342ZM329.527 219.562C329.784 219.839 330.118 219.977 330.53 219.977C330.942 219.977 331.272 219.835 331.522 219.552C331.779 219.268 331.907 218.9 331.907 218.448C331.907 217.996 331.779 217.628 331.522 217.344C331.272 217.061 330.942 216.919 330.53 216.919C330.118 216.919 329.784 217.061 329.527 217.344C329.277 217.621 329.153 217.989 329.153 218.448C329.153 218.907 329.277 219.278 329.527 219.562ZM335.683 221.081C335.109 221.081 334.63 220.936 334.245 220.646C333.86 220.348 333.597 219.991 333.455 219.572L334.498 219.147C334.579 219.424 334.721 219.65 334.924 219.825C335.126 220.001 335.379 220.089 335.683 220.089C335.919 220.089 336.108 220.035 336.25 219.927C336.399 219.812 336.473 219.673 336.473 219.511C336.473 219.336 336.375 219.197 336.179 219.096C335.99 218.995 335.761 218.914 335.491 218.853C335.221 218.786 334.947 218.705 334.67 218.61C334.4 218.515 334.167 218.353 333.972 218.124C333.783 217.894 333.688 217.601 333.688 217.243C333.688 216.831 333.854 216.49 334.184 216.22C334.515 215.95 334.954 215.815 335.501 215.815C336 215.815 336.439 215.93 336.817 216.159C337.202 216.389 337.449 216.689 337.557 217.061L336.524 217.496C336.456 217.266 336.328 217.088 336.139 216.959C335.95 216.824 335.744 216.757 335.521 216.757C335.319 216.757 335.153 216.801 335.025 216.888C334.903 216.969 334.843 217.081 334.843 217.223C334.843 217.385 334.937 217.51 335.126 217.597C335.322 217.685 335.555 217.759 335.825 217.82C336.102 217.874 336.379 217.948 336.655 218.043C336.932 218.137 337.165 218.306 337.354 218.549C337.55 218.792 337.648 219.106 337.648 219.491C337.648 219.937 337.466 220.315 337.101 220.625C336.736 220.929 336.264 221.081 335.683 221.081ZM340.149 221.081C339.575 221.081 339.095 220.936 338.71 220.646C338.326 220.348 338.062 219.991 337.921 219.572L338.964 219.147C339.045 219.424 339.186 219.65 339.389 219.825C339.592 220.001 339.845 220.089 340.149 220.089C340.385 220.089 340.574 220.035 340.716 219.927C340.864 219.812 340.938 219.673 340.938 219.511C340.938 219.336 340.841 219.197 340.645 219.096C340.456 218.995 340.226 218.914 339.956 218.853C339.686 218.786 339.413 218.705 339.136 218.61C338.866 218.515 338.633 218.353 338.437 218.124C338.248 217.894 338.154 217.601 338.154 217.243C338.154 216.831 338.319 216.49 338.65 216.22C338.981 215.95 339.419 215.815 339.966 215.815C340.466 215.815 340.905 215.93 341.283 216.159C341.668 216.389 341.914 216.689 342.022 217.061L340.989 217.496C340.922 217.266 340.793 217.088 340.604 216.959C340.415 216.824 340.209 216.757 339.987 216.757C339.784 216.757 339.619 216.801 339.49 216.888C339.369 216.969 339.308 217.081 339.308 217.223C339.308 217.385 339.403 217.51 339.592 217.597C339.787 217.685 340.02 217.759 340.29 217.82C340.567 217.874 340.844 217.948 341.121 218.043C341.398 218.137 341.63 218.306 341.82 218.549C342.015 218.792 342.113 219.106 342.113 219.491C342.113 219.937 341.931 220.315 341.566 220.625C341.202 220.929 340.729 221.081 340.149 221.081ZM263.43 233V225.911H266.215C266.883 225.911 267.42 226.073 267.825 226.397C268.237 226.714 268.443 227.16 268.443 227.734C268.443 228.044 268.358 228.325 268.19 228.574C268.021 228.824 267.818 229.01 267.582 229.131C267.94 229.266 268.23 229.483 268.453 229.78C268.676 230.077 268.787 230.448 268.787 230.894C268.787 231.548 268.561 232.065 268.109 232.443C267.663 232.814 267.066 233 266.316 233H263.43ZM264.807 228.676H266.114C266.809 228.676 267.157 228.399 267.157 227.845C267.157 227.292 266.802 227.015 266.093 227.015H264.807V228.676ZM264.807 231.805H266.174C267.045 231.805 267.481 231.481 267.481 230.833C267.481 230.171 267.045 229.84 266.174 229.84H264.807V231.805ZM269.556 233V225.83H270.832V233H269.556ZM276.169 232.342C275.67 232.835 275.032 233.081 274.255 233.081C273.479 233.081 272.841 232.835 272.341 232.342C271.841 231.842 271.592 231.211 271.592 230.448C271.592 229.685 271.841 229.057 272.341 228.564C272.841 228.065 273.479 227.815 274.255 227.815C275.032 227.815 275.67 228.065 276.169 228.564C276.669 229.057 276.919 229.685 276.919 230.448C276.919 231.211 276.669 231.842 276.169 232.342ZM273.253 231.562C273.509 231.839 273.843 231.977 274.255 231.977C274.667 231.977 274.998 231.835 275.248 231.552C275.504 231.268 275.632 230.9 275.632 230.448C275.632 229.996 275.504 229.628 275.248 229.344C274.998 229.061 274.667 228.919 274.255 228.919C273.843 228.919 273.509 229.061 273.253 229.344C273.003 229.621 272.878 229.989 272.878 230.448C272.878 230.907 273.003 231.278 273.253 231.562ZM279.995 233.081C279.232 233.081 278.607 232.838 278.121 232.352C277.642 231.859 277.402 231.224 277.402 230.448C277.402 229.672 277.642 229.04 278.121 228.554C278.607 228.061 279.232 227.815 279.995 227.815C280.649 227.815 281.19 227.974 281.615 228.291C282.047 228.608 282.307 229.037 282.395 229.577L281.149 229.82C281.102 229.55 280.977 229.334 280.774 229.172C280.579 229.003 280.332 228.919 280.035 228.919C279.637 228.919 279.319 229.057 279.083 229.334C278.847 229.611 278.729 229.982 278.729 230.448C278.729 230.914 278.847 231.285 279.083 231.562C279.319 231.839 279.637 231.977 280.035 231.977C280.332 231.977 280.575 231.903 280.764 231.754C280.96 231.599 281.088 231.383 281.149 231.106L282.395 231.359C282.3 231.893 282.037 232.315 281.605 232.625C281.179 232.929 280.643 233.081 279.995 233.081ZM286.603 233L285.033 230.752L284.436 231.339V233H283.15V225.83H284.436V229.709L286.36 227.896H287.98L285.904 229.911L288.142 233H286.603ZM290.646 233.081C289.883 233.081 289.259 232.838 288.773 232.352C288.293 231.859 288.054 231.224 288.054 230.448C288.054 229.672 288.293 229.04 288.773 228.554C289.259 228.061 289.883 227.815 290.646 227.815C291.301 227.815 291.841 227.974 292.267 228.291C292.699 228.608 292.959 229.037 293.046 229.577L291.801 229.82C291.753 229.55 291.629 229.334 291.426 229.172C291.23 229.003 290.984 228.919 290.687 228.919C290.288 228.919 289.971 229.057 289.735 229.334C289.498 229.611 289.38 229.982 289.38 230.448C289.38 230.914 289.498 231.285 289.735 231.562C289.971 231.839 290.288 231.977 290.687 231.977C290.984 231.977 291.227 231.903 291.416 231.754C291.612 231.599 291.74 231.383 291.801 231.106L293.046 231.359C292.952 231.893 292.688 232.315 292.256 232.625C291.831 232.929 291.294 233.081 290.646 233.081ZM293.801 233V225.83H295.077V228.686C295.428 228.105 295.968 227.815 296.698 227.815C297.271 227.815 297.731 227.984 298.075 228.321C298.426 228.659 298.601 229.104 298.601 229.658V233H297.325V229.972C297.325 229.655 297.234 229.405 297.052 229.223C296.87 229.04 296.623 228.949 296.313 228.949C295.921 228.949 295.617 229.111 295.401 229.435C295.185 229.753 295.077 230.202 295.077 230.782V233H293.801ZM301.596 227.815C302.278 227.815 302.821 227.997 303.227 228.362C303.638 228.72 303.844 229.229 303.844 229.891V233H302.609V232.261C302.467 232.511 302.254 232.71 301.971 232.858C301.694 233.007 301.397 233.081 301.08 233.081C300.58 233.081 300.172 232.939 299.854 232.656C299.537 232.365 299.378 232.001 299.378 231.562C299.378 230.59 300.138 230.023 301.657 229.861L302.609 229.769V229.719C302.609 229.429 302.518 229.202 302.335 229.04C302.153 228.872 301.907 228.787 301.596 228.787C301.319 228.787 301.086 228.868 300.897 229.03C300.715 229.192 300.61 229.408 300.583 229.678L299.449 229.476C299.53 228.976 299.77 228.574 300.168 228.271C300.573 227.967 301.049 227.815 301.596 227.815ZM301.363 232.139C301.748 232.139 302.052 232.011 302.275 231.754C302.497 231.498 302.609 231.177 302.609 230.792V230.681L301.637 230.792C301.306 230.833 301.053 230.917 300.877 231.045C300.701 231.174 300.614 231.332 300.614 231.521C300.614 231.704 300.681 231.852 300.816 231.967C300.951 232.082 301.134 232.139 301.363 232.139ZM306.103 226.893C305.948 227.042 305.756 227.116 305.526 227.116C305.296 227.116 305.107 227.042 304.959 226.893C304.81 226.738 304.736 226.549 304.736 226.326C304.736 226.103 304.81 225.918 304.959 225.769C305.107 225.621 305.296 225.546 305.526 225.546C305.756 225.546 305.948 225.624 306.103 225.779C306.259 225.928 306.336 226.11 306.336 226.326C306.336 226.549 306.259 226.738 306.103 226.893ZM304.888 233V227.896H306.164V233H304.888ZM307.197 233V227.896H308.473V228.666C308.642 228.409 308.865 228.203 309.142 228.048C309.425 227.893 309.743 227.815 310.094 227.815C310.654 227.815 311.103 227.984 311.441 228.321C311.785 228.659 311.957 229.104 311.957 229.658V233H310.681V229.962C310.681 229.658 310.593 229.415 310.418 229.233C310.242 229.044 310.006 228.949 309.709 228.949C309.317 228.949 309.014 229.108 308.798 229.425C308.581 229.742 308.473 230.188 308.473 230.762V233H307.197ZM314.77 233.081C314.197 233.081 313.717 232.936 313.332 232.646C312.948 232.348 312.684 231.991 312.542 231.572L313.586 231.147C313.667 231.424 313.808 231.65 314.011 231.825C314.213 232.001 314.467 232.089 314.77 232.089C315.007 232.089 315.196 232.035 315.338 231.927C315.486 231.812 315.56 231.673 315.56 231.511C315.56 231.336 315.462 231.197 315.267 231.096C315.078 230.995 314.848 230.914 314.578 230.853C314.308 230.786 314.034 230.705 313.758 230.61C313.488 230.515 313.255 230.353 313.059 230.124C312.87 229.894 312.775 229.601 312.775 229.243C312.775 228.831 312.941 228.49 313.272 228.22C313.602 227.95 314.041 227.815 314.588 227.815C315.088 227.815 315.527 227.93 315.905 228.159C316.289 228.389 316.536 228.689 316.644 229.061L315.611 229.496C315.543 229.266 315.415 229.088 315.226 228.959C315.037 228.824 314.831 228.757 314.608 228.757C314.406 228.757 314.24 228.801 314.112 228.888C313.991 228.969 313.93 229.081 313.93 229.223C313.93 229.385 314.024 229.51 314.213 229.597C314.409 229.685 314.642 229.759 314.912 229.82C315.189 229.874 315.466 229.948 315.743 230.043C316.019 230.137 316.252 230.306 316.441 230.549C316.637 230.792 316.735 231.106 316.735 231.491C316.735 231.937 316.553 232.315 316.188 232.625C315.824 232.929 315.351 233.081 314.77 233.081Z" fill="#6029D7"/>
<path d="M388.454 257.926C387.461 257.926 386.624 257.609 385.942 256.974C385.267 256.339 384.93 255.448 384.93 254.301C384.93 253.16 385.271 252.272 385.952 251.637C386.634 250.996 387.468 250.675 388.454 250.675C389.298 250.675 390.003 250.891 390.57 251.323C391.137 251.748 391.482 252.319 391.603 253.035L390.236 253.318C390.148 252.866 389.942 252.511 389.618 252.255C389.301 251.992 388.913 251.86 388.454 251.86C387.833 251.86 387.323 252.076 386.925 252.508C386.526 252.933 386.327 253.531 386.327 254.301C386.327 255.07 386.523 255.668 386.914 256.093C387.313 256.518 387.826 256.731 388.454 256.731C388.913 256.731 389.294 256.613 389.598 256.377C389.902 256.14 390.101 255.813 390.196 255.394L391.583 255.698C391.407 256.393 391.043 256.94 390.489 257.339C389.942 257.73 389.264 257.926 388.454 257.926ZM396.692 257.187C396.192 257.68 395.554 257.926 394.778 257.926C394.001 257.926 393.363 257.68 392.864 257.187C392.364 256.687 392.114 256.056 392.114 255.293C392.114 254.53 392.364 253.902 392.864 253.409C393.363 252.91 394.001 252.66 394.778 252.66C395.554 252.66 396.192 252.91 396.692 253.409C397.191 253.902 397.441 254.53 397.441 255.293C397.441 256.056 397.191 256.687 396.692 257.187ZM393.775 256.407C394.032 256.684 394.366 256.822 394.778 256.822C395.19 256.822 395.52 256.68 395.77 256.397C396.027 256.113 396.155 255.745 396.155 255.293C396.155 254.841 396.027 254.473 395.77 254.189C395.52 253.906 395.19 253.764 394.778 253.764C394.366 253.764 394.032 253.906 393.775 254.189C393.525 254.466 393.401 254.834 393.401 255.293C393.401 255.752 393.525 256.123 393.775 256.407ZM398.198 257.845V252.741H399.474V253.511C399.643 253.254 399.866 253.048 400.143 252.893C400.426 252.738 400.743 252.66 401.095 252.66C401.655 252.66 402.104 252.829 402.441 253.166C402.786 253.504 402.958 253.949 402.958 254.503V257.845H401.682V254.807C401.682 254.503 401.594 254.26 401.419 254.078C401.243 253.889 401.007 253.794 400.71 253.794C400.318 253.794 400.014 253.953 399.798 254.27C399.582 254.587 399.474 255.033 399.474 255.607V257.845H398.198ZM405.771 257.926C405.197 257.926 404.718 257.781 404.333 257.491C403.948 257.193 403.685 256.836 403.543 256.417L404.586 255.992C404.667 256.269 404.809 256.495 405.012 256.67C405.214 256.846 405.467 256.934 405.771 256.934C406.007 256.934 406.197 256.88 406.338 256.772C406.487 256.657 406.561 256.518 406.561 256.356C406.561 256.181 406.463 256.042 406.267 255.941C406.078 255.84 405.849 255.759 405.579 255.698C405.309 255.631 405.035 255.55 404.758 255.455C404.488 255.36 404.255 255.198 404.06 254.969C403.871 254.739 403.776 254.446 403.776 254.088C403.776 253.676 403.942 253.335 404.272 253.065C404.603 252.795 405.042 252.66 405.589 252.66C406.088 252.66 406.527 252.775 406.905 253.004C407.29 253.234 407.537 253.534 407.645 253.906L406.612 254.341C406.544 254.111 406.416 253.933 406.227 253.804C406.038 253.669 405.832 253.602 405.609 253.602C405.407 253.602 405.241 253.646 405.113 253.733C404.991 253.814 404.931 253.926 404.931 254.068C404.931 254.23 405.025 254.355 405.214 254.442C405.41 254.53 405.643 254.604 405.913 254.665C406.19 254.719 406.467 254.793 406.743 254.888C407.02 254.982 407.253 255.151 407.442 255.394C407.638 255.637 407.736 255.951 407.736 256.336C407.736 256.782 407.554 257.16 407.189 257.47C406.824 257.774 406.352 257.926 405.771 257.926ZM411.413 257.794C411.17 257.882 410.896 257.926 410.593 257.926C410.053 257.926 409.617 257.777 409.286 257.48C408.955 257.183 408.79 256.748 408.79 256.174V253.814H407.929V252.741H408.79V251.242H410.066V252.741H411.352V253.814H410.066V256.052C410.066 256.289 410.123 256.474 410.238 256.609C410.36 256.738 410.522 256.802 410.724 256.802C410.961 256.802 411.16 256.761 411.322 256.68L411.413 257.794ZM415.38 253.976C415.198 253.895 414.982 253.855 414.732 253.855C414.34 253.855 414.013 254.03 413.75 254.382C413.493 254.726 413.365 255.256 413.365 255.971V257.845H412.089V252.741H413.365V253.673C413.493 253.382 413.702 253.143 413.993 252.954C414.29 252.758 414.594 252.66 414.904 252.66C415.113 252.66 415.299 252.687 415.461 252.741L415.38 253.976ZM417.827 252.66C418.509 252.66 419.052 252.842 419.457 253.207C419.869 253.565 420.075 254.074 420.075 254.736V257.845H418.839V257.106C418.698 257.355 418.485 257.555 418.201 257.703C417.925 257.852 417.627 257.926 417.31 257.926C416.811 257.926 416.402 257.784 416.085 257.501C415.767 257.21 415.609 256.846 415.609 256.407C415.609 255.435 416.368 254.868 417.887 254.706L418.839 254.614V254.564C418.839 254.273 418.748 254.047 418.566 253.885C418.384 253.717 418.137 253.632 417.827 253.632C417.55 253.632 417.317 253.713 417.128 253.875C416.946 254.037 416.841 254.253 416.814 254.523L415.68 254.321C415.761 253.821 416 253.419 416.399 253.116C416.804 252.812 417.28 252.66 417.827 252.66ZM417.594 256.984C417.979 256.984 418.282 256.856 418.505 256.599C418.728 256.343 418.839 256.022 418.839 255.637V255.526L417.867 255.637C417.536 255.678 417.283 255.762 417.108 255.89C416.932 256.019 416.844 256.177 416.844 256.366C416.844 256.549 416.912 256.697 417.047 256.812C417.182 256.927 417.364 256.984 417.594 256.984ZM422.334 251.738C422.179 251.887 421.986 251.961 421.757 251.961C421.527 251.961 421.338 251.887 421.189 251.738C421.041 251.583 420.967 251.394 420.967 251.171C420.967 250.948 421.041 250.763 421.189 250.614C421.338 250.466 421.527 250.391 421.757 250.391C421.986 250.391 422.179 250.469 422.334 250.624C422.489 250.773 422.567 250.955 422.567 251.171C422.567 251.394 422.489 251.583 422.334 251.738ZM421.119 257.845V252.741H422.395V257.845H421.119ZM423.428 257.845V252.741H424.704V253.511C424.873 253.254 425.096 253.048 425.372 252.893C425.656 252.738 425.973 252.66 426.324 252.66C426.885 252.66 427.334 252.829 427.671 253.166C428.016 253.504 428.188 253.949 428.188 254.503V257.845H426.912V254.807C426.912 254.503 426.824 254.26 426.648 254.078C426.473 253.889 426.237 253.794 425.94 253.794C425.548 253.794 425.244 253.953 425.028 254.27C424.812 254.587 424.704 255.033 424.704 255.607V257.845H423.428ZM434.029 255.121C434.029 255.323 434.022 255.492 434.009 255.627H430.221C430.275 256.012 430.42 256.312 430.657 256.528C430.893 256.744 431.193 256.853 431.558 256.853C431.855 256.853 432.105 256.785 432.307 256.65C432.51 256.515 432.645 256.323 432.712 256.073L433.907 256.397C433.766 256.876 433.485 257.251 433.067 257.521C432.648 257.791 432.139 257.926 431.538 257.926C430.734 257.926 430.1 257.666 429.634 257.146C429.175 256.62 428.945 256.002 428.945 255.293C428.945 254.577 429.165 253.96 429.603 253.44C430.049 252.92 430.67 252.66 431.467 252.66C432.277 252.66 432.905 252.91 433.35 253.409C433.803 253.902 434.029 254.473 434.029 255.121ZM430.252 254.695H432.662C432.628 254.378 432.51 254.122 432.307 253.926C432.105 253.73 431.825 253.632 431.467 253.632C431.15 253.632 430.883 253.723 430.667 253.906C430.457 254.088 430.319 254.351 430.252 254.695ZM436.949 257.926C436.193 257.926 435.598 257.686 435.166 257.207C434.734 256.721 434.518 256.083 434.518 255.293C434.518 254.503 434.734 253.868 435.166 253.389C435.598 252.903 436.186 252.66 436.928 252.66C437.583 252.66 438.076 252.876 438.407 253.308V250.675H439.683V257.845H438.407V257.258C438.279 257.46 438.083 257.622 437.82 257.744C437.556 257.865 437.266 257.926 436.949 257.926ZM437.131 256.822C437.543 256.822 437.87 256.684 438.113 256.407C438.363 256.123 438.488 255.752 438.488 255.293C438.488 254.834 438.363 254.466 438.113 254.189C437.87 253.906 437.543 253.764 437.131 253.764C436.726 253.764 436.398 253.906 436.149 254.189C435.906 254.466 435.784 254.834 435.784 255.293C435.784 255.752 435.906 256.123 436.149 256.407C436.398 256.684 436.726 256.822 437.131 256.822ZM444.784 257.845V254.908L442.354 250.756H443.832L445.473 253.612L447.123 250.756H448.602L446.161 254.908V257.845H444.784ZM450.254 251.738C450.098 251.887 449.906 251.961 449.676 251.961C449.447 251.961 449.258 251.887 449.109 251.738C448.961 251.583 448.886 251.394 448.886 251.171C448.886 250.948 448.961 250.763 449.109 250.614C449.258 250.466 449.447 250.391 449.676 250.391C449.906 250.391 450.098 250.469 450.254 250.624C450.409 250.773 450.487 250.955 450.487 251.171C450.487 251.394 450.409 251.583 450.254 251.738ZM449.038 257.845V252.741H450.314V257.845H449.038ZM456.158 255.121C456.158 255.323 456.151 255.492 456.138 255.627H452.35C452.404 256.012 452.55 256.312 452.786 256.528C453.022 256.744 453.323 256.853 453.687 256.853C453.984 256.853 454.234 256.785 454.437 256.65C454.639 256.515 454.774 256.323 454.842 256.073L456.037 256.397C455.895 256.876 455.615 257.251 455.196 257.521C454.777 257.791 454.268 257.926 453.667 257.926C452.863 257.926 452.229 257.666 451.763 257.146C451.304 256.62 451.074 256.002 451.074 255.293C451.074 254.577 451.294 253.96 451.733 253.44C452.178 252.92 452.799 252.66 453.596 252.66C454.406 252.66 455.034 252.91 455.48 253.409C455.932 253.902 456.158 254.473 456.158 255.121ZM452.381 254.695H454.791C454.757 254.378 454.639 254.122 454.437 253.926C454.234 253.73 453.954 253.632 453.596 253.632C453.279 253.632 453.012 253.723 452.796 253.906C452.587 254.088 452.448 254.351 452.381 254.695ZM456.921 257.845V250.675H458.197V257.845H456.921ZM461.387 257.926C460.631 257.926 460.037 257.686 459.605 257.207C459.173 256.721 458.957 256.083 458.957 255.293C458.957 254.503 459.173 253.868 459.605 253.389C460.037 252.903 460.624 252.66 461.367 252.66C462.022 252.66 462.515 252.876 462.846 253.308V250.675H464.122V257.845H462.846V257.258C462.717 257.46 462.522 257.622 462.258 257.744C461.995 257.865 461.705 257.926 461.387 257.926ZM461.57 256.822C461.981 256.822 462.309 256.684 462.552 256.407C462.802 256.123 462.927 255.752 462.927 255.293C462.927 254.834 462.802 254.466 462.552 254.189C462.309 253.906 461.981 253.764 461.57 253.764C461.165 253.764 460.837 253.906 460.587 254.189C460.344 254.466 460.223 254.834 460.223 255.293C460.223 255.752 460.344 256.123 460.587 256.407C460.837 256.684 461.165 256.822 461.57 256.822ZM398.197 269.926C397.158 269.926 396.297 269.585 395.615 268.903C394.94 268.215 394.602 267.347 394.602 266.301C394.602 265.254 394.94 264.39 395.615 263.708C396.297 263.019 397.158 262.675 398.197 262.675C399.23 262.675 400.084 263.019 400.76 263.708C401.441 264.39 401.782 265.254 401.782 266.301C401.782 267.347 401.441 268.215 400.76 268.903C400.084 269.585 399.23 269.926 398.197 269.926ZM396.607 268.042C397.026 268.501 397.556 268.731 398.197 268.731C398.839 268.731 399.365 268.505 399.777 268.052C400.189 267.593 400.395 267.009 400.395 266.301C400.395 265.592 400.189 265.008 399.777 264.549C399.365 264.089 398.839 263.86 398.197 263.86C397.556 263.86 397.026 264.093 396.607 264.559C396.196 265.018 395.99 265.598 395.99 266.301C395.99 267.003 396.196 267.583 396.607 268.042ZM402.555 271.688V264.741H403.831V265.328C403.98 265.126 404.185 264.964 404.449 264.842C404.719 264.721 405.019 264.66 405.35 264.66C406.079 264.66 406.656 264.903 407.082 265.389C407.507 265.868 407.72 266.503 407.72 267.293C407.72 268.076 407.494 268.711 407.041 269.197C406.596 269.683 406.002 269.926 405.259 269.926C404.624 269.926 404.148 269.73 403.831 269.339V271.688H402.555ZM405.107 268.822C405.512 268.822 405.836 268.684 406.079 268.407C406.329 268.123 406.454 267.752 406.454 267.293C406.454 266.834 406.329 266.466 406.079 266.189C405.836 265.906 405.512 265.764 405.107 265.764C404.695 265.764 404.364 265.906 404.115 266.189C403.872 266.466 403.75 266.834 403.75 267.293C403.75 267.752 403.872 268.123 404.115 268.407C404.364 268.684 404.695 268.822 405.107 268.822ZM408.484 271.688V264.741H409.76V265.328C409.909 265.126 410.115 264.964 410.378 264.842C410.648 264.721 410.948 264.66 411.279 264.66C412.008 264.66 412.586 264.903 413.011 265.389C413.436 265.868 413.649 266.503 413.649 267.293C413.649 268.076 413.423 268.711 412.97 269.197C412.525 269.683 411.931 269.926 411.188 269.926C410.553 269.926 410.077 269.73 409.76 269.339V271.688H408.484ZM411.036 268.822C411.441 268.822 411.765 268.684 412.008 268.407C412.258 268.123 412.383 267.752 412.383 267.293C412.383 266.834 412.258 266.466 412.008 266.189C411.765 265.906 411.441 265.764 411.036 265.764C410.624 265.764 410.293 265.906 410.044 266.189C409.801 266.466 409.679 266.834 409.679 267.293C409.679 267.752 409.801 268.123 410.044 268.407C410.293 268.684 410.624 268.822 411.036 268.822ZM418.717 269.187C418.218 269.68 417.58 269.926 416.803 269.926C416.027 269.926 415.389 269.68 414.889 269.187C414.39 268.687 414.14 268.056 414.14 267.293C414.14 266.53 414.39 265.902 414.889 265.409C415.389 264.91 416.027 264.66 416.803 264.66C417.58 264.66 418.218 264.91 418.717 265.409C419.217 265.902 419.467 266.53 419.467 267.293C419.467 268.056 419.217 268.687 418.717 269.187ZM415.801 268.407C416.057 268.684 416.391 268.822 416.803 268.822C417.215 268.822 417.546 268.68 417.796 268.397C418.052 268.113 418.18 267.745 418.18 267.293C418.18 266.841 418.052 266.473 417.796 266.189C417.546 265.906 417.215 265.764 416.803 265.764C416.391 265.764 416.057 265.906 415.801 266.189C415.551 266.466 415.426 266.834 415.426 267.293C415.426 267.752 415.551 268.123 415.801 268.407ZM423.15 265.926C423.056 265.899 422.941 265.885 422.806 265.885C422.421 265.885 422.107 266.054 421.864 266.392C421.621 266.729 421.5 267.256 421.5 267.971V269.845H420.224V264.741H421.5V265.673C421.614 265.376 421.807 265.133 422.077 264.943C422.347 264.754 422.634 264.66 422.938 264.66L423.241 264.69L423.15 265.926ZM427.163 269.794C426.92 269.882 426.647 269.926 426.343 269.926C425.803 269.926 425.367 269.777 425.036 269.48C424.706 269.183 424.54 268.748 424.54 268.174V265.814H423.679V264.741H424.54V263.242H425.816V264.741H427.102V265.814H425.816V268.052C425.816 268.289 425.874 268.474 425.988 268.609C426.11 268.738 426.272 268.802 426.474 268.802C426.711 268.802 426.91 268.761 427.072 268.68L427.163 269.794ZM432.549 264.741V269.845H431.273V269.075C431.104 269.332 430.878 269.538 430.595 269.693C430.318 269.848 430.004 269.926 429.653 269.926C429.099 269.926 428.65 269.757 428.306 269.42C427.962 269.082 427.79 268.636 427.79 268.083V264.741H429.066V267.779C429.066 268.083 429.153 268.329 429.329 268.518C429.504 268.701 429.741 268.792 430.038 268.792C430.429 268.792 430.733 268.633 430.949 268.316C431.165 267.998 431.273 267.553 431.273 266.979V264.741H432.549ZM433.59 269.845V264.741H434.866V265.511C435.035 265.254 435.258 265.048 435.534 264.893C435.818 264.738 436.135 264.66 436.486 264.66C437.047 264.66 437.496 264.829 437.833 265.166C438.178 265.504 438.35 265.949 438.35 266.503V269.845H437.074V266.807C437.074 266.503 436.986 266.26 436.81 266.078C436.635 265.889 436.399 265.794 436.102 265.794C435.71 265.794 435.406 265.953 435.19 266.27C434.974 266.587 434.866 267.033 434.866 267.607V269.845H433.59ZM440.596 263.738C440.441 263.887 440.248 263.961 440.019 263.961C439.789 263.961 439.6 263.887 439.452 263.738C439.303 263.583 439.229 263.394 439.229 263.171C439.229 262.948 439.303 262.763 439.452 262.614C439.6 262.466 439.789 262.391 440.019 262.391C440.248 262.391 440.441 262.469 440.596 262.624C440.751 262.773 440.829 262.955 440.829 263.171C440.829 263.394 440.751 263.583 440.596 263.738ZM439.381 269.845V264.741H440.657V269.845H439.381ZM444.718 269.794C444.475 269.882 444.202 269.926 443.898 269.926C443.358 269.926 442.922 269.777 442.591 269.48C442.261 269.183 442.095 268.748 442.095 268.174V265.814H441.234V264.741H442.095V263.242H443.371V264.741H444.657V265.814H443.371V268.052C443.371 268.289 443.429 268.474 443.543 268.609C443.665 268.738 443.827 268.802 444.029 268.802C444.266 268.802 444.465 268.761 444.627 268.68L444.718 269.794ZM450.105 267.121C450.105 267.323 450.099 267.492 450.085 267.627H446.298C446.352 268.012 446.497 268.312 446.733 268.528C446.969 268.744 447.27 268.853 447.634 268.853C447.932 268.853 448.181 268.785 448.384 268.65C448.586 268.515 448.721 268.323 448.789 268.073L449.984 268.397C449.842 268.876 449.562 269.251 449.143 269.521C448.725 269.791 448.215 269.926 447.614 269.926C446.811 269.926 446.176 269.666 445.71 269.146C445.251 268.62 445.022 268.002 445.022 267.293C445.022 266.577 445.241 265.96 445.68 265.44C446.126 264.92 446.747 264.66 447.543 264.66C448.353 264.66 448.981 264.91 449.427 265.409C449.879 265.902 450.105 266.473 450.105 267.121ZM446.328 266.695H448.738C448.705 266.378 448.586 266.122 448.384 265.926C448.181 265.73 447.901 265.632 447.543 265.632C447.226 265.632 446.959 265.723 446.743 265.906C446.534 266.088 446.396 266.351 446.328 266.695ZM452.601 269.926C452.027 269.926 451.548 269.781 451.163 269.491C450.778 269.193 450.515 268.836 450.373 268.417L451.416 267.992C451.497 268.269 451.639 268.495 451.842 268.67C452.044 268.846 452.297 268.934 452.601 268.934C452.837 268.934 453.026 268.88 453.168 268.772C453.317 268.657 453.391 268.518 453.391 268.356C453.391 268.181 453.293 268.042 453.097 267.941C452.908 267.84 452.679 267.759 452.409 267.698C452.139 267.631 451.865 267.55 451.588 267.455C451.318 267.36 451.085 267.198 450.89 266.969C450.701 266.739 450.606 266.446 450.606 266.088C450.606 265.676 450.771 265.335 451.102 265.065C451.433 264.795 451.872 264.66 452.419 264.66C452.918 264.66 453.357 264.775 453.735 265.004C454.12 265.234 454.367 265.534 454.475 265.906L453.442 266.341C453.374 266.111 453.246 265.933 453.057 265.804C452.868 265.669 452.662 265.602 452.439 265.602C452.236 265.602 452.071 265.646 451.943 265.733C451.821 265.814 451.761 265.926 451.761 266.068C451.761 266.23 451.855 266.355 452.044 266.442C452.24 266.53 452.473 266.604 452.743 266.665C453.02 266.719 453.296 266.793 453.573 266.888C453.85 266.982 454.083 267.151 454.272 267.394C454.468 267.637 454.566 267.951 454.566 268.336C454.566 268.782 454.383 269.16 454.019 269.47C453.654 269.774 453.182 269.926 452.601 269.926Z" fill="#6029D7"/>
<path d="M311.545 400.54C310.553 400.54 309.715 400.223 309.034 399.588C308.358 398.953 308.021 398.062 308.021 396.915C308.021 395.774 308.362 394.886 309.044 394.251C309.726 393.61 310.559 393.289 311.545 393.289C312.389 393.289 313.095 393.505 313.662 393.937C314.229 394.363 314.573 394.933 314.695 395.649L313.327 395.932C313.24 395.48 313.034 395.125 312.71 394.869C312.392 394.606 312.004 394.474 311.545 394.474C310.924 394.474 310.414 394.69 310.016 395.122C309.618 395.547 309.418 396.145 309.418 396.915C309.418 397.684 309.614 398.282 310.006 398.707C310.404 399.132 310.917 399.345 311.545 399.345C312.004 399.345 312.386 399.227 312.689 398.991C312.993 398.754 313.192 398.427 313.287 398.008L314.674 398.312C314.499 399.007 314.134 399.554 313.581 399.953C313.034 400.344 312.355 400.54 311.545 400.54ZM319.783 399.801C319.284 400.294 318.646 400.54 317.869 400.54C317.093 400.54 316.455 400.294 315.955 399.801C315.456 399.301 315.206 398.67 315.206 397.907C315.206 397.144 315.456 396.516 315.955 396.023C316.455 395.524 317.093 395.274 317.869 395.274C318.646 395.274 319.284 395.524 319.783 396.023C320.283 396.516 320.533 397.144 320.533 397.907C320.533 398.67 320.283 399.301 319.783 399.801ZM316.867 399.021C317.123 399.298 317.457 399.436 317.869 399.436C318.281 399.436 318.612 399.294 318.862 399.011C319.118 398.727 319.246 398.359 319.246 397.907C319.246 397.455 319.118 397.087 318.862 396.803C318.612 396.52 318.281 396.378 317.869 396.378C317.457 396.378 317.123 396.52 316.867 396.803C316.617 397.08 316.492 397.448 316.492 397.907C316.492 398.366 316.617 398.737 316.867 399.021ZM321.29 400.459V395.355H322.566V396.135C322.89 395.561 323.379 395.274 324.034 395.274C324.851 395.274 325.381 395.595 325.624 396.236C325.772 395.959 325.995 395.73 326.292 395.547C326.589 395.365 326.93 395.274 327.315 395.274C327.862 395.274 328.301 395.436 328.632 395.76C328.969 396.077 329.138 396.489 329.138 396.996V400.459H327.862V397.35C327.862 397.039 327.781 396.796 327.619 396.621C327.457 396.445 327.227 396.358 326.93 396.358C326.593 396.358 326.326 396.493 326.13 396.763C325.941 397.033 325.847 397.397 325.847 397.856V400.459H324.571V397.35C324.571 397.039 324.49 396.796 324.328 396.621C324.172 396.445 323.95 396.358 323.659 396.358C323.315 396.358 323.045 396.496 322.849 396.773C322.66 397.043 322.566 397.407 322.566 397.866V400.459H321.29ZM330.176 402.302V395.355H331.452V395.942C331.6 395.74 331.806 395.578 332.069 395.456C332.339 395.335 332.64 395.274 332.971 395.274C333.7 395.274 334.277 395.517 334.702 396.003C335.128 396.482 335.34 397.117 335.34 397.907C335.34 398.69 335.114 399.325 334.662 399.811C334.216 400.297 333.622 400.54 332.88 400.54C332.245 400.54 331.769 400.344 331.452 399.953V402.302H330.176ZM332.728 399.436C333.133 399.436 333.457 399.298 333.7 399.021C333.95 398.737 334.075 398.366 334.075 397.907C334.075 397.448 333.95 397.08 333.7 396.803C333.457 396.52 333.133 396.378 332.728 396.378C332.316 396.378 331.985 396.52 331.735 396.803C331.492 397.08 331.371 397.448 331.371 397.907C331.371 398.366 331.492 398.737 331.735 399.021C331.985 399.298 332.316 399.436 332.728 399.436ZM336.105 400.459V393.289H337.381V400.459H336.105ZM343.224 397.735C343.224 397.937 343.218 398.106 343.204 398.241H339.417C339.471 398.626 339.616 398.926 339.852 399.142C340.088 399.359 340.389 399.467 340.753 399.467C341.051 399.467 341.3 399.399 341.503 399.264C341.705 399.129 341.84 398.937 341.908 398.687L343.103 399.011C342.961 399.49 342.681 399.865 342.262 400.135C341.844 400.405 341.334 400.54 340.733 400.54C339.93 400.54 339.295 400.28 338.829 399.76C338.37 399.234 338.141 398.616 338.141 397.907C338.141 397.191 338.36 396.574 338.799 396.054C339.245 395.534 339.866 395.274 340.662 395.274C341.472 395.274 342.1 395.524 342.546 396.023C342.998 396.516 343.224 397.087 343.224 397.735ZM339.447 397.309H341.857C341.824 396.992 341.705 396.736 341.503 396.54C341.3 396.344 341.02 396.246 340.662 396.246C340.345 396.246 340.078 396.337 339.862 396.52C339.653 396.702 339.515 396.965 339.447 397.309ZM348.086 400.459H346.688L345.675 398.92L344.653 400.459H343.255L344.977 397.877L343.306 395.355H344.683L345.675 396.834L346.658 395.355H348.035L346.364 397.877L348.086 400.459ZM349.895 394.352C349.74 394.501 349.548 394.575 349.318 394.575C349.088 394.575 348.899 394.501 348.751 394.352C348.602 394.197 348.528 394.008 348.528 393.785C348.528 393.562 348.602 393.377 348.751 393.228C348.899 393.08 349.088 393.005 349.318 393.005C349.548 393.005 349.74 393.083 349.895 393.238C350.051 393.387 350.128 393.569 350.128 393.785C350.128 394.008 350.051 394.197 349.895 394.352ZM348.68 400.459V395.355H349.956V400.459H348.68ZM354.017 400.408C353.774 400.496 353.501 400.54 353.197 400.54C352.657 400.54 352.222 400.391 351.891 400.094C351.56 399.797 351.395 399.362 351.395 398.788V396.428H350.534V395.355H351.395V393.856H352.671V395.355H353.957V396.428H352.671V398.666C352.671 398.903 352.728 399.088 352.843 399.223C352.964 399.352 353.126 399.416 353.329 399.416C353.565 399.416 353.764 399.375 353.926 399.294L354.017 400.408ZM358.035 395.355H359.342L356.648 402.302H355.352L356.142 400.256L354.157 395.355H355.544L356.769 398.636L358.035 395.355ZM364.036 395.274C364.718 395.274 365.261 395.456 365.667 395.821C366.078 396.179 366.284 396.688 366.284 397.35V400.459H365.049V399.72C364.907 399.97 364.694 400.169 364.411 400.317C364.134 400.466 363.837 400.54 363.52 400.54C363.02 400.54 362.612 400.398 362.294 400.115C361.977 399.824 361.818 399.46 361.818 399.021C361.818 398.049 362.578 397.482 364.097 397.32L365.049 397.228V397.178C365.049 396.888 364.958 396.661 364.775 396.499C364.593 396.331 364.347 396.246 364.036 396.246C363.759 396.246 363.526 396.327 363.337 396.489C363.155 396.651 363.05 396.867 363.023 397.137L361.889 396.935C361.97 396.435 362.21 396.033 362.608 395.73C363.013 395.426 363.489 395.274 364.036 395.274ZM363.803 399.598C364.188 399.598 364.492 399.47 364.715 399.213C364.937 398.957 365.049 398.636 365.049 398.251V398.14L364.077 398.251C363.746 398.292 363.493 398.376 363.317 398.504C363.142 398.633 363.054 398.791 363.054 398.98C363.054 399.163 363.121 399.311 363.256 399.426C363.391 399.541 363.574 399.598 363.803 399.598ZM367.328 400.459V395.355H368.604V396.125C368.773 395.868 368.996 395.662 369.272 395.507C369.556 395.352 369.873 395.274 370.224 395.274C370.785 395.274 371.234 395.443 371.571 395.78C371.916 396.118 372.088 396.563 372.088 397.117V400.459H370.812V397.421C370.812 397.117 370.724 396.874 370.548 396.692C370.373 396.503 370.137 396.408 369.84 396.408C369.448 396.408 369.144 396.567 368.928 396.884C368.712 397.201 368.604 397.647 368.604 398.221V400.459H367.328ZM375.276 400.54C374.52 400.54 373.925 400.3 373.493 399.821C373.061 399.335 372.845 398.697 372.845 397.907C372.845 397.117 373.061 396.482 373.493 396.003C373.925 395.517 374.513 395.274 375.255 395.274C375.91 395.274 376.403 395.49 376.734 395.922V393.289H378.01V400.459H376.734V399.872C376.606 400.074 376.41 400.236 376.147 400.358C375.883 400.479 375.593 400.54 375.276 400.54ZM375.458 399.436C375.87 399.436 376.197 399.298 376.44 399.021C376.69 398.737 376.815 398.366 376.815 397.907C376.815 397.448 376.69 397.08 376.44 396.803C376.197 396.52 375.87 396.378 375.458 396.378C375.053 396.378 374.725 396.52 374.476 396.803C374.233 397.08 374.111 397.448 374.111 397.907C374.111 398.366 374.233 398.737 374.476 399.021C374.725 399.298 375.053 399.436 375.458 399.436ZM296.242 412.459V405.37H297.619V412.459H296.242ZM298.698 412.459V407.355H299.974V408.125C300.143 407.868 300.366 407.662 300.643 407.507C300.926 407.352 301.243 407.274 301.594 407.274C302.155 407.274 302.604 407.443 302.941 407.78C303.286 408.118 303.458 408.563 303.458 409.117V412.459H302.182V409.421C302.182 409.117 302.094 408.874 301.919 408.692C301.743 408.503 301.507 408.408 301.21 408.408C300.818 408.408 300.514 408.567 300.298 408.884C300.082 409.201 299.974 409.647 299.974 410.221V412.459H298.698ZM309.299 409.735C309.299 409.937 309.292 410.106 309.279 410.241H305.491C305.545 410.626 305.69 410.926 305.927 411.142C306.163 411.359 306.463 411.467 306.828 411.467C307.125 411.467 307.375 411.399 307.577 411.264C307.78 411.129 307.915 410.937 307.983 410.687L309.178 411.011C309.036 411.49 308.756 411.865 308.337 412.135C307.918 412.405 307.409 412.54 306.808 412.54C306.004 412.54 305.37 412.28 304.904 411.76C304.445 411.234 304.215 410.616 304.215 409.907C304.215 409.191 304.435 408.574 304.874 408.054C305.319 407.534 305.94 407.274 306.737 407.274C307.547 407.274 308.175 407.524 308.621 408.023C309.073 408.516 309.299 409.087 309.299 409.735ZM305.522 409.309H307.932C307.898 408.992 307.78 408.736 307.577 408.54C307.375 408.344 307.095 408.246 306.737 408.246C306.42 408.246 306.153 408.337 305.937 408.52C305.728 408.702 305.589 408.965 305.522 409.309ZM310.389 412.459V408.428H309.568V407.355H310.389V406.96C310.389 406.379 310.554 405.927 310.885 405.603C311.222 405.279 311.658 405.117 312.191 405.117C312.448 405.117 312.704 405.154 312.961 405.228L312.87 406.281C312.708 406.214 312.539 406.18 312.363 406.18C312.147 406.18 311.975 406.251 311.847 406.393C311.725 406.535 311.665 406.724 311.665 406.96V407.355H312.88V408.428H311.665V412.459H310.389ZM314.043 412.459V408.428H313.223V407.355H314.043V406.96C314.043 406.379 314.209 405.927 314.539 405.603C314.877 405.279 315.312 405.117 315.846 405.117C316.102 405.117 316.359 405.154 316.615 405.228L316.524 406.281C316.362 406.214 316.193 406.18 316.018 406.18C315.802 406.18 315.63 406.251 315.501 406.393C315.38 406.535 315.319 406.724 315.319 406.96V407.355H316.534V408.428H315.319V412.459H314.043ZM318.467 406.352C318.312 406.501 318.12 406.575 317.89 406.575C317.66 406.575 317.471 406.501 317.323 406.352C317.174 406.197 317.1 406.008 317.1 405.785C317.1 405.562 317.174 405.377 317.323 405.228C317.471 405.08 317.66 405.005 317.89 405.005C318.12 405.005 318.312 405.083 318.467 405.238C318.622 405.387 318.7 405.569 318.7 405.785C318.7 406.008 318.622 406.197 318.467 406.352ZM317.252 412.459V407.355H318.528V412.459H317.252ZM321.881 412.54C321.118 412.54 320.493 412.297 320.007 411.811C319.528 411.318 319.288 410.683 319.288 409.907C319.288 409.131 319.528 408.499 320.007 408.013C320.493 407.52 321.118 407.274 321.881 407.274C322.535 407.274 323.075 407.433 323.501 407.75C323.933 408.067 324.193 408.496 324.281 409.036L323.035 409.279C322.988 409.009 322.863 408.793 322.66 408.631C322.464 408.462 322.218 408.378 321.921 408.378C321.523 408.378 321.205 408.516 320.969 408.793C320.733 409.07 320.615 409.441 320.615 409.907C320.615 410.373 320.733 410.744 320.969 411.021C321.205 411.298 321.523 411.436 321.921 411.436C322.218 411.436 322.461 411.362 322.65 411.213C322.846 411.058 322.974 410.842 323.035 410.565L324.281 410.818C324.186 411.352 323.923 411.774 323.491 412.084C323.065 412.388 322.529 412.54 321.881 412.54ZM326.251 406.352C326.096 406.501 325.903 406.575 325.674 406.575C325.444 406.575 325.255 406.501 325.106 406.352C324.958 406.197 324.884 406.008 324.884 405.785C324.884 405.562 324.958 405.377 325.106 405.228C325.255 405.08 325.444 405.005 325.674 405.005C325.903 405.005 326.096 405.083 326.251 405.238C326.406 405.387 326.484 405.569 326.484 405.785C326.484 406.008 326.406 406.197 326.251 406.352ZM325.036 412.459V407.355H326.312V412.459H325.036ZM332.155 409.735C332.155 409.937 332.149 410.106 332.135 410.241H328.348C328.402 410.626 328.547 410.926 328.783 411.142C329.019 411.359 329.32 411.467 329.684 411.467C329.981 411.467 330.231 411.399 330.434 411.264C330.636 411.129 330.771 410.937 330.839 410.687L332.034 411.011C331.892 411.49 331.612 411.865 331.193 412.135C330.775 412.405 330.265 412.54 329.664 412.54C328.861 412.54 328.226 412.28 327.76 411.76C327.301 411.234 327.072 410.616 327.072 409.907C327.072 409.191 327.291 408.574 327.73 408.054C328.175 407.534 328.797 407.274 329.593 407.274C330.403 407.274 331.031 407.524 331.477 408.023C331.929 408.516 332.155 409.087 332.155 409.735ZM328.378 409.309H330.788C330.754 408.992 330.636 408.736 330.434 408.54C330.231 408.344 329.951 408.246 329.593 408.246C329.276 408.246 329.009 408.337 328.793 408.52C328.584 408.702 328.445 408.965 328.378 409.309ZM332.918 412.459V407.355H334.194V408.125C334.363 407.868 334.586 407.662 334.862 407.507C335.146 407.352 335.463 407.274 335.814 407.274C336.375 407.274 336.824 407.443 337.161 407.78C337.506 408.118 337.678 408.563 337.678 409.117V412.459H336.402V409.421C336.402 409.117 336.314 408.874 336.138 408.692C335.963 408.503 335.727 408.408 335.43 408.408C335.038 408.408 334.734 408.567 334.518 408.884C334.302 409.201 334.194 409.647 334.194 410.221V412.459H332.918ZM341.028 412.54C340.265 412.54 339.64 412.297 339.154 411.811C338.675 411.318 338.435 410.683 338.435 409.907C338.435 409.131 338.675 408.499 339.154 408.013C339.64 407.52 340.265 407.274 341.028 407.274C341.683 407.274 342.223 407.433 342.648 407.75C343.08 408.067 343.34 408.496 343.428 409.036L342.182 409.279C342.135 409.009 342.01 408.793 341.808 408.631C341.612 408.462 341.365 408.378 341.068 408.378C340.67 408.378 340.353 408.516 340.116 408.793C339.88 409.07 339.762 409.441 339.762 409.907C339.762 410.373 339.88 410.744 340.116 411.021C340.353 411.298 340.67 411.436 341.068 411.436C341.365 411.436 341.608 411.362 341.797 411.213C341.993 411.058 342.121 410.842 342.182 410.565L343.428 410.818C343.333 411.352 343.07 411.774 342.638 412.084C342.213 412.388 341.676 412.54 341.028 412.54ZM347.347 407.355H348.653L345.959 414.302H344.663L345.453 412.256L343.468 407.355H344.855L346.081 410.636L347.347 407.355ZM352.598 406.352C352.443 406.501 352.25 406.575 352.021 406.575C351.791 406.575 351.602 406.501 351.454 406.352C351.305 406.197 351.231 406.008 351.231 405.785C351.231 405.562 351.305 405.377 351.454 405.228C351.602 405.08 351.791 405.005 352.021 405.005C352.25 405.005 352.443 405.083 352.598 405.238C352.753 405.387 352.831 405.569 352.831 405.785C352.831 406.008 352.753 406.197 352.598 406.352ZM351.383 412.459V407.355H352.659V412.459H351.383ZM353.692 412.459V407.355H354.968V408.125C355.137 407.868 355.36 407.662 355.637 407.507C355.92 407.352 356.238 407.274 356.589 407.274C357.149 407.274 357.598 407.443 357.936 407.78C358.28 408.118 358.452 408.563 358.452 409.117V412.459H357.176V409.421C357.176 409.117 357.088 408.874 356.913 408.692C356.737 408.503 356.501 408.408 356.204 408.408C355.812 408.408 355.508 408.567 355.292 408.884C355.076 409.201 354.968 409.647 354.968 410.221V412.459H353.692ZM364.974 412.54C363.982 412.54 363.145 412.223 362.463 411.588C361.788 410.953 361.45 410.062 361.45 408.915C361.45 407.774 361.791 406.886 362.473 406.251C363.155 405.61 363.988 405.289 364.974 405.289C365.818 405.289 366.524 405.505 367.091 405.937C367.658 406.363 368.002 406.933 368.124 407.649L366.757 407.932C366.669 407.48 366.463 407.125 366.139 406.869C365.821 406.606 365.433 406.474 364.974 406.474C364.353 406.474 363.843 406.69 363.445 407.122C363.047 407.547 362.847 408.145 362.847 408.915C362.847 409.684 363.043 410.282 363.435 410.707C363.833 411.132 364.346 411.345 364.974 411.345C365.433 411.345 365.815 411.227 366.119 410.991C366.422 410.754 366.622 410.427 366.716 410.008L368.103 410.312C367.928 411.007 367.563 411.554 367.01 411.953C366.463 412.344 365.784 412.54 364.974 412.54ZM372.199 408.59C372.017 408.509 371.801 408.469 371.551 408.469C371.16 408.469 370.832 408.644 370.569 408.996C370.312 409.34 370.184 409.87 370.184 410.585V412.459H368.908V407.355H370.184V408.287C370.312 407.996 370.522 407.757 370.812 407.568C371.109 407.372 371.413 407.274 371.724 407.274C371.933 407.274 372.118 407.301 372.281 407.355L372.199 408.59ZM376.946 411.801C376.446 412.294 375.808 412.54 375.032 412.54C374.255 412.54 373.617 412.294 373.118 411.801C372.618 411.301 372.368 410.67 372.368 409.907C372.368 409.144 372.618 408.516 373.118 408.023C373.617 407.524 374.255 407.274 375.032 407.274C375.808 407.274 376.446 407.524 376.946 408.023C377.445 408.516 377.695 409.144 377.695 409.907C377.695 410.67 377.445 411.301 376.946 411.801ZM374.029 411.021C374.286 411.298 374.62 411.436 375.032 411.436C375.444 411.436 375.774 411.294 376.024 411.011C376.281 410.727 376.409 410.359 376.409 409.907C376.409 409.455 376.281 409.087 376.024 408.803C375.774 408.52 375.444 408.378 375.032 408.378C374.62 408.378 374.286 408.52 374.029 408.803C373.779 409.08 373.654 409.448 373.654 409.907C373.654 410.366 373.779 410.737 374.029 411.021ZM380.185 412.54C379.611 412.54 379.132 412.395 378.747 412.105C378.362 411.807 378.099 411.45 377.957 411.031L379 410.606C379.081 410.883 379.223 411.109 379.426 411.284C379.628 411.46 379.881 411.548 380.185 411.548C380.421 411.548 380.61 411.494 380.752 411.386C380.901 411.271 380.975 411.132 380.975 410.97C380.975 410.795 380.877 410.656 380.681 410.555C380.492 410.454 380.263 410.373 379.993 410.312C379.723 410.245 379.449 410.164 379.172 410.069C378.902 409.974 378.669 409.812 378.474 409.583C378.285 409.353 378.19 409.06 378.19 408.702C378.19 408.29 378.355 407.949 378.686 407.679C379.017 407.409 379.456 407.274 380.003 407.274C380.502 407.274 380.941 407.389 381.319 407.618C381.704 407.848 381.951 408.148 382.059 408.52L381.026 408.955C380.958 408.725 380.83 408.547 380.641 408.418C380.452 408.283 380.246 408.216 380.023 408.216C379.821 408.216 379.655 408.26 379.527 408.347C379.405 408.428 379.345 408.54 379.345 408.682C379.345 408.844 379.439 408.969 379.628 409.056C379.824 409.144 380.057 409.218 380.327 409.279C380.604 409.333 380.88 409.407 381.157 409.502C381.434 409.596 381.667 409.765 381.856 410.008C382.052 410.251 382.15 410.565 382.15 410.95C382.15 411.396 381.967 411.774 381.603 412.084C381.238 412.388 380.766 412.54 380.185 412.54ZM384.65 412.54C384.077 412.54 383.597 412.395 383.212 412.105C382.828 411.807 382.564 411.45 382.423 411.031L383.466 410.606C383.547 410.883 383.688 411.109 383.891 411.284C384.093 411.46 384.347 411.548 384.65 411.548C384.887 411.548 385.076 411.494 385.218 411.386C385.366 411.271 385.44 411.132 385.44 410.97C385.44 410.795 385.342 410.656 385.147 410.555C384.958 410.454 384.728 410.373 384.458 410.312C384.188 410.245 383.915 410.164 383.638 410.069C383.368 409.974 383.135 409.812 382.939 409.583C382.75 409.353 382.655 409.06 382.655 408.702C382.655 408.29 382.821 407.949 383.152 407.679C383.482 407.409 383.921 407.274 384.468 407.274C384.968 407.274 385.407 407.389 385.785 407.618C386.17 407.848 386.416 408.148 386.524 408.52L385.491 408.955C385.423 408.725 385.295 408.547 385.106 408.418C384.917 408.283 384.711 408.216 384.488 408.216C384.286 408.216 384.12 408.26 383.992 408.347C383.871 408.428 383.81 408.54 383.81 408.682C383.81 408.844 383.904 408.969 384.093 409.056C384.289 409.144 384.522 409.218 384.792 409.279C385.069 409.333 385.346 409.407 385.623 409.502C385.899 409.596 386.132 409.765 386.321 410.008C386.517 410.251 386.615 410.565 386.615 410.95C386.615 411.396 386.433 411.774 386.068 412.084C385.704 412.388 385.231 412.54 384.65 412.54ZM386.989 410.079V408.985H390.25V410.079H386.989ZM303.898 424.54C302.905 424.54 302.068 424.223 301.386 423.588C300.711 422.953 300.373 422.062 300.373 420.915C300.373 419.774 300.714 418.886 301.396 418.251C302.078 417.61 302.912 417.289 303.898 417.289C304.742 417.289 305.447 417.505 306.014 417.937C306.581 418.363 306.926 418.933 307.047 419.649L305.68 419.932C305.592 419.48 305.386 419.125 305.062 418.869C304.745 418.606 304.357 418.474 303.898 418.474C303.276 418.474 302.767 418.69 302.368 419.122C301.97 419.547 301.771 420.145 301.771 420.915C301.771 421.684 301.967 422.282 302.358 422.707C302.757 423.132 303.27 423.345 303.898 423.345C304.357 423.345 304.738 423.227 305.042 422.991C305.346 422.754 305.545 422.427 305.639 422.008L307.027 422.312C306.851 423.007 306.487 423.554 305.933 423.953C305.386 424.344 304.708 424.54 303.898 424.54ZM307.832 424.459V417.289H309.108V420.145C309.459 419.564 309.999 419.274 310.728 419.274C311.302 419.274 311.761 419.443 312.105 419.78C312.456 420.118 312.632 420.563 312.632 421.117V424.459H311.356V421.431C311.356 421.114 311.265 420.864 311.082 420.682C310.9 420.499 310.654 420.408 310.343 420.408C309.952 420.408 309.648 420.57 309.432 420.894C309.216 421.212 309.108 421.661 309.108 422.241V424.459H307.832ZM315.626 419.274C316.308 419.274 316.852 419.456 317.257 419.821C317.669 420.179 317.875 420.688 317.875 421.35V424.459H316.639V423.72C316.497 423.97 316.285 424.169 316.001 424.317C315.724 424.466 315.427 424.54 315.11 424.54C314.61 424.54 314.202 424.398 313.885 424.115C313.567 423.824 313.409 423.46 313.409 423.021C313.409 422.049 314.168 421.482 315.687 421.32L316.639 421.228V421.178C316.639 420.888 316.548 420.661 316.366 420.499C316.183 420.331 315.937 420.246 315.626 420.246C315.35 420.246 315.117 420.327 314.928 420.489C314.745 420.651 314.641 420.867 314.614 421.137L313.48 420.935C313.561 420.435 313.8 420.033 314.199 419.73C314.604 419.426 315.08 419.274 315.626 419.274ZM315.394 423.598C315.778 423.598 316.082 423.47 316.305 423.213C316.528 422.957 316.639 422.636 316.639 422.251V422.14L315.667 422.251C315.336 422.292 315.083 422.376 314.907 422.504C314.732 422.633 314.644 422.791 314.644 422.98C314.644 423.163 314.712 423.311 314.847 423.426C314.982 423.541 315.164 423.598 315.394 423.598ZM320.134 418.352C319.978 418.501 319.786 418.575 319.556 418.575C319.327 418.575 319.138 418.501 318.989 418.352C318.841 418.197 318.766 418.008 318.766 417.785C318.766 417.562 318.841 417.377 318.989 417.228C319.138 417.08 319.327 417.005 319.556 417.005C319.786 417.005 319.978 417.083 320.134 417.238C320.289 417.387 320.367 417.569 320.367 417.785C320.367 418.008 320.289 418.197 320.134 418.352ZM318.918 424.459V419.355H320.194V424.459H318.918ZM321.228 424.459V419.355H322.504V420.125C322.673 419.868 322.895 419.662 323.172 419.507C323.456 419.352 323.773 419.274 324.124 419.274C324.685 419.274 325.133 419.443 325.471 419.78C325.815 420.118 325.988 420.563 325.988 421.117V424.459H324.712V421.421C324.712 421.117 324.624 420.874 324.448 420.692C324.273 420.503 324.036 420.408 323.739 420.408C323.348 420.408 323.044 420.567 322.828 420.884C322.612 421.201 322.504 421.647 322.504 422.221V424.459H321.228ZM330.93 424.459V418.555H328.793V417.37H334.444V418.555H332.307V424.459H330.93ZM337.777 420.59C337.595 420.509 337.379 420.469 337.129 420.469C336.737 420.469 336.41 420.644 336.146 420.996C335.89 421.34 335.762 421.87 335.762 422.585V424.459H334.486V419.355H335.762V420.287C335.89 419.996 336.099 419.757 336.389 419.568C336.686 419.372 336.99 419.274 337.301 419.274C337.51 419.274 337.696 419.301 337.858 419.355L337.777 420.59ZM340.223 419.274C340.905 419.274 341.449 419.456 341.854 419.821C342.266 420.179 342.472 420.688 342.472 421.35V424.459H341.236V423.72C341.094 423.97 340.882 424.169 340.598 424.317C340.321 424.466 340.024 424.54 339.707 424.54C339.207 424.54 338.799 424.398 338.481 424.115C338.164 423.824 338.005 423.46 338.005 423.021C338.005 422.049 338.765 421.482 340.284 421.32L341.236 421.228V421.178C341.236 420.888 341.145 420.661 340.963 420.499C340.78 420.331 340.534 420.246 340.223 420.246C339.947 420.246 339.714 420.327 339.525 420.489C339.342 420.651 339.238 420.867 339.211 421.137L338.076 420.935C338.157 420.435 338.397 420.033 338.795 419.73C339.2 419.426 339.676 419.274 340.223 419.274ZM339.99 423.598C340.375 423.598 340.679 423.47 340.902 423.213C341.125 422.957 341.236 422.636 341.236 422.251V422.14L340.264 422.251C339.933 422.292 339.68 422.376 339.504 422.504C339.329 422.633 339.241 422.791 339.241 422.98C339.241 423.163 339.309 423.311 339.444 423.426C339.579 423.541 339.761 423.598 339.99 423.598ZM343.515 424.459V419.355H344.791V420.125C344.96 419.868 345.183 419.662 345.46 419.507C345.743 419.352 346.06 419.274 346.412 419.274C346.972 419.274 347.421 419.443 347.758 419.78C348.103 420.118 348.275 420.563 348.275 421.117V424.459H346.999V421.421C346.999 421.117 346.911 420.874 346.736 420.692C346.56 420.503 346.324 420.408 346.027 420.408C345.635 420.408 345.331 420.567 345.115 420.884C344.899 421.201 344.791 421.647 344.791 422.221V424.459H343.515ZM351.088 424.54C350.514 424.54 350.035 424.395 349.65 424.105C349.265 423.807 349.002 423.45 348.86 423.031L349.903 422.606C349.984 422.883 350.126 423.109 350.329 423.284C350.531 423.46 350.784 423.548 351.088 423.548C351.325 423.548 351.514 423.494 351.655 423.386C351.804 423.271 351.878 423.132 351.878 422.97C351.878 422.795 351.78 422.656 351.584 422.555C351.395 422.454 351.166 422.373 350.896 422.312C350.626 422.245 350.352 422.164 350.076 422.069C349.805 421.974 349.573 421.812 349.377 421.583C349.188 421.353 349.093 421.06 349.093 420.702C349.093 420.29 349.259 419.949 349.589 419.679C349.92 419.409 350.359 419.274 350.906 419.274C351.406 419.274 351.844 419.389 352.222 419.618C352.607 419.848 352.854 420.148 352.962 420.52L351.929 420.955C351.861 420.725 351.733 420.547 351.544 420.418C351.355 420.283 351.149 420.216 350.926 420.216C350.724 420.216 350.558 420.26 350.43 420.347C350.308 420.428 350.248 420.54 350.248 420.682C350.248 420.844 350.342 420.969 350.531 421.056C350.727 421.144 350.96 421.218 351.23 421.279C351.507 421.333 351.784 421.407 352.06 421.502C352.337 421.596 352.57 421.765 352.759 422.008C352.955 422.251 353.053 422.565 353.053 422.95C353.053 423.396 352.871 423.774 352.506 424.084C352.141 424.388 351.669 424.54 351.088 424.54ZM355.736 419.274C356.418 419.274 356.961 419.456 357.366 419.821C357.778 420.179 357.984 420.688 357.984 421.35V424.459H356.749V423.72C356.607 423.97 356.394 424.169 356.111 424.317C355.834 424.466 355.537 424.54 355.219 424.54C354.72 424.54 354.311 424.398 353.994 424.115C353.677 423.824 353.518 423.46 353.518 423.021C353.518 422.049 354.278 421.482 355.797 421.32L356.749 421.228V421.178C356.749 420.888 356.657 420.661 356.475 420.499C356.293 420.331 356.046 420.246 355.736 420.246C355.459 420.246 355.226 420.327 355.037 420.489C354.855 420.651 354.75 420.867 354.723 421.137L353.589 420.935C353.67 420.435 353.91 420.033 354.308 419.73C354.713 419.426 355.189 419.274 355.736 419.274ZM355.503 423.598C355.888 423.598 356.192 423.47 356.414 423.213C356.637 422.957 356.749 422.636 356.749 422.251V422.14L355.776 422.251C355.446 422.292 355.192 422.376 355.017 422.504C354.841 422.633 354.754 422.791 354.754 422.98C354.754 423.163 354.821 423.311 354.956 423.426C355.091 423.541 355.273 423.598 355.503 423.598ZM361.347 424.54C360.584 424.54 359.959 424.297 359.473 423.811C358.994 423.318 358.754 422.683 358.754 421.907C358.754 421.131 358.994 420.499 359.473 420.013C359.959 419.52 360.584 419.274 361.347 419.274C362.002 419.274 362.542 419.433 362.967 419.75C363.399 420.067 363.659 420.496 363.747 421.036L362.501 421.279C362.454 421.009 362.329 420.793 362.127 420.631C361.931 420.462 361.684 420.378 361.387 420.378C360.989 420.378 360.672 420.516 360.435 420.793C360.199 421.07 360.081 421.441 360.081 421.907C360.081 422.373 360.199 422.744 360.435 423.021C360.672 423.298 360.989 423.436 361.387 423.436C361.684 423.436 361.928 423.362 362.117 423.213C362.312 423.058 362.441 422.842 362.501 422.565L363.747 422.818C363.652 423.352 363.389 423.774 362.957 424.084C362.532 424.388 361.995 424.54 361.347 424.54ZM367.441 424.408C367.198 424.496 366.924 424.54 366.621 424.54C366.081 424.54 365.645 424.391 365.314 424.094C364.983 423.797 364.818 423.362 364.818 422.788V420.428H363.957V419.355H364.818V417.856H366.094V419.355H367.38V420.428H366.094V422.666C366.094 422.903 366.151 423.088 366.266 423.223C366.388 423.352 366.55 423.416 366.752 423.416C366.989 423.416 367.188 423.375 367.35 423.294L367.441 424.408ZM369.332 418.352C369.177 418.501 368.984 418.575 368.755 418.575C368.525 418.575 368.336 418.501 368.188 418.352C368.039 418.197 367.965 418.008 367.965 417.785C367.965 417.562 368.039 417.377 368.188 417.228C368.336 417.08 368.525 417.005 368.755 417.005C368.984 417.005 369.177 417.083 369.332 417.238C369.487 417.387 369.565 417.569 369.565 417.785C369.565 418.008 369.487 418.197 369.332 418.352ZM368.117 424.459V419.355H369.393V424.459H368.117ZM374.73 423.801C374.231 424.294 373.593 424.54 372.816 424.54C372.04 424.54 371.402 424.294 370.902 423.801C370.403 423.301 370.153 422.67 370.153 421.907C370.153 421.144 370.403 420.516 370.902 420.023C371.402 419.524 372.04 419.274 372.816 419.274C373.593 419.274 374.231 419.524 374.73 420.023C375.23 420.516 375.48 421.144 375.48 421.907C375.48 422.67 375.23 423.301 374.73 423.801ZM371.814 423.021C372.07 423.298 372.404 423.436 372.816 423.436C373.228 423.436 373.559 423.294 373.809 423.011C374.065 422.727 374.194 422.359 374.194 421.907C374.194 421.455 374.065 421.087 373.809 420.803C373.559 420.52 373.228 420.378 372.816 420.378C372.404 420.378 372.07 420.52 371.814 420.803C371.564 421.08 371.439 421.448 371.439 421.907C371.439 422.366 371.564 422.737 371.814 423.021ZM376.237 424.459V419.355H377.513V420.125C377.681 419.868 377.904 419.662 378.181 419.507C378.465 419.352 378.782 419.274 379.133 419.274C379.693 419.274 380.142 419.443 380.48 419.78C380.824 420.118 380.996 420.563 380.996 421.117V424.459H379.72V421.421C379.72 421.117 379.633 420.874 379.457 420.692C379.282 420.503 379.045 420.408 378.748 420.408C378.357 420.408 378.053 420.567 377.837 420.884C377.621 421.201 377.513 421.647 377.513 422.221V424.459H376.237ZM383.81 424.54C383.236 424.54 382.756 424.395 382.372 424.105C381.987 423.807 381.723 423.45 381.582 423.031L382.625 422.606C382.706 422.883 382.848 423.109 383.05 423.284C383.253 423.46 383.506 423.548 383.81 423.548C384.046 423.548 384.235 423.494 384.377 423.386C384.525 423.271 384.6 423.132 384.6 422.97C384.6 422.795 384.502 422.656 384.306 422.555C384.117 422.454 383.887 422.373 383.617 422.312C383.347 422.245 383.074 422.164 382.797 422.069C382.527 421.974 382.294 421.812 382.098 421.583C381.909 421.353 381.815 421.06 381.815 420.702C381.815 420.29 381.98 419.949 382.311 419.679C382.642 419.409 383.081 419.274 383.627 419.274C384.127 419.274 384.566 419.389 384.944 419.618C385.329 419.848 385.575 420.148 385.683 420.52L384.65 420.955C384.583 420.725 384.454 420.547 384.265 420.418C384.076 420.283 383.87 420.216 383.648 420.216C383.445 420.216 383.28 420.26 383.151 420.347C383.03 420.428 382.969 420.54 382.969 420.682C382.969 420.844 383.064 420.969 383.253 421.056C383.448 421.144 383.681 421.218 383.951 421.279C384.228 421.333 384.505 421.407 384.782 421.502C385.059 421.596 385.292 421.765 385.481 422.008C385.676 422.251 385.774 422.565 385.774 422.95C385.774 423.396 385.592 423.774 385.227 424.084C384.863 424.388 384.39 424.54 383.81 424.54Z" fill="#6029D7"/>
<defs>
<filter id="filter0_f_36_2" x="0.643555" y="0.321777" filterUnits="userSpaceOnUse" color-interpolation-filters="sRGB">
<feFlood flood-opacity="0" result="BackgroundImageFix"/>
<feBlend mode="normal" in="SourceGraphic" in2="BackgroundImageFix" result="shape"/>
<feGaussianBlur stdDeviation="89.0386" result="effect1_foregroundBlur_36_2"/>
</filter>
<filter id="filter1_f_36_2" x="136.68" y="59.8176" filterUnits="userSpaceOnUse" color-interpolation-filters="sRGB">
<feFlood flood-opacity="0" result="BackgroundImageFix"/>
<feBlend mode="normal" in="SourceGraphic" in2="BackgroundImageFix" result="shape"/>
<feGaussianBlur stdDeviation="66.7789" result="effect1_foregroundBlur_36_2"/>
</filter>
<filter id="filter2_f_36_2" x="219.217" y="142.354" filterUnits="userSpaceOnUse" color-interpolation-filters="sRGB">
<feFlood flood-opacity="0" result="BackgroundImageFix"/>
<feBlend mode="normal" in="SourceGraphic" in2="BackgroundImageFix" result="shape"/>
<feGaussianBlur stdDeviation="39.5495" result="effect1_foregroundBlur_36_2"/>
</filter>
<filter id="filter3_f_36_2" x="129.932" y="308.161" filterUnits="userSpaceOnUse" color-interpolation-filters="sRGB">
<feFlood flood-opacity="0" result="BackgroundImageFix"/>
<feBlend mode="normal" in="SourceGraphic" in2="BackgroundImageFix" result="shape"/>
<feGaussianBlur stdDeviation="20.2541" result="effect1_foregroundBlur_36_2"/>
</filter>
<filter id="filter4_b_36_2" x="134.674" y="203.092" filterUnits="userSpaceOnUse" color-interpolation-filters="sRGB">
<feFlood flood-opacity="0" result="BackgroundImageFix"/>
<feGaussianBlur in="BackgroundImageFix" stdDeviation="40.5082"/>
<feComposite in2="SourceAlpha" operator="in" result="effect1_backgroundBlur_36_2"/>
<feBlend mode="normal" in="SourceGraphic" in2="effect1_backgroundBlur_36_2" result="shape"/>
</filter>
<filter id="filter5_f_36_2" x="403.376" y="270.121" filterUnits="userSpaceOnUse" color-interpolation-filters="sRGB">
<feFlood flood-opacity="0" result="BackgroundImageFix"/>
<feBlend mode="normal" in="SourceGraphic" in2="BackgroundImageFix" result="shape"/>
<feGaussianBlur stdDeviation="20.2541" result="effect1_foregroundBlur_36_2"/>
</filter>
<filter id="filter6_b_36_2" x="352.698" y="266.403" filterUnits="userSpaceOnUse" color-interpolation-filters="sRGB">
<feFlood flood-opacity="0" result="BackgroundImageFix"/>
<feGaussianBlur in="BackgroundImageFix" stdDeviation="40.5082"/>
<feComposite in2="SourceAlpha" operator="in" result="effect1_backgroundBlur_36_2"/>
<feBlend mode="normal" in="SourceGraphic" in2="effect1_backgroundBlur_36_2" result="shape"/>
</filter>
<filter id="filter7_f_36_2" x="412.798" y="256.927" filterUnits="userSpaceOnUse" color-interpolation-filters="sRGB">
<feFlood flood-opacity="0" result="BackgroundImageFix"/>
<feBlend mode="normal" in="SourceGraphic" in2="BackgroundImageFix" result="shape"/>
<feGaussianBlur stdDeviation="20.2541" result="effect1_foregroundBlur_36_2"/>
</filter>
<filter id="filter8_b_36_2" x="264.425" y="73.3684" filterUnits="userSpaceOnUse" color-interpolation-filters="sRGB">
<feFlood flood-opacity="0" result="BackgroundImageFix"/>
<feGaussianBlur in="BackgroundImageFix" stdDeviation="40.5082"/>
<feComposite in2="SourceAlpha" operator="in" result="effect1_backgroundBlur_36_2"/>
<feBlend mode="normal" in="SourceGraphic" in2="effect1_backgroundBlur_36_2" result="shape"/>
</filter>
<filter id="filter9_f_36_2" x="66.2667" y="292.191" filterUnits="userSpaceOnUse" color-interpolation-filters="sRGB">
<feFlood flood-opacity="0" result="BackgroundImageFix"/>
<feBlend mode="normal" in="SourceGraphic" in2="BackgroundImageFix" result="shape"/>
<feGaussianBlur stdDeviation="20.2541" result="effect1_foregroundBlur_36_2"/>
</filter>
<filter id="filter10_f_36_2" x="150.39" y="236.044" filterUnits="userSpaceOnUse" color-interpolation-filters="sRGB">
<feFlood flood-opacity="0" result="BackgroundImageFix"/>
<feBlend mode="normal" in="SourceGraphic" in2="BackgroundImageFix" result="shape"/>
<feGaussianBlur stdDeviation="20.2541" result="effect1_foregroundBlur_36_2"/>
</filter>
<filter id="filter11_b_36_2" x="79.4568" y="215.551" filterUnits="userSpaceOnUse" color-interpolation-filters="sRGB">
<feFlood flood-opacity="0" result="BackgroundImageFix"/>
<feGaussianBlur in="BackgroundImageFix" stdDeviation="40.5082"/>
<feComposite in2="SourceAlpha" operator="in" result="effect1_backgroundBlur_36_2"/>
<feBlend mode="normal" in="SourceGraphic" in2="effect1_backgroundBlur_36_2" result="shape"/>
</filter>
<filter id="filter12_f_36_2" x="69.1964" y="125.44" filterUnits="userSpaceOnUse" color-interpolation-filters="sRGB">
<feFlood flood-opacity="0" result="BackgroundImageFix"/>
<feBlend mode="normal" in="SourceGraphic" in2="BackgroundImageFix" result="shape"/>
<feGaussianBlur stdDeviation="20.2541" result="effect1_foregroundBlur_36_2"/>
</filter>
<filter id="filter13_b_36_2" x="78.7947" y="49.9836" filterUnits="userSpaceOnUse" color-interpolation-filters="sRGB">
<feFlood flood-opacity="0" result="BackgroundImageFix"/>
<feGaussianBlur in="BackgroundImageFix" stdDeviation="40.5082"/>
<feComposite in2="SourceAlpha" operator="in" result="effect1_backgroundBlur_36_2"/>
<feBlend mode="normal" in="SourceGraphic" in2="effect1_backgroundBlur_36_2" result="shape"/>
</filter>
<radialGradient id="paint0_radial_36_2" cx="0" cy="0" r="1" gradientUnits="userSpaceOnUse" gradientTransform="translate(354.802 259.399) rotate(90) scale(84.5303 97.631)">
<stop stop-color="#411548" stop-opacity="0.43"/>
<stop offset="1" stop-color="white" stop-opacity="0"/>
</radialGradient>
<linearGradient id="paint1_linear_36_2" x1="334.59" y1="331.276" x2="431.809" y2="452.114" gradientUnits="userSpaceOnUse">
<stop stop-color="white"/>
<stop offset="1" stop-color="#EEC9FF" stop-opacity="0.79"/>
</linearGradient>
<linearGradient id="paint2_linear_36_2" x1="278.159" y1="320.652" x2="357.043" y2="456.313" gradientUnits="userSpaceOnUse">
<stop offset="0.607186" stop-color="#FBF8FE"/>
<stop offset="1" stop-color="white"/>
</linearGradient>
<linearGradient id="paint3_linear_36_2" x1="462.582" y1="363.099" x2="496.053" y2="393.214" gradientUnits="userSpaceOnUse">
<stop stop-color="white"/>
<stop offset="1" stop-color="#EEC9FF" stop-opacity="0.79"/>
</linearGradient>
<linearGradient id="paint4_linear_36_2" x1="448.965" y1="359.287" x2="479.036" y2="396.755" gradientUnits="userSpaceOnUse">
<stop offset="0.607186" stop-color="#FBF8FE"/>
<stop offset="1" stop-color="white"/>
</linearGradient>
<linearGradient id="paint5_linear_36_2" x1="421.635" y1="205.621" x2="525.173" y2="281.082" gradientUnits="userSpaceOnUse">
<stop stop-color="white"/>
<stop offset="1" stop-color="#EEC9FF" stop-opacity="0.79"/>
</linearGradient>
<linearGradient id="paint6_linear_36_2" x1="385.697" y1="193.707" x2="485.027" y2="293.91" gradientUnits="userSpaceOnUse">
<stop offset="0.607186" stop-color="#FBF8FE"/>
<stop offset="1" stop-color="white"/>
</linearGradient>
<linearGradient id="paint7_linear_36_2" x1="210.336" y1="295.688" x2="210.104" y2="426.102" gradientUnits="userSpaceOnUse">
<stop stop-color="white"/>
<stop offset="1" stop-color="#FFD8F2" stop-opacity="0.79"/>
</linearGradient>
<linearGradient id="paint8_linear_36_2" x1="244.305" y1="307.395" x2="172.231" y2="381.292" gradientUnits="userSpaceOnUse">
<stop stop-color="white"/>
<stop offset="1" stop-color="#F0E1FF" stop-opacity="0.79"/>
</linearGradient>
<linearGradient id="paint9_linear_36_2" x1="303.043" y1="331.437" x2="167.101" y2="365.816" gradientUnits="userSpaceOnUse">
<stop stop-color="white"/>
<stop offset="1" stop-color="white" stop-opacity="0"/>
</linearGradient>
<linearGradient id="paint10_linear_36_2" x1="289.01" y1="185.527" x2="402.814" y2="318.451" gradientUnits="userSpaceOnUse">
<stop stop-color="white"/>
<stop offset="1" stop-color="#EEC9FF" stop-opacity="0.79"/>
</linearGradient>
<linearGradient id="paint11_linear_36_2" x1="227.86" y1="173.045" x2="321.886" y2="325.094" gradientUnits="userSpaceOnUse">
<stop offset="0.607186" stop-color="#FBF8FE"/>
<stop offset="1" stop-color="white"/>
</linearGradient>
</defs>
</svg>