<svg viewBox="0 0 1544 1544" fill="none" xmlns="http://www.w3.org/2000/svg">
<g opacity="0.34" filter="url(#filter0_f_35_32)">
<circle cx="771.957" cy="771.944" r="371.474" fill="#C36EFF"/>
</g>
<g filter="url(#filter1_f_35_32)">
<circle cx="760.725" cy="588.784" r="154.674" fill="#F25CFF"/>
</g>
<g filter="url(#filter2_f_35_32)">
<circle cx="760.725" cy="588.784" r="91.6053" fill="#FF5C5C"/>
</g>
<path opacity="0.5" d="M602.997 449.502L602.997 771.944M651.537 449.502L651.537 771.944M700.076 449.502L700.076 771.944M748.616 449.502L748.616 771.944M797.156 449.502L797.156 771.944M845.695 449.502L845.695 771.944M894.235 449.502V771.944M942.774 449.502V771.944M991.314 449.502V771.944M1020.78 465.104H571.215M1020.78 513.644H571.215M1020.78 562.183H571.215M1020.78 610.723H571.215M1020.78 659.262H571.215M1020.78 707.802H571.215M1020.78 756.342H571.215" stroke="url(#paint0_radial_35_32)" stroke-opacity="0.5"/>
<mask id="mask0_35_32" style="mask-type:alpha" maskUnits="userSpaceOnUse" x="483" y="637" width="542" height="417">
<path d="M483.438 956.035C551.245 1016.58 640.768 1053.29 738.826 1053.04C835.611 1052.8 923.904 1016.6 991.089 957.123L1024.41 917.436L972.044 846.621L1009.52 797.519L924.715 721.86L924.507 721.676L924.438 721.407L903.107 637.86L774.589 646.689L683.448 772.012L682.803 771.772L579.988 733.705L551.696 883.12L551.63 883.469L551.344 883.682L488.215 930.441L483.438 956.035Z" fill="white"/>
</mask>
<g mask="url(#mask0_35_32)" id="frag-4">
<g filter="url(#filter3_f_35_32)">
<circle cx="495.185" cy="896.236" r="113.283" transform="rotate(9.96316 495.185 896.236)" fill="#8247FF"/>
</g>
<g filter="url(#filter4_b_35_32)">
<path d="M483.541 955.481C483.477 955.825 483.597 956.178 483.858 956.41C551.615 1016.73 640.971 1053.29 738.826 1053.04C835.584 1052.8 923.856 1016.62 991.034 957.172C991.07 957.139 991.105 957.104 991.137 957.066L1023.9 918.041C1024.2 917.686 1024.21 917.174 1023.94 916.802L972.959 848.019C972.688 847.655 972.698 847.154 972.981 846.799L1009.91 800.633C1010.24 800.221 1010.2 799.624 1009.81 799.269L924.715 721.86V721.86C924.579 721.74 924.483 721.582 924.438 721.407V721.407L903.313 638.668C903.194 638.2 902.757 637.884 902.276 637.917L775.055 646.657C774.76 646.677 774.489 646.827 774.315 647.066L683.854 771.455C683.614 771.784 683.184 771.914 682.803 771.772V771.772L581.098 734.116C580.518 733.901 579.883 734.26 579.768 734.868L551.696 883.12V883.12C551.653 883.345 551.528 883.545 551.344 883.682V883.682L488.531 930.207C488.328 930.358 488.189 930.579 488.143 930.827L483.541 955.481Z" fill="url(#paint1_linear_35_32)" fill-opacity="0.8"/>
<path d="M484.191 956.037C551.859 1016.28 641.097 1052.79 738.824 1052.54C835.457 1052.3 923.612 1016.17 990.702 956.798C990.721 956.781 990.738 956.764 990.754 956.745L1023.52 917.719C1023.66 917.542 1023.67 917.286 1023.53 917.1L972.557 848.317C972.151 847.77 972.165 847.018 972.591 846.487L1009.52 800.321C1009.69 800.115 1009.66 799.816 1009.47 799.639L924.384 722.235C924.383 722.234 924.382 722.233 924.381 722.232C924.172 722.046 924.023 721.801 923.954 721.53L902.829 638.791C902.769 638.558 902.551 638.4 902.31 638.416L775.089 647.155C774.941 647.166 774.806 647.24 774.719 647.36L684.258 771.749C683.887 772.26 683.221 772.461 682.629 772.241L484.191 956.037ZM484.191 956.037C484.061 955.921 484 955.745 484.033 955.573L488.634 930.919C488.658 930.795 488.727 930.684 488.828 930.609L551.642 884.083L551.344 883.682L551.642 884.083C551.926 883.872 552.121 883.562 552.187 883.214L551.696 883.12L552.188 883.213L580.259 734.961C580.317 734.657 580.634 734.478 580.924 734.585L682.628 772.241L484.191 956.037Z" stroke="url(#paint2_linear_35_32)"/>
</g>
</g>
<mask id="mask1_35_32" style="mask-type:alpha" maskUnits="userSpaceOnUse" x="973" y="779" width="132" height="143">
<path d="M1026.16 921.092C1061.61 880.653 1088.67 832.655 1104.6 779.793L1010.53 799.867L973.009 847.851L1024.15 918.75C1025.46 920.56 1025.47 920.238 1026.16 921.092Z" fill="white"/>
</mask>
<g mask="url(#mask1_35_32)" id="frag-5">
<g filter="url(#filter5_f_35_32)">
<circle cx="1079.83" cy="781.218" r="83.711" transform="rotate(-24.4813 1079.83 781.218)" fill="#B694FF"/>
</g>
<g filter="url(#filter6_b_35_32)">
<path d="M1025.35 920.236C1025.78 920.679 1026.54 920.667 1026.94 920.201C1061.64 880.362 1088.23 833.248 1104.11 781.412C1104.33 780.685 1103.69 779.987 1102.94 780.146L1010.88 799.791C1010.66 799.84 1010.45 799.968 1010.31 800.153L973.472 847.259C973.197 847.609 973.188 848.099 973.448 848.46L1024.15 918.75C1024.77 919.605 1025.1 919.984 1025.35 920.236Z" fill="url(#paint3_linear_35_32)" fill-opacity="0.8"/>
<path d="M1010.99 800.28L1103.05 780.635C1103.42 780.556 1103.74 780.904 1103.63 781.266C1087.77 833.033 1061.22 880.086 1026.56 919.872C1026.36 920.113 1025.94 920.127 1025.7 919.887C1025.48 919.659 1025.17 919.302 1024.56 918.457L973.854 848.167C973.724 847.987 973.728 847.742 973.865 847.567L1010.7 800.461C1010.77 800.368 1010.87 800.304 1010.99 800.28Z" stroke="url(#paint4_linear_35_32)"/>
</g>
</g>
<mask id="mask2_35_32" style="mask-type:alpha" maskUnits="userSpaceOnUse" x="774" y="345" width="346" height="457">
<path d="M1105.04 780.515C1114.64 747.156 1119.83 711.921 1119.92 675.481C1120.26 535.125 1044.9 412.257 932.293 345.536L944.774 411.133L944.506 411.461L899.624 466.711L899.48 466.889L899.27 466.977L775.288 518.741L774.971 648.572L886.32 665.607L925.771 725.277L1010.27 801.418L1105.04 780.515Z" fill="white"/>
</mask>
<g mask="url(#mask2_35_32)" id="frag-2">
<g filter="url(#filter7_f_35_32)">
<circle cx="1103.7" cy="754.292" r="86.4407" transform="rotate(1.09563 1103.7 754.292)" fill="#D2BCFF"/>
</g>
<g filter="url(#filter8_b_35_32)">
<path d="M1104.45 780.643C1104.81 780.564 1105.1 780.296 1105.2 779.943C1114.7 746.754 1119.83 711.713 1119.92 675.481C1120.26 535.917 1045.74 413.646 934.197 346.672C933.459 346.229 932.546 346.867 932.707 347.713L944.695 410.718C944.745 410.981 944.676 411.253 944.506 411.461V411.461L899.624 466.711V466.711C899.53 466.827 899.408 466.919 899.27 466.977V466.977L775.901 518.485C775.53 518.64 775.288 519.003 775.287 519.405L774.973 647.711C774.972 648.206 775.333 648.627 775.822 648.702L885.882 665.539C886.161 665.582 886.409 665.741 886.565 665.976L925.701 725.171C925.748 725.241 925.803 725.306 925.866 725.362L1009.89 801.073C1010.13 801.289 1010.46 801.376 1010.77 801.307L1104.45 780.643Z" fill="url(#paint5_linear_35_32)" fill-opacity="0.8"/>
<path d="M1119.42 675.48C1119.33 711.665 1114.21 746.66 1104.72 779.806C1104.67 779.981 1104.53 780.115 1104.35 780.155L1010.67 800.818C1010.51 800.853 1010.34 800.81 1010.22 800.702L926.201 724.991C926.169 724.962 926.142 724.93 926.118 724.895L886.982 665.701C886.748 665.347 886.376 665.109 885.957 665.045L775.898 648.208C775.653 648.17 775.473 647.96 775.473 647.712L775.787 519.406C775.787 519.205 775.908 519.024 776.094 518.946L899.463 467.438L899.27 466.977L899.464 467.438C899.678 467.348 899.866 467.206 900.012 467.027L899.628 466.715L900.012 467.027L944.894 411.777C945.157 411.455 945.263 411.033 945.186 410.624L933.198 347.62C933.118 347.197 933.573 346.881 933.94 347.101C1045.34 413.988 1119.76 536.099 1119.42 675.48Z" stroke="url(#paint6_linear_35_32)"/>
</g>
</g>
<mask id="mask3_35_32" style="mask-type:alpha" maskUnits="userSpaceOnUse" x="359" y="663" width="225" height="294">
<path d="M359.495 682.404C362.149 790.53 409.732 887.548 484.306 955.461L489.05 930.624L489.117 930.273L489.405 930.062L552.735 883.571L581.707 734.054L511.76 665.901L359.495 682.404Z" fill="url(#paint7_linear_35_32)"/>
<path d="M488.848 929.906L488.703 930.012L488.67 930.188L488.603 930.539L488.603 930.54L484.011 954.576C409.967 886.858 362.716 790.349 359.96 682.811L511.596 666.376L581.214 734.208L552.322 883.31L489.136 929.695L489.136 929.695L488.848 929.906Z" stroke="white" stroke-opacity="0.49" stroke-width="0.909902"/>
</mask>
<g mask="url(#mask3_35_32)" id="frag-3">
<g filter="url(#filter9_f_35_32)">
<circle cx="342.164" cy="850.348" r="103.274" transform="rotate(8.22417 342.164 850.348)" fill="#FFA0FB"/>
</g>
<g filter="url(#filter10_f_35_32)">
<circle cx="478.343" cy="671.449" r="50.4996" transform="rotate(8.22417 478.343 671.449)" fill="#7350FF"/>
</g>
<g filter="url(#filter11_b_35_32)">
<path d="M359.495 682.404C362.149 790.53 409.732 887.548 484.306 955.461L489.05 930.624L489.117 930.273L489.405 930.062L552.735 883.571L581.707 734.054L511.76 665.901L359.495 682.404Z" fill="url(#paint8_linear_35_32)" fill-opacity="0.8"/>
<path d="M489.405 930.062L489.402 930.058L489.405 930.062ZM489.405 930.062L489.117 930.273L489.05 930.624L489.405 930.062ZM488.579 929.538L488.289 929.751L488.223 930.104L488.157 930.454L488.156 930.456L483.717 953.69C410.202 886.168 363.283 790.168 360.426 683.218L511.432 666.852L580.72 734.363L551.909 883.048L488.868 929.327L488.866 929.328L488.579 929.538Z" stroke="url(#paint9_linear_35_32)" stroke-opacity="0.8" stroke-width="1.8198"/>
</g>
</g>
<mask id="mask4_35_32" style="mask-type:alpha" maskUnits="userSpaceOnUse" x="358" y="294" width="587" height="481">
<path d="M931.805 345.451C875.468 312.735 810.005 294 740.166 294C529.106 294 358.007 465.098 358.007 676.159C358.007 678.975 358.038 681.784 358.098 684.585L511.031 667.735L581.93 736.57L684.835 774.961L775.494 650.949V519.051L776.05 518.817L900.252 466.605L944.588 411.753L931.805 345.451Z" fill="white"/>
</mask>
<g mask="url(#mask4_35_32)" id="frag-1">
<g filter="url(#filter12_f_35_32)">
<ellipse cx="413.334" cy="539.468" rx="167.877" ry="166.967" fill="#BAB4FF"/>
</g>
<g filter="url(#filter13_b_35_32)">
<path d="M931.892 345.898C931.837 345.614 931.662 345.368 931.412 345.223C875.163 312.648 809.842 294 740.166 294C529.106 294 358.007 465.098 358.007 676.159C358.007 678.609 358.03 681.054 358.076 683.493C358.087 684.08 358.6 684.53 359.184 684.466L510.563 667.787C510.859 667.754 511.155 667.855 511.369 668.063L581.78 736.424C581.879 736.521 581.997 736.595 582.127 736.644L684.125 774.697C684.545 774.853 685.017 774.712 685.282 774.35L775.301 651.213C775.427 651.041 775.494 650.835 775.494 650.622V519.655C775.494 519.289 775.713 518.959 776.05 518.817V518.817L900.02 466.703C900.172 466.639 900.306 466.538 900.41 466.409L944.296 412.115C944.482 411.886 944.556 411.586 944.5 411.297L931.892 345.898Z" fill="url(#paint10_linear_35_32)" fill-opacity="0.8"/>
<path d="M740.166 294.5C809.752 294.5 874.987 313.123 931.161 345.656C931.286 345.728 931.373 345.851 931.401 345.993L944.009 411.391C944.037 411.536 944 411.686 943.907 411.8L900.021 466.095C899.969 466.159 899.902 466.21 899.826 466.242L775.857 518.356L776.05 518.817L775.856 518.356C775.334 518.576 774.994 519.088 774.994 519.655V650.622C774.994 650.729 774.96 650.832 774.898 650.918L684.878 774.055C684.746 774.236 684.509 774.306 684.3 774.228L582.302 736.175C582.237 736.151 582.178 736.114 582.128 736.066L511.717 667.704C511.396 667.393 510.953 667.241 510.508 667.29L359.129 683.969C358.837 684.001 358.581 683.776 358.576 683.484C358.53 681.048 358.507 678.606 358.507 676.159C358.507 465.374 529.382 294.5 740.166 294.5Z" stroke="url(#paint11_linear_35_32)"/>
</g>
</g>
<path d="M509.574 512.65C507.345 512.65 505.465 511.937 503.933 510.511C502.417 509.086 501.658 507.084 501.658 504.506C501.658 501.943 502.424 499.949 503.956 498.524C505.488 497.083 507.36 496.363 509.574 496.363C511.47 496.363 513.055 496.848 514.329 497.818C515.603 498.774 516.376 500.055 516.649 501.663L513.578 502.3C513.381 501.284 512.918 500.487 512.19 499.911C511.478 499.32 510.606 499.024 509.574 499.024C508.179 499.024 507.034 499.509 506.14 500.48C505.245 501.435 504.798 502.777 504.798 504.506C504.798 506.235 505.237 507.577 506.117 508.532C507.012 509.488 508.164 509.966 509.574 509.966C510.606 509.966 511.463 509.7 512.145 509.169C512.827 508.639 513.275 507.903 513.487 506.963L516.603 507.645C516.209 509.207 515.39 510.436 514.147 511.33C512.918 512.21 511.394 512.65 509.574 512.65ZM522.824 500.821C524.356 500.821 525.577 501.23 526.487 502.049C527.412 502.853 527.874 503.998 527.874 505.484V512.468H525.099V510.807C524.781 511.368 524.303 511.816 523.666 512.149C523.044 512.483 522.377 512.65 521.664 512.65C520.542 512.65 519.624 512.331 518.912 511.694C518.199 511.042 517.843 510.223 517.843 509.238C517.843 507.054 519.549 505.78 522.961 505.416L525.099 505.211V505.098C525.099 504.445 524.894 503.937 524.485 503.573C524.075 503.194 523.522 503.005 522.824 503.005C522.202 503.005 521.679 503.187 521.255 503.551C520.845 503.915 520.61 504.4 520.549 505.007L518.002 504.552C518.184 503.429 518.722 502.527 519.617 501.845C520.527 501.162 521.596 500.821 522.824 500.821ZM522.301 510.534C523.165 510.534 523.848 510.246 524.348 509.67C524.849 509.094 525.099 508.373 525.099 507.509V507.259L522.915 507.509C522.172 507.6 521.603 507.789 521.209 508.077C520.815 508.366 520.618 508.722 520.618 509.147C520.618 509.556 520.769 509.89 521.073 510.148C521.376 510.405 521.785 510.534 522.301 510.534ZM530.219 516.608V501.003H533.085V502.322C533.418 501.867 533.881 501.503 534.472 501.23C535.079 500.958 535.754 500.821 536.497 500.821C538.135 500.821 539.431 501.367 540.387 502.459C541.342 503.536 541.82 504.961 541.82 506.735C541.82 508.495 541.312 509.92 540.296 511.012C539.295 512.104 537.96 512.65 536.292 512.65C534.867 512.65 533.798 512.21 533.085 511.33V516.608H530.219ZM535.951 510.17C536.861 510.17 537.589 509.859 538.135 509.238C538.696 508.601 538.976 507.767 538.976 506.735C538.976 505.704 538.696 504.878 538.135 504.256C537.589 503.619 536.861 503.301 535.951 503.301C535.026 503.301 534.283 503.619 533.722 504.256C533.176 504.878 532.903 505.704 532.903 506.735C532.903 507.767 533.176 508.601 533.722 509.238C534.283 509.859 535.026 510.17 535.951 510.17ZM546.266 498.751C545.917 499.085 545.485 499.251 544.97 499.251C544.454 499.251 544.029 499.085 543.696 498.751C543.362 498.402 543.195 497.978 543.195 497.477C543.195 496.977 543.362 496.56 543.696 496.226C544.029 495.892 544.454 495.726 544.97 495.726C545.485 495.726 545.917 495.9 546.266 496.249C546.615 496.582 546.789 496.992 546.789 497.477C546.789 497.978 546.615 498.402 546.266 498.751ZM543.537 512.468V501.003H546.403V512.468H543.537ZM555.526 512.354C554.98 512.551 554.365 512.65 553.683 512.65C552.47 512.65 551.492 512.316 550.749 511.649C550.006 510.982 549.634 510.003 549.634 508.714V503.414H547.7V501.003H549.634V497.636H552.5V501.003H555.389V503.414H552.5V508.441C552.5 508.972 552.629 509.389 552.887 509.693C553.16 509.981 553.524 510.125 553.979 510.125C554.51 510.125 554.957 510.034 555.321 509.852L555.526 512.354ZM561.301 500.821C562.833 500.821 564.054 501.23 564.964 502.049C565.889 502.853 566.351 503.998 566.351 505.484V512.468H563.576V510.807C563.258 511.368 562.78 511.816 562.143 512.149C561.521 512.483 560.854 512.65 560.141 512.65C559.019 512.65 558.102 512.331 557.389 511.694C556.676 511.042 556.32 510.223 556.32 509.238C556.32 507.054 558.026 505.78 561.438 505.416L563.576 505.211V505.098C563.576 504.445 563.371 503.937 562.962 503.573C562.552 503.194 561.999 503.005 561.301 503.005C560.68 503.005 560.156 503.187 559.732 503.551C559.322 503.915 559.087 504.4 559.027 505.007L556.479 504.552C556.661 503.429 557.199 502.527 558.094 501.845C559.004 501.162 560.073 500.821 561.301 500.821ZM560.778 510.534C561.643 510.534 562.325 510.246 562.825 509.67C563.326 509.094 563.576 508.373 563.576 507.509V507.259L561.392 507.509C560.649 507.6 560.081 507.789 559.686 508.077C559.292 508.366 559.095 508.722 559.095 509.147C559.095 509.556 559.246 509.89 559.55 510.148C559.853 510.405 560.263 510.534 560.778 510.534ZM568.696 512.468V496.363H571.562V512.468H568.696ZM579.007 512.468V496.544H582.1V512.468H579.007ZM588.528 512.65C587.239 512.65 586.163 512.324 585.298 511.672C584.434 511.004 583.842 510.201 583.524 509.26L585.867 508.305C586.049 508.927 586.367 509.435 586.822 509.829C587.277 510.223 587.846 510.42 588.528 510.42C589.059 510.42 589.484 510.299 589.802 510.057C590.136 509.799 590.303 509.488 590.303 509.124C590.303 508.73 590.083 508.419 589.643 508.191C589.218 507.964 588.703 507.782 588.096 507.645C587.49 507.494 586.875 507.312 586.254 507.099C585.647 506.887 585.124 506.523 584.684 506.007C584.259 505.492 584.047 504.832 584.047 504.028C584.047 503.103 584.419 502.338 585.162 501.731C585.905 501.124 586.891 500.821 588.119 500.821C589.241 500.821 590.227 501.079 591.076 501.594C591.941 502.11 592.494 502.785 592.737 503.619L590.416 504.597C590.265 504.082 589.977 503.68 589.552 503.392C589.127 503.088 588.665 502.937 588.164 502.937C587.709 502.937 587.338 503.035 587.05 503.232C586.777 503.414 586.64 503.664 586.64 503.983C586.64 504.347 586.853 504.627 587.277 504.825C587.717 505.022 588.24 505.189 588.847 505.325C589.469 505.446 590.09 505.613 590.712 505.825C591.334 506.038 591.857 506.417 592.282 506.963C592.722 507.509 592.941 508.214 592.941 509.078C592.941 510.079 592.532 510.929 591.713 511.626C590.894 512.309 589.833 512.65 588.528 512.65ZM604.178 510.989C603.056 512.096 601.623 512.65 599.879 512.65C598.135 512.65 596.702 512.096 595.58 510.989C594.458 509.867 593.896 508.449 593.896 506.735C593.896 505.022 594.458 503.611 595.58 502.504C596.702 501.382 598.135 500.821 599.879 500.821C601.623 500.821 603.056 501.382 604.178 502.504C605.301 503.611 605.862 505.022 605.862 506.735C605.862 508.449 605.301 509.867 604.178 510.989ZM597.627 509.238C598.203 509.859 598.954 510.17 599.879 510.17C600.804 510.17 601.547 509.852 602.108 509.215C602.685 508.578 602.973 507.751 602.973 506.735C602.973 505.719 602.685 504.893 602.108 504.256C601.547 503.619 600.804 503.301 599.879 503.301C598.954 503.301 598.203 503.619 597.627 504.256C597.066 504.878 596.785 505.704 596.785 506.735C596.785 507.767 597.066 508.601 597.627 509.238ZM607.562 512.468V496.363H610.428V512.468H607.562ZM617.163 500.821C618.694 500.821 619.915 501.23 620.825 502.049C621.75 502.853 622.213 503.998 622.213 505.484V512.468H619.437V510.807C619.119 511.368 618.641 511.816 618.004 512.149C617.382 512.483 616.715 512.65 616.002 512.65C614.88 512.65 613.963 512.331 613.25 511.694C612.537 511.042 612.181 510.223 612.181 509.238C612.181 507.054 613.887 505.78 617.299 505.416L619.437 505.211V505.098C619.437 504.445 619.233 503.937 618.823 503.573C618.414 503.194 617.86 503.005 617.163 503.005C616.541 503.005 616.018 503.187 615.593 503.551C615.184 503.915 614.948 504.4 614.888 505.007L612.34 504.552C612.522 503.429 613.06 502.527 613.955 501.845C614.865 501.162 615.934 500.821 617.163 500.821ZM616.639 510.534C617.504 510.534 618.186 510.246 618.687 509.67C619.187 509.094 619.437 508.373 619.437 507.509V507.259L617.254 507.509C616.51 507.6 615.942 507.789 615.547 508.077C615.153 508.366 614.956 508.722 614.956 509.147C614.956 509.556 615.108 509.89 615.411 510.148C615.714 510.405 616.124 510.534 616.639 510.534ZM631.159 512.354C630.613 512.551 629.998 512.65 629.316 512.65C628.103 512.65 627.125 512.316 626.382 511.649C625.638 510.982 625.267 510.003 625.267 508.714V503.414H623.333V501.003H625.267V497.636H628.133V501.003H631.022V503.414H628.133V508.441C628.133 508.972 628.262 509.389 628.52 509.693C628.793 509.981 629.157 510.125 629.612 510.125C630.142 510.125 630.59 510.034 630.954 509.852L631.159 512.354ZM635.406 498.751C635.058 499.085 634.625 499.251 634.11 499.251C633.594 499.251 633.17 499.085 632.836 498.751C632.502 498.402 632.336 497.978 632.336 497.477C632.336 496.977 632.502 496.56 632.836 496.226C633.17 495.892 633.594 495.726 634.11 495.726C634.625 495.726 635.058 495.9 635.406 496.249C635.755 496.582 635.93 496.992 635.93 497.477C635.93 497.978 635.755 498.402 635.406 498.751ZM632.677 512.468V501.003H635.543V512.468H632.677ZM647.532 510.989C646.41 512.096 644.977 512.65 643.233 512.65C641.489 512.65 640.056 512.096 638.933 510.989C637.811 509.867 637.25 508.449 637.25 506.735C637.25 505.022 637.811 503.611 638.933 502.504C640.056 501.382 641.489 500.821 643.233 500.821C644.977 500.821 646.41 501.382 647.532 502.504C648.654 503.611 649.215 505.022 649.215 506.735C649.215 508.449 648.654 509.867 647.532 510.989ZM640.981 509.238C641.557 509.859 642.308 510.17 643.233 510.17C644.158 510.17 644.901 509.852 645.462 509.215C646.038 508.578 646.326 507.751 646.326 506.735C646.326 505.719 646.038 504.893 645.462 504.256C644.901 503.619 644.158 503.301 643.233 503.301C642.308 503.301 641.557 503.619 640.981 504.256C640.42 504.878 640.139 505.704 640.139 506.735C640.139 507.767 640.42 508.601 640.981 509.238ZM650.916 512.468V501.003H653.782V502.732C654.161 502.156 654.661 501.693 655.283 501.344C655.92 500.995 656.633 500.821 657.421 500.821C658.68 500.821 659.689 501.2 660.447 501.958C661.22 502.717 661.607 503.718 661.607 504.961V512.468H658.741V505.644C658.741 504.961 658.544 504.415 658.149 504.006C657.755 503.581 657.224 503.369 656.557 503.369C655.677 503.369 654.995 503.725 654.51 504.438C654.025 505.151 653.782 506.152 653.782 507.441V512.468H650.916ZM679.647 512.468L678.35 508.942H672.185L670.889 512.468H667.704L673.823 496.544H676.712L682.831 512.468H679.647ZM673.163 506.326H677.395L675.279 500.594L673.163 506.326ZM688.792 512.65C687.079 512.65 685.676 512.104 684.584 511.012C683.507 509.905 682.969 508.479 682.969 506.735C682.969 504.991 683.507 503.573 684.584 502.482C685.676 501.375 687.079 500.821 688.792 500.821C690.263 500.821 691.477 501.177 692.432 501.89C693.403 502.603 693.986 503.566 694.184 504.779L691.386 505.325C691.28 504.718 690.999 504.233 690.544 503.869C690.104 503.49 689.551 503.301 688.883 503.301C687.989 503.301 687.276 503.611 686.745 504.233C686.214 504.855 685.949 505.689 685.949 506.735C685.949 507.782 686.214 508.616 686.745 509.238C687.276 509.859 687.989 510.17 688.883 510.17C689.551 510.17 690.097 510.003 690.521 509.67C690.961 509.321 691.249 508.836 691.386 508.214L694.184 508.783C693.971 509.981 693.38 510.929 692.409 511.626C691.454 512.309 690.248 512.65 688.792 512.65ZM703.272 503.778C702.863 503.596 702.378 503.505 701.817 503.505C700.937 503.505 700.201 503.9 699.61 504.688C699.034 505.462 698.746 506.652 698.746 508.259V512.468H695.879V501.003H698.746V503.096C699.034 502.444 699.504 501.905 700.156 501.481C700.823 501.041 701.506 500.821 702.203 500.821C702.673 500.821 703.09 500.882 703.454 501.003L703.272 503.778ZM713.933 510.989C712.811 512.096 711.378 512.65 709.634 512.65C707.89 512.65 706.457 512.096 705.335 510.989C704.213 509.867 703.652 508.449 703.652 506.735C703.652 505.022 704.213 503.611 705.335 502.504C706.457 501.382 707.89 500.821 709.634 500.821C711.378 500.821 712.811 501.382 713.933 502.504C715.056 503.611 715.617 505.022 715.617 506.735C715.617 508.449 715.056 509.867 713.933 510.989ZM707.382 509.238C707.958 509.859 708.709 510.17 709.634 510.17C710.559 510.17 711.302 509.852 711.863 509.215C712.44 508.578 712.728 507.751 712.728 506.735C712.728 505.719 712.44 504.893 711.863 504.256C711.302 503.619 710.559 503.301 709.634 503.301C708.709 503.301 707.958 503.619 707.382 504.256C706.821 504.878 706.541 505.704 706.541 506.735C706.541 507.767 706.821 508.601 707.382 509.238ZM721.21 512.65C719.921 512.65 718.844 512.324 717.98 511.672C717.115 511.004 716.524 510.201 716.205 509.26L718.548 508.305C718.73 508.927 719.049 509.435 719.504 509.829C719.959 510.223 720.527 510.42 721.21 510.42C721.74 510.42 722.165 510.299 722.484 510.057C722.817 509.799 722.984 509.488 722.984 509.124C722.984 508.73 722.764 508.419 722.324 508.191C721.9 507.964 721.384 507.782 720.777 507.645C720.171 507.494 719.557 507.312 718.935 507.099C718.328 506.887 717.805 506.523 717.365 506.007C716.941 505.492 716.728 504.832 716.728 504.028C716.728 503.103 717.1 502.338 717.843 501.731C718.586 501.124 719.572 500.821 720.8 500.821C721.922 500.821 722.908 501.079 723.757 501.594C724.622 502.11 725.175 502.785 725.418 503.619L723.098 504.597C722.946 504.082 722.658 503.68 722.233 503.392C721.809 503.088 721.346 502.937 720.846 502.937C720.391 502.937 720.019 503.035 719.731 503.232C719.458 503.414 719.322 503.664 719.322 503.983C719.322 504.347 719.534 504.627 719.959 504.825C720.398 505.022 720.922 505.189 721.528 505.325C722.15 505.446 722.772 505.613 723.393 505.825C724.015 506.038 724.538 506.417 724.963 506.963C725.403 507.509 725.623 508.214 725.623 509.078C725.623 510.079 725.213 510.929 724.394 511.626C723.575 512.309 722.514 512.65 721.21 512.65ZM731.24 512.65C729.951 512.65 728.874 512.324 728.01 511.672C727.145 511.004 726.554 510.201 726.235 509.26L728.578 508.305C728.76 508.927 729.079 509.435 729.534 509.829C729.989 510.223 730.557 510.42 731.24 510.42C731.771 510.42 732.195 510.299 732.514 510.057C732.847 509.799 733.014 509.488 733.014 509.124C733.014 508.73 732.794 508.419 732.355 508.191C731.93 507.964 731.414 507.782 730.808 507.645C730.201 507.494 729.587 507.312 728.965 507.099C728.359 506.887 727.835 506.523 727.396 506.007C726.971 505.492 726.759 504.832 726.759 504.028C726.759 503.103 727.13 502.338 727.873 501.731C728.616 501.124 729.602 500.821 730.83 500.821C731.953 500.821 732.938 501.079 733.788 501.594C734.652 502.11 735.206 502.785 735.448 503.619L733.128 504.597C732.976 504.082 732.688 503.68 732.264 503.392C731.839 503.088 731.376 502.937 730.876 502.937C730.421 502.937 730.049 503.035 729.761 503.232C729.488 503.414 729.352 503.664 729.352 503.983C729.352 504.347 729.564 504.627 729.989 504.825C730.429 505.022 730.952 505.189 731.558 505.325C732.18 505.446 732.802 505.613 733.424 505.825C734.045 506.038 734.569 506.417 734.993 506.963C735.433 507.509 735.653 508.214 735.653 509.078C735.653 510.079 735.243 510.929 734.425 511.626C733.606 512.309 732.544 512.65 731.24 512.65ZM558.913 539.468V523.544H565.169C566.67 523.544 567.876 523.908 568.786 524.636C569.711 525.349 570.173 526.35 570.173 527.639C570.173 528.337 569.984 528.966 569.605 529.527C569.226 530.088 568.771 530.505 568.24 530.778C569.044 531.082 569.696 531.567 570.196 532.234C570.697 532.901 570.947 533.735 570.947 534.736C570.947 536.207 570.439 537.367 569.423 538.217C568.422 539.051 567.08 539.468 565.396 539.468H558.913ZM562.007 529.755H564.941C566.503 529.755 567.284 529.133 567.284 527.889C567.284 526.646 566.488 526.024 564.896 526.024H562.007V529.755ZM562.007 536.784H565.078C567.034 536.784 568.012 536.056 568.012 534.6C568.012 533.114 567.034 532.371 565.078 532.371H562.007V536.784ZM572.673 539.468V523.363H575.539V539.468H572.673ZM587.528 537.989C586.406 539.096 584.973 539.65 583.229 539.65C581.485 539.65 580.052 539.096 578.93 537.989C577.807 536.867 577.246 535.449 577.246 533.735C577.246 532.022 577.807 530.611 578.93 529.504C580.052 528.382 581.485 527.821 583.229 527.821C584.973 527.821 586.406 528.382 587.528 529.504C588.65 530.611 589.212 532.022 589.212 533.735C589.212 535.449 588.65 536.867 587.528 537.989ZM580.977 536.238C581.553 536.859 582.304 537.17 583.229 537.17C584.154 537.17 584.897 536.852 585.458 536.215C586.034 535.578 586.323 534.751 586.323 533.735C586.323 532.719 586.034 531.893 585.458 531.256C584.897 530.619 584.154 530.301 583.229 530.301C582.304 530.301 581.553 530.619 580.977 531.256C580.416 531.878 580.135 532.704 580.135 533.735C580.135 534.767 580.416 535.601 580.977 536.238ZM596.121 539.65C594.407 539.65 593.005 539.104 591.913 538.012C590.836 536.905 590.298 535.479 590.298 533.735C590.298 531.991 590.836 530.573 591.913 529.482C593.005 528.375 594.407 527.821 596.121 527.821C597.592 527.821 598.805 528.177 599.761 528.89C600.731 529.603 601.315 530.566 601.512 531.779L598.714 532.325C598.608 531.718 598.328 531.233 597.873 530.869C597.433 530.49 596.879 530.301 596.212 530.301C595.317 530.301 594.605 530.611 594.074 531.233C593.543 531.855 593.278 532.689 593.278 533.735C593.278 534.782 593.543 535.616 594.074 536.238C594.605 536.859 595.317 537.17 596.212 537.17C596.879 537.17 597.425 537.003 597.85 536.67C598.29 536.321 598.578 535.836 598.714 535.214L601.512 535.783C601.3 536.981 600.709 537.929 599.738 538.626C598.783 539.309 597.577 539.65 596.121 539.65ZM610.965 539.468L607.439 534.418L606.097 535.737V539.468H603.208V523.363H606.097V532.075L610.419 528.003H614.059L609.395 532.53L614.423 539.468H610.965ZM620.047 539.65C618.333 539.65 616.93 539.104 615.839 538.012C614.762 536.905 614.224 535.479 614.224 533.735C614.224 531.991 614.762 530.573 615.839 529.482C616.93 528.375 618.333 527.821 620.047 527.821C621.518 527.821 622.731 528.177 623.687 528.89C624.657 529.603 625.241 530.566 625.438 531.779L622.64 532.325C622.534 531.718 622.253 531.233 621.798 530.869C621.359 530.49 620.805 530.301 620.138 530.301C619.243 530.301 618.53 530.611 618 531.233C617.469 531.855 617.203 532.689 617.203 533.735C617.203 534.782 617.469 535.616 618 536.238C618.53 536.859 619.243 537.17 620.138 537.17C620.805 537.17 621.351 537.003 621.776 536.67C622.215 536.321 622.504 535.836 622.64 535.214L625.438 535.783C625.226 536.981 624.634 537.929 623.664 538.626C622.708 539.309 621.503 539.65 620.047 539.65ZM627.134 539.468V523.363H630V529.777C630.789 528.473 632.002 527.821 633.64 527.821C634.929 527.821 635.96 528.2 636.733 528.958C637.522 529.717 637.916 530.718 637.916 531.961V539.468H635.05V532.666C635.05 531.953 634.845 531.392 634.436 530.983C634.026 530.573 633.473 530.369 632.775 530.369C631.896 530.369 631.213 530.733 630.728 531.461C630.243 532.173 630 533.182 630 534.486V539.468H627.134ZM644.643 527.821C646.174 527.821 647.395 528.23 648.305 529.049C649.23 529.853 649.693 530.998 649.693 532.484V539.468H646.917V537.807C646.599 538.368 646.121 538.816 645.484 539.149C644.863 539.483 644.195 539.65 643.483 539.65C642.36 539.65 641.443 539.331 640.73 538.694C640.017 538.042 639.661 537.223 639.661 536.238C639.661 534.054 641.367 532.78 644.779 532.416L646.917 532.211V532.098C646.917 531.445 646.713 530.937 646.303 530.573C645.894 530.194 645.34 530.005 644.643 530.005C644.021 530.005 643.498 530.187 643.073 530.551C642.664 530.915 642.429 531.4 642.368 532.007L639.82 531.552C640.002 530.429 640.541 529.527 641.435 528.845C642.345 528.162 643.414 527.821 644.643 527.821ZM644.119 537.534C644.984 537.534 645.666 537.246 646.167 536.67C646.667 536.094 646.917 535.373 646.917 534.509V534.259L644.734 534.509C643.991 534.6 643.422 534.789 643.028 535.077C642.633 535.366 642.436 535.722 642.436 536.147C642.436 536.556 642.588 536.89 642.891 537.148C643.194 537.405 643.604 537.534 644.119 537.534ZM654.767 525.751C654.418 526.085 653.986 526.251 653.47 526.251C652.955 526.251 652.53 526.085 652.196 525.751C651.863 525.402 651.696 524.978 651.696 524.477C651.696 523.977 651.863 523.56 652.196 523.226C652.53 522.892 652.955 522.726 653.47 522.726C653.986 522.726 654.418 522.9 654.767 523.249C655.116 523.582 655.29 523.992 655.29 524.477C655.29 524.978 655.116 525.402 654.767 525.751ZM652.037 539.468V528.003H654.903V539.468H652.037ZM657.225 539.468V528.003H660.091V529.732C660.47 529.156 660.97 528.693 661.592 528.344C662.229 527.995 662.942 527.821 663.73 527.821C664.989 527.821 665.998 528.2 666.756 528.958C667.529 529.717 667.916 530.718 667.916 531.961V539.468H665.05V532.644C665.05 531.961 664.853 531.415 664.458 531.006C664.064 530.581 663.533 530.369 662.866 530.369C661.986 530.369 661.304 530.725 660.819 531.438C660.333 532.151 660.091 533.152 660.091 534.441V539.468H657.225ZM674.235 539.65C672.946 539.65 671.869 539.324 671.005 538.672C670.141 538.004 669.549 537.201 669.231 536.26L671.574 535.305C671.756 535.927 672.074 536.435 672.529 536.829C672.984 537.223 673.553 537.42 674.235 537.42C674.766 537.42 675.19 537.299 675.509 537.057C675.843 536.799 676.009 536.488 676.009 536.124C676.009 535.73 675.79 535.419 675.35 535.191C674.925 534.964 674.41 534.782 673.803 534.645C673.196 534.494 672.582 534.312 671.96 534.099C671.354 533.887 670.831 533.523 670.391 533.007C669.966 532.492 669.754 531.832 669.754 531.028C669.754 530.103 670.125 529.338 670.868 528.731C671.612 528.124 672.597 527.821 673.826 527.821C674.948 527.821 675.934 528.079 676.783 528.594C677.647 529.11 678.201 529.785 678.443 530.619L676.123 531.597C675.971 531.082 675.683 530.68 675.259 530.392C674.834 530.088 674.372 529.937 673.871 529.937C673.416 529.937 673.045 530.035 672.757 530.232C672.484 530.414 672.347 530.664 672.347 530.983C672.347 531.347 672.559 531.627 672.984 531.825C673.424 532.022 673.947 532.189 674.554 532.325C675.175 532.446 675.797 532.613 676.419 532.825C677.041 533.038 677.564 533.417 677.988 533.963C678.428 534.509 678.648 535.214 678.648 536.078C678.648 537.079 678.239 537.929 677.42 538.626C676.601 539.309 675.539 539.65 674.235 539.65Z" fill="#6029D7"/>
<path d="M871.588 579.888C869.359 579.888 867.479 579.175 865.947 577.749C864.43 576.324 863.672 574.322 863.672 571.744C863.672 569.181 864.438 567.187 865.97 565.761C867.501 564.321 869.374 563.6 871.588 563.6C873.484 563.6 875.069 564.086 876.342 565.056C877.616 566.012 878.39 567.293 878.663 568.9L875.592 569.537C875.395 568.521 874.932 567.725 874.204 567.149C873.491 566.557 872.619 566.262 871.588 566.262C870.193 566.262 869.048 566.747 868.153 567.718C867.259 568.673 866.811 570.015 866.811 571.744C866.811 573.473 867.251 574.815 868.131 575.77C869.025 576.726 870.178 577.203 871.588 577.203C872.619 577.203 873.476 576.938 874.159 576.407C874.841 575.876 875.289 575.141 875.501 574.201L878.617 574.883C878.223 576.445 877.404 577.673 876.161 578.568C874.932 579.448 873.408 579.888 871.588 579.888ZM890.093 578.227C888.97 579.334 887.537 579.888 885.793 579.888C884.049 579.888 882.616 579.334 881.494 578.227C880.372 577.105 879.811 575.687 879.811 573.973C879.811 572.26 880.372 570.849 881.494 569.742C882.616 568.62 884.049 568.059 885.793 568.059C887.537 568.059 888.97 568.62 890.093 569.742C891.215 570.849 891.776 572.26 891.776 573.973C891.776 575.687 891.215 577.105 890.093 578.227ZM883.541 576.475C884.118 577.097 884.868 577.408 885.793 577.408C886.718 577.408 887.462 577.09 888.023 576.453C888.599 575.816 888.887 574.989 888.887 573.973C888.887 572.957 888.599 572.131 888.023 571.494C887.462 570.857 886.718 570.538 885.793 570.538C884.868 570.538 884.118 570.857 883.541 571.494C882.98 572.115 882.7 572.942 882.7 573.973C882.7 575.004 882.98 575.838 883.541 576.475ZM893.476 579.706V568.241H896.343V569.97C896.722 569.393 897.222 568.931 897.844 568.582C898.481 568.233 899.194 568.059 899.982 568.059C901.241 568.059 902.249 568.438 903.008 569.196C903.781 569.954 904.168 570.955 904.168 572.199V579.706H901.302V572.881C901.302 572.199 901.104 571.653 900.71 571.243C900.316 570.819 899.785 570.607 899.118 570.607C898.238 570.607 897.556 570.963 897.07 571.676C896.585 572.388 896.343 573.389 896.343 574.678V579.706H893.476ZM910.487 579.888C909.198 579.888 908.121 579.561 907.257 578.909C906.392 578.242 905.801 577.438 905.482 576.498L907.825 575.543C908.007 576.165 908.326 576.673 908.781 577.067C909.236 577.461 909.804 577.658 910.487 577.658C911.018 577.658 911.442 577.537 911.761 577.294C912.094 577.037 912.261 576.726 912.261 576.362C912.261 575.967 912.041 575.657 911.602 575.429C911.177 575.202 910.661 575.02 910.055 574.883C909.448 574.731 908.834 574.549 908.212 574.337C907.606 574.125 907.082 573.761 906.643 573.245C906.218 572.73 906.006 572.07 906.006 571.266C906.006 570.341 906.377 569.575 907.12 568.969C907.863 568.362 908.849 568.059 910.077 568.059C911.2 568.059 912.185 568.317 913.035 568.832C913.899 569.348 914.453 570.023 914.695 570.857L912.375 571.835C912.223 571.319 911.935 570.917 911.511 570.629C911.086 570.326 910.623 570.174 910.123 570.174C909.668 570.174 909.296 570.273 909.008 570.47C908.735 570.652 908.599 570.902 908.599 571.221C908.599 571.585 908.811 571.865 909.236 572.062C909.676 572.26 910.199 572.426 910.805 572.563C911.427 572.684 912.049 572.851 912.671 573.063C913.292 573.276 913.816 573.655 914.24 574.201C914.68 574.747 914.9 575.452 914.9 576.316C914.9 577.317 914.49 578.166 913.672 578.864C912.853 579.546 911.791 579.888 910.487 579.888ZM923.16 579.592C922.614 579.789 921.999 579.888 921.317 579.888C920.104 579.888 919.126 579.554 918.383 578.887C917.64 578.219 917.268 577.241 917.268 575.952V570.652H915.334V568.241H917.268V564.874H920.134V568.241H923.023V570.652H920.134V575.679C920.134 576.21 920.263 576.627 920.521 576.93C920.794 577.219 921.158 577.363 921.613 577.363C922.144 577.363 922.591 577.272 922.955 577.09L923.16 579.592ZM932.071 571.016C931.661 570.834 931.176 570.743 930.615 570.743C929.735 570.743 929 571.137 928.408 571.926C927.832 572.699 927.544 573.89 927.544 575.497V579.706H924.678V568.241H927.544V570.334C927.832 569.681 928.302 569.143 928.954 568.718C929.622 568.279 930.304 568.059 931.002 568.059C931.472 568.059 931.889 568.119 932.253 568.241L932.071 571.016ZM937.566 568.059C939.098 568.059 940.319 568.468 941.228 569.287C942.154 570.091 942.616 571.236 942.616 572.722V579.706H939.841V578.045C939.522 578.606 939.045 579.053 938.408 579.387C937.786 579.721 937.119 579.888 936.406 579.888C935.284 579.888 934.366 579.569 933.654 578.932C932.941 578.28 932.584 577.461 932.584 576.475C932.584 574.292 934.29 573.018 937.703 572.654L939.841 572.449V572.335C939.841 571.683 939.636 571.175 939.227 570.811C938.817 570.432 938.264 570.243 937.566 570.243C936.944 570.243 936.421 570.425 935.997 570.789C935.587 571.152 935.352 571.638 935.291 572.244L932.744 571.789C932.926 570.667 933.464 569.765 934.359 569.082C935.269 568.4 936.338 568.059 937.566 568.059ZM937.043 577.772C937.907 577.772 938.59 577.484 939.09 576.908C939.591 576.331 939.841 575.611 939.841 574.747V574.496L937.657 574.747C936.914 574.838 936.345 575.027 935.951 575.315C935.557 575.603 935.36 575.96 935.36 576.384C935.36 576.794 935.511 577.128 935.815 577.385C936.118 577.643 936.527 577.772 937.043 577.772ZM947.69 565.989C947.341 566.322 946.909 566.489 946.394 566.489C945.878 566.489 945.453 566.322 945.12 565.989C944.786 565.64 944.619 565.215 944.619 564.715C944.619 564.214 944.786 563.797 945.12 563.464C945.453 563.13 945.878 562.963 946.394 562.963C946.909 562.963 947.341 563.138 947.69 563.487C948.039 563.82 948.213 564.23 948.213 564.715C948.213 565.215 948.039 565.64 947.69 565.989ZM944.96 579.706V568.241H947.827V579.706H944.96ZM950.148 579.706V568.241H953.014V569.97C953.393 569.393 953.894 568.931 954.516 568.582C955.152 568.233 955.865 568.059 956.654 568.059C957.912 568.059 958.921 568.438 959.679 569.196C960.453 569.954 960.839 570.955 960.839 572.199V579.706H957.973V572.881C957.973 572.199 957.776 571.653 957.382 571.243C956.987 570.819 956.457 570.607 955.789 570.607C954.91 570.607 954.227 570.963 953.742 571.676C953.257 572.388 953.014 573.389 953.014 574.678V579.706H950.148ZM973.96 573.586C973.96 574.041 973.945 574.421 973.915 574.724H965.407C965.528 575.588 965.854 576.263 966.385 576.748C966.916 577.234 967.591 577.476 968.41 577.476C969.077 577.476 969.638 577.325 970.093 577.021C970.548 576.718 970.851 576.286 971.003 575.725L973.687 576.453C973.369 577.529 972.739 578.371 971.799 578.978C970.859 579.584 969.714 579.888 968.364 579.888C966.56 579.888 965.134 579.304 964.088 578.136C963.056 576.953 962.541 575.566 962.541 573.973C962.541 572.366 963.034 570.978 964.019 569.81C965.02 568.643 966.415 568.059 968.205 568.059C970.025 568.059 971.435 568.62 972.436 569.742C973.452 570.849 973.96 572.131 973.96 573.586ZM965.475 572.631H970.889C970.813 571.918 970.548 571.342 970.093 570.902C969.638 570.462 969.009 570.243 968.205 570.243C967.492 570.243 966.893 570.447 966.408 570.857C965.938 571.266 965.627 571.858 965.475 572.631ZM980.518 579.888C978.82 579.888 977.485 579.349 976.515 578.272C975.544 577.181 975.059 575.747 975.059 573.973C975.059 572.199 975.544 570.773 976.515 569.697C977.485 568.605 978.805 568.059 980.473 568.059C981.944 568.059 983.051 568.544 983.794 569.515V563.6H986.66V579.706H983.794V578.386C983.506 578.841 983.066 579.205 982.475 579.478C981.883 579.751 981.231 579.888 980.518 579.888ZM980.928 577.408C981.853 577.408 982.588 577.097 983.134 576.475C983.696 575.838 983.976 575.004 983.976 573.973C983.976 572.942 983.696 572.115 983.134 571.494C982.588 570.857 981.853 570.538 980.928 570.538C980.018 570.538 979.282 570.857 978.721 571.494C978.175 572.115 977.902 572.942 977.902 573.973C977.902 575.004 978.175 575.838 978.721 576.475C979.282 577.097 980.018 577.408 980.928 577.408ZM998.118 579.706V573.109L992.659 563.782H995.98L999.665 570.197L1003.37 563.782H1006.69L1001.21 573.109V579.706H998.118ZM1010.4 565.989C1010.06 566.322 1009.62 566.489 1009.11 566.489C1008.59 566.489 1008.17 566.322 1007.83 565.989C1007.5 565.64 1007.33 565.215 1007.33 564.715C1007.33 564.214 1007.5 563.797 1007.83 563.464C1008.17 563.13 1008.59 562.963 1009.11 562.963C1009.62 562.963 1010.06 563.138 1010.4 563.487C1010.75 563.82 1010.93 564.23 1010.93 564.715C1010.93 565.215 1010.75 565.64 1010.4 565.989ZM1007.67 579.706V568.241H1010.54V579.706H1007.67ZM1023.67 573.586C1023.67 574.041 1023.65 574.421 1023.62 574.724H1015.11C1015.24 575.588 1015.56 576.263 1016.09 576.748C1016.62 577.234 1017.3 577.476 1018.12 577.476C1018.78 577.476 1019.34 577.325 1019.8 577.021C1020.25 576.718 1020.56 576.286 1020.71 575.725L1023.39 576.453C1023.08 577.529 1022.45 578.371 1021.51 578.978C1020.57 579.584 1019.42 579.888 1018.07 579.888C1016.27 579.888 1014.84 579.304 1013.79 578.136C1012.76 576.953 1012.25 575.566 1012.25 573.973C1012.25 572.366 1012.74 570.978 1013.73 569.81C1014.73 568.643 1016.12 568.059 1017.91 568.059C1019.73 568.059 1021.14 568.62 1022.14 569.742C1023.16 570.849 1023.67 572.131 1023.67 573.586ZM1015.18 572.631H1020.6C1020.52 571.918 1020.25 571.342 1019.8 570.902C1019.34 570.462 1018.72 570.243 1017.91 570.243C1017.2 570.243 1016.6 570.447 1016.11 570.857C1015.64 571.266 1015.33 571.858 1015.18 572.631ZM1025.38 579.706V563.6H1028.25V579.706H1025.38ZM1035.41 579.888C1033.71 579.888 1032.38 579.349 1031.41 578.272C1030.44 577.181 1029.95 575.747 1029.95 573.973C1029.95 572.199 1030.44 570.773 1031.41 569.697C1032.38 568.605 1033.7 568.059 1035.37 568.059C1036.84 568.059 1037.95 568.544 1038.69 569.515V563.6H1041.55V579.706H1038.69V578.386C1038.4 578.841 1037.96 579.205 1037.37 579.478C1036.78 579.751 1036.13 579.888 1035.41 579.888ZM1035.82 577.408C1036.75 577.408 1037.48 577.097 1038.03 576.475C1038.59 575.838 1038.87 575.004 1038.87 573.973C1038.87 572.942 1038.59 572.115 1038.03 571.494C1037.48 570.857 1036.75 570.538 1035.82 570.538C1034.91 570.538 1034.18 570.857 1033.62 571.494C1033.07 572.115 1032.8 572.942 1032.8 573.973C1032.8 575.004 1033.07 575.838 1033.62 576.475C1034.18 577.097 1034.91 577.408 1035.82 577.408ZM893.475 606.888C891.139 606.888 889.206 606.122 887.674 604.59C886.157 603.043 885.399 601.095 885.399 598.744C885.399 596.393 886.157 594.452 887.674 592.921C889.206 591.374 891.139 590.6 893.475 590.6C895.795 590.6 897.713 591.374 899.23 592.921C900.761 594.452 901.527 596.393 901.527 598.744C901.527 601.095 900.761 603.043 899.23 604.59C897.713 606.122 895.795 606.888 893.475 606.888ZM889.903 602.657C890.843 603.688 892.034 604.203 893.475 604.203C894.915 604.203 896.098 603.695 897.023 602.679C897.948 601.648 898.411 600.336 898.411 598.744C898.411 597.152 897.948 595.84 897.023 594.809C896.098 593.777 894.915 593.262 893.475 593.262C892.034 593.262 890.843 593.785 889.903 594.831C888.978 595.863 888.516 597.167 888.516 598.744C888.516 600.321 888.978 601.625 889.903 602.657ZM903.263 610.846V595.241H906.129V596.56C906.463 596.105 906.925 595.741 907.516 595.468C908.123 595.195 908.798 595.059 909.541 595.059C911.179 595.059 912.475 595.605 913.431 596.697C914.386 597.773 914.864 599.199 914.864 600.973C914.864 602.732 914.356 604.158 913.34 605.25C912.339 606.342 911.004 606.888 909.336 606.888C907.911 606.888 906.842 606.448 906.129 605.568V610.846H903.263ZM908.995 604.408C909.905 604.408 910.633 604.097 911.179 603.475C911.74 602.838 912.021 602.004 912.021 600.973C912.021 599.942 911.74 599.115 911.179 598.494C910.633 597.857 909.905 597.538 908.995 597.538C908.07 597.538 907.327 597.857 906.766 598.494C906.22 599.115 905.947 599.942 905.947 600.973C905.947 602.004 906.22 602.838 906.766 603.475C907.327 604.097 908.07 604.408 908.995 604.408ZM916.581 610.846V595.241H919.447V596.56C919.781 596.105 920.243 595.741 920.834 595.468C921.441 595.195 922.116 595.059 922.859 595.059C924.497 595.059 925.793 595.605 926.749 596.697C927.704 597.773 928.182 599.199 928.182 600.973C928.182 602.732 927.674 604.158 926.658 605.25C925.657 606.342 924.322 606.888 922.654 606.888C921.229 606.888 920.16 606.448 919.447 605.568V610.846H916.581ZM922.313 604.408C923.223 604.408 923.951 604.097 924.497 603.475C925.058 602.838 925.338 602.004 925.338 600.973C925.338 599.942 925.058 599.115 924.497 598.494C923.951 597.857 923.223 597.538 922.313 597.538C921.388 597.538 920.645 597.857 920.084 598.494C919.538 599.115 919.265 599.942 919.265 600.973C919.265 602.004 919.538 602.838 920.084 603.475C920.645 604.097 921.388 604.408 922.313 604.408ZM939.566 605.227C938.444 606.334 937.011 606.888 935.267 606.888C933.523 606.888 932.09 606.334 930.968 605.227C929.846 604.105 929.284 602.687 929.284 600.973C929.284 599.26 929.846 597.849 930.968 596.742C932.09 595.62 933.523 595.059 935.267 595.059C937.011 595.059 938.444 595.62 939.566 596.742C940.689 597.849 941.25 599.26 941.25 600.973C941.25 602.687 940.689 604.105 939.566 605.227ZM933.015 603.475C933.591 604.097 934.342 604.408 935.267 604.408C936.192 604.408 936.935 604.09 937.496 603.453C938.073 602.816 938.361 601.989 938.361 600.973C938.361 599.957 938.073 599.131 937.496 598.494C936.935 597.857 936.192 597.538 935.267 597.538C934.342 597.538 933.591 597.857 933.015 598.494C932.454 599.115 932.173 599.942 932.173 600.973C932.173 602.004 932.454 602.838 933.015 603.475ZM949.524 597.902C949.312 597.842 949.054 597.811 948.751 597.811C947.886 597.811 947.181 598.19 946.635 598.949C946.089 599.707 945.816 600.89 945.816 602.497V606.706H942.95V595.241H945.816V597.334C946.074 596.666 946.506 596.12 947.113 595.696C947.719 595.271 948.364 595.059 949.046 595.059L949.729 595.127L949.524 597.902ZM958.538 606.592C957.992 606.789 957.378 606.888 956.695 606.888C955.482 606.888 954.504 606.554 953.761 605.887C953.018 605.219 952.646 604.241 952.646 602.952V597.652H950.713V595.241H952.646V591.874H955.512V595.241H958.401V597.652H955.512V602.679C955.512 603.21 955.641 603.627 955.899 603.93C956.172 604.219 956.536 604.363 956.991 604.363C957.522 604.363 957.969 604.272 958.333 604.09L958.538 606.592ZM970.636 595.241V606.706H967.77V604.977C967.391 605.553 966.883 606.016 966.246 606.364C965.624 606.713 964.919 606.888 964.131 606.888C962.887 606.888 961.879 606.508 961.105 605.75C960.332 604.992 959.945 603.991 959.945 602.747V595.241H962.811V602.065C962.811 602.747 963.008 603.301 963.403 603.726C963.797 604.135 964.328 604.34 964.995 604.34C965.875 604.34 966.557 603.983 967.042 603.271C967.527 602.558 967.77 601.557 967.77 600.268V595.241H970.636ZM972.974 606.706V595.241H975.84V596.97C976.219 596.393 976.72 595.931 977.342 595.582C977.979 595.233 978.691 595.059 979.48 595.059C980.739 595.059 981.747 595.438 982.505 596.196C983.279 596.954 983.666 597.955 983.666 599.199V606.706H980.799V599.881C980.799 599.199 980.602 598.653 980.208 598.243C979.814 597.819 979.283 597.607 978.616 597.607C977.736 597.607 977.054 597.963 976.568 598.676C976.083 599.388 975.84 600.389 975.84 601.678V606.706H972.974ZM988.711 592.989C988.362 593.322 987.93 593.489 987.414 593.489C986.899 593.489 986.474 593.322 986.14 592.989C985.807 592.64 985.64 592.215 985.64 591.715C985.64 591.214 985.807 590.797 986.14 590.464C986.474 590.13 986.899 589.963 987.414 589.963C987.93 589.963 988.362 590.138 988.711 590.487C989.06 590.82 989.234 591.23 989.234 591.715C989.234 592.215 989.06 592.64 988.711 592.989ZM985.981 606.706V595.241H988.847V606.706H985.981ZM997.97 606.592C997.424 606.789 996.81 606.888 996.128 606.888C994.914 606.888 993.936 606.554 993.193 605.887C992.45 605.219 992.079 604.241 992.079 602.952V597.652H990.145V595.241H992.079V591.874H994.945V595.241H997.834V597.652H994.945V602.679C994.945 603.21 995.074 603.627 995.331 603.93C995.604 604.219 995.968 604.363 996.423 604.363C996.954 604.363 997.401 604.272 997.765 604.09L997.97 606.592ZM1010.07 600.586C1010.07 601.041 1010.06 601.421 1010.03 601.724H1001.52C1001.64 602.588 1001.97 603.263 1002.5 603.748C1003.03 604.234 1003.7 604.476 1004.52 604.476C1005.19 604.476 1005.75 604.325 1006.2 604.021C1006.66 603.718 1006.96 603.286 1007.11 602.725L1009.8 603.453C1009.48 604.529 1008.85 605.371 1007.91 605.978C1006.97 606.584 1005.83 606.888 1004.48 606.888C1002.67 606.888 1001.25 606.304 1000.2 605.136C999.168 603.953 998.652 602.566 998.652 600.973C998.652 599.366 999.145 597.978 1000.13 596.81C1001.13 595.643 1002.53 595.059 1004.32 595.059C1006.14 595.059 1007.55 595.62 1008.55 596.742C1009.56 597.849 1010.07 599.131 1010.07 600.586ZM1001.59 599.631H1007C1006.92 598.918 1006.66 598.342 1006.2 597.902C1005.75 597.462 1005.12 597.243 1004.32 597.243C1003.6 597.243 1003 597.447 1002.52 597.857C1002.05 598.266 1001.74 598.858 1001.59 599.631ZM1015.68 606.888C1014.39 606.888 1013.31 606.561 1012.45 605.909C1011.58 605.242 1010.99 604.438 1010.67 603.498L1013.02 602.543C1013.2 603.165 1013.52 603.673 1013.97 604.067C1014.43 604.461 1014.99 604.658 1015.68 604.658C1016.21 604.658 1016.63 604.537 1016.95 604.294C1017.28 604.037 1017.45 603.726 1017.45 603.362C1017.45 602.967 1017.23 602.657 1016.79 602.429C1016.37 602.202 1015.85 602.02 1015.24 601.883C1014.64 601.731 1014.02 601.549 1013.4 601.337C1012.8 601.125 1012.27 600.761 1011.83 600.245C1011.41 599.73 1011.2 599.07 1011.2 598.266C1011.2 597.341 1011.57 596.575 1012.31 595.969C1013.05 595.362 1014.04 595.059 1015.27 595.059C1016.39 595.059 1017.38 595.317 1018.22 595.832C1019.09 596.348 1019.64 597.023 1019.89 597.857L1017.57 598.835C1017.41 598.319 1017.13 597.917 1016.7 597.629C1016.28 597.326 1015.81 597.174 1015.31 597.174C1014.86 597.174 1014.49 597.273 1014.2 597.47C1013.93 597.652 1013.79 597.902 1013.79 598.221C1013.79 598.585 1014 598.865 1014.43 599.062C1014.87 599.26 1015.39 599.426 1016 599.563C1016.62 599.684 1017.24 599.851 1017.86 600.063C1018.48 600.276 1019.01 600.655 1019.43 601.201C1019.87 601.747 1020.09 602.452 1020.09 603.316C1020.09 604.317 1019.68 605.166 1018.86 605.864C1018.04 606.546 1016.98 606.888 1015.68 606.888Z" fill="#6029D7"/>
<path d="M698.835 900.23C696.606 900.23 694.726 899.517 693.194 898.092C691.677 896.666 690.919 894.664 690.919 892.086C690.919 889.523 691.685 887.529 693.217 886.104C694.748 884.663 696.621 883.943 698.835 883.943C700.731 883.943 702.316 884.428 703.59 885.398C704.863 886.354 705.637 887.635 705.91 889.243L702.839 889.88C702.642 888.864 702.179 888.067 701.451 887.491C700.739 886.9 699.867 886.604 698.835 886.604C697.44 886.604 696.295 887.089 695.4 888.06C694.506 889.015 694.058 890.357 694.058 892.086C694.058 893.815 694.498 895.157 695.378 896.113C696.272 897.068 697.425 897.546 698.835 897.546C699.867 897.546 700.723 897.28 701.406 896.749C702.088 896.219 702.536 895.483 702.748 894.543L705.864 895.225C705.47 896.787 704.651 898.016 703.408 898.91C702.179 899.79 700.655 900.23 698.835 900.23ZM717.34 898.569C716.218 899.676 714.784 900.23 713.04 900.23C711.297 900.23 709.863 899.676 708.741 898.569C707.619 897.447 707.058 896.029 707.058 894.315C707.058 892.602 707.619 891.191 708.741 890.084C709.863 888.962 711.297 888.401 713.04 888.401C714.784 888.401 716.218 888.962 717.34 890.084C718.462 891.191 719.023 892.602 719.023 894.315C719.023 896.029 718.462 897.447 717.34 898.569ZM710.788 896.818C711.365 897.439 712.115 897.75 713.04 897.75C713.966 897.75 714.709 897.432 715.27 896.795C715.846 896.158 716.134 895.332 716.134 894.315C716.134 893.299 715.846 892.473 715.27 891.836C714.709 891.199 713.966 890.881 713.04 890.881C712.115 890.881 711.365 891.199 710.788 891.836C710.227 892.458 709.947 893.284 709.947 894.315C709.947 895.347 710.227 896.181 710.788 896.818ZM720.723 900.048V888.583H723.59V890.335C724.318 889.046 725.417 888.401 726.888 888.401C728.723 888.401 729.913 889.121 730.459 890.562C730.793 889.94 731.294 889.425 731.961 889.015C732.628 888.606 733.394 888.401 734.258 888.401C735.487 888.401 736.472 888.765 737.215 889.493C737.974 890.206 738.353 891.131 738.353 892.268V900.048H735.487V893.064C735.487 892.367 735.305 891.821 734.941 891.427C734.577 891.032 734.061 890.835 733.394 890.835C732.636 890.835 732.037 891.138 731.597 891.745C731.172 892.352 730.96 893.171 730.96 894.202V900.048H728.094V893.064C728.094 892.367 727.912 891.821 727.548 891.427C727.199 891.032 726.699 890.835 726.046 890.835C725.273 890.835 724.666 891.146 724.227 891.768C723.802 892.374 723.59 893.193 723.59 894.224V900.048H720.723ZM740.684 904.188V888.583H743.55V889.902C743.883 889.447 744.346 889.084 744.937 888.811C745.544 888.538 746.219 888.401 746.962 888.401C748.6 888.401 749.896 888.947 750.852 890.039C751.807 891.116 752.285 892.541 752.285 894.315C752.285 896.075 751.777 897.5 750.761 898.592C749.76 899.684 748.425 900.23 746.757 900.23C745.332 900.23 744.263 899.79 743.55 898.91V904.188H740.684ZM746.416 897.75C747.326 897.75 748.054 897.439 748.6 896.818C749.161 896.181 749.441 895.347 749.441 894.315C749.441 893.284 749.161 892.458 748.6 891.836C748.054 891.199 747.326 890.881 746.416 890.881C745.491 890.881 744.748 891.199 744.187 891.836C743.641 892.458 743.368 893.284 743.368 894.315C743.368 895.347 743.641 896.181 744.187 896.818C744.748 897.439 745.491 897.75 746.416 897.75ZM754.002 900.048V883.943H756.868V900.048H754.002ZM769.994 893.929C769.994 894.384 769.979 894.763 769.949 895.066H761.441C761.562 895.931 761.888 896.605 762.419 897.091C762.95 897.576 763.625 897.819 764.444 897.819C765.111 897.819 765.672 897.667 766.127 897.364C766.582 897.06 766.885 896.628 767.037 896.067L769.721 896.795C769.403 897.872 768.773 898.713 767.833 899.32C766.893 899.927 765.748 900.23 764.398 900.23C762.594 900.23 761.168 899.646 760.122 898.478C759.09 897.295 758.575 895.908 758.575 894.315C758.575 892.708 759.068 891.32 760.053 890.153C761.054 888.985 762.45 888.401 764.239 888.401C766.059 888.401 767.469 888.962 768.47 890.084C769.486 891.191 769.994 892.473 769.994 893.929ZM761.509 892.973H766.923C766.847 892.261 766.582 891.684 766.127 891.245C765.672 890.805 765.043 890.585 764.239 890.585C763.526 890.585 762.927 890.79 762.442 891.199C761.972 891.609 761.661 892.2 761.509 892.973ZM780.913 900.048H777.774L775.499 896.59L773.202 900.048H770.063L773.93 894.247L770.176 888.583H773.27L775.499 891.904L777.706 888.583H780.8L777.046 894.247L780.913 900.048ZM784.978 886.331C784.629 886.665 784.197 886.832 783.682 886.832C783.166 886.832 782.741 886.665 782.408 886.331C782.074 885.982 781.907 885.558 781.907 885.057C781.907 884.557 782.074 884.14 782.408 883.806C782.741 883.472 783.166 883.306 783.682 883.306C784.197 883.306 784.629 883.48 784.978 883.829C785.327 884.162 785.501 884.572 785.501 885.057C785.501 885.558 785.327 885.982 784.978 886.331ZM782.249 900.048V888.583H785.115V900.048H782.249ZM794.238 899.934C793.692 900.131 793.077 900.23 792.395 900.23C791.182 900.23 790.204 899.896 789.461 899.229C788.717 898.562 788.346 897.584 788.346 896.295V890.994H786.412V888.583H788.346V885.216H791.212V888.583H794.101V890.994H791.212V896.022C791.212 896.552 791.341 896.969 791.599 897.273C791.872 897.561 792.236 897.705 792.691 897.705C793.221 897.705 793.669 897.614 794.033 897.432L794.238 899.934ZM803.262 888.583H806.197L800.146 904.188H797.234L799.009 899.593L794.55 888.583H797.667L800.419 895.953L803.262 888.583ZM816.742 888.401C818.273 888.401 819.494 888.811 820.404 889.629C821.329 890.433 821.792 891.578 821.792 893.064V900.048H819.016V898.387C818.698 898.948 818.22 899.396 817.583 899.729C816.961 900.063 816.294 900.23 815.581 900.23C814.459 900.23 813.542 899.911 812.829 899.274C812.116 898.622 811.76 897.803 811.76 896.818C811.76 894.634 813.466 893.36 816.878 892.996L819.016 892.791V892.678C819.016 892.026 818.812 891.518 818.402 891.154C817.993 890.774 817.439 890.585 816.742 890.585C816.12 890.585 815.597 890.767 815.172 891.131C814.763 891.495 814.528 891.98 814.467 892.587L811.919 892.132C812.101 891.009 812.639 890.107 813.534 889.425C814.444 888.742 815.513 888.401 816.742 888.401ZM816.218 898.114C817.083 898.114 817.765 897.826 818.266 897.25C818.766 896.674 819.016 895.953 819.016 895.089V894.839L816.833 895.089C816.09 895.18 815.521 895.369 815.127 895.658C814.732 895.946 814.535 896.302 814.535 896.727C814.535 897.136 814.687 897.47 814.99 897.728C815.293 897.985 815.703 898.114 816.218 898.114ZM824.136 900.048V888.583H827.002V890.312C827.381 889.736 827.882 889.273 828.504 888.924C829.14 888.576 829.853 888.401 830.642 888.401C831.9 888.401 832.909 888.78 833.667 889.538C834.441 890.297 834.827 891.298 834.827 892.541V900.048H831.961V893.224C831.961 892.541 831.764 891.995 831.37 891.586C830.975 891.161 830.445 890.949 829.777 890.949C828.898 890.949 828.215 891.305 827.73 892.018C827.245 892.731 827.002 893.732 827.002 895.021V900.048H824.136ZM841.988 900.23C840.29 900.23 838.955 899.691 837.985 898.615C837.014 897.523 836.529 896.09 836.529 894.315C836.529 892.541 837.014 891.116 837.985 890.039C838.955 888.947 840.275 888.401 841.943 888.401C843.414 888.401 844.521 888.886 845.264 889.857V883.943H848.13V900.048H845.264V898.728C844.976 899.183 844.536 899.547 843.944 899.82C843.353 900.093 842.701 900.23 841.988 900.23ZM842.398 897.75C843.323 897.75 844.058 897.439 844.604 896.818C845.165 896.181 845.446 895.347 845.446 894.315C845.446 893.284 845.165 892.458 844.604 891.836C844.058 891.199 843.323 890.881 842.398 890.881C841.488 890.881 840.752 891.199 840.191 891.836C839.645 892.458 839.372 893.284 839.372 894.315C839.372 895.347 839.645 896.181 840.191 896.818C840.752 897.439 841.488 897.75 842.398 897.75ZM664.46 927.048V911.125H667.554V927.048H664.46ZM669.978 927.048V915.583H672.844V917.312C673.224 916.736 673.724 916.273 674.346 915.924C674.983 915.576 675.695 915.401 676.484 915.401C677.743 915.401 678.751 915.78 679.509 916.538C680.283 917.297 680.67 918.298 680.67 919.541V927.048H677.803V920.224C677.803 919.541 677.606 918.995 677.212 918.586C676.818 918.161 676.287 917.949 675.62 917.949C674.74 917.949 674.058 918.305 673.572 919.018C673.087 919.731 672.844 920.732 672.844 922.021V927.048H669.978ZM693.79 920.929C693.79 921.384 693.775 921.763 693.745 922.066H685.237C685.359 922.931 685.685 923.605 686.215 924.091C686.746 924.576 687.421 924.819 688.24 924.819C688.907 924.819 689.468 924.667 689.923 924.364C690.378 924.06 690.681 923.628 690.833 923.067L693.517 923.795C693.199 924.872 692.57 925.713 691.629 926.32C690.689 926.927 689.544 927.23 688.194 927.23C686.39 927.23 684.964 926.646 683.918 925.478C682.887 924.295 682.371 922.908 682.371 921.315C682.371 919.708 682.864 918.32 683.85 917.153C684.851 915.985 686.246 915.401 688.035 915.401C689.855 915.401 691.265 915.962 692.266 917.084C693.282 918.191 693.79 919.473 693.79 920.929ZM685.305 919.973H690.719C690.644 919.261 690.378 918.684 689.923 918.245C689.468 917.805 688.839 917.585 688.035 917.585C687.322 917.585 686.723 917.79 686.238 918.199C685.768 918.609 685.457 919.2 685.305 919.973ZM696.238 927.048V917.994H694.395V915.583H696.238V914.696C696.238 913.392 696.609 912.376 697.352 911.648C698.111 910.92 699.089 910.556 700.287 910.556C700.863 910.556 701.439 910.639 702.016 910.806L701.811 913.172C701.447 913.02 701.068 912.944 700.674 912.944C700.188 912.944 699.802 913.104 699.513 913.422C699.24 913.741 699.104 914.165 699.104 914.696V915.583H701.834V917.994H699.104V927.048H696.238ZM704.446 927.048V917.994H702.604V915.583H704.446V914.696C704.446 913.392 704.818 912.376 705.561 911.648C706.319 910.92 707.297 910.556 708.496 910.556C709.072 910.556 709.648 910.639 710.224 910.806L710.02 913.172C709.656 913.02 709.277 912.944 708.882 912.944C708.397 912.944 708.01 913.104 707.722 913.422C707.449 913.741 707.313 914.165 707.313 914.696V915.583H710.042V917.994H707.313V927.048H704.446ZM714.384 913.331C714.035 913.665 713.603 913.832 713.087 913.832C712.572 913.832 712.147 913.665 711.813 913.331C711.48 912.982 711.313 912.558 711.313 912.057C711.313 911.557 711.48 911.14 711.813 910.806C712.147 910.472 712.572 910.306 713.087 910.306C713.603 910.306 714.035 910.48 714.384 910.829C714.733 911.162 714.907 911.572 714.907 912.057C714.907 912.558 714.733 912.982 714.384 913.331ZM711.654 927.048V915.583H714.52V927.048H711.654ZM722.051 927.23C720.337 927.23 718.935 926.684 717.843 925.592C716.766 924.485 716.228 923.059 716.228 921.315C716.228 919.571 716.766 918.154 717.843 917.062C718.935 915.955 720.337 915.401 722.051 915.401C723.522 915.401 724.735 915.757 725.691 916.47C726.661 917.183 727.245 918.146 727.442 919.359L724.644 919.905C724.538 919.299 724.257 918.813 723.802 918.449C723.363 918.07 722.809 917.881 722.142 917.881C721.247 917.881 720.534 918.191 720.004 918.813C719.473 919.435 719.207 920.269 719.207 921.315C719.207 922.362 719.473 923.196 720.004 923.818C720.534 924.439 721.247 924.75 722.142 924.75C722.809 924.75 723.355 924.584 723.78 924.25C724.22 923.901 724.508 923.416 724.644 922.794L727.442 923.363C727.23 924.561 726.638 925.509 725.668 926.206C724.712 926.889 723.507 927.23 722.051 927.23ZM731.868 913.331C731.519 913.665 731.087 913.832 730.571 913.832C730.055 913.832 729.631 913.665 729.297 913.331C728.963 912.982 728.797 912.558 728.797 912.057C728.797 911.557 728.963 911.14 729.297 910.806C729.631 910.472 730.055 910.306 730.571 910.306C731.087 910.306 731.519 910.48 731.868 910.829C732.216 911.162 732.391 911.572 732.391 912.057C732.391 912.558 732.216 912.982 731.868 913.331ZM729.138 927.048V915.583H732.004V927.048H729.138ZM745.13 920.929C745.13 921.384 745.115 921.763 745.085 922.066H736.577C736.699 922.931 737.025 923.605 737.556 924.091C738.086 924.576 738.761 924.819 739.58 924.819C740.247 924.819 740.808 924.667 741.263 924.364C741.718 924.06 742.022 923.628 742.173 923.067L744.857 923.795C744.539 924.872 743.91 925.713 742.969 926.32C742.029 926.927 740.884 927.23 739.535 927.23C737.73 927.23 736.304 926.646 735.258 925.478C734.227 924.295 733.711 922.908 733.711 921.315C733.711 919.708 734.204 918.32 735.19 917.153C736.191 915.985 737.586 915.401 739.375 915.401C741.195 915.401 742.605 915.962 743.606 917.084C744.622 918.191 745.13 919.473 745.13 920.929ZM736.646 919.973H742.06C741.984 919.261 741.718 918.684 741.263 918.245C740.808 917.805 740.179 917.585 739.375 917.585C738.663 917.585 738.064 917.79 737.578 918.199C737.108 918.609 736.797 919.2 736.646 919.973ZM746.844 927.048V915.583H749.71V917.312C750.089 916.736 750.589 916.273 751.211 915.924C751.848 915.576 752.561 915.401 753.349 915.401C754.608 915.401 755.617 915.78 756.375 916.538C757.148 917.297 757.535 918.298 757.535 919.541V927.048H754.669V920.224C754.669 919.541 754.472 918.995 754.077 918.586C753.683 918.161 753.152 917.949 752.485 917.949C751.605 917.949 750.923 918.305 750.438 919.018C749.952 919.731 749.71 920.732 749.71 922.021V927.048H746.844ZM765.06 927.23C763.346 927.23 761.943 926.684 760.851 925.592C759.775 924.485 759.236 923.059 759.236 921.315C759.236 919.571 759.775 918.154 760.851 917.062C761.943 915.955 763.346 915.401 765.06 915.401C766.531 915.401 767.744 915.757 768.699 916.47C769.67 917.183 770.254 918.146 770.451 919.359L767.653 919.905C767.547 919.299 767.266 918.813 766.811 918.449C766.372 918.07 765.818 917.881 765.151 917.881C764.256 917.881 763.543 918.191 763.013 918.813C762.482 919.435 762.216 920.269 762.216 921.315C762.216 922.362 762.482 923.196 763.013 923.818C763.543 924.439 764.256 924.75 765.151 924.75C765.818 924.75 766.364 924.584 766.789 924.25C767.228 923.901 767.517 923.416 767.653 922.794L770.451 923.363C770.239 924.561 769.647 925.509 768.677 926.206C767.721 926.889 766.516 927.23 765.06 927.23ZM779.254 915.583H782.188L776.137 931.188H773.225L775 926.593L770.541 915.583H773.658L776.41 922.953L779.254 915.583ZM791.049 913.331C790.701 913.665 790.268 913.832 789.753 913.832C789.237 913.832 788.813 913.665 788.479 913.331C788.145 912.982 787.978 912.558 787.978 912.057C787.978 911.557 788.145 911.14 788.479 910.806C788.813 910.472 789.237 910.306 789.753 910.306C790.268 910.306 790.701 910.48 791.049 910.829C791.398 911.162 791.573 911.572 791.573 912.057C791.573 912.558 791.398 912.982 791.049 913.331ZM788.32 927.048V915.583H791.186V927.048H788.32ZM793.507 927.048V915.583H796.373V917.312C796.753 916.736 797.253 916.273 797.875 915.924C798.512 915.576 799.224 915.401 800.013 915.401C801.272 915.401 802.28 915.78 803.038 916.538C803.812 917.297 804.199 918.298 804.199 919.541V927.048H801.332V920.224C801.332 919.541 801.135 918.995 800.741 918.586C800.347 918.161 799.816 917.949 799.149 917.949C798.269 917.949 797.587 918.305 797.101 919.018C796.616 919.731 796.373 920.732 796.373 922.021V927.048H793.507ZM818.849 927.23C816.619 927.23 814.739 926.517 813.207 925.092C811.691 923.666 810.933 921.664 810.933 919.086C810.933 916.523 811.698 914.529 813.23 913.104C814.762 911.663 816.635 910.943 818.849 910.943C820.744 910.943 822.329 911.428 823.603 912.398C824.877 913.354 825.65 914.635 825.923 916.243L822.852 916.88C822.655 915.864 822.193 915.067 821.465 914.491C820.752 913.9 819.88 913.604 818.849 913.604C817.454 913.604 816.309 914.089 815.414 915.06C814.519 916.015 814.072 917.357 814.072 919.086C814.072 920.815 814.511 922.157 815.391 923.113C816.286 924.068 817.438 924.546 818.849 924.546C819.88 924.546 820.737 924.28 821.419 923.749C822.102 923.219 822.549 922.483 822.761 921.543L825.878 922.225C825.483 923.787 824.664 925.016 823.421 925.91C822.193 926.79 820.668 927.23 818.849 927.23ZM835.078 918.358C834.669 918.176 834.184 918.085 833.623 918.085C832.743 918.085 832.007 918.48 831.416 919.268C830.84 920.042 830.552 921.232 830.552 922.84V927.048H827.685V915.583H830.552V917.676C830.84 917.024 831.31 916.485 831.962 916.061C832.629 915.621 833.312 915.401 834.009 915.401C834.479 915.401 834.896 915.462 835.26 915.583L835.078 918.358ZM845.739 925.569C844.617 926.676 843.184 927.23 841.44 927.23C839.696 927.23 838.263 926.676 837.141 925.569C836.019 924.447 835.458 923.029 835.458 921.315C835.458 919.602 836.019 918.191 837.141 917.084C838.263 915.962 839.696 915.401 841.44 915.401C843.184 915.401 844.617 915.962 845.739 917.084C846.862 918.191 847.423 919.602 847.423 921.315C847.423 923.029 846.862 924.447 845.739 925.569ZM839.188 923.818C839.764 924.439 840.515 924.75 841.44 924.75C842.365 924.75 843.108 924.432 843.669 923.795C844.246 923.158 844.534 922.332 844.534 921.315C844.534 920.299 844.246 919.473 843.669 918.836C843.108 918.199 842.365 917.881 841.44 917.881C840.515 917.881 839.764 918.199 839.188 918.836C838.627 919.458 838.347 920.284 838.347 921.315C838.347 922.347 838.627 923.181 839.188 923.818ZM853.016 927.23C851.727 927.23 850.65 926.904 849.786 926.252C848.921 925.584 848.33 924.781 848.011 923.84L850.354 922.885C850.536 923.507 850.855 924.015 851.31 924.409C851.765 924.803 852.333 925.001 853.016 925.001C853.546 925.001 853.971 924.879 854.29 924.637C854.623 924.379 854.79 924.068 854.79 923.704C854.79 923.31 854.57 922.999 854.13 922.771C853.706 922.544 853.19 922.362 852.583 922.225C851.977 922.074 851.363 921.892 850.741 921.679C850.134 921.467 849.611 921.103 849.171 920.588C848.747 920.072 848.534 919.412 848.534 918.609C848.534 917.683 848.906 916.918 849.649 916.311C850.392 915.704 851.378 915.401 852.606 915.401C853.728 915.401 854.714 915.659 855.563 916.175C856.428 916.69 856.981 917.365 857.224 918.199L854.904 919.177C854.752 918.662 854.464 918.26 854.039 917.972C853.615 917.668 853.152 917.517 852.652 917.517C852.197 917.517 851.825 917.615 851.537 917.812C851.264 917.994 851.128 918.245 851.128 918.563C851.128 918.927 851.34 919.208 851.765 919.405C852.204 919.602 852.728 919.769 853.334 919.905C853.956 920.026 854.578 920.193 855.199 920.406C855.821 920.618 856.344 920.997 856.769 921.543C857.209 922.089 857.429 922.794 857.429 923.658C857.429 924.659 857.019 925.509 856.2 926.206C855.381 926.889 854.32 927.23 853.016 927.23ZM863.046 927.23C861.757 927.23 860.68 926.904 859.816 926.252C858.951 925.584 858.36 924.781 858.041 923.84L860.384 922.885C860.566 923.507 860.885 924.015 861.34 924.409C861.795 924.803 862.363 925.001 863.046 925.001C863.577 925.001 864.001 924.879 864.32 924.637C864.653 924.379 864.82 924.068 864.82 923.704C864.82 923.31 864.6 922.999 864.161 922.771C863.736 922.544 863.22 922.362 862.614 922.225C862.007 922.074 861.393 921.892 860.771 921.679C860.165 921.467 859.641 921.103 859.202 920.588C858.777 920.072 858.565 919.412 858.565 918.609C858.565 917.683 858.936 916.918 859.679 916.311C860.422 915.704 861.408 915.401 862.636 915.401C863.759 915.401 864.744 915.659 865.594 916.175C866.458 916.69 867.012 917.365 867.254 918.199L864.934 919.177C864.782 918.662 864.494 918.26 864.07 917.972C863.645 917.668 863.182 917.517 862.682 917.517C862.227 917.517 861.855 917.615 861.567 917.812C861.294 917.994 861.158 918.245 861.158 918.563C861.158 918.927 861.37 919.208 861.795 919.405C862.235 919.602 862.758 919.769 863.364 919.905C863.986 920.026 864.608 920.193 865.23 920.406C865.851 920.618 866.375 920.997 866.799 921.543C867.239 922.089 867.459 922.794 867.459 923.658C867.459 924.659 867.049 925.509 866.231 926.206C865.412 926.889 864.35 927.23 863.046 927.23ZM868.299 921.702V919.245H875.624V921.702H868.299ZM681.657 954.23C679.428 954.23 677.548 953.517 676.016 952.092C674.5 950.666 673.741 948.664 673.741 946.086C673.741 943.523 674.507 941.529 676.039 940.104C677.57 938.663 679.443 937.943 681.657 937.943C683.553 937.943 685.138 938.428 686.412 939.398C687.686 940.354 688.459 941.635 688.732 943.243L685.661 943.88C685.464 942.864 685.001 942.067 684.273 941.491C683.561 940.9 682.689 940.604 681.657 940.604C680.262 940.604 679.117 941.089 678.223 942.06C677.328 943.015 676.88 944.357 676.88 946.086C676.88 947.815 677.32 949.157 678.2 950.113C679.095 951.068 680.247 951.546 681.657 951.546C682.689 951.546 683.545 951.28 684.228 950.749C684.91 950.219 685.358 949.483 685.57 948.543L688.686 949.225C688.292 950.787 687.473 952.016 686.23 952.91C685.001 953.79 683.477 954.23 681.657 954.23ZM690.494 954.048V937.943H693.36V944.357C694.149 943.053 695.362 942.401 697 942.401C698.289 942.401 699.32 942.78 700.094 943.538C700.882 944.297 701.276 945.298 701.276 946.541V954.048H698.41V947.246C698.41 946.534 698.206 945.972 697.796 945.563C697.387 945.154 696.833 944.949 696.136 944.949C695.256 944.949 694.574 945.313 694.088 946.041C693.603 946.753 693.36 947.762 693.36 949.066V954.048H690.494ZM708.003 942.401C709.535 942.401 710.755 942.811 711.665 943.629C712.59 944.433 713.053 945.578 713.053 947.064V954.048H710.278V952.387C709.959 952.948 709.482 953.396 708.845 953.729C708.223 954.063 707.556 954.23 706.843 954.23C705.721 954.23 704.803 953.911 704.09 953.274C703.378 952.622 703.021 951.803 703.021 950.818C703.021 948.634 704.727 947.36 708.139 946.996L710.278 946.791V946.678C710.278 946.026 710.073 945.518 709.664 945.154C709.254 944.774 708.701 944.585 708.003 944.585C707.381 944.585 706.858 944.767 706.433 945.131C706.024 945.495 705.789 945.98 705.728 946.587L703.18 946.132C703.362 945.009 703.901 944.107 704.796 943.425C705.705 942.742 706.775 942.401 708.003 942.401ZM707.48 952.114C708.344 952.114 709.027 951.826 709.527 951.25C710.028 950.674 710.278 949.953 710.278 949.089V948.839L708.094 949.089C707.351 949.18 706.782 949.369 706.388 949.658C705.994 949.946 705.796 950.302 705.796 950.727C705.796 951.136 705.948 951.47 706.251 951.728C706.555 951.985 706.964 952.114 707.48 952.114ZM718.127 940.331C717.778 940.665 717.346 940.832 716.83 940.832C716.315 940.832 715.89 940.665 715.557 940.331C715.223 939.982 715.056 939.558 715.056 939.057C715.056 938.557 715.223 938.14 715.557 937.806C715.89 937.472 716.315 937.306 716.83 937.306C717.346 937.306 717.778 937.48 718.127 937.829C718.476 938.162 718.65 938.572 718.65 939.057C718.65 939.558 718.476 939.982 718.127 940.331ZM715.397 954.048V942.583H718.264V954.048H715.397ZM720.585 954.048V942.583H723.451V944.312C723.83 943.736 724.331 943.273 724.952 942.924C725.589 942.576 726.302 942.401 727.091 942.401C728.349 942.401 729.358 942.78 730.116 943.538C730.89 944.297 731.276 945.298 731.276 946.541V954.048H728.41V947.224C728.41 946.541 728.213 945.995 727.819 945.586C727.424 945.161 726.894 944.949 726.226 944.949C725.347 944.949 724.664 945.305 724.179 946.018C723.694 946.731 723.451 947.732 723.451 949.021V954.048H720.585ZM742.378 954.048V940.786H737.578V938.125H750.271V940.786H745.471V954.048H742.378ZM757.758 945.358C757.348 945.176 756.863 945.085 756.302 945.085C755.422 945.085 754.687 945.48 754.095 946.268C753.519 947.042 753.231 948.232 753.231 949.84V954.048H750.365V942.583H753.231V944.676C753.519 944.024 753.989 943.485 754.641 943.061C755.308 942.621 755.991 942.401 756.688 942.401C757.159 942.401 757.576 942.462 757.94 942.583L757.758 945.358ZM763.253 942.401C764.785 942.401 766.005 942.811 766.915 943.629C767.84 944.433 768.303 945.578 768.303 947.064V954.048H765.528V952.387C765.209 952.948 764.731 953.396 764.095 953.729C763.473 954.063 762.805 954.23 762.093 954.23C760.971 954.23 760.053 953.911 759.34 953.274C758.628 952.622 758.271 951.803 758.271 950.818C758.271 948.634 759.977 947.36 763.389 946.996L765.528 946.791V946.678C765.528 946.026 765.323 945.518 764.913 945.154C764.504 944.774 763.95 944.585 763.253 944.585C762.631 944.585 762.108 944.767 761.683 945.131C761.274 945.495 761.039 945.98 760.978 946.587L758.43 946.132C758.612 945.009 759.151 944.107 760.045 943.425C760.955 942.742 762.024 942.401 763.253 942.401ZM762.73 952.114C763.594 952.114 764.277 951.826 764.777 951.25C765.277 950.674 765.528 949.953 765.528 949.089V948.839L763.344 949.089C762.601 949.18 762.032 949.369 761.638 949.658C761.243 949.946 761.046 950.302 761.046 950.727C761.046 951.136 761.198 951.47 761.501 951.728C761.805 951.985 762.214 952.114 762.73 952.114ZM770.647 954.048V942.583H773.513V944.312C773.893 943.736 774.393 943.273 775.015 942.924C775.652 942.576 776.364 942.401 777.153 942.401C778.412 942.401 779.42 942.78 780.178 943.538C780.952 944.297 781.339 945.298 781.339 946.541V954.048H778.472V947.224C778.472 946.541 778.275 945.995 777.881 945.586C777.487 945.161 776.956 944.949 776.289 944.949C775.409 944.949 774.727 945.305 774.241 946.018C773.756 946.731 773.513 947.732 773.513 949.021V954.048H770.647ZM787.658 954.23C786.369 954.23 785.292 953.904 784.428 953.252C783.563 952.584 782.972 951.781 782.653 950.84L784.996 949.885C785.178 950.507 785.497 951.015 785.952 951.409C786.407 951.803 786.975 952.001 787.658 952.001C788.189 952.001 788.613 951.879 788.932 951.637C789.265 951.379 789.432 951.068 789.432 950.704C789.432 950.31 789.212 949.999 788.772 949.771C788.348 949.544 787.832 949.362 787.226 949.225C786.619 949.074 786.005 948.892 785.383 948.679C784.776 948.467 784.253 948.103 783.813 947.588C783.389 947.072 783.177 946.412 783.177 945.609C783.177 944.683 783.548 943.918 784.291 943.311C785.034 942.704 786.02 942.401 787.248 942.401C788.371 942.401 789.356 942.659 790.206 943.175C791.07 943.69 791.623 944.365 791.866 945.199L789.546 946.177C789.394 945.662 789.106 945.26 788.681 944.972C788.257 944.668 787.794 944.517 787.294 944.517C786.839 944.517 786.467 944.615 786.179 944.812C785.906 944.994 785.77 945.245 785.77 945.563C785.77 945.927 785.982 946.208 786.407 946.405C786.846 946.602 787.37 946.769 787.976 946.905C788.598 947.026 789.22 947.193 789.842 947.406C790.463 947.618 790.987 947.997 791.411 948.543C791.851 949.089 792.071 949.794 792.071 950.658C792.071 951.659 791.661 952.509 790.842 953.206C790.024 953.889 788.962 954.23 787.658 954.23ZM798.098 942.401C799.629 942.401 800.85 942.811 801.76 943.629C802.685 944.433 803.147 945.578 803.147 947.064V954.048H800.372V952.387C800.054 952.948 799.576 953.396 798.939 953.729C798.317 954.063 797.65 954.23 796.937 954.23C795.815 954.23 794.898 953.911 794.185 953.274C793.472 952.622 793.116 951.803 793.116 950.818C793.116 948.634 794.822 947.36 798.234 946.996L800.372 946.791V946.678C800.372 946.026 800.168 945.518 799.758 945.154C799.349 944.774 798.795 944.585 798.098 944.585C797.476 944.585 796.953 944.767 796.528 945.131C796.118 945.495 795.883 945.98 795.823 946.587L793.275 946.132C793.457 945.009 793.995 944.107 794.89 943.425C795.8 942.742 796.869 942.401 798.098 942.401ZM797.574 952.114C798.439 952.114 799.121 951.826 799.622 951.25C800.122 950.674 800.372 949.953 800.372 949.089V948.839L798.188 949.089C797.445 949.18 796.877 949.369 796.482 949.658C796.088 949.946 795.891 950.302 795.891 950.727C795.891 951.136 796.043 951.47 796.346 951.728C796.649 951.985 797.059 952.114 797.574 952.114ZM810.701 954.23C808.987 954.23 807.585 953.684 806.493 952.592C805.416 951.485 804.878 950.059 804.878 948.315C804.878 946.571 805.416 945.154 806.493 944.062C807.585 942.955 808.987 942.401 810.701 942.401C812.172 942.401 813.385 942.757 814.341 943.47C815.311 944.183 815.895 945.146 816.092 946.359L813.294 946.905C813.188 946.299 812.908 945.813 812.453 945.449C812.013 945.07 811.459 944.881 810.792 944.881C809.897 944.881 809.185 945.191 808.654 945.813C808.123 946.435 807.858 947.269 807.858 948.315C807.858 949.362 808.123 950.196 808.654 950.818C809.185 951.439 809.897 951.75 810.792 951.75C811.459 951.75 812.005 951.584 812.43 951.25C812.87 950.901 813.158 950.416 813.294 949.794L816.092 950.363C815.88 951.561 815.288 952.509 814.318 953.206C813.363 953.889 812.157 954.23 810.701 954.23ZM824.39 953.934C823.844 954.131 823.229 954.23 822.547 954.23C821.334 954.23 820.356 953.896 819.613 953.229C818.87 952.562 818.498 951.584 818.498 950.295V944.994H816.564V942.583H818.498V939.216H821.364V942.583H824.253V944.994H821.364V950.022C821.364 950.552 821.493 950.969 821.751 951.273C822.024 951.561 822.388 951.705 822.843 951.705C823.374 951.705 823.821 951.614 824.185 951.432L824.39 953.934ZM828.637 940.331C828.289 940.665 827.856 940.832 827.341 940.832C826.825 940.832 826.401 940.665 826.067 940.331C825.733 939.982 825.567 939.558 825.567 939.057C825.567 938.557 825.733 938.14 826.067 937.806C826.401 937.472 826.825 937.306 827.341 937.306C827.856 937.306 828.289 937.48 828.637 937.829C828.986 938.162 829.161 938.572 829.161 939.057C829.161 939.558 828.986 939.982 828.637 940.331ZM825.908 954.048V942.583H828.774V954.048H825.908ZM840.763 952.569C839.641 953.676 838.208 954.23 836.464 954.23C834.72 954.23 833.287 953.676 832.164 952.569C831.042 951.447 830.481 950.029 830.481 948.315C830.481 946.602 831.042 945.191 832.164 944.084C833.287 942.962 834.72 942.401 836.464 942.401C838.208 942.401 839.641 942.962 840.763 944.084C841.885 945.191 842.446 946.602 842.446 948.315C842.446 950.029 841.885 951.447 840.763 952.569ZM834.212 950.818C834.788 951.439 835.539 951.75 836.464 951.75C837.389 951.75 838.132 951.432 838.693 950.795C839.269 950.158 839.557 949.332 839.557 948.315C839.557 947.299 839.269 946.473 838.693 945.836C838.132 945.199 837.389 944.881 836.464 944.881C835.539 944.881 834.788 945.199 834.212 945.836C833.651 946.458 833.37 947.284 833.37 948.315C833.37 949.347 833.651 950.181 834.212 950.818ZM844.147 954.048V942.583H847.013V944.312C847.392 943.736 847.892 943.273 848.514 942.924C849.151 942.576 849.864 942.401 850.653 942.401C851.911 942.401 852.92 942.78 853.678 943.538C854.451 944.297 854.838 945.298 854.838 946.541V954.048H851.972V947.224C851.972 946.541 851.775 945.995 851.38 945.586C850.986 945.161 850.455 944.949 849.788 944.949C848.909 944.949 848.226 945.305 847.741 946.018C847.256 946.731 847.013 947.732 847.013 949.021V954.048H844.147ZM861.157 954.23C859.868 954.23 858.792 953.904 857.927 953.252C857.063 952.584 856.471 951.781 856.153 950.84L858.496 949.885C858.678 950.507 858.996 951.015 859.451 951.409C859.906 951.803 860.475 952.001 861.157 952.001C861.688 952.001 862.113 951.879 862.431 951.637C862.765 951.379 862.932 951.068 862.932 950.704C862.932 950.31 862.712 949.999 862.272 949.771C861.847 949.544 861.332 949.362 860.725 949.225C860.118 949.074 859.504 948.892 858.882 948.679C858.276 948.467 857.753 948.103 857.313 947.588C856.888 947.072 856.676 946.412 856.676 945.609C856.676 944.683 857.048 943.918 857.791 943.311C858.534 942.704 859.519 942.401 860.748 942.401C861.87 942.401 862.856 942.659 863.705 943.175C864.569 943.69 865.123 944.365 865.366 945.199L863.045 946.177C862.894 945.662 862.606 945.26 862.181 944.972C861.756 944.668 861.294 944.517 860.793 944.517C860.338 944.517 859.967 944.615 859.679 944.812C859.406 944.994 859.269 945.245 859.269 945.563C859.269 945.927 859.482 946.208 859.906 946.405C860.346 946.602 860.869 946.769 861.476 946.905C862.097 947.026 862.719 947.193 863.341 947.406C863.963 947.618 864.486 947.997 864.911 948.543C865.35 949.089 865.57 949.794 865.57 950.658C865.57 951.659 865.161 952.509 864.342 953.206C863.523 953.889 862.461 954.23 861.157 954.23Z" fill="#6029D7"/>
<defs>
<filter id="filter0_f_35_32" x="0.48291" y="0.469238" width="1542.95" height="1542.95" filterUnits="userSpaceOnUse" color-interpolation-filters="sRGB">
<feFlood flood-opacity="0" result="BackgroundImageFix"/>
<feBlend mode="normal" in="SourceGraphic" in2="BackgroundImageFix" result="shape"/>
<feGaussianBlur stdDeviation="200" result="effect1_foregroundBlur_35_32"/>
</filter>
<filter id="filter1_f_35_32" x="306.051" y="134.109" width="909.349" height="909.349" filterUnits="userSpaceOnUse" color-interpolation-filters="sRGB">
<feFlood flood-opacity="0" result="BackgroundImageFix"/>
<feBlend mode="normal" in="SourceGraphic" in2="BackgroundImageFix" result="shape"/>
<feGaussianBlur stdDeviation="150" result="effect1_foregroundBlur_35_32"/>
</filter>
<filter id="filter2_f_35_32" x="491.446" y="319.505" width="538.558" height="538.558" filterUnits="userSpaceOnUse" color-interpolation-filters="sRGB">
<feFlood flood-opacity="0" result="BackgroundImageFix"/>
<feBlend mode="normal" in="SourceGraphic" in2="BackgroundImageFix" result="shape"/>
<feGaussianBlur stdDeviation="88.8368" result="effect1_foregroundBlur_35_32"/>
</filter>
<filter id="filter3_f_35_32" x="290.893" y="691.944" width="408.583" height="408.583" filterUnits="userSpaceOnUse" color-interpolation-filters="sRGB">
<feFlood flood-opacity="0" result="BackgroundImageFix"/>
<feBlend mode="normal" in="SourceGraphic" in2="BackgroundImageFix" result="shape"/>
<feGaussianBlur stdDeviation="45.4951" result="effect1_foregroundBlur_35_32"/>
</filter>
<filter id="filter4_b_35_32" x="301.544" y="455.935" width="904.57" height="779.091" filterUnits="userSpaceOnUse" color-interpolation-filters="sRGB">
<feFlood flood-opacity="0" result="BackgroundImageFix"/>
<feGaussianBlur in="BackgroundImageFix" stdDeviation="90.9902"/>
<feComposite in2="SourceAlpha" operator="in" result="effect1_backgroundBlur_35_32"/>
<feBlend mode="normal" in="SourceGraphic" in2="effect1_backgroundBlur_35_32" result="shape"/>
</filter>
<filter id="filter5_f_35_32" x="905.113" y="606.496" width="349.443" height="349.443" filterUnits="userSpaceOnUse" color-interpolation-filters="sRGB">
<feFlood flood-opacity="0" result="BackgroundImageFix"/>
<feBlend mode="normal" in="SourceGraphic" in2="BackgroundImageFix" result="shape"/>
<feGaussianBlur stdDeviation="45.4951" result="effect1_foregroundBlur_35_32"/>
</filter>
<filter id="filter6_b_35_32" x="791.279" y="598.143" width="494.852" height="504.397" filterUnits="userSpaceOnUse" color-interpolation-filters="sRGB">
<feFlood flood-opacity="0" result="BackgroundImageFix"/>
<feGaussianBlur in="BackgroundImageFix" stdDeviation="90.9902"/>
<feComposite in2="SourceAlpha" operator="in" result="effect1_backgroundBlur_35_32"/>
<feBlend mode="normal" in="SourceGraphic" in2="effect1_backgroundBlur_35_32" result="shape"/>
</filter>
<filter id="filter7_f_35_32" x="926.272" y="576.86" width="354.862" height="354.862" filterUnits="userSpaceOnUse" color-interpolation-filters="sRGB">
<feFlood flood-opacity="0" result="BackgroundImageFix"/>
<feBlend mode="normal" in="SourceGraphic" in2="BackgroundImageFix" result="shape"/>
<feGaussianBlur stdDeviation="45.4951" result="effect1_foregroundBlur_35_32"/>
</filter>
<filter id="filter8_b_35_32" x="592.993" y="164.547" width="708.906" height="818.764" filterUnits="userSpaceOnUse" color-interpolation-filters="sRGB">
<feFlood flood-opacity="0" result="BackgroundImageFix"/>
<feGaussianBlur in="BackgroundImageFix" stdDeviation="90.9902"/>
<feComposite in2="SourceAlpha" operator="in" result="effect1_backgroundBlur_35_32"/>
<feBlend mode="normal" in="SourceGraphic" in2="effect1_backgroundBlur_35_32" result="shape"/>
</filter>
<filter id="filter9_f_35_32" x="147.886" y="656.071" width="388.555" height="388.555" filterUnits="userSpaceOnUse" color-interpolation-filters="sRGB">
<feFlood flood-opacity="0" result="BackgroundImageFix"/>
<feBlend mode="normal" in="SourceGraphic" in2="BackgroundImageFix" result="shape"/>
<feGaussianBlur stdDeviation="45.4951" result="effect1_foregroundBlur_35_32"/>
</filter>
<filter id="filter10_f_35_32" x="336.847" y="529.953" width="282.993" height="282.993" filterUnits="userSpaceOnUse" color-interpolation-filters="sRGB">
<feFlood flood-opacity="0" result="BackgroundImageFix"/>
<feBlend mode="normal" in="SourceGraphic" in2="BackgroundImageFix" result="shape"/>
<feGaussianBlur stdDeviation="45.4951" result="effect1_foregroundBlur_35_32"/>
</filter>
<filter id="filter11_b_35_32" x="177.473" y="482.018" width="587.89" height="656.853" filterUnits="userSpaceOnUse" color-interpolation-filters="sRGB">
<feFlood flood-opacity="0" result="BackgroundImageFix"/>
<feGaussianBlur in="BackgroundImageFix" stdDeviation="90.9902"/>
<feComposite in2="SourceAlpha" operator="in" result="effect1_backgroundBlur_35_32"/>
<feBlend mode="normal" in="SourceGraphic" in2="effect1_backgroundBlur_35_32" result="shape"/>
</filter>
<filter id="filter12_f_35_32" x="154.467" y="281.51" width="517.734" height="515.914" filterUnits="userSpaceOnUse" color-interpolation-filters="sRGB">
<feFlood flood-opacity="0" result="BackgroundImageFix"/>
<feBlend mode="normal" in="SourceGraphic" in2="BackgroundImageFix" result="shape"/>
<feGaussianBlur stdDeviation="45.4951" result="effect1_foregroundBlur_35_32"/>
</filter>
<filter id="filter13_b_35_32" x="176.027" y="112.02" width="950.472" height="844.721" filterUnits="userSpaceOnUse" color-interpolation-filters="sRGB">
<feFlood flood-opacity="0" result="BackgroundImageFix"/>
<feGaussianBlur in="BackgroundImageFix" stdDeviation="90.9902"/>
<feComposite in2="SourceAlpha" operator="in" result="effect1_backgroundBlur_35_32"/>
<feBlend mode="normal" in="SourceGraphic" in2="effect1_backgroundBlur_35_32" result="shape"/>
</filter>
<radialGradient id="paint0_radial_35_32" cx="0" cy="0" r="1" gradientUnits="userSpaceOnUse" gradientTransform="translate(796 582.413) rotate(90) scale(189.874 219.3)">
<stop stop-color="#411548" stop-opacity="0.43"/>
<stop offset="1" stop-color="white" stop-opacity="0"/>
</radialGradient>
<linearGradient id="paint1_linear_35_32" x1="750.6" y1="743.865" x2="968.974" y2="1015.29" gradientUnits="userSpaceOnUse">
<stop stop-color="white"/>
<stop offset="1" stop-color="#EEC9FF" stop-opacity="0.79"/>
</linearGradient>
<linearGradient id="paint2_linear_35_32" x1="623.843" y1="720.001" x2="801.033" y2="1024.72" gradientUnits="userSpaceOnUse">
<stop offset="0.607186" stop-color="#FBF8FE"/>
<stop offset="1" stop-color="white"/>
</linearGradient>
<linearGradient id="paint3_linear_35_32" x1="1038.1" y1="815.344" x2="1113.28" y2="882.988" gradientUnits="userSpaceOnUse">
<stop stop-color="white"/>
<stop offset="1" stop-color="#EEC9FF" stop-opacity="0.79"/>
</linearGradient>
<linearGradient id="paint4_linear_35_32" x1="1007.52" y1="806.78" x2="1075.06" y2="890.943" gradientUnits="userSpaceOnUse">
<stop offset="0.607186" stop-color="#FBF8FE"/>
<stop offset="1" stop-color="white"/>
</linearGradient>
<linearGradient id="paint5_linear_35_32" x1="946.121" y1="461.615" x2="1178.69" y2="631.116" gradientUnits="userSpaceOnUse">
<stop stop-color="white"/>
<stop offset="1" stop-color="#EEC9FF" stop-opacity="0.79"/>
</linearGradient>
<linearGradient id="paint6_linear_35_32" x1="865.398" y1="434.853" x2="1088.51" y2="659.932" gradientUnits="userSpaceOnUse">
<stop offset="0.607186" stop-color="#FBF8FE"/>
<stop offset="1" stop-color="white"/>
</linearGradient>
<linearGradient id="paint7_linear_35_32" x1="471.496" y1="663.926" x2="470.975" y2="956.864" gradientUnits="userSpaceOnUse">
<stop stop-color="white"/>
<stop offset="1" stop-color="#FFD8F2" stop-opacity="0.79"/>
</linearGradient>
<linearGradient id="paint8_linear_35_32" x1="547.8" y1="690.222" x2="385.905" y2="856.21" gradientUnits="userSpaceOnUse">
<stop stop-color="white"/>
<stop offset="1" stop-color="#F0E1FF" stop-opacity="0.79"/>
</linearGradient>
<linearGradient id="paint9_linear_35_32" x1="679.736" y1="744.227" x2="374.381" y2="821.448" gradientUnits="userSpaceOnUse">
<stop stop-color="white"/>
<stop offset="1" stop-color="white" stop-opacity="0"/>
</linearGradient>
<linearGradient id="paint10_linear_35_32" x1="648.217" y1="416.48" x2="903.844" y2="715.057" gradientUnits="userSpaceOnUse">
<stop stop-color="white"/>
<stop offset="1" stop-color="#EEC9FF" stop-opacity="0.79"/>
</linearGradient>
<linearGradient id="paint11_linear_35_32" x1="510.861" y1="388.442" x2="722.064" y2="729.978" gradientUnits="userSpaceOnUse">
<stop offset="0.607186" stop-color="#FBF8FE"/>
<stop offset="1" stop-color="white"/>
</linearGradient>
</defs>
</svg>
