<svg width="88" height="47" viewBox="0 0 88 47" fill="none" xmlns="http://www.w3.org/2000/svg">
<g opacity="0.4" clip-path="url(#clip0_1751_1739)">
<path d="M21.6072 24.3855H27.4737L36.1178 1.51367H30.6697L26.7878 11.7715L27.4569 1.51367H21.6603L13.0167 24.3855H18.4643L22.274 14.2665L21.6072 24.3855Z" fill="#141414"/>
<path d="M36.8246 1.51367L28.1814 24.3855H33.629L42.2723 1.51367H36.8246Z" fill="#141414"/>
<path fill-rule="evenodd" clip-rule="evenodd" d="M12.3884 16.5019C4.77588 25.3736 -2.40517 37.1781 3.93781 42.614C10.0301 47.8354 17.6318 44.817 22.8663 42.7384L23.0049 42.6834C28.2432 40.604 86.1416 15.6527 86.1416 15.6527C86.7003 15.3754 86.5959 15.0288 85.8973 15.2019C85.7785 15.2314 74.5602 18.247 61.6209 21.7261L62.2633 19.9499H55.908L57.9962 14.4054H63.234L64.8456 10.1429H59.6078L61.4034 5.32587H66.9201L68.3841 1.51367H51.7618L46.0543 8.37537L48.6893 1.51367H43.1717L34.5975 24.3855H40.0452L43.7058 14.821L43.9566 24.3855L51.7932 24.3686C36.9435 28.3617 22.8654 32.1479 22.8654 32.1479C14.9026 34.3661 5.82335 29.5316 12.3884 16.5019ZM49.3611 22.8606L49.0118 10.9398L57.2485 1.96535L49.3611 22.8606Z" fill="#141414"/>
</g>
<defs>
<clipPath id="clip0_1751_1739">
<rect width="87" height="46" fill="white" transform="translate(0.5 0.513672)"/>
</clipPath>
</defs>
</svg>
