<svg width="90" height="48" viewBox="0 0 90 48" fill="none" xmlns="http://www.w3.org/2000/svg">
<g opacity="0.4" clip-path="url(#clip0_1751_1749)">
<path fill-rule="evenodd" clip-rule="evenodd" d="M76.3935 19.4031C75.8082 16.0522 71.4718 15.7277 68.6528 16.2463C65.8335 16.7649 62.3649 18.2565 58.8308 19.8999C57.4747 20.5304 55.905 21.3614 54.3919 22.1903C53.2071 21.9819 52.0547 21.824 51.0671 21.824C48.7041 21.824 46.7095 22.6675 45.6467 23.0996C44.5845 23.5321 44.2587 23.8992 44.3458 24.1161C44.4325 24.3324 45.0394 24.2237 46.0367 23.8777C47.0343 23.5321 47.8803 23.1639 50.1347 22.9266C50.9029 22.8455 51.8138 22.9127 52.8203 23.0596C51.019 24.0632 49.4533 24.9525 48.6614 25.3264C47.0139 26.1045 44.7172 27.4885 40.5536 27.6396C36.39 27.7908 35.1547 25.9966 33.7889 24.267C32.4228 22.537 31.1004 19.1658 29.7777 16.7224C28.4549 14.2794 25.5284 12.7664 25.5284 12.7664C28.8026 12.0097 31.7073 9.91269 32.0543 6.69156C32.4013 3.47007 30.3204 1.02777 26.4393 0.594922C22.5581 0.162435 19.2194 1.52495 17.0076 3.05974C14.7959 4.59453 13.4516 7.36209 13.8854 9.11313C14.3187 10.8645 15.5977 11.1673 16.5739 10.886C17.55 10.6047 17.9615 9.52381 17.8314 9.11313C17.7012 8.70244 17.2026 8.14021 16.7474 8.3132C16.2918 8.4862 16.0752 8.37826 16.0752 8.37826C14.9479 7.1891 15.815 4.74608 18.2436 3.36248C20.431 2.11613 22.3563 1.94421 24.491 2.25303C23.6727 2.64441 22.8878 3.10164 22.1441 3.62019C20.431 4.80935 19.3255 7.14406 19.0433 10.0846C18.7612 13.0252 18.8695 14.387 18.6745 18.3219C18.4798 22.2568 18.2845 24.7205 17.569 25.5641C16.8535 26.4072 15.4443 27.0767 14.7503 27.5095C14.0564 27.9424 14.1649 28.6119 15.1841 28.4178C16.2028 28.2237 17.3962 27.5103 18.5232 26.9695C19.6506 26.429 20.7998 26.1263 22.6865 26.1045C24.5731 26.0823 24.5075 26.1474 24.6161 25.8014C24.7247 25.4554 24.486 25.3904 23.8572 24.8714C23.2285 24.3524 23.012 24.0497 23.0553 22.7525C23.0858 21.834 23.0729 16.9004 23.0628 13.4401C24.4555 13.7997 24.9645 15.6387 25.3743 17.1313C25.8076 18.7097 26.4367 21.261 27.4559 23.12C29.2937 26.4741 31.1847 28.871 34.9357 30.0383C38.6867 31.2061 41.939 30.0383 45.1262 28.8281C48.0455 27.7194 51.8536 25.2881 54.8396 23.4245C56.3118 23.733 57.9249 24.1286 59.6326 24.5036C63.47 25.346 66.8096 25.5415 69.1726 25.3031C71.5352 25.0665 76.9789 22.754 76.3935 19.4031ZM23.0578 11.8507C23.056 11.1665 23.0549 10.6215 23.0549 10.3012C23.0549 8.44188 23.0331 5.04739 24.3125 3.83679C25.1799 3.01542 25.5915 2.74449 26.0826 2.60616C27.7204 3.20772 28.0029 4.43905 28.1524 5.9138C28.3259 7.62194 27.5236 9.15709 26.0492 10.4974C25.0197 11.4332 23.7386 11.7463 23.0578 11.8507ZM66.9622 23.7483C64.2303 23.9867 61.6706 23.4885 59.1993 23.0996C58.3074 22.9588 57.3069 22.7536 56.2831 22.5488C59.4301 20.7656 64.3544 18.9892 67.0275 18.6461C69.8895 18.279 71.1255 19.1432 71.0821 20.6566C71.0391 22.1699 69.6941 23.5103 66.9622 23.7483ZM38.1991 11.8432C38.4282 11.9447 38.3203 12.2413 38.3203 12.761V19.3595C38.3203 19.723 38.4597 19.9307 38.7376 19.7577C39.015 19.5847 39.6058 19.1172 39.7793 19.1861C39.9531 19.2551 40.3528 19.4292 39.8144 20.2949C39.276 21.1606 38.2859 22.3386 37.5216 22.4251C36.7574 22.5116 35.6461 22.4251 35.1773 21.8533C34.708 21.2814 34.517 20.8135 34.517 20.1905V14.5103C34.517 14.0424 34.413 14.0256 34.1348 14.0256C33.8567 14.0256 33.3882 14.0077 33.3358 13.7311C33.2835 13.4541 33.3874 13.3326 33.8567 13.1596C34.3259 12.9862 36.966 12.1552 37.4177 12.0165C37.869 11.8778 38.0429 11.7742 38.1991 11.8432ZM35.9411 9.85157C36.2365 9.03735 36.3061 8.414 36.2537 8.01583C36.2018 7.61765 35.872 7.4443 35.8888 7.28846C35.906 7.13227 36.4968 6.94211 37.1743 6.71693C37.8518 6.49176 38.4942 6.19724 38.9286 6.09358C39.3627 5.98957 39.6234 6.50927 39.0502 8.03334C38.477 9.55705 37.3829 10.5618 36.7925 10.9081C36.2021 11.2545 35.8067 11.3989 35.6286 11.1333C35.5239 10.9775 35.6458 10.6658 35.9411 9.85157ZM46.6056 19.1172C45.8585 19.9489 45.0247 20.7971 43.7224 20.5201C42.4197 20.2431 41.7598 19.1865 41.7598 18.0259V12.6402C41.7598 12.1005 41.8057 12.0397 41.5512 11.9515C40.9464 11.9958 40.5507 11.9418 40.5783 11.7399C40.6482 11.2198 41.0991 11.2545 41.6551 10.7698C42.2111 10.2851 43.0449 9.40157 43.6876 8.41436C44.33 7.4275 44.5906 6.09394 44.782 5.53957C44.9731 4.98556 45.1118 4.74286 45.4072 4.84688C45.7026 4.95124 45.6503 5.1414 45.6503 5.71292V9.50415C45.7105 9.60066 45.7883 9.65784 45.894 9.64426C46.293 9.59208 46.6762 9.41908 46.8841 9.43624C47.092 9.4534 47.1619 9.74792 47.1619 10.0078C47.1619 10.244 47.1143 10.5092 45.6503 11.0221V17.1949C45.6503 17.6803 45.4592 18.0438 45.9456 17.8358C46.4321 17.6278 46.8845 17.1953 47.1967 17.3164C47.5089 17.4372 47.3526 18.2854 46.6056 19.1172ZM54.1847 16.9433C53.4376 17.7754 52.6038 18.6235 51.3008 18.3465C49.9985 18.0688 49.3382 17.0123 49.3382 15.8521V10.4667C49.3382 9.92663 49.3844 9.86587 49.1295 9.77758C48.5251 9.82191 48.1298 9.76758 48.157 9.56599C48.2269 9.04664 48.6779 9.0806 49.2339 8.59593C49.7898 8.11126 50.6236 7.2277 51.2664 6.24084C51.9091 5.25363 52.169 3.92042 52.3608 3.36606C52.5518 2.81204 52.6905 2.56935 52.9859 2.67336C53.2813 2.77773 53.229 2.96788 53.229 3.53976V7.33064C53.2892 7.42714 53.367 7.48469 53.4727 7.47075C53.8717 7.41856 54.2549 7.24593 54.4628 7.26308C54.6708 7.2806 54.7406 7.5744 54.7406 7.83425C54.7406 8.07015 54.6923 8.33572 53.229 8.84899V15.0218C53.229 15.5071 53.0379 15.8706 53.5244 15.663C54.0108 15.4546 54.4632 15.0225 54.7747 15.1433C55.0873 15.2637 54.931 16.1119 54.1847 16.9433ZM64.0404 5.43377C63.2521 4.70212 61.7845 3.89898 59.7975 4.95196C57.8098 6.00494 56.5566 7.32599 55.6078 10.1997C54.6593 13.0738 57.5596 15.4657 58.2397 15.787C58.92 16.1083 59.9761 16.7152 61.587 15.6265C63.1987 14.5374 63.7898 13.413 63.9683 13.0026C64.1476 12.592 63.9508 12.0029 63.3417 12.4136C62.7334 12.8243 61.8917 13.8419 60.6027 13.4491C59.6373 13.1549 59.2444 12.5105 58.9953 11.9354C59.8452 11.3885 62.4925 9.6843 63.4496 9.05808C64.595 8.30856 64.7028 8.32643 64.8813 7.82639C65.0606 7.32563 64.8279 6.16542 64.0404 5.43377ZM61.4443 8.84327C60.7905 9.56241 59.956 10.1879 58.5737 10.8509C58.3579 10.1525 58.2497 9.11491 59.0455 7.7188C60.0836 5.89807 61.1579 5.34441 61.6053 6.0053C62.0527 6.66618 62.1423 8.07552 61.4443 8.84327ZM66.4747 5.21967C66.2478 5.10673 66.1169 5.14819 65.8305 5.2018C65.5434 5.25541 65.3466 5.04096 65.5079 4.82686C65.6696 4.61276 66.2066 4.21995 66.7074 3.77352C67.2085 3.32745 67.71 2.91677 68.2828 2.97038C68.8564 3.024 69.5726 3.07761 70.2347 4.23782C70.2347 4.23782 71.2008 2.8989 71.8102 2.5597C71.8102 2.5597 72.7049 3.47007 73.2778 3.75601C73.8513 4.04123 74.1908 4.23782 74.7285 3.80926C75.2654 3.38071 75.3726 3.30958 75.5336 3.45219C75.6945 3.59517 75.4977 4.32682 74.6564 5.13032C73.8147 5.93345 72.9024 6.64759 72.0966 6.41562C71.2907 6.18365 70.3594 5.50526 70.3594 5.50526V10.6994C70.3594 11.1279 70.4856 11.1458 70.8971 10.9496C71.3087 10.753 71.7381 10.3605 71.9711 10.5746C72.2034 10.7891 72.1679 11.4139 71.219 12.3775C70.2702 13.3411 70.1268 13.6807 68.5696 13.6807C67.0117 13.6807 66.5106 11.9847 66.5106 11.5208V5.6661C66.5106 5.30867 66.6185 5.29116 66.4747 5.21967ZM22.0889 35.7783L23.5952 32.8005C23.5952 32.8005 21.5867 31.5624 19.0763 31.5624C16.566 31.5624 14.9009 32.7223 14.1872 34.8565C13.4738 36.9907 14.4252 39.2825 15.482 39.7836C16.5391 40.2843 18.4419 40.9424 19.2875 41.3116C20.1331 41.6808 20.5826 42.9461 19.8954 43.5784C19.2082 44.2103 17.6489 44.764 15.1385 42.603L13.5 45.6325C13.5 45.6325 15.6935 47.3979 18.3626 47.3979C21.0318 47.3979 23.2776 46.2387 24.0174 43.7882C24.7577 41.3377 23.8594 38.9658 21.5602 38.1755C19.2613 37.3853 17.7281 37.3063 17.9135 35.804C18.0984 34.3024 20.7672 34.4876 22.0889 35.7783ZM36.1211 34.5266C35.3017 32.3655 32.6063 31.971 31.9195 31.971H25.2861V46.9904H29.1446V42.0633H31.8403C32.8178 42.0633 33.8488 41.9839 35.3285 40.7722C36.8083 39.5598 36.9406 36.6876 36.1211 34.5266ZM30.9151 38.9536H29.1446V35.0277H30.4659C31.655 35.0277 32.5271 35.5016 32.5271 37.0568C32.5271 38.6109 31.6553 38.9536 30.9151 38.9536ZM45.4757 31.448C40.9178 31.448 37.2227 35.0445 37.2227 39.4809C37.2227 43.9172 40.9178 47.5137 45.4757 47.5137C50.0336 47.5137 53.7287 43.9172 53.7287 39.4809C53.7287 35.0445 50.0336 31.448 45.4757 31.448ZM45.4757 43.7825C43.132 43.7825 41.2328 41.8563 41.2328 39.4809C41.2328 37.1054 43.132 35.1792 45.4757 35.1792C47.819 35.1792 49.7185 37.1054 49.7185 39.4809C49.7185 41.8563 47.819 43.7825 45.4757 43.7825ZM58.5977 41.3527L62.1817 46.9775H67.002L62.3932 40.9088C62.3932 40.9088 63.0381 40.9088 64.2555 40.1589C65.4725 39.409 66.1528 36.8749 65.4008 34.7682C64.6487 32.6619 62.2495 31.9835 60.8891 31.9835H54.6593V46.9775H58.5974L58.5977 41.3527ZM60.7464 35.1606C61.3906 35.3751 61.7846 36.4813 61.6412 37.4457C61.4985 38.4096 59.9943 38.8382 59.4932 38.8382H58.5977V34.9823C59.4082 34.978 60.1539 34.964 60.7464 35.1606ZM76.5 31.9835H66.1883V35.1606H69.4105V46.9775H73.2774V35.1606H76.5V31.9835Z" fill="#141414"/>
</g>
<defs>
<clipPath id="clip0_1751_1749">
<rect width="89" height="47" fill="white" transform="translate(0.5 0.513672)"/>
</clipPath>
</defs>
</svg>
