<svg width="239" height="242" viewBox="0 0 239 242" fill="none" xmlns="http://www.w3.org/2000/svg">
<mask id="mask0_1961_3080" style="mask-type:alpha" maskUnits="userSpaceOnUse" x="54" y="50" width="132" height="142">
<path d="M107.163 191.692C142.607 151.252 169.667 103.254 185.598 50.3926L91.5294 70.4661L54.0088 118.45L105.153 189.35C106.464 191.16 106.468 190.837 107.163 191.692Z" fill="white"/>
</mask>
<g mask="url(#mask0_1961_3080)">
<g filter="url(#filter0_f_1961_3080)">
<circle cx="160.835" cy="51.817" r="83.711" transform="rotate(-24.4813 160.835 51.817)" fill="#B694FF"/>
</g>
<g filter="url(#filter1_b_1961_3080)">
<path d="M106.346 190.836C106.779 191.279 107.535 191.267 107.942 190.8C142.642 150.962 169.232 103.848 185.106 52.012C185.329 51.2847 184.688 50.5869 183.944 50.7456L91.8846 70.3903C91.6551 70.4393 91.4501 70.5674 91.3056 70.7523L54.4716 117.858C54.1975 118.209 54.188 118.699 54.4483 119.059L105.153 189.35C105.772 190.204 106.099 190.584 106.346 190.836Z" fill="url(#paint0_linear_1961_3080)" fill-opacity="0.8"/>
<path d="M91.6995 71.0603L91.3056 70.7523L91.6995 71.0603C91.7717 70.9679 91.8742 70.9038 91.989 70.8793L184.048 51.2346C184.42 51.1552 184.739 51.5039 184.628 51.8656C168.775 103.633 142.22 150.685 107.565 190.472C107.355 190.712 106.938 190.726 106.704 190.486C106.481 190.259 106.17 189.901 105.558 189.057L54.8538 118.767C54.7237 118.586 54.7284 118.342 54.8655 118.166L91.6995 71.0603Z" stroke="url(#paint1_linear_1961_3080)"/>
</g>
</g>
<defs>
<filter id="filter0_f_1961_3080" x="-13.8872" y="-122.905" width="349.443" height="349.443" filterUnits="userSpaceOnUse" color-interpolation-filters="sRGB">
<feFlood flood-opacity="0" result="BackgroundImageFix"/>
<feBlend mode="normal" in="SourceGraphic" in2="BackgroundImageFix" result="shape"/>
<feGaussianBlur stdDeviation="45.4951" result="effect1_foregroundBlur_1961_3080"/>
</filter>
<filter id="filter1_b_1961_3080" x="-127.721" y="-131.257" width="494.852" height="504.397" filterUnits="userSpaceOnUse" color-interpolation-filters="sRGB">
<feFlood flood-opacity="0" result="BackgroundImageFix"/>
<feGaussianBlur in="BackgroundImageFix" stdDeviation="90.9902"/>
<feComposite in2="SourceAlpha" operator="in" result="effect1_backgroundBlur_1961_3080"/>
<feBlend mode="normal" in="SourceGraphic" in2="effect1_backgroundBlur_1961_3080" result="shape"/>
</filter>
<linearGradient id="paint0_linear_1961_3080" x1="119.101" y1="85.9432" x2="194.285" y2="153.587" gradientUnits="userSpaceOnUse">
<stop stop-color="white"/>
<stop offset="1" stop-color="#EEC9FF" stop-opacity="0.79"/>
</linearGradient>
<linearGradient id="paint1_linear_1961_3080" x1="88.5157" y1="77.3796" x2="156.061" y2="161.542" gradientUnits="userSpaceOnUse">
<stop offset="0.607186" stop-color="#FBF8FE"/>
<stop offset="1" stop-color="white"/>
</linearGradient>
</defs>
</svg>
