<svg width="607" height="505" viewBox="0 0 607 505" fill="none" xmlns="http://www.w3.org/2000/svg">
<mask id="mask0_1751_1989" style="mask-type:alpha" maskUnits="userSpaceOnUse" x="56" y="22" width="527" height="444">
<path d="M56.5073 408.041C133.767 455.94 228.291 476.607 324.828 459.401C420.112 442.419 500.81 391.489 556.691 321.282L582.639 276.429L518.814 215.741L547.226 160.896L450.614 101.05L450.377 100.905L450.263 100.652L414.799 22.0558L289.746 52.9864L221.663 192.189L220.986 192.064L113.135 172.36L111.121 324.416L111.116 324.772L110.871 325.03L56.7844 382.007L56.5073 408.041Z" fill="white"/>
</mask>
<g mask="url(#mask0_1751_1989)">
<g filter="url(#filter0_f_1751_1989)">
<circle cx="57.7309" cy="347.112" r="113.283" fill="#8247FF"/>
</g>
<g filter="url(#filter1_b_1751_1989)">
<path d="M56.5133 407.478C56.5096 407.828 56.6889 408.154 56.9865 408.338C134.157 456.025 228.491 476.571 324.828 459.401C420.085 442.423 500.766 391.517 556.645 321.339C556.676 321.301 556.703 321.26 556.728 321.217L582.245 277.111C582.476 276.711 582.403 276.204 582.068 275.886L519.359 216.258C519.036 215.952 518.955 215.469 519.16 215.074L546.8 161.718C547.04 161.254 546.883 160.683 546.438 160.408L450.614 101.05C450.46 100.956 450.337 100.817 450.263 100.652L415.141 22.8153C414.943 22.3754 414.458 22.14 413.99 22.2559L290.199 52.8743C289.912 52.9453 289.671 53.1399 289.541 53.4057L221.966 191.57C221.787 191.936 221.386 192.138 220.986 192.064L114.299 172.572C113.691 172.461 113.128 172.924 113.12 173.543L111.121 324.416C111.118 324.645 111.029 324.864 110.871 325.03L57.0549 381.722C56.8811 381.905 56.7829 382.147 56.7802 382.4L56.5133 407.478Z" fill="url(#paint0_linear_1751_1989)" fill-opacity="0.8"/>
<path d="M111.621 324.423L111.621 324.423C111.616 324.778 111.478 325.117 111.235 325.374L111.234 325.374L57.4176 382.066L57.0549 381.722L57.4175 382.066C57.3306 382.158 57.2816 382.279 57.2802 382.405L57.0133 407.483C57.0115 407.658 57.1012 407.821 57.2494 407.913C134.32 455.538 228.529 476.057 324.74 458.909C419.873 441.953 500.448 391.114 556.254 321.028C556.269 321.009 556.283 320.988 556.295 320.967L581.812 276.861C581.928 276.661 581.891 276.407 581.724 276.248L519.014 216.621C518.53 216.161 518.409 215.436 518.716 214.844L546.356 161.488C546.476 161.256 546.397 160.971 546.175 160.833L450.352 101.476C450.352 101.476 450.352 101.476 450.351 101.476C450.112 101.329 449.922 101.113 449.807 100.856L414.685 23.021C414.586 22.801 414.344 22.6833 414.11 22.7413L290.319 53.3597C290.176 53.3952 290.055 53.4925 289.99 53.6254L222.415 191.79C222.137 192.357 221.517 192.67 220.896 192.556L111.621 324.423ZM111.621 324.423L113.62 173.549C113.624 173.24 113.905 173.009 114.21 173.064L220.895 192.556L111.621 324.423Z" stroke="url(#paint1_linear_1751_1989)"/>
</g>
</g>
<defs>
<filter id="filter0_f_1751_1989" x="-146.542" y="142.839" width="408.546" height="408.546" filterUnits="userSpaceOnUse" color-interpolation-filters="sRGB">
<feFlood flood-opacity="0" result="BackgroundImageFix"/>
<feBlend mode="normal" in="SourceGraphic" in2="BackgroundImageFix" result="shape"/>
<feGaussianBlur stdDeviation="45.4951" result="effect1_foregroundBlur_1751_1989"/>
</filter>
<filter id="filter1_b_1751_1989" x="-125.467" y="-159.754" width="889.827" height="807.129" filterUnits="userSpaceOnUse" color-interpolation-filters="sRGB">
<feFlood flood-opacity="0" result="BackgroundImageFix"/>
<feGaussianBlur in="BackgroundImageFix" stdDeviation="90.9902"/>
<feComposite in2="SourceAlpha" operator="in" result="effect1_backgroundBlur_1751_1989"/>
<feBlend mode="normal" in="SourceGraphic" in2="effect1_backgroundBlur_1751_1989" result="shape"/>
</filter>
<linearGradient id="paint0_linear_1751_1989" x1="282.932" y1="152.848" x2="544.974" y2="382.4" gradientUnits="userSpaceOnUse">
<stop stop-color="white"/>
<stop offset="1" stop-color="#EEC9FF" stop-opacity="0.79"/>
</linearGradient>
<linearGradient id="paint1_linear_1751_1989" x1="153.958" y1="151.275" x2="381.198" y2="420.745" gradientUnits="userSpaceOnUse">
<stop offset="0.607186" stop-color="#FBF8FE"/>
<stop offset="1" stop-color="white"/>
</linearGradient>
</defs>
</svg>
