<svg width="684" height="601" viewBox="0 0 684 601" fill="none" xmlns="http://www.w3.org/2000/svg">
<mask id="mask0_1961_3075" style="mask-type:alpha" maskUnits="userSpaceOnUse" x="71" y="92" width="542" height="416">
<path d="M71.4377 410.635C139.245 471.178 228.768 507.887 326.826 507.643C423.611 507.402 511.904 471.203 579.089 411.722L612.406 372.035L560.044 301.22L597.515 252.118L512.715 176.459L512.507 176.275L512.438 176.006L491.107 92.4597L362.589 101.288L271.448 226.612L270.803 226.371L167.988 188.305L139.696 337.719L139.63 338.069L139.344 338.281L76.215 385.041L71.4377 410.635Z" fill="white"/>
</mask>
<g mask="url(#mask0_1961_3075)">
<g filter="url(#filter0_f_1961_3075)">
<circle cx="83.1847" cy="350.836" r="113.283" transform="rotate(9.96316 83.1847 350.836)" fill="#8247FF"/>
</g>
<g filter="url(#filter1_b_1961_3075)">
<path d="M71.5411 410.081C71.4769 410.424 71.597 410.777 71.8583 411.01C139.615 471.33 228.971 507.887 326.826 507.643C423.584 507.402 511.856 471.223 579.034 411.771C579.07 411.739 579.105 411.703 579.137 411.666L611.899 372.64C612.196 372.285 612.212 371.773 611.936 371.401L560.959 302.619C560.688 302.254 560.698 301.753 560.981 301.398L597.914 255.233C598.243 254.821 598.196 254.223 597.806 253.868L512.715 176.459C512.579 176.34 512.483 176.181 512.438 176.006L491.313 93.267C491.194 92.7993 490.757 92.4837 490.276 92.5168L363.055 101.256C362.76 101.276 362.489 101.426 362.314 101.665L271.854 226.054C271.614 226.384 271.184 226.513 270.803 226.371L169.098 188.716C168.518 188.501 167.883 188.859 167.768 189.467L139.696 337.719C139.653 337.944 139.528 338.145 139.344 338.281L76.5307 384.807C76.3278 384.957 76.1892 385.179 76.1429 385.427L71.5411 410.081Z" fill="url(#paint0_linear_1961_3075)" fill-opacity="0.8"/>
<path d="M140.188 337.812L140.187 337.813C140.121 338.161 139.926 338.471 139.642 338.682L139.642 338.683L76.8283 385.208C76.7268 385.284 76.6576 385.394 76.6344 385.518L72.0326 410.172C72.0005 410.344 72.0607 410.52 72.1908 410.636C139.859 470.877 229.097 507.386 326.824 507.143C423.457 506.903 511.612 470.771 578.702 411.397C578.721 411.381 578.738 411.363 578.754 411.344L611.516 372.318C611.665 372.141 611.672 371.885 611.535 371.699L560.557 302.916C560.151 302.369 560.165 301.618 560.591 301.086L597.523 254.92C597.688 254.714 597.664 254.416 597.469 254.238L512.384 176.834C512.383 176.833 512.381 176.832 512.38 176.831C512.172 176.645 512.022 176.401 511.954 176.129L490.829 93.3907C490.769 93.1569 490.551 92.9991 490.31 93.0156L363.089 101.755C362.941 101.765 362.806 101.84 362.719 101.959L272.258 226.348C271.887 226.859 271.221 227.06 270.629 226.84L140.188 337.812ZM140.188 337.812L168.259 189.56C168.317 189.256 168.634 189.077 168.924 189.184L270.628 226.84L140.188 337.812Z" stroke="url(#paint1_linear_1961_3075)"/>
</g>
</g>
<defs>
<filter id="filter0_f_1961_3075" x="-121.107" y="146.544" width="408.583" height="408.584" filterUnits="userSpaceOnUse" color-interpolation-filters="sRGB">
<feFlood flood-opacity="0" result="BackgroundImageFix"/>
<feBlend mode="normal" in="SourceGraphic" in2="BackgroundImageFix" result="shape"/>
<feGaussianBlur stdDeviation="45.4951" result="effect1_foregroundBlur_1961_3075"/>
</filter>
<filter id="filter1_b_1961_3075" x="-110.456" y="-89.466" width="904.57" height="779.091" filterUnits="userSpaceOnUse" color-interpolation-filters="sRGB">
<feFlood flood-opacity="0" result="BackgroundImageFix"/>
<feGaussianBlur in="BackgroundImageFix" stdDeviation="90.9902"/>
<feComposite in2="SourceAlpha" operator="in" result="effect1_backgroundBlur_1961_3075"/>
<feBlend mode="normal" in="SourceGraphic" in2="effect1_backgroundBlur_1961_3075" result="shape"/>
</filter>
<linearGradient id="paint0_linear_1961_3075" x1="338.6" y1="198.464" x2="556.974" y2="469.892" gradientUnits="userSpaceOnUse">
<stop stop-color="white"/>
<stop offset="1" stop-color="#EEC9FF" stop-opacity="0.79"/>
</linearGradient>
<linearGradient id="paint1_linear_1961_3075" x1="211.843" y1="174.6" x2="389.033" y2="479.323" gradientUnits="userSpaceOnUse">
<stop offset="0.607186" stop-color="#FBF8FE"/>
<stop offset="1" stop-color="white"/>
</linearGradient>
</defs>
</svg>
