<svg viewBox="0 0 1544 1544" fill="none" xmlns="http://www.w3.org/2000/svg">
<g opacity="0.34" filter="url(#filter0_f_32_2)">
<circle cx="771.958" cy="771.944" r="371.474" fill="#C36EFF"/>
</g>
<g filter="url(#filter1_f_32_2)">
<circle cx="760.725" cy="588.784" r="154.674" fill="#F25CFF"/>
</g>
<g filter="url(#filter2_f_32_2)">
<circle cx="760.725" cy="588.784" r="91.6053" fill="#FF5C5C"/>
</g>
<path opacity="0.5" d="M602.997 449.502L602.997 771.944M651.536 449.502L651.537 771.944M700.076 449.502L700.076 771.944M748.616 449.502L748.616 771.944M797.155 449.502L797.155 771.944M845.695 449.502L845.695 771.944M894.234 449.502V771.944M942.774 449.502V771.944M991.314 449.502V771.944M1020.78 465.104H571.215M1020.78 513.644H571.215M1020.78 562.183H571.215M1020.78 610.723H571.215M1020.78 659.262H571.215M1020.78 707.802H571.215M1020.78 756.342H571.215" stroke="url(#paint0_radial_32_2)" stroke-opacity="0.5"/>
<mask id="mask0_32_2" style="mask-type:alpha" maskUnits="userSpaceOnUse" x="483" y="637" width="542" height="417">
<path d="M483.438 956.035C551.245 1016.58 640.768 1053.29 738.826 1053.04C835.611 1052.8 923.904 1016.6 991.089 957.123L1024.41 917.436L972.044 846.621L1009.52 797.519L924.715 721.86L924.507 721.676L924.439 721.407L903.107 637.86L774.589 646.689L683.449 772.012L682.803 771.772L579.989 733.705L551.697 883.12L551.63 883.469L551.344 883.682L488.215 930.441L483.438 956.035Z" fill="white"/>
</mask>
<g mask="url(#mask0_32_2)" id="frag-4">
<g filter="url(#filter3_f_32_2)">
<circle cx="495.185" cy="896.236" r="113.283" transform="rotate(9.96316 495.185 896.236)" fill="#8247FF"/>
</g>
<g filter="url(#filter4_b_32_2)">
<path d="M483.541 955.481C483.477 955.825 483.597 956.178 483.859 956.41C551.615 1016.73 640.971 1053.29 738.826 1053.04C835.584 1052.8 923.856 1016.62 991.034 957.172C991.071 957.139 991.105 957.104 991.137 957.066L1023.9 918.041C1024.2 917.686 1024.21 917.174 1023.94 916.802L972.959 848.019C972.689 847.655 972.698 847.154 972.981 846.799L1009.91 800.633C1010.24 800.221 1010.2 799.624 1009.81 799.269L924.715 721.86V721.86C924.58 721.74 924.483 721.582 924.439 721.407V721.407L903.313 638.668C903.194 638.2 902.757 637.884 902.276 637.917L775.055 646.657C774.76 646.677 774.489 646.827 774.315 647.066L683.854 771.455C683.614 771.784 683.185 771.914 682.803 771.772V771.772L581.098 734.116C580.518 733.901 579.884 734.26 579.768 734.868L551.697 883.12V883.12C551.654 883.345 551.528 883.545 551.344 883.682V883.682L488.531 930.207C488.328 930.358 488.189 930.579 488.143 930.827L483.541 955.481Z" fill="url(#paint1_linear_32_2)" fill-opacity="0.8"/>
<path d="M484.191 956.037C551.859 1016.28 641.097 1052.79 738.825 1052.54C835.457 1052.3 923.612 1016.17 990.702 956.798C990.721 956.781 990.738 956.764 990.754 956.745L1023.52 917.719C1023.66 917.542 1023.67 917.286 1023.53 917.1L972.557 848.317C972.152 847.77 972.166 847.018 972.591 846.487L1009.52 800.321C1009.69 800.115 1009.66 799.816 1009.47 799.639L924.384 722.235C924.383 722.234 924.382 722.233 924.381 722.232C924.172 722.046 924.023 721.801 923.954 721.53L902.829 638.791C902.769 638.558 902.551 638.4 902.31 638.416L775.089 647.155C774.942 647.166 774.806 647.24 774.719 647.36L684.258 771.749C683.887 772.26 683.221 772.461 682.629 772.241L484.191 956.037ZM484.191 956.037C484.061 955.921 484.001 955.745 484.033 955.573L488.635 930.919C488.658 930.795 488.727 930.684 488.829 930.609L551.642 884.083L551.344 883.682L551.643 884.083C551.927 883.872 552.121 883.562 552.188 883.214L551.697 883.12L552.188 883.213L580.26 734.961C580.317 734.657 580.634 734.478 580.925 734.585L682.629 772.241L484.191 956.037Z" stroke="url(#paint2_linear_32_2)"/>
</g>
</g>
<mask id="mask1_32_2" style="mask-type:alpha" maskUnits="userSpaceOnUse" x="973" y="779" width="132" height="143">
<path d="M1026.16 921.092C1061.61 880.653 1088.67 832.655 1104.6 779.793L1010.53 799.867L973.009 847.851L1024.15 918.75C1025.46 920.56 1025.47 920.238 1026.16 921.092Z" fill="white"/>
</mask>
<g mask="url(#mask1_32_2)" id="frag-5">
<g filter="url(#filter5_f_32_2)">
<circle cx="1079.83" cy="781.217" r="83.711" transform="rotate(-24.4813 1079.83 781.217)" fill="#B694FF"/>
</g>
<g filter="url(#filter6_b_32_2)">
<path d="M1025.35 920.236C1025.78 920.679 1026.54 920.667 1026.94 920.201C1061.64 880.362 1088.23 833.248 1104.11 781.412C1104.33 780.685 1103.69 779.987 1102.94 780.146L1010.88 799.791C1010.66 799.84 1010.45 799.968 1010.31 800.153L973.472 847.259C973.197 847.609 973.188 848.099 973.448 848.46L1024.15 918.75C1024.77 919.605 1025.1 919.984 1025.35 920.236Z" fill="url(#paint3_linear_32_2)" fill-opacity="0.8"/>
<path d="M1010.99 800.28L1103.05 780.635C1103.42 780.556 1103.74 780.904 1103.63 781.266C1087.77 833.033 1061.22 880.086 1026.56 919.872C1026.36 920.113 1025.94 920.127 1025.7 919.887C1025.48 919.659 1025.17 919.302 1024.56 918.457L973.854 848.167C973.724 847.987 973.728 847.742 973.865 847.567L1010.7 800.461C1010.77 800.368 1010.87 800.304 1010.99 800.28Z" stroke="url(#paint4_linear_32_2)"/>
</g>
</g>
<mask id="mask2_32_2" style="mask-type:alpha" maskUnits="userSpaceOnUse" x="774" y="345" width="346" height="457">
<path d="M1105.04 780.515C1114.64 747.156 1119.83 711.921 1119.92 675.481C1120.26 535.125 1044.9 412.257 932.293 345.536L944.773 411.133L944.506 411.461L899.624 466.711L899.48 466.889L899.27 466.977L775.288 518.741L774.971 648.572L886.32 665.607L925.771 725.277L1010.27 801.418L1105.04 780.515Z" fill="white"/>
</mask>
<g mask="url(#mask2_32_2)" id="frag-2">
<g filter="url(#filter7_f_32_2)">
<circle cx="1103.7" cy="754.292" r="86.4407" transform="rotate(1.09563 1103.7 754.292)" fill="#D2BCFF"/>
</g>
<g filter="url(#filter8_b_32_2)">
<path d="M1104.45 780.643C1104.81 780.564 1105.1 780.296 1105.2 779.943C1114.7 746.754 1119.83 711.713 1119.92 675.481C1120.26 535.917 1045.74 413.646 934.197 346.672C933.459 346.229 932.546 346.867 932.707 347.713L944.694 410.718C944.744 410.981 944.676 411.253 944.506 411.461V411.461L899.624 466.711V466.711C899.53 466.827 899.408 466.919 899.27 466.977V466.977L775.901 518.485C775.53 518.64 775.287 519.003 775.286 519.405L774.973 647.711C774.972 648.206 775.333 648.627 775.822 648.702L885.881 665.539C886.16 665.582 886.409 665.741 886.564 665.976L925.701 725.171C925.748 725.241 925.803 725.306 925.866 725.362L1009.89 801.073C1010.13 801.289 1010.46 801.376 1010.77 801.307L1104.45 780.643Z" fill="url(#paint5_linear_32_2)" fill-opacity="0.8"/>
<path d="M1119.42 675.48C1119.33 711.665 1114.21 746.66 1104.72 779.806C1104.67 779.981 1104.53 780.115 1104.35 780.155L1010.67 800.818C1010.51 800.853 1010.34 800.81 1010.22 800.702L926.201 724.991C926.169 724.962 926.141 724.93 926.118 724.895L886.981 665.701C886.748 665.347 886.376 665.109 885.957 665.045L775.898 648.208C775.653 648.17 775.473 647.96 775.473 647.712L775.786 519.406C775.787 519.205 775.908 519.024 776.094 518.946L899.462 467.438L899.27 466.977L899.464 467.438C899.678 467.348 899.866 467.206 900.012 467.027L899.628 466.715L900.012 467.027L944.894 411.777C945.156 411.455 945.263 411.033 945.185 410.624L933.198 347.62C933.117 347.197 933.573 346.881 933.939 347.101C1045.34 413.988 1119.76 536.099 1119.42 675.48Z" stroke="url(#paint6_linear_32_2)"/>
</g>
</g>
<mask id="mask3_32_2" style="mask-type:alpha" maskUnits="userSpaceOnUse" x="359" y="663" width="225" height="294">
<path d="M359.495 682.404C362.15 790.53 409.733 887.548 484.306 955.461L489.05 930.624L489.117 930.273L489.405 930.062L552.735 883.571L581.707 734.054L511.761 665.901L359.495 682.404Z" fill="url(#paint7_linear_32_2)"/>
<path d="M488.848 929.906L488.703 930.012L488.67 930.188L488.604 930.539L488.603 930.54L484.012 954.576C409.968 886.858 362.717 790.349 359.96 682.811L511.597 666.376L581.214 734.208L552.322 883.31L489.136 929.695L489.136 929.695L488.848 929.906Z" stroke="white" stroke-opacity="0.49" stroke-width="0.909902"/>
</mask>
<g mask="url(#mask3_32_2)" id="frag-3">
<g filter="url(#filter9_f_32_2)">
<circle cx="342.164" cy="850.348" r="103.274" transform="rotate(8.22417 342.164 850.348)" fill="#FFA0FB"/>
</g>
<g filter="url(#filter10_f_32_2)">
<circle cx="478.343" cy="671.449" r="50.4996" transform="rotate(8.22417 478.343 671.449)" fill="#7350FF"/>
</g>
<g filter="url(#filter11_b_32_2)">
<path d="M359.495 682.404C362.15 790.53 409.733 887.548 484.306 955.461L489.05 930.624L489.117 930.273L489.405 930.062L552.735 883.571L581.707 734.054L511.761 665.901L359.495 682.404Z" fill="url(#paint8_linear_32_2)" fill-opacity="0.8"/>
<path d="M489.405 930.062L489.403 930.058L489.405 930.062ZM489.405 930.062L489.117 930.273L489.05 930.624L489.405 930.062ZM488.58 929.538L488.289 929.751L488.223 930.104L488.157 930.454L488.156 930.456L483.718 953.69C410.203 886.168 363.283 790.168 360.426 683.218L511.433 666.852L580.721 734.363L551.909 883.048L488.868 929.327L488.867 929.328L488.58 929.538Z" stroke="url(#paint9_linear_32_2)" stroke-opacity="0.8" stroke-width="1.8198"/>
</g>
</g>
<mask id="mask4_32_2" style="mask-type:alpha" maskUnits="userSpaceOnUse" x="358" y="294" width="587" height="481">
<path d="M931.805 345.451C875.468 312.735 810.005 294 740.166 294C529.106 294 358.007 465.098 358.007 676.159C358.007 678.975 358.038 681.784 358.098 684.585L511.031 667.735L581.93 736.57L684.835 774.961L775.494 650.949V519.051L776.05 518.817L900.252 466.605L944.588 411.753L931.805 345.451Z" fill="white"/>
</mask>
<g mask="url(#mask4_32_2)" id="frag-1">
<g filter="url(#filter12_f_32_2)">
<ellipse cx="413.334" cy="539.468" rx="167.877" ry="166.967" fill="#BAB4FF"/>
</g>
<g filter="url(#filter13_b_32_2)">
<path d="M931.892 345.898C931.837 345.614 931.662 345.368 931.412 345.223C875.163 312.648 809.842 294 740.166 294C529.106 294 358.007 465.098 358.007 676.159C358.007 678.609 358.03 681.054 358.076 683.493C358.087 684.08 358.6 684.53 359.184 684.466L510.563 667.787C510.859 667.754 511.155 667.855 511.369 668.063L581.78 736.424C581.879 736.521 581.997 736.595 582.127 736.644L684.125 774.697C684.545 774.853 685.017 774.712 685.282 774.35L775.301 651.213C775.427 651.041 775.494 650.835 775.494 650.622V519.655C775.494 519.289 775.713 518.959 776.05 518.817V518.817L900.02 466.703C900.172 466.639 900.306 466.538 900.41 466.409L944.296 412.115C944.482 411.886 944.556 411.586 944.5 411.297L931.892 345.898Z" fill="url(#paint10_linear_32_2)" fill-opacity="0.8"/>
<path d="M740.166 294.5C809.752 294.5 874.987 313.123 931.161 345.656C931.286 345.728 931.373 345.851 931.401 345.993L944.009 411.391C944.037 411.536 944 411.686 943.907 411.8L900.021 466.095C899.969 466.159 899.902 466.21 899.826 466.242L775.857 518.356L776.05 518.817L775.856 518.356C775.334 518.576 774.994 519.088 774.994 519.655V650.622C774.994 650.729 774.96 650.832 774.898 650.918L684.878 774.055C684.746 774.236 684.509 774.306 684.3 774.228L582.302 736.175C582.237 736.151 582.178 736.114 582.128 736.066L511.717 667.704C511.396 667.393 510.953 667.241 510.508 667.29L359.129 683.969C358.837 684.001 358.581 683.776 358.576 683.484C358.53 681.048 358.507 678.606 358.507 676.159C358.507 465.374 529.382 294.5 740.166 294.5Z" stroke="url(#paint11_linear_32_2)"/>
</g>
</g>
<defs>
<filter id="filter0_f_32_2" x="0.483154" y="0.469727" width="1542.95" height="1542.95" filterUnits="userSpaceOnUse" color-interpolation-filters="sRGB">
<feFlood flood-opacity="0" result="BackgroundImageFix"/>
<feBlend mode="normal" in="SourceGraphic" in2="BackgroundImageFix" result="shape"/>
<feGaussianBlur stdDeviation="200" result="effect1_foregroundBlur_32_2"/>
</filter>
<filter id="filter1_f_32_2" x="306.051" y="134.109" width="909.349" height="909.349" filterUnits="userSpaceOnUse" color-interpolation-filters="sRGB">
<feFlood flood-opacity="0" result="BackgroundImageFix"/>
<feBlend mode="normal" in="SourceGraphic" in2="BackgroundImageFix" result="shape"/>
<feGaussianBlur stdDeviation="150" result="effect1_foregroundBlur_32_2"/>
</filter>
<filter id="filter2_f_32_2" x="491.446" y="319.505" width="538.558" height="538.558" filterUnits="userSpaceOnUse" color-interpolation-filters="sRGB">
<feFlood flood-opacity="0" result="BackgroundImageFix"/>
<feBlend mode="normal" in="SourceGraphic" in2="BackgroundImageFix" result="shape"/>
<feGaussianBlur stdDeviation="88.8368" result="effect1_foregroundBlur_32_2"/>
</filter>
<filter id="filter3_f_32_2" x="290.893" y="691.944" width="408.584" height="408.584" filterUnits="userSpaceOnUse" color-interpolation-filters="sRGB">
<feFlood flood-opacity="0" result="BackgroundImageFix"/>
<feBlend mode="normal" in="SourceGraphic" in2="BackgroundImageFix" result="shape"/>
<feGaussianBlur stdDeviation="45.4951" result="effect1_foregroundBlur_32_2"/>
</filter>
<filter id="filter4_b_32_2" x="301.544" y="455.935" width="904.569" height="779.091" filterUnits="userSpaceOnUse" color-interpolation-filters="sRGB">
<feFlood flood-opacity="0" result="BackgroundImageFix"/>
<feGaussianBlur in="BackgroundImageFix" stdDeviation="90.9902"/>
<feComposite in2="SourceAlpha" operator="in" result="effect1_backgroundBlur_32_2"/>
<feBlend mode="normal" in="SourceGraphic" in2="effect1_backgroundBlur_32_2" result="shape"/>
</filter>
<filter id="filter5_f_32_2" x="905.113" y="606.496" width="349.443" height="349.443" filterUnits="userSpaceOnUse" color-interpolation-filters="sRGB">
<feFlood flood-opacity="0" result="BackgroundImageFix"/>
<feBlend mode="normal" in="SourceGraphic" in2="BackgroundImageFix" result="shape"/>
<feGaussianBlur stdDeviation="45.4951" result="effect1_foregroundBlur_32_2"/>
</filter>
<filter id="filter6_b_32_2" x="791.279" y="598.143" width="494.852" height="504.397" filterUnits="userSpaceOnUse" color-interpolation-filters="sRGB">
<feFlood flood-opacity="0" result="BackgroundImageFix"/>
<feGaussianBlur in="BackgroundImageFix" stdDeviation="90.9902"/>
<feComposite in2="SourceAlpha" operator="in" result="effect1_backgroundBlur_32_2"/>
<feBlend mode="normal" in="SourceGraphic" in2="effect1_backgroundBlur_32_2" result="shape"/>
</filter>
<filter id="filter7_f_32_2" x="926.271" y="576.86" width="354.862" height="354.862" filterUnits="userSpaceOnUse" color-interpolation-filters="sRGB">
<feFlood flood-opacity="0" result="BackgroundImageFix"/>
<feBlend mode="normal" in="SourceGraphic" in2="BackgroundImageFix" result="shape"/>
<feGaussianBlur stdDeviation="45.4951" result="effect1_foregroundBlur_32_2"/>
</filter>
<filter id="filter8_b_32_2" x="592.993" y="164.547" width="708.906" height="818.764" filterUnits="userSpaceOnUse" color-interpolation-filters="sRGB">
<feFlood flood-opacity="0" result="BackgroundImageFix"/>
<feGaussianBlur in="BackgroundImageFix" stdDeviation="90.9902"/>
<feComposite in2="SourceAlpha" operator="in" result="effect1_backgroundBlur_32_2"/>
<feBlend mode="normal" in="SourceGraphic" in2="effect1_backgroundBlur_32_2" result="shape"/>
</filter>
<filter id="filter9_f_32_2" x="147.887" y="656.071" width="388.555" height="388.555" filterUnits="userSpaceOnUse" color-interpolation-filters="sRGB">
<feFlood flood-opacity="0" result="BackgroundImageFix"/>
<feBlend mode="normal" in="SourceGraphic" in2="BackgroundImageFix" result="shape"/>
<feGaussianBlur stdDeviation="45.4951" result="effect1_foregroundBlur_32_2"/>
</filter>
<filter id="filter10_f_32_2" x="336.847" y="529.953" width="282.993" height="282.993" filterUnits="userSpaceOnUse" color-interpolation-filters="sRGB">
<feFlood flood-opacity="0" result="BackgroundImageFix"/>
<feBlend mode="normal" in="SourceGraphic" in2="BackgroundImageFix" result="shape"/>
<feGaussianBlur stdDeviation="45.4951" result="effect1_foregroundBlur_32_2"/>
</filter>
<filter id="filter11_b_32_2" x="177.473" y="482.018" width="587.89" height="656.853" filterUnits="userSpaceOnUse" color-interpolation-filters="sRGB">
<feFlood flood-opacity="0" result="BackgroundImageFix"/>
<feGaussianBlur in="BackgroundImageFix" stdDeviation="90.9902"/>
<feComposite in2="SourceAlpha" operator="in" result="effect1_backgroundBlur_32_2"/>
<feBlend mode="normal" in="SourceGraphic" in2="effect1_backgroundBlur_32_2" result="shape"/>
</filter>
<filter id="filter12_f_32_2" x="154.467" y="281.51" width="517.734" height="515.914" filterUnits="userSpaceOnUse" color-interpolation-filters="sRGB">
<feFlood flood-opacity="0" result="BackgroundImageFix"/>
<feBlend mode="normal" in="SourceGraphic" in2="BackgroundImageFix" result="shape"/>
<feGaussianBlur stdDeviation="45.4951" result="effect1_foregroundBlur_32_2"/>
</filter>
<filter id="filter13_b_32_2" x="176.027" y="112.02" width="950.472" height="844.721" filterUnits="userSpaceOnUse" color-interpolation-filters="sRGB">
<feFlood flood-opacity="0" result="BackgroundImageFix"/>
<feGaussianBlur in="BackgroundImageFix" stdDeviation="90.9902"/>
<feComposite in2="SourceAlpha" operator="in" result="effect1_backgroundBlur_32_2"/>
<feBlend mode="normal" in="SourceGraphic" in2="effect1_backgroundBlur_32_2" result="shape"/>
</filter>
<radialGradient id="paint0_radial_32_2" cx="0" cy="0" r="1" gradientUnits="userSpaceOnUse" gradientTransform="translate(796 582.413) rotate(90) scale(189.874 219.3)">
<stop stop-color="#411548" stop-opacity="0.43"/>
<stop offset="1" stop-color="white" stop-opacity="0"/>
</radialGradient>
<linearGradient id="paint1_linear_32_2" x1="750.6" y1="743.865" x2="968.974" y2="1015.29" gradientUnits="userSpaceOnUse">
<stop stop-color="white"/>
<stop offset="1" stop-color="#EEC9FF" stop-opacity="0.79"/>
</linearGradient>
<linearGradient id="paint2_linear_32_2" x1="623.843" y1="720.001" x2="801.034" y2="1024.72" gradientUnits="userSpaceOnUse">
<stop offset="0.607186" stop-color="#FBF8FE"/>
<stop offset="1" stop-color="white"/>
</linearGradient>
<linearGradient id="paint3_linear_32_2" x1="1038.1" y1="815.344" x2="1113.28" y2="882.988" gradientUnits="userSpaceOnUse">
<stop stop-color="white"/>
<stop offset="1" stop-color="#EEC9FF" stop-opacity="0.79"/>
</linearGradient>
<linearGradient id="paint4_linear_32_2" x1="1007.52" y1="806.78" x2="1075.06" y2="890.943" gradientUnits="userSpaceOnUse">
<stop offset="0.607186" stop-color="#FBF8FE"/>
<stop offset="1" stop-color="white"/>
</linearGradient>
<linearGradient id="paint5_linear_32_2" x1="946.121" y1="461.615" x2="1178.69" y2="631.116" gradientUnits="userSpaceOnUse">
<stop stop-color="white"/>
<stop offset="1" stop-color="#EEC9FF" stop-opacity="0.79"/>
</linearGradient>
<linearGradient id="paint6_linear_32_2" x1="865.397" y1="434.853" x2="1088.51" y2="659.932" gradientUnits="userSpaceOnUse">
<stop offset="0.607186" stop-color="#FBF8FE"/>
<stop offset="1" stop-color="white"/>
</linearGradient>
<linearGradient id="paint7_linear_32_2" x1="471.496" y1="663.926" x2="470.975" y2="956.864" gradientUnits="userSpaceOnUse">
<stop stop-color="white"/>
<stop offset="1" stop-color="#FFD8F2" stop-opacity="0.79"/>
</linearGradient>
<linearGradient id="paint8_linear_32_2" x1="547.8" y1="690.222" x2="385.905" y2="856.21" gradientUnits="userSpaceOnUse">
<stop stop-color="white"/>
<stop offset="1" stop-color="#F0E1FF" stop-opacity="0.79"/>
</linearGradient>
<linearGradient id="paint9_linear_32_2" x1="679.736" y1="744.227" x2="374.381" y2="821.448" gradientUnits="userSpaceOnUse">
<stop stop-color="white"/>
<stop offset="1" stop-color="white" stop-opacity="0"/>
</linearGradient>
<linearGradient id="paint10_linear_32_2" x1="648.217" y1="416.48" x2="903.844" y2="715.057" gradientUnits="userSpaceOnUse">
<stop stop-color="white"/>
<stop offset="1" stop-color="#EEC9FF" stop-opacity="0.79"/>
</linearGradient>
<linearGradient id="paint11_linear_32_2" x1="510.861" y1="388.442" x2="722.064" y2="729.978" gradientUnits="userSpaceOnUse">
<stop offset="0.607186" stop-color="#FBF8FE"/>
<stop offset="1" stop-color="white"/>
</linearGradient>
</defs>
</svg>
