<svg width="362" height="469" viewBox="0 0 362 469" fill="none" xmlns="http://www.w3.org/2000/svg">
<mask id="mask0_1961_3084" style="mask-type:alpha" maskUnits="userSpaceOnUse" x="7" y="6" width="346" height="457">
<path d="M338.035 441.115C347.642 407.756 352.829 372.521 352.918 336.081C353.26 195.725 277.896 72.8573 165.293 6.13631L177.774 71.7332L177.506 72.0613L132.624 127.311L132.48 127.489L132.27 127.577L8.28825 179.341L7.97138 309.172L119.32 326.206L158.771 385.877L243.271 462.017L338.035 441.115Z" fill="white"/>
</mask>
<g mask="url(#mask0_1961_3084)">
<g filter="url(#filter0_f_1961_3084)">
<circle cx="336.703" cy="414.891" r="86.4407" transform="rotate(1.09563 336.703 414.891)" fill="#D2BCFF"/>
</g>
<g filter="url(#filter1_b_1961_3084)">
<path d="M337.454 441.243C337.813 441.164 338.099 440.896 338.2 440.543C347.701 407.354 352.829 372.313 352.918 336.081C353.258 196.517 278.745 74.2457 167.197 7.27214C166.459 6.8289 165.546 7.46716 165.707 8.31308L177.695 71.3174C177.745 71.581 177.676 71.8533 177.506 72.0613L132.624 127.311C132.53 127.427 132.408 127.519 132.27 127.577L8.90135 179.085C8.52987 179.24 8.28761 179.602 8.28663 180.005L7.97348 308.311C7.97228 308.806 8.33313 309.227 8.82226 309.302L118.882 326.139C119.161 326.182 119.409 326.341 119.565 326.576L158.701 385.771C158.748 385.841 158.803 385.905 158.866 385.962L242.888 461.673C243.128 461.889 243.458 461.976 243.773 461.907L337.454 441.243Z" fill="url(#paint0_linear_1961_3084)" fill-opacity="0.8"/>
<path d="M133.012 127.627L133.012 127.626L177.894 72.3772C177.894 72.377 177.894 72.3769 177.894 72.3767C178.157 72.0543 178.263 71.6324 178.186 71.224L166.198 8.21963C166.118 7.79661 166.573 7.48063 166.94 7.70081C278.343 74.5875 352.758 196.699 352.418 336.08C352.329 372.265 347.208 407.26 337.719 440.406C337.669 440.581 337.526 440.715 337.347 440.755L243.666 461.418C243.508 461.453 243.343 461.41 243.223 461.301L159.201 385.591C159.169 385.562 159.142 385.53 159.118 385.495L119.982 326.301C119.748 325.947 119.376 325.709 118.957 325.645L8.89787 308.808C8.6533 308.77 8.47288 308.56 8.47348 308.312L8.78663 180.006C8.78712 179.805 8.90825 179.624 9.09399 179.546L132.463 128.038L132.464 128.038C132.678 127.948 132.866 127.806 133.012 127.627Z" stroke="url(#paint1_linear_1961_3084)"/>
</g>
</g>
<defs>
<filter id="filter0_f_1961_3084" x="159.272" y="237.46" width="354.862" height="354.862" filterUnits="userSpaceOnUse" color-interpolation-filters="sRGB">
<feFlood flood-opacity="0" result="BackgroundImageFix"/>
<feBlend mode="normal" in="SourceGraphic" in2="BackgroundImageFix" result="shape"/>
<feGaussianBlur stdDeviation="45.4951" result="effect1_foregroundBlur_1961_3084"/>
</filter>
<filter id="filter1_b_1961_3084" x="-174.007" y="-174.853" width="708.906" height="818.764" filterUnits="userSpaceOnUse" color-interpolation-filters="sRGB">
<feFlood flood-opacity="0" result="BackgroundImageFix"/>
<feGaussianBlur in="BackgroundImageFix" stdDeviation="90.9902"/>
<feComposite in2="SourceAlpha" operator="in" result="effect1_backgroundBlur_1961_3084"/>
<feBlend mode="normal" in="SourceGraphic" in2="effect1_backgroundBlur_1961_3084" result="shape"/>
</filter>
<linearGradient id="paint0_linear_1961_3084" x1="179.121" y1="122.215" x2="411.69" y2="291.716" gradientUnits="userSpaceOnUse">
<stop stop-color="white"/>
<stop offset="1" stop-color="#EEC9FF" stop-opacity="0.79"/>
</linearGradient>
<linearGradient id="paint1_linear_1961_3084" x1="98.3977" y1="95.4532" x2="321.514" y2="320.532" gradientUnits="userSpaceOnUse">
<stop offset="0.607186" stop-color="#FBF8FE"/>
<stop offset="1" stop-color="white"/>
</linearGradient>
</defs>
</svg>
