<svg width="1045" height="834" viewBox="0 0 1045 834" fill="none" xmlns="http://www.w3.org/2000/svg">
<mask id="mask0_27_87" style="mask-type:alpha" maskUnits="userSpaceOnUse" x="896" y="552" width="149" height="117">
<path d="M914.335 668.869C963.351 646.753 1007.87 614.284 1044.27 572.777L950.343 552.064L896.311 580.186L913.477 665.905C913.92 668.096 914.057 667.804 914.335 668.869Z" fill="white"/>
</mask>
<g mask="url(#mask0_27_87)">
<g filter="url(#filter0_f_27_87)">
<circle cx="1021.15" cy="563.811" r="83.711" fill="#B694FF"/>
</g>
<g filter="url(#filter1_b_27_87)">
<path d="M913.947 667.752C914.157 668.334 914.85 668.637 915.414 668.381C963.503 646.504 1007.23 614.644 1043.15 574.047C1043.66 573.477 1043.36 572.576 1042.62 572.412L950.698 552.142C950.469 552.091 950.229 552.123 950.021 552.232L896.978 579.839C896.583 580.044 896.371 580.486 896.459 580.922L913.477 665.905C913.686 666.939 913.827 667.42 913.947 667.752Z" fill="url(#paint0_linear_27_87)" fill-opacity="0.8"/>
<path d="M950.59 552.63L1042.51 572.901C1042.88 572.983 1043.03 573.432 1042.78 573.715C1006.9 614.259 963.234 646.077 915.207 667.925C914.917 668.058 914.531 667.898 914.417 667.582C914.309 667.283 914.173 666.828 913.967 665.806L896.949 580.824C896.905 580.606 897.011 580.385 897.208 580.282L950.252 552.675C950.356 552.621 950.475 552.605 950.59 552.63Z" stroke="url(#paint1_linear_27_87)"/>
</g>
</g>
<mask id="mask1_27_87" style="mask-type:alpha" maskUnits="userSpaceOnUse" x="620" y="29" width="349" height="455">
<path d="M955.411 461.126C964.378 427.59 968.89 392.262 968.282 355.827C965.941 215.49 888.241 94.0861 774.383 29.5304L788.116 94.8767L787.855 95.2099L744.037 151.308L743.896 151.488L743.688 151.58L620.719 205.705L622.885 335.519L734.538 350.421L775.124 409.326L861.064 483.837L955.411 461.126Z" fill="white"/>
</mask>
<g mask="url(#mask1_27_87)">
<g filter="url(#filter2_f_27_87)">
<circle cx="953.577" cy="434.933" r="86.4407" fill="#D2BCFF"/>
</g>
<g filter="url(#filter3_b_27_87)">
<path d="M954.833 461.265C955.189 461.18 955.47 460.906 955.564 460.552C964.43 427.187 968.887 392.054 968.282 355.827C965.954 216.282 889.116 95.458 776.308 30.6296C775.562 30.2006 774.661 30.8562 774.839 31.6989L788.029 94.4625C788.084 94.7251 788.02 94.9986 787.855 95.2099V95.2099L744.037 151.308V151.308C743.945 151.426 743.825 151.52 743.688 151.58V151.58L621.327 205.437C620.958 205.6 620.723 205.967 620.73 206.369L622.87 334.658C622.878 335.153 623.247 335.567 623.738 335.633L734.099 350.362C734.379 350.4 734.63 350.554 734.79 350.786L775.052 409.221C775.1 409.291 775.156 409.354 775.22 409.41L860.675 483.5C860.919 483.712 861.25 483.792 861.564 483.717L954.833 461.265Z" fill="url(#paint2_linear_27_87)" fill-opacity="0.8"/>
<path d="M967.782 355.836C968.386 392.016 963.935 427.102 955.081 460.423C955.034 460.6 954.894 460.736 954.716 460.779L861.447 483.231C861.29 483.268 861.124 483.228 861.002 483.122L775.547 409.032C775.516 409.004 775.487 408.972 775.463 408.938L735.202 350.502C734.961 350.154 734.585 349.923 734.165 349.867L623.804 335.137C623.559 335.104 623.374 334.897 623.37 334.65L621.23 206.361C621.226 206.16 621.344 205.976 621.528 205.895L743.89 152.038L743.688 151.58L743.891 152.037C744.103 151.943 744.289 151.798 744.431 151.616L744.041 151.311L744.431 151.616L788.248 95.5182C788.505 95.1908 788.603 94.7667 788.518 94.3596L775.328 31.596C775.239 31.1746 775.688 30.85 776.059 31.0631C888.721 95.8075 965.457 216.474 967.782 355.836Z" stroke="url(#paint3_linear_27_87)"/>
</g>
</g>
<mask id="mask2_27_87" style="mask-type:alpha" maskUnits="userSpaceOnUse" x="2" y="412" width="230" height="294">
<path d="M2.68278 452.312C20.7772 558.946 81.7492 648.16 165.27 704.707L166.413 679.447L166.429 679.09L166.684 678.84L222.712 623.768L229.998 471.644L151.022 414.198L2.68278 452.312Z" fill="url(#paint4_linear_27_87)"/>
<path d="M166.11 678.765L165.982 678.891L165.974 679.07L165.959 679.427L165.959 679.428L164.852 703.874C81.8831 647.444 21.3125 558.686 3.20155 452.648L150.928 414.691L229.532 471.867L222.266 623.568L166.365 678.515L166.365 678.515L166.11 678.765Z" stroke="white" stroke-opacity="0.49" stroke-width="0.909902"/>
</mask>
<g mask="url(#mask2_27_87)">
<g filter="url(#filter4_f_27_87)">
<circle cx="9.55415" cy="621.008" r="103.274" fill="#FFA0FB"/>
</g>
<g filter="url(#filter5_f_27_87)">
<circle cx="118.742" cy="424.469" r="50.4996" fill="#7350FF"/>
</g>
<g filter="url(#filter6_b_27_87)">
<path d="M2.68278 452.312C20.7772 558.946 81.7492 648.16 165.27 704.707L166.413 679.447L166.429 679.09L166.684 678.84L222.712 623.768L229.998 471.644L151.022 414.198L2.68278 452.312Z" fill="url(#paint5_linear_27_87)" fill-opacity="0.8"/>
<path d="M166.684 678.84L166.681 678.837L166.684 678.84ZM166.684 678.84L166.429 679.09L166.413 679.447L166.684 678.84ZM165.792 678.44L165.535 678.692L165.519 679.051L165.504 679.406L165.504 679.408L164.435 703.038C82.0169 646.727 21.8473 558.426 3.72076 452.984L150.833 415.185L229.066 472.091L221.82 623.369L166.047 678.19L166.046 678.191L165.792 678.44Z" stroke="url(#paint6_linear_27_87)" stroke-opacity="0.8" stroke-width="1.8198"/>
</g>
</g>
<mask id="mask3_27_87" style="mask-type:alpha" maskUnits="userSpaceOnUse" x="103" y="0" width="588" height="481">
<path d="M677.527 51.4512C621.19 18.7347 555.726 0 485.888 0C274.828 0 103.729 171.098 103.729 382.159C103.729 384.975 103.759 387.784 103.82 390.585L256.752 373.735L327.652 442.57L430.556 480.961L521.216 356.949V225.051L521.772 224.817L645.974 172.605L690.31 117.753L677.527 51.4512Z" fill="white"/>
</mask>
<g mask="url(#mask3_27_87)">
<g filter="url(#filter7_f_27_87)">
<ellipse cx="159.056" cy="245.468" rx="167.877" ry="166.967" fill="#BAB4FF"/>
</g>
<g filter="url(#filter8_b_27_87)">
<path d="M677.613 51.8981C677.558 51.6142 677.384 51.3679 677.133 51.223C620.885 18.6476 555.564 0 485.888 0C274.828 0 103.729 171.098 103.729 382.159C103.729 384.609 103.752 387.054 103.798 389.493C103.809 390.08 104.322 390.53 104.905 390.466L256.284 373.787C256.581 373.754 256.876 373.855 257.09 374.063L327.501 442.424C327.601 442.521 327.719 442.595 327.849 442.644L429.846 480.697C430.266 480.853 430.739 480.712 431.003 480.35L521.023 357.213C521.148 357.041 521.216 356.835 521.216 356.622V225.655C521.216 225.289 521.435 224.959 521.772 224.817V224.817L645.742 172.703C645.894 172.639 646.028 172.538 646.132 172.409L690.018 118.115C690.203 117.886 690.278 117.586 690.222 117.297L677.613 51.8981Z" fill="url(#paint7_linear_27_87)" fill-opacity="0.8"/>
<path d="M485.888 0.5C555.473 0.5 620.708 19.1232 676.883 51.6557C677.008 51.7278 677.095 51.8506 677.122 51.9928L689.731 117.391C689.759 117.536 689.722 117.686 689.629 117.8L645.743 172.095C645.691 172.159 645.624 172.21 645.548 172.242L521.578 224.356L521.772 224.817L521.578 224.356C521.055 224.576 520.716 225.088 520.716 225.655V356.622C520.716 356.729 520.682 356.832 520.619 356.918L430.6 480.055C430.467 480.236 430.231 480.306 430.021 480.228L328.023 442.175C327.958 442.151 327.899 442.114 327.85 442.066L257.439 373.704C257.118 373.393 256.674 373.241 256.23 373.29L104.851 389.969C104.558 390.001 104.303 389.776 104.298 389.484C104.252 387.048 104.229 384.606 104.229 382.159C104.229 171.374 275.104 0.5 485.888 0.5Z" stroke="url(#paint8_linear_27_87)"/>
</g>
</g>
<mask id="mask4_27_87" style="mask-type:alpha" maskUnits="userSpaceOnUse" x="302" y="351" width="527" height="444">
<path d="M302.229 737.442C379.488 785.341 474.013 806.007 570.549 788.801C665.833 771.819 746.532 720.89 802.413 650.682L828.361 605.829L764.536 545.141L792.947 490.296L696.335 430.451L696.098 430.305L695.985 430.052L660.52 351.456L535.468 382.387L467.384 521.589L466.707 521.464L358.857 501.76L356.843 653.817L356.837 654.172L356.593 654.431L302.506 711.407L302.229 737.442Z" fill="white"/>
</mask>
<g mask="url(#mask4_27_87)">
<g filter="url(#filter9_f_27_87)">
<circle cx="303.452" cy="676.512" r="113.283" fill="#8247FF"/>
</g>
<g filter="url(#filter10_b_27_87)">
<path d="M302.235 736.878C302.231 737.228 302.41 737.554 302.708 737.738C379.879 785.426 474.212 805.972 570.549 788.801C665.807 771.824 746.488 720.918 802.366 650.74C802.397 650.701 802.425 650.66 802.45 650.618L827.966 606.511C828.198 606.111 828.125 605.605 827.79 605.286L765.08 545.659C764.758 545.352 764.677 544.869 764.881 544.474L792.521 491.119C792.762 490.655 792.604 490.084 792.16 489.809L696.335 430.451V430.451C696.181 430.356 696.059 430.217 695.985 430.052V430.052L660.863 352.216C660.664 351.776 660.18 351.54 659.711 351.656L535.921 382.275C535.634 382.346 535.393 382.54 535.263 382.806L467.687 520.97C467.508 521.336 467.108 521.538 466.707 521.464V521.464L360.021 501.973C359.412 501.862 358.849 502.324 358.841 502.943L356.843 653.817V653.817C356.839 654.045 356.75 654.264 356.593 654.431V654.431L302.776 711.122C302.603 711.305 302.504 711.548 302.502 711.8L302.235 736.878Z" fill="url(#paint9_linear_27_87)" fill-opacity="0.8"/>
<path d="M570.462 788.309C474.25 805.457 380.041 784.938 302.971 737.313C302.823 737.221 302.733 737.059 302.735 736.884L303.002 711.805C303.003 711.679 303.052 711.558 303.139 711.466L356.956 654.775L356.593 654.431L356.956 654.774C357.199 654.517 357.337 654.178 357.343 653.824L356.843 653.817L357.343 653.823L359.341 502.95C359.345 502.64 359.627 502.409 359.931 502.465L466.616 521.956C467.238 522.07 467.859 521.757 468.136 521.19L535.712 383.026C535.777 382.893 535.897 382.796 536.041 382.76L659.831 352.142C660.065 352.084 660.308 352.201 660.407 352.421L695.528 430.257C695.644 430.513 695.834 430.729 696.073 430.876C696.073 430.876 696.073 430.877 696.074 430.877L791.897 490.234C792.119 490.371 792.197 490.657 792.077 490.889L764.437 544.244C764.13 544.837 764.252 545.561 764.736 546.021L827.445 605.648C827.613 605.808 827.649 606.061 827.533 606.261L802.017 650.367C802.004 650.389 801.991 650.409 801.975 650.428C746.169 720.515 665.595 771.354 570.462 788.309Z" stroke="url(#paint10_linear_27_87)"/>
</g>
</g>
<defs>
<filter id="filter0_f_27_87" x="846.444" y="389.11" width="349.402" height="349.402" filterUnits="userSpaceOnUse" color-interpolation-filters="sRGB">
<feFlood flood-opacity="0" result="BackgroundImageFix"/>
<feBlend mode="normal" in="SourceGraphic" in2="BackgroundImageFix" result="shape"/>
<feGaussianBlur stdDeviation="45.4951" result="effect1_foregroundBlur_27_87"/>
</filter>
<filter id="filter1_b_27_87" x="714.459" y="370.138" width="510.927" height="480.315" filterUnits="userSpaceOnUse" color-interpolation-filters="sRGB">
<feFlood flood-opacity="0" result="BackgroundImageFix"/>
<feGaussianBlur in="BackgroundImageFix" stdDeviation="90.9902"/>
<feComposite in2="SourceAlpha" operator="in" result="effect1_backgroundBlur_27_87"/>
<feBlend mode="normal" in="SourceGraphic" in2="effect1_backgroundBlur_27_87" result="shape"/>
</filter>
<filter id="filter2_f_27_87" x="776.146" y="257.502" width="354.862" height="354.862" filterUnits="userSpaceOnUse" color-interpolation-filters="sRGB">
<feFlood flood-opacity="0" result="BackgroundImageFix"/>
<feBlend mode="normal" in="SourceGraphic" in2="BackgroundImageFix" result="shape"/>
<feGaussianBlur stdDeviation="45.4951" result="effect1_foregroundBlur_27_87"/>
</filter>
<filter id="filter3_b_27_87" x="438.749" y="-151.486" width="711.568" height="817.211" filterUnits="userSpaceOnUse" color-interpolation-filters="sRGB">
<feFlood flood-opacity="0" result="BackgroundImageFix"/>
<feGaussianBlur in="BackgroundImageFix" stdDeviation="90.9902"/>
<feComposite in2="SourceAlpha" operator="in" result="effect1_backgroundBlur_27_87"/>
<feBlend mode="normal" in="SourceGraphic" in2="effect1_backgroundBlur_27_87" result="shape"/>
</filter>
<filter id="filter4_f_27_87" x="-184.71" y="426.744" width="388.528" height="388.528" filterUnits="userSpaceOnUse" color-interpolation-filters="sRGB">
<feFlood flood-opacity="0" result="BackgroundImageFix"/>
<feBlend mode="normal" in="SourceGraphic" in2="BackgroundImageFix" result="shape"/>
<feGaussianBlur stdDeviation="45.4951" result="effect1_foregroundBlur_27_87"/>
</filter>
<filter id="filter5_f_27_87" x="-22.748" y="282.98" width="282.979" height="282.979" filterUnits="userSpaceOnUse" color-interpolation-filters="sRGB">
<feFlood flood-opacity="0" result="BackgroundImageFix"/>
<feBlend mode="normal" in="SourceGraphic" in2="BackgroundImageFix" result="shape"/>
<feGaussianBlur stdDeviation="45.4951" result="effect1_foregroundBlur_27_87"/>
</filter>
<filter id="filter6_b_27_87" x="-179.6" y="230.241" width="593.369" height="657.636" filterUnits="userSpaceOnUse" color-interpolation-filters="sRGB">
<feFlood flood-opacity="0" result="BackgroundImageFix"/>
<feGaussianBlur in="BackgroundImageFix" stdDeviation="90.9902"/>
<feComposite in2="SourceAlpha" operator="in" result="effect1_backgroundBlur_27_87"/>
<feBlend mode="normal" in="SourceGraphic" in2="effect1_backgroundBlur_27_87" result="shape"/>
</filter>
<filter id="filter7_f_27_87" x="-99.811" y="-12.4895" width="517.734" height="515.914" filterUnits="userSpaceOnUse" color-interpolation-filters="sRGB">
<feFlood flood-opacity="0" result="BackgroundImageFix"/>
<feBlend mode="normal" in="SourceGraphic" in2="BackgroundImageFix" result="shape"/>
<feGaussianBlur stdDeviation="45.4951" result="effect1_foregroundBlur_27_87"/>
</filter>
<filter id="filter8_b_27_87" x="-78.2514" y="-181.98" width="950.472" height="844.721" filterUnits="userSpaceOnUse" color-interpolation-filters="sRGB">
<feFlood flood-opacity="0" result="BackgroundImageFix"/>
<feGaussianBlur in="BackgroundImageFix" stdDeviation="90.9902"/>
<feComposite in2="SourceAlpha" operator="in" result="effect1_backgroundBlur_27_87"/>
<feBlend mode="normal" in="SourceGraphic" in2="effect1_backgroundBlur_27_87" result="shape"/>
</filter>
<filter id="filter9_f_27_87" x="99.1792" y="472.239" width="408.546" height="408.546" filterUnits="userSpaceOnUse" color-interpolation-filters="sRGB">
<feFlood flood-opacity="0" result="BackgroundImageFix"/>
<feBlend mode="normal" in="SourceGraphic" in2="BackgroundImageFix" result="shape"/>
<feGaussianBlur stdDeviation="45.4951" result="effect1_foregroundBlur_27_87"/>
</filter>
<filter id="filter10_b_27_87" x="120.254" y="169.647" width="889.827" height="807.129" filterUnits="userSpaceOnUse" color-interpolation-filters="sRGB">
<feFlood flood-opacity="0" result="BackgroundImageFix"/>
<feGaussianBlur in="BackgroundImageFix" stdDeviation="90.9902"/>
<feComposite in2="SourceAlpha" operator="in" result="effect1_backgroundBlur_27_87"/>
<feBlend mode="normal" in="SourceGraphic" in2="effect1_backgroundBlur_27_87" result="shape"/>
</filter>
<linearGradient id="paint0_linear_27_87" x1="969.022" y1="577.575" x2="1009.42" y2="670.294" gradientUnits="userSpaceOnUse">
<stop stop-color="white"/>
<stop offset="1" stop-color="#EEC9FF" stop-opacity="0.79"/>
</linearGradient>
<linearGradient id="paint1_linear_27_87" x1="944.735" y1="557.107" x2="971.332" y2="661.694" gradientUnits="userSpaceOnUse">
<stop offset="0.607186" stop-color="#FBF8FE"/>
<stop offset="1" stop-color="white"/>
</linearGradient>
<linearGradient id="paint2_linear_27_87" x1="790.428" y1="145.323" x2="1026.2" y2="310.346" gradientUnits="userSpaceOnUse">
<stop stop-color="white"/>
<stop offset="1" stop-color="#EEC9FF" stop-opacity="0.79"/>
</linearGradient>
<linearGradient id="paint3_linear_27_87" x1="709.208" y1="120.11" x2="936.587" y2="340.881" gradientUnits="userSpaceOnUse">
<stop offset="0.607186" stop-color="#FBF8FE"/>
<stop offset="1" stop-color="white"/>
</linearGradient>
<linearGradient id="paint4_linear_27_87" x1="110.889" y1="418.003" x2="152.278" y2="708.003" gradientUnits="userSpaceOnUse">
<stop stop-color="white"/>
<stop offset="1" stop-color="#FFD8F2" stop-opacity="0.79"/>
</linearGradient>
<linearGradient id="paint5_linear_27_87" x1="190.17" y1="433.113" x2="53.6842" y2="620.553" gradientUnits="userSpaceOnUse">
<stop stop-color="white"/>
<stop offset="1" stop-color="#F0E1FF" stop-opacity="0.79"/>
</linearGradient>
<linearGradient id="paint6_linear_27_87" x1="328.475" y1="467.69" x2="37.306" y2="587.797" gradientUnits="userSpaceOnUse">
<stop stop-color="white"/>
<stop offset="1" stop-color="white" stop-opacity="0"/>
</linearGradient>
<linearGradient id="paint7_linear_27_87" x1="393.938" y1="122.48" x2="649.566" y2="421.057" gradientUnits="userSpaceOnUse">
<stop stop-color="white"/>
<stop offset="1" stop-color="#EEC9FF" stop-opacity="0.79"/>
</linearGradient>
<linearGradient id="paint8_linear_27_87" x1="256.583" y1="94.4423" x2="467.785" y2="435.978" gradientUnits="userSpaceOnUse">
<stop offset="0.607186" stop-color="#FBF8FE"/>
<stop offset="1" stop-color="white"/>
</linearGradient>
<linearGradient id="paint9_linear_27_87" x1="528.653" y1="482.248" x2="790.695" y2="711.8" gradientUnits="userSpaceOnUse">
<stop stop-color="white"/>
<stop offset="1" stop-color="#EEC9FF" stop-opacity="0.79"/>
</linearGradient>
<linearGradient id="paint10_linear_27_87" x1="399.679" y1="480.675" x2="626.919" y2="750.146" gradientUnits="userSpaceOnUse">
<stop offset="0.607186" stop-color="#FBF8FE"/>
<stop offset="1" stop-color="white"/>
</linearGradient>
</defs>
</svg>
