<svg width="23" height="17" viewBox="0 0 23 17" fill="none" xmlns="http://www.w3.org/2000/svg">
<path d="M16.3988 16.1817C16.3988 16.1817 15.7173 15.3678 15.1495 14.6485C17.6292 13.9481 18.5756 12.3959 18.5756 12.3959C17.7995 12.907 17.0613 13.2667 16.3988 13.5127C15.4523 13.9102 14.5437 14.1752 13.6541 14.3267C11.8369 14.6674 10.1712 14.5728 8.75148 14.3077C7.67253 14.0995 6.74502 13.7967 5.96893 13.4938C5.53357 13.3234 5.06034 13.1152 4.58712 12.8502C4.53033 12.8124 4.47355 12.7934 4.41676 12.7556C4.3789 12.7366 4.35997 12.7177 4.34104 12.6988C4.00032 12.5095 3.81103 12.377 3.81103 12.377C3.81103 12.377 4.71962 13.8913 7.1236 14.6106C6.55573 15.3299 5.85536 16.1817 5.85536 16.1817C1.67206 16.0492 0.0820312 13.3045 0.0820312 13.3045C0.0820312 7.2094 2.8078 2.26895 2.8078 2.26895C5.53357 0.224621 8.12683 0.281407 8.12683 0.281407L8.31612 0.508555C4.90891 1.49286 3.33781 2.98825 3.33781 2.98825C3.33781 2.98825 3.75425 2.7611 4.45462 2.43931C6.48001 1.54965 8.08897 1.30357 8.75148 1.24678C8.86506 1.22785 8.9597 1.20893 9.07328 1.20893C10.2279 1.05749 11.534 1.01964 12.8969 1.17107C14.6952 1.37929 16.6259 1.9093 18.5945 2.98825C18.5945 2.98825 17.0991 1.56857 13.8812 0.58427L14.1462 0.281407C14.1462 0.281407 16.7395 0.224621 19.4653 2.26895C19.4653 2.26895 22.191 7.2094 22.191 13.3045C22.191 13.3045 20.5821 16.0492 16.3988 16.1817Z" fill="white"/>
<path d="M7.59384 7.34473C6.51489 7.34473 5.66309 8.29117 5.66309 9.44584C5.66309 10.6005 6.53382 11.5469 7.59384 11.5469C8.67279 11.5469 9.52459 10.6005 9.52459 9.44584C9.54352 8.29117 8.67279 7.34473 7.59384 7.34473ZM14.5029 7.34473C13.424 7.34473 12.5721 8.29117 12.5721 9.44584C12.5721 10.6005 13.4429 11.5469 14.5029 11.5469C15.5818 11.5469 16.4337 10.6005 16.4337 9.44584C16.4337 8.29117 15.5818 7.34473 14.5029 7.34473Z" fill="#7268FF"/>
</svg>
