<svg width="17" height="14" viewBox="0 0 17 14" fill="none" xmlns="http://www.w3.org/2000/svg">
<path d="M2.26994 2.90856C2.26994 2.7021 2.16671 2.49564 2.06348 2.39241L0.515051 0.534295V0.224609H5.26357L8.97981 8.37968L12.2831 0.224609H16.8252V0.534295L15.4832 1.77304C15.38 1.87627 15.2768 1.9795 15.38 2.18596V11.4765C15.38 11.5798 15.38 11.7862 15.4832 11.8895L16.722 13.1282V13.4379H10.2186V13.1282L11.5605 11.7862C11.6638 11.683 11.6638 11.5798 11.6638 11.3733V3.83762L7.94752 13.2314H7.53461L3.199 3.83762V10.1346C3.199 10.4443 3.30223 10.6507 3.40546 10.8572L5.16035 12.9217V13.2314H0.308594V12.9217L2.06348 10.8572C2.26994 10.6507 2.37317 10.4443 2.26994 10.1346V2.90856Z" fill="white"/>
</svg>
