<svg width="22" height="18" viewBox="0 0 22 18" fill="none" xmlns="http://www.w3.org/2000/svg">
<path fill-rule="evenodd" clip-rule="evenodd" d="M2.09042 7.64302C7.62956 5.22971 11.3232 3.6387 13.1713 2.87001C18.4481 0.67523 19.5445 0.293974 20.2592 0.281384C20.4164 0.278615 20.7678 0.31757 20.9955 0.502295C21.1877 0.658273 21.2406 0.868977 21.2659 1.01686C21.2912 1.16475 21.3227 1.50163 21.2977 1.76486C21.0117 4.76935 19.7744 12.0604 19.1449 15.4255C18.8786 16.8494 18.3541 17.3268 17.8464 17.3735C16.743 17.4751 15.9051 16.6443 14.8364 15.9438C13.1641 14.8475 12.2193 14.1651 10.596 13.0954C8.72006 11.8592 9.93618 11.1797 11.0053 10.0693C11.2851 9.77869 16.1468 5.35662 16.2409 4.95547C16.2526 4.9053 16.2636 4.71829 16.1525 4.61954C16.0414 4.52079 15.8774 4.55456 15.759 4.58142C15.5913 4.61948 12.9198 6.38528 7.74437 9.87882C6.98605 10.3995 6.2992 10.6532 5.68379 10.6399C5.00537 10.6253 3.70034 10.2564 2.73019 9.94099C1.54026 9.55419 0.594522 9.34969 0.676874 8.69279C0.719768 8.35063 1.19095 8.00071 2.09042 7.64302Z" fill="white"/>
</svg>
