<svg width="24" height="20" viewBox="0 0 24 20" fill="none" xmlns="http://www.w3.org/2000/svg">
<path d="M8.00712 19.1901C16.696 19.1901 21.4498 11.9897 21.4498 5.74745C21.4498 5.54503 21.4453 5.3381 21.4363 5.13568C22.3611 4.46691 23.1591 3.63855 23.793 2.68951C22.9317 3.0727 22.0173 3.32295 21.0809 3.43173C22.0669 2.84076 22.8051 1.91237 23.1587 0.818672C22.2312 1.36834 21.2169 1.75609 20.1593 1.96529C19.4466 1.20809 18.5044 0.70673 17.4783 0.538731C16.4521 0.370732 15.3992 0.545448 14.4823 1.03587C13.5655 1.52628 12.8357 2.30509 12.4058 3.25187C11.9759 4.19865 11.8699 5.26068 12.1042 6.27375C10.2261 6.17951 8.38884 5.69164 6.71144 4.84178C5.03404 3.99192 3.55396 2.79904 2.36716 1.34047C1.76396 2.38046 1.57938 3.61109 1.85093 4.78228C2.12249 5.95346 2.82979 6.97731 3.8291 7.64573C3.07888 7.62191 2.34509 7.41992 1.68837 7.05645V7.11493C1.68769 8.20631 2.065 9.26425 2.75614 10.1089C3.44728 10.9536 4.4096 11.5328 5.47953 11.7482C4.78456 11.9383 4.05517 11.966 3.34779 11.8291C3.6497 12.7677 4.23711 13.5887 5.02804 14.1773C5.81897 14.766 6.77395 15.0931 7.75971 15.1129C6.08618 16.4275 4.01889 17.1405 1.89079 17.1371C1.51339 17.1365 1.13636 17.1134 0.761719 17.0679C2.92364 18.4548 5.43853 19.1915 8.00712 19.1901Z" fill="white"/>
</svg>
